solid OpenSCAD_Model
  facet normal 1 -0 0
    outer loop
      vertex 19.8 -38.5 15
      vertex 19.8 38.5 0
      vertex 19.8 38.5 15
    endloop
  endfacet
  facet normal 1 0 0
    outer loop
      vertex 19.8 38.5 0
      vertex 19.8 -38.5 15
      vertex 19.8 -38.5 0
    endloop
  endfacet
  facet normal -0 0 1
    outer loop
      vertex -19.8 38.5 15
      vertex 19.8 -38.5 15
      vertex 19.8 38.5 15
    endloop
  endfacet
  facet normal 0 0 1
    outer loop
      vertex 19.8 -38.5 15
      vertex -19.8 38.5 15
      vertex -19.8 -38.5 15
    endloop
  endfacet
  facet normal 0 0 -1
    outer loop
      vertex -19.8 -38.5 0
      vertex -12.84 38.5 0
      vertex -12.84 -38.5 0
    endloop
  endfacet
  facet normal -0 0 -1
    outer loop
      vertex -12.84 38.5 0
      vertex -19.8 -38.5 0
      vertex -19.8 38.5 0
    endloop
  endfacet
  facet normal 0 0 -1
    outer loop
      vertex -12.84 -38.5 0
      vertex -6.44 -38.5 0
      vertex -6.44 -43.1 0
    endloop
  endfacet
  facet normal 0 0 -1
    outer loop
      vertex -6.44 -38.5 0
      vertex -12.84 -38.5 0
      vertex -6.44 38.5 0
    endloop
  endfacet
  facet normal 0 0 -1
    outer loop
      vertex -12.84 -38.5 0
      vertex -6.44 -43.1 0
      vertex -12.84 -43.1 0
    endloop
  endfacet
  facet normal 0 0 -1
    outer loop
      vertex -12.84 38.5 0
      vertex -6.44 38.5 0
      vertex -12.84 -38.5 0
    endloop
  endfacet
  facet normal 0 0 -1
    outer loop
      vertex -6.44 38.5 0
      vertex -12.84 38.5 0
      vertex -6.44 43.1 0
    endloop
  endfacet
  facet normal -0 0 -1
    outer loop
      vertex -6.44 43.1 0
      vertex -12.84 38.5 0
      vertex -12.84 43.1 0
    endloop
  endfacet
  facet normal 0 0 -1
    outer loop
      vertex -6.44 -38.5 0
      vertex 6.44 38.5 0
      vertex 6.44 -38.5 0
    endloop
  endfacet
  facet normal -0 0 -1
    outer loop
      vertex 6.44 38.5 0
      vertex -6.44 -38.5 0
      vertex -6.44 38.5 0
    endloop
  endfacet
  facet normal 0 0 -1
    outer loop
      vertex 6.44 -38.5 0
      vertex 12.84 -38.5 0
      vertex 12.84 -43.1 0
    endloop
  endfacet
  facet normal 0 0 -1
    outer loop
      vertex 12.84 -38.5 0
      vertex 6.44 -38.5 0
      vertex 12.84 38.5 0
    endloop
  endfacet
  facet normal 0 0 -1
    outer loop
      vertex 6.44 -38.5 0
      vertex 12.84 -43.1 0
      vertex 6.44 -43.1 0
    endloop
  endfacet
  facet normal 0 0 -1
    outer loop
      vertex 6.44 38.5 0
      vertex 12.84 38.5 0
      vertex 6.44 -38.5 0
    endloop
  endfacet
  facet normal 0 0 -1
    outer loop
      vertex 12.84 38.5 0
      vertex 6.44 38.5 0
      vertex 12.84 43.1 0
    endloop
  endfacet
  facet normal -0 0 -1
    outer loop
      vertex 12.84 43.1 0
      vertex 6.44 38.5 0
      vertex 6.44 43.1 0
    endloop
  endfacet
  facet normal 0 0 -1
    outer loop
      vertex 12.84 -38.5 0
      vertex 19.8 38.5 0
      vertex 19.8 -38.5 0
    endloop
  endfacet
  facet normal -0 0 -1
    outer loop
      vertex 19.8 38.5 0
      vertex 12.84 -38.5 0
      vertex 12.84 38.5 0
    endloop
  endfacet
  facet normal -1 0 0
    outer loop
      vertex -19.8 -38.5 0
      vertex -19.8 38.5 15
      vertex -19.8 38.5 0
    endloop
  endfacet
  facet normal -1 -0 0
    outer loop
      vertex -19.8 38.5 15
      vertex -19.8 -38.5 0
      vertex -19.8 -38.5 15
    endloop
  endfacet
  facet normal 0 1 -0
    outer loop
      vertex 6.44 38.5 0
      vertex -6.44 38.5 0.349999
      vertex 6.44 38.5 0.349999
    endloop
  endfacet
  facet normal 0 1 0
    outer loop
      vertex -6.44 38.5 0.349999
      vertex 6.44 38.5 0
      vertex -6.44 38.5 0
    endloop
  endfacet
  facet normal 0 1 0
    outer loop
      vertex 6.44 38.5 0.349999
      vertex 19.8 38.5 15
      vertex 12.84 38.5 0.349999
    endloop
  endfacet
  facet normal 0 1 -0
    outer loop
      vertex 19.8 38.5 0
      vertex 12.84 38.5 0.349999
      vertex 19.8 38.5 15
    endloop
  endfacet
  facet normal 0 1 0
    outer loop
      vertex 12.84 38.5 0.349999
      vertex 19.8 38.5 0
      vertex 12.84 38.5 0
    endloop
  endfacet
  facet normal 0 1 0
    outer loop
      vertex 19.8 38.5 15
      vertex 6.44 38.5 0.349999
      vertex -19.8 38.5 15
    endloop
  endfacet
  facet normal 0 1 -0
    outer loop
      vertex -6.44 38.5 0.349999
      vertex -19.8 38.5 15
      vertex 6.44 38.5 0.349999
    endloop
  endfacet
  facet normal 0 1 -0
    outer loop
      vertex -12.84 38.5 0.349999
      vertex -19.8 38.5 15
      vertex -6.44 38.5 0.349999
    endloop
  endfacet
  facet normal 0 1 0
    outer loop
      vertex -19.8 38.5 0
      vertex -12.84 38.5 0.349999
      vertex -12.84 38.5 0
    endloop
  endfacet
  facet normal 0 1 0
    outer loop
      vertex -12.84 38.5 0.349999
      vertex -19.8 38.5 0
      vertex -19.8 38.5 15
    endloop
  endfacet
  facet normal 0 -1 0
    outer loop
      vertex -6.44 -38.5 0
      vertex 6.44 -38.5 0.349999
      vertex -6.44 -38.5 0.349999
    endloop
  endfacet
  facet normal 0 -1 -0
    outer loop
      vertex 6.44 -38.5 0.349999
      vertex -6.44 -38.5 0
      vertex 6.44 -38.5 0
    endloop
  endfacet
  facet normal 0 -1 0
    outer loop
      vertex -6.44 -38.5 0.349999
      vertex -19.8 -38.5 15
      vertex -12.84 -38.5 0.349999
    endloop
  endfacet
  facet normal 0 -1 0
    outer loop
      vertex -19.8 -38.5 0
      vertex -12.84 -38.5 0.349999
      vertex -19.8 -38.5 15
    endloop
  endfacet
  facet normal 0 -1 -0
    outer loop
      vertex -12.84 -38.5 0.349999
      vertex -19.8 -38.5 0
      vertex -12.84 -38.5 0
    endloop
  endfacet
  facet normal 0 -1 0
    outer loop
      vertex -19.8 -38.5 15
      vertex -6.44 -38.5 0.349999
      vertex 19.8 -38.5 15
    endloop
  endfacet
  facet normal 0 -1 0
    outer loop
      vertex 6.44 -38.5 0.349999
      vertex 19.8 -38.5 15
      vertex -6.44 -38.5 0.349999
    endloop
  endfacet
  facet normal 0 -1 0
    outer loop
      vertex 12.84 -38.5 0.349999
      vertex 19.8 -38.5 15
      vertex 6.44 -38.5 0.349999
    endloop
  endfacet
  facet normal 0 -1 0
    outer loop
      vertex 19.8 -38.5 0
      vertex 12.84 -38.5 0.349999
      vertex 12.84 -38.5 0
    endloop
  endfacet
  facet normal 0 -1 0
    outer loop
      vertex 12.84 -38.5 0.349999
      vertex 19.8 -38.5 0
      vertex 19.8 -38.5 15
    endloop
  endfacet
  facet normal 1 -0 0
    outer loop
      vertex 12.84 38.5 0.349999
      vertex 12.84 43.1 0
      vertex 12.84 43.1 0.349999
    endloop
  endfacet
  facet normal 1 0 0
    outer loop
      vertex 12.84 43.1 0
      vertex 12.84 38.5 0.349999
      vertex 12.84 38.5 0
    endloop
  endfacet
  facet normal -0 0 1
    outer loop
      vertex 6.44 43.1 0.349999
      vertex 12.84 38.5 0.349999
      vertex 12.84 43.1 0.349999
    endloop
  endfacet
  facet normal 0 0 1
    outer loop
      vertex 12.84 38.5 0.349999
      vertex 6.44 43.1 0.349999
      vertex 6.44 38.5 0.349999
    endloop
  endfacet
  facet normal -1 0 0
    outer loop
      vertex 6.44 38.5 0
      vertex 6.44 43.1 0.349999
      vertex 6.44 43.1 0
    endloop
  endfacet
  facet normal -1 -0 0
    outer loop
      vertex 6.44 43.1 0.349999
      vertex 6.44 38.5 0
      vertex 6.44 38.5 0.349999
    endloop
  endfacet
  facet normal 0 1 -0
    outer loop
      vertex 12.84 43.1 0
      vertex 6.44 43.1 0.349999
      vertex 12.84 43.1 0.349999
    endloop
  endfacet
  facet normal 0 1 0
    outer loop
      vertex 6.44 43.1 0.349999
      vertex 12.84 43.1 0
      vertex 6.44 43.1 0
    endloop
  endfacet
  facet normal 1 -0 0
    outer loop
      vertex -6.44 38.5 0.349999
      vertex -6.44 43.1 0
      vertex -6.44 43.1 0.349999
    endloop
  endfacet
  facet normal 1 0 0
    outer loop
      vertex -6.44 43.1 0
      vertex -6.44 38.5 0.349999
      vertex -6.44 38.5 0
    endloop
  endfacet
  facet normal -0 0 1
    outer loop
      vertex -12.84 43.1 0.349999
      vertex -6.44 38.5 0.349999
      vertex -6.44 43.1 0.349999
    endloop
  endfacet
  facet normal 0 0 1
    outer loop
      vertex -6.44 38.5 0.349999
      vertex -12.84 43.1 0.349999
      vertex -12.84 38.5 0.349999
    endloop
  endfacet
  facet normal -1 0 0
    outer loop
      vertex -12.84 38.5 0
      vertex -12.84 43.1 0.349999
      vertex -12.84 43.1 0
    endloop
  endfacet
  facet normal -1 -0 0
    outer loop
      vertex -12.84 43.1 0.349999
      vertex -12.84 38.5 0
      vertex -12.84 38.5 0.349999
    endloop
  endfacet
  facet normal 0 1 -0
    outer loop
      vertex -6.44 43.1 0
      vertex -12.84 43.1 0.349999
      vertex -6.44 43.1 0.349999
    endloop
  endfacet
  facet normal 0 1 0
    outer loop
      vertex -12.84 43.1 0.349999
      vertex -6.44 43.1 0
      vertex -12.84 43.1 0
    endloop
  endfacet
  facet normal 1 -0 0
    outer loop
      vertex 12.84 -43.1 0.349999
      vertex 12.84 -38.5 0
      vertex 12.84 -38.5 0.349999
    endloop
  endfacet
  facet normal 1 0 0
    outer loop
      vertex 12.84 -38.5 0
      vertex 12.84 -43.1 0.349999
      vertex 12.84 -43.1 0
    endloop
  endfacet
  facet normal -0 0 1
    outer loop
      vertex 6.44 -38.5 0.349999
      vertex 12.84 -43.1 0.349999
      vertex 12.84 -38.5 0.349999
    endloop
  endfacet
  facet normal 0 0 1
    outer loop
      vertex 12.84 -43.1 0.349999
      vertex 6.44 -38.5 0.349999
      vertex 6.44 -43.1 0.349999
    endloop
  endfacet
  facet normal -1 0 0
    outer loop
      vertex 6.44 -43.1 0
      vertex 6.44 -38.5 0.349999
      vertex 6.44 -38.5 0
    endloop
  endfacet
  facet normal -1 -0 0
    outer loop
      vertex 6.44 -38.5 0.349999
      vertex 6.44 -43.1 0
      vertex 6.44 -43.1 0.349999
    endloop
  endfacet
  facet normal 0 -1 0
    outer loop
      vertex 6.44 -43.1 0
      vertex 12.84 -43.1 0.349999
      vertex 6.44 -43.1 0.349999
    endloop
  endfacet
  facet normal 0 -1 -0
    outer loop
      vertex 12.84 -43.1 0.349999
      vertex 6.44 -43.1 0
      vertex 12.84 -43.1 0
    endloop
  endfacet
  facet normal 1 -0 0
    outer loop
      vertex -6.44 -43.1 0.349999
      vertex -6.44 -38.5 0
      vertex -6.44 -38.5 0.349999
    endloop
  endfacet
  facet normal 1 0 0
    outer loop
      vertex -6.44 -38.5 0
      vertex -6.44 -43.1 0.349999
      vertex -6.44 -43.1 0
    endloop
  endfacet
  facet normal -0 0 1
    outer loop
      vertex -12.84 -38.5 0.349999
      vertex -6.44 -43.1 0.349999
      vertex -6.44 -38.5 0.349999
    endloop
  endfacet
  facet normal 0 0 1
    outer loop
      vertex -6.44 -43.1 0.349999
      vertex -12.84 -38.5 0.349999
      vertex -12.84 -43.1 0.349999
    endloop
  endfacet
  facet normal -1 0 0
    outer loop
      vertex -12.84 -43.1 0
      vertex -12.84 -38.5 0.349999
      vertex -12.84 -38.5 0
    endloop
  endfacet
  facet normal -1 -0 0
    outer loop
      vertex -12.84 -38.5 0.349999
      vertex -12.84 -43.1 0
      vertex -12.84 -43.1 0.349999
    endloop
  endfacet
  facet normal 0 -1 0
    outer loop
      vertex -12.84 -43.1 0
      vertex -6.44 -43.1 0.349999
      vertex -12.84 -43.1 0.349999
    endloop
  endfacet
  facet normal 0 -1 -0
    outer loop
      vertex -6.44 -43.1 0.349999
      vertex -12.84 -43.1 0
      vertex -6.44 -43.1 0
    endloop
  endfacet
endsolid OpenSCAD_Model
