G04*
G04 #@! TF.GenerationSoftware,Altium Limited,Altium Designer,20.1.10 (176)*
G04*
G04 Layer_Physical_Order=1*
G04 Layer_Color=255*
%FSLAX25Y25*%
%MOIN*%
G70*
G04*
G04 #@! TF.SameCoordinates,5521C82E-C4DF-45B8-AF43-17A550F81722*
G04*
G04*
G04 #@! TF.FilePolarity,Positive*
G04*
G01*
G75*
%ADD38C,0.11811*%
%ADD39R,0.03819X0.03425*%
%ADD40R,0.06693X0.04331*%
%ADD41R,0.09449X0.12992*%
%ADD42R,0.23898X0.23898*%
%ADD43R,0.07874X0.21654*%
%ADD44R,0.04724X0.09843*%
%ADD45R,0.04331X0.02559*%
G04:AMPARAMS|DCode=46|XSize=62.99mil|YSize=21.65mil|CornerRadius=5.74mil|HoleSize=0mil|Usage=FLASHONLY|Rotation=270.000|XOffset=0mil|YOffset=0mil|HoleType=Round|Shape=RoundedRectangle|*
%AMROUNDEDRECTD46*
21,1,0.06299,0.01018,0,0,270.0*
21,1,0.05152,0.02165,0,0,270.0*
1,1,0.01148,-0.00509,-0.02576*
1,1,0.01148,-0.00509,0.02576*
1,1,0.01148,0.00509,0.02576*
1,1,0.01148,0.00509,-0.02576*
%
%ADD46ROUNDEDRECTD46*%
G04:AMPARAMS|DCode=47|XSize=62.99mil|YSize=21.65mil|CornerRadius=5.74mil|HoleSize=0mil|Usage=FLASHONLY|Rotation=180.000|XOffset=0mil|YOffset=0mil|HoleType=Round|Shape=RoundedRectangle|*
%AMROUNDEDRECTD47*
21,1,0.06299,0.01018,0,0,180.0*
21,1,0.05152,0.02165,0,0,180.0*
1,1,0.01148,-0.02576,0.00509*
1,1,0.01148,0.02576,0.00509*
1,1,0.01148,0.02576,-0.00509*
1,1,0.01148,-0.02576,-0.00509*
%
%ADD47ROUNDEDRECTD47*%
%ADD48R,0.03425X0.03819*%
%ADD49R,0.04528X0.02362*%
%ADD50R,0.03800X0.03000*%
%ADD51R,0.03000X0.03800*%
%ADD52R,0.05118X0.06102*%
%ADD53R,0.06102X0.05118*%
%ADD54O,0.15748X0.07323*%
G04:AMPARAMS|DCode=55|XSize=73.23mil|YSize=157.48mil|CornerRadius=9.15mil|HoleSize=0mil|Usage=FLASHONLY|Rotation=270.000|XOffset=0mil|YOffset=0mil|HoleType=Round|Shape=RoundedRectangle|*
%AMROUNDEDRECTD55*
21,1,0.07323,0.13917,0,0,270.0*
21,1,0.05492,0.15748,0,0,270.0*
1,1,0.01831,-0.06959,-0.02746*
1,1,0.01831,-0.06959,0.02746*
1,1,0.01831,0.06959,0.02746*
1,1,0.01831,0.06959,-0.02746*
%
%ADD55ROUNDEDRECTD55*%
%ADD56C,0.05551*%
G04:AMPARAMS|DCode=57|XSize=78.74mil|YSize=39.37mil|CornerRadius=9.84mil|HoleSize=0mil|Usage=FLASHONLY|Rotation=180.000|XOffset=0mil|YOffset=0mil|HoleType=Round|Shape=RoundedRectangle|*
%AMROUNDEDRECTD57*
21,1,0.07874,0.01968,0,0,180.0*
21,1,0.05906,0.03937,0,0,180.0*
1,1,0.01968,-0.02953,0.00984*
1,1,0.01968,0.02953,0.00984*
1,1,0.01968,0.02953,-0.00984*
1,1,0.01968,-0.02953,-0.00984*
%
%ADD57ROUNDEDRECTD57*%
%ADD58O,0.15748X0.07500*%
D38*
X279000Y350929D02*
D03*
X221267Y350929D02*
D03*
D39*
X253000Y170571D02*
D03*
Y164429D02*
D03*
X308000Y188929D02*
D03*
Y195071D02*
D03*
X315000Y119571D02*
D03*
Y113429D02*
D03*
X306500D02*
D03*
Y119571D02*
D03*
X313000Y96429D02*
D03*
Y102571D02*
D03*
X315000Y129929D02*
D03*
Y136071D02*
D03*
X306500Y102571D02*
D03*
Y96429D02*
D03*
Y136071D02*
D03*
Y129929D02*
D03*
X313500Y85071D02*
D03*
Y78929D02*
D03*
X315000Y152571D02*
D03*
Y146429D02*
D03*
X306500Y78429D02*
D03*
Y84571D02*
D03*
X308000Y146429D02*
D03*
Y152571D02*
D03*
X239500Y164429D02*
D03*
Y170571D02*
D03*
X233000D02*
D03*
Y164429D02*
D03*
X308000Y181571D02*
D03*
Y175429D02*
D03*
X276500Y118929D02*
D03*
Y125071D02*
D03*
X246000Y170571D02*
D03*
Y164429D02*
D03*
D40*
X172500Y107815D02*
D03*
Y97185D02*
D03*
X350500Y199315D02*
D03*
Y188685D02*
D03*
X336500Y207185D02*
D03*
Y217815D02*
D03*
D41*
X145319Y121500D02*
D03*
X172681D02*
D03*
D42*
X270500Y44500D02*
D03*
X221957D02*
D03*
X319043D02*
D03*
D43*
X196000Y148201D02*
D03*
Y110799D02*
D03*
D44*
X406087Y223827D02*
D03*
X396244D02*
D03*
X386402D02*
D03*
X406087Y202173D02*
D03*
X396244D02*
D03*
X386402D02*
D03*
D45*
X354724Y208760D02*
D03*
Y212500D02*
D03*
Y216240D02*
D03*
X345276D02*
D03*
Y208760D02*
D03*
X331276Y198240D02*
D03*
Y194500D02*
D03*
Y190760D02*
D03*
X340724D02*
D03*
Y198240D02*
D03*
D46*
X231476Y152957D02*
D03*
X234626D02*
D03*
X237776D02*
D03*
X240925D02*
D03*
X244075D02*
D03*
X247224D02*
D03*
X250374D02*
D03*
X253524D02*
D03*
Y120043D02*
D03*
X250374D02*
D03*
X247224D02*
D03*
X244075D02*
D03*
X240925D02*
D03*
X237776D02*
D03*
X234626D02*
D03*
X231476D02*
D03*
D47*
X258957Y147524D02*
D03*
Y144374D02*
D03*
Y141224D02*
D03*
Y138075D02*
D03*
Y134925D02*
D03*
Y131776D02*
D03*
Y128626D02*
D03*
Y125476D02*
D03*
X226043D02*
D03*
Y128626D02*
D03*
Y131776D02*
D03*
Y134925D02*
D03*
Y138075D02*
D03*
Y141224D02*
D03*
Y144374D02*
D03*
Y147524D02*
D03*
D48*
X324571Y188000D02*
D03*
X318429D02*
D03*
X399315Y27000D02*
D03*
X393173D02*
D03*
X88929Y138500D02*
D03*
X95071D02*
D03*
X88929Y149000D02*
D03*
X95071D02*
D03*
X88929Y173500D02*
D03*
X95071D02*
D03*
X88929Y188500D02*
D03*
X95071D02*
D03*
X89000Y181000D02*
D03*
X95142D02*
D03*
D49*
X315571Y181740D02*
D03*
Y174260D02*
D03*
X324429Y178000D02*
D03*
D50*
X322500Y113400D02*
D03*
Y119600D02*
D03*
X319000Y102600D02*
D03*
Y96400D02*
D03*
X322500Y136100D02*
D03*
Y129900D02*
D03*
X320000Y78900D02*
D03*
Y85100D02*
D03*
X322000Y146400D02*
D03*
Y152600D02*
D03*
X324500Y193400D02*
D03*
Y199600D02*
D03*
X362000Y210900D02*
D03*
Y217100D02*
D03*
X211000Y130100D02*
D03*
Y123900D02*
D03*
Y105100D02*
D03*
Y98900D02*
D03*
D51*
X332900Y183000D02*
D03*
X339100D02*
D03*
X353100Y224000D02*
D03*
X346900D02*
D03*
X211900Y135000D02*
D03*
X218100D02*
D03*
X399344Y34000D02*
D03*
X393144D02*
D03*
D52*
X426756Y102488D02*
D03*
Y133787D02*
D03*
X444472Y102488D02*
D03*
Y133787D02*
D03*
X365732D02*
D03*
Y102488D02*
D03*
X348016Y133787D02*
D03*
Y102488D02*
D03*
D53*
X380594Y126996D02*
D03*
X411894D02*
D03*
X380594Y109280D02*
D03*
X411894D02*
D03*
Y69910D02*
D03*
X380594D02*
D03*
X411894Y87626D02*
D03*
X380594D02*
D03*
X411894Y148650D02*
D03*
X380594D02*
D03*
X411894Y166366D02*
D03*
X380594D02*
D03*
D54*
X75437Y163500D02*
D03*
Y173500D02*
D03*
Y183500D02*
D03*
Y193500D02*
D03*
Y203500D02*
D03*
Y213500D02*
D03*
Y153500D02*
D03*
Y143500D02*
D03*
Y133500D02*
D03*
Y83500D02*
D03*
Y93500D02*
D03*
Y103500D02*
D03*
Y113500D02*
D03*
Y123500D02*
D03*
Y73500D02*
D03*
Y63500D02*
D03*
Y53500D02*
D03*
Y43500D02*
D03*
Y33500D02*
D03*
Y23500D02*
D03*
X57563Y73500D02*
D03*
Y63500D02*
D03*
Y53500D02*
D03*
Y43500D02*
D03*
Y33500D02*
D03*
Y83500D02*
D03*
Y93500D02*
D03*
Y103500D02*
D03*
Y153500D02*
D03*
Y143500D02*
D03*
Y133500D02*
D03*
Y123500D02*
D03*
Y113500D02*
D03*
Y163500D02*
D03*
Y173500D02*
D03*
Y183500D02*
D03*
Y193500D02*
D03*
Y203500D02*
D03*
Y213500D02*
D03*
D55*
Y23500D02*
D03*
D56*
X326224Y16138D02*
D03*
X95910D02*
D03*
Y220862D02*
D03*
X326224D02*
D03*
D57*
X450441Y158327D02*
D03*
Y186673D02*
D03*
X436779D02*
D03*
Y158327D02*
D03*
D58*
X449311Y218000D02*
D03*
Y208000D02*
D03*
M02*
