G04*
G04 #@! TF.GenerationSoftware,Altium Limited,Altium Designer,20.1.11 (218)*
G04*
G04 Layer_Color=32896*
%FSLAX44Y44*%
%MOMM*%
G71*
G04*
G04 #@! TF.SameCoordinates,F64D855A-75B5-494C-AA47-8135A0461B61*
G04*
G04*
G04 #@! TF.FilePolarity,Positive*
G04*
G01*
G75*
%ADD11C,0.2500*%
%ADD12C,0.2000*%
%ADD13C,0.1270*%
%ADD14C,0.2540*%
%ADD17C,0.2032*%
%ADD41C,1.0000*%
%ADD76C,0.6000*%
%ADD77C,0.3048*%
%ADD78C,0.2000*%
G36*
X814580Y504640D02*
X814890Y504621D01*
X815181Y504567D01*
X815454Y504512D01*
X815710Y504439D01*
X815946Y504366D01*
X816165Y504275D01*
X816365Y504184D01*
X816547Y504093D01*
X816693Y504002D01*
X816820Y503929D01*
X816930Y503856D01*
X817021Y503802D01*
X817075Y503747D01*
X817112Y503729D01*
X817130Y503711D01*
X817312Y503529D01*
X817476Y503328D01*
X817640Y503110D01*
X817767Y502891D01*
X817986Y502454D01*
X818132Y502017D01*
X818186Y501817D01*
X818241Y501616D01*
X818277Y501452D01*
X818314Y501307D01*
X818332Y501179D01*
Y501088D01*
X818350Y501034D01*
Y501015D01*
X816766Y500852D01*
X816729Y501270D01*
X816656Y501635D01*
X816547Y501962D01*
X816420Y502217D01*
X816311Y502436D01*
X816201Y502582D01*
X816128Y502673D01*
X816092Y502709D01*
X815819Y502928D01*
X815527Y503092D01*
X815218Y503219D01*
X814945Y503292D01*
X814690Y503346D01*
X814471Y503365D01*
X814398Y503383D01*
X814289D01*
X813906Y503365D01*
X813560Y503292D01*
X813269Y503183D01*
X813014Y503073D01*
X812814Y502946D01*
X812686Y502855D01*
X812595Y502782D01*
X812559Y502746D01*
X812340Y502491D01*
X812176Y502236D01*
X812049Y501981D01*
X811976Y501726D01*
X811921Y501525D01*
X811903Y501343D01*
X811885Y501234D01*
Y501216D01*
Y501198D01*
X811921Y500870D01*
X811994Y500524D01*
X812122Y500214D01*
X812249Y499923D01*
X812395Y499686D01*
X812522Y499486D01*
X812559Y499413D01*
X812595Y499358D01*
X812632Y499340D01*
Y499322D01*
X812777Y499121D01*
X812960Y498921D01*
X813160Y498703D01*
X813378Y498484D01*
X813834Y498047D01*
X814289Y497610D01*
X814526Y497409D01*
X814726Y497227D01*
X814926Y497063D01*
X815090Y496918D01*
X815218Y496809D01*
X815327Y496717D01*
X815400Y496663D01*
X815418Y496645D01*
X815873Y496262D01*
X816292Y495898D01*
X816638Y495570D01*
X816911Y495297D01*
X817148Y495060D01*
X817312Y494896D01*
X817403Y494787D01*
X817440Y494769D01*
Y494751D01*
X817695Y494441D01*
X817895Y494150D01*
X818077Y493858D01*
X818223Y493603D01*
X818332Y493385D01*
X818405Y493221D01*
X818441Y493111D01*
X818459Y493093D01*
Y493075D01*
X818532Y492875D01*
X818569Y492693D01*
X818605Y492510D01*
X818623Y492347D01*
X818642Y492201D01*
Y492092D01*
Y492019D01*
Y492001D01*
X810282D01*
Y493494D01*
X816493D01*
X816274Y493803D01*
X816165Y493931D01*
X816074Y494058D01*
X815983Y494168D01*
X815910Y494241D01*
X815855Y494295D01*
X815837Y494313D01*
X815746Y494404D01*
X815637Y494496D01*
X815382Y494732D01*
X815090Y495005D01*
X814781Y495279D01*
X814489Y495515D01*
X814362Y495625D01*
X814252Y495734D01*
X814162Y495807D01*
X814089Y495861D01*
X814052Y495898D01*
X814034Y495916D01*
X813743Y496171D01*
X813451Y496408D01*
X813196Y496645D01*
X812960Y496845D01*
X812741Y497045D01*
X812559Y497227D01*
X812377Y497391D01*
X812231Y497537D01*
X812085Y497683D01*
X811976Y497792D01*
X811885Y497883D01*
X811794Y497974D01*
X811703Y498083D01*
X811666Y498120D01*
X811412Y498429D01*
X811193Y498703D01*
X811011Y498976D01*
X810865Y499194D01*
X810756Y499394D01*
X810683Y499540D01*
X810647Y499631D01*
X810628Y499668D01*
X810519Y499941D01*
X810446Y500214D01*
X810373Y500469D01*
X810337Y500688D01*
X810319Y500888D01*
X810301Y501034D01*
Y501125D01*
Y501161D01*
X810319Y501434D01*
X810355Y501689D01*
X810392Y501944D01*
X810464Y502163D01*
X810647Y502600D01*
X810829Y502946D01*
X810938Y503110D01*
X811029Y503237D01*
X811120Y503365D01*
X811211Y503456D01*
X811284Y503529D01*
X811320Y503601D01*
X811357Y503620D01*
X811375Y503638D01*
X811575Y503820D01*
X811794Y503984D01*
X812031Y504111D01*
X812267Y504221D01*
X812741Y504403D01*
X813214Y504530D01*
X813415Y504567D01*
X813615Y504603D01*
X813797Y504621D01*
X813943Y504640D01*
X814070Y504658D01*
X814252D01*
X814580Y504640D01*
D02*
G37*
G36*
X815200Y460147D02*
X815400Y459856D01*
X815637Y459564D01*
X815855Y459309D01*
X816074Y459091D01*
X816238Y458909D01*
X816311Y458854D01*
X816365Y458799D01*
X816383Y458781D01*
X816402Y458763D01*
X816784Y458453D01*
X817166Y458162D01*
X817531Y457907D01*
X817895Y457707D01*
X818204Y457525D01*
X818332Y457452D01*
X818441Y457397D01*
X818532Y457342D01*
X818605Y457324D01*
X818642Y457288D01*
X818660D01*
Y455794D01*
X818387Y455904D01*
X818113Y456031D01*
X817840Y456159D01*
X817585Y456286D01*
X817367Y456395D01*
X817185Y456487D01*
X817075Y456559D01*
X817057Y456577D01*
X817039D01*
X816711Y456778D01*
X816420Y456978D01*
X816165Y457160D01*
X815964Y457324D01*
X815782Y457452D01*
X815673Y457561D01*
X815582Y457634D01*
X815564Y457652D01*
Y447799D01*
X814016D01*
Y460457D01*
X815017D01*
X815200Y460147D01*
D02*
G37*
G36*
X722396Y460438D02*
X722688Y460402D01*
X722979Y460347D01*
X723234Y460275D01*
X723726Y460074D01*
X723944Y459983D01*
X724126Y459874D01*
X724309Y459746D01*
X724454Y459655D01*
X724600Y459546D01*
X724709Y459455D01*
X724800Y459382D01*
X724855Y459328D01*
X724891Y459291D01*
X724910Y459273D01*
X725110Y459054D01*
X725274Y458799D01*
X725438Y458563D01*
X725565Y458308D01*
X725674Y458035D01*
X725766Y457780D01*
X725893Y457306D01*
X725948Y457069D01*
X725984Y456869D01*
X726002Y456669D01*
X726021Y456505D01*
X726039Y456377D01*
Y456286D01*
Y456213D01*
Y456195D01*
X726021Y455849D01*
X725984Y455540D01*
X725948Y455230D01*
X725875Y454939D01*
X725784Y454683D01*
X725693Y454429D01*
X725602Y454210D01*
X725492Y454010D01*
X725401Y453828D01*
X725310Y453664D01*
X725219Y453536D01*
X725128Y453409D01*
X725055Y453318D01*
X725019Y453263D01*
X724982Y453227D01*
X724964Y453208D01*
X724764Y453008D01*
X724545Y452844D01*
X724327Y452680D01*
X724090Y452553D01*
X723872Y452444D01*
X723653Y452352D01*
X723234Y452225D01*
X723052Y452170D01*
X722870Y452134D01*
X722724Y452116D01*
X722578Y452097D01*
X722469Y452079D01*
X722324D01*
X721977Y452097D01*
X721650Y452152D01*
X721358Y452225D01*
X721085Y452316D01*
X720885Y452389D01*
X720721Y452462D01*
X720612Y452516D01*
X720575Y452534D01*
X720284Y452717D01*
X720029Y452917D01*
X719810Y453117D01*
X719628Y453299D01*
X719501Y453481D01*
X719391Y453609D01*
X719318Y453700D01*
X719300Y453736D01*
Y453591D01*
Y453500D01*
Y453445D01*
Y453427D01*
X719318Y453063D01*
X719337Y452717D01*
X719373Y452407D01*
X719410Y452116D01*
X719464Y451879D01*
X719501Y451697D01*
X719519Y451624D01*
Y451569D01*
X719537Y451551D01*
Y451533D01*
X719628Y451205D01*
X719719Y450914D01*
X719810Y450659D01*
X719901Y450440D01*
X719974Y450276D01*
X720047Y450149D01*
X720083Y450058D01*
X720102Y450039D01*
X720247Y449839D01*
X720393Y449675D01*
X720539Y449530D01*
X720684Y449402D01*
X720794Y449293D01*
X720903Y449220D01*
X720976Y449184D01*
X720994Y449165D01*
X721194Y449056D01*
X721413Y448983D01*
X721613Y448929D01*
X721814Y448892D01*
X721977Y448874D01*
X722105Y448856D01*
X722232D01*
X722524Y448874D01*
X722797Y448929D01*
X723034Y449001D01*
X723234Y449092D01*
X723380Y449165D01*
X723507Y449238D01*
X723580Y449293D01*
X723598Y449311D01*
X723780Y449511D01*
X723926Y449748D01*
X724054Y450003D01*
X724145Y450258D01*
X724218Y450477D01*
X724272Y450677D01*
X724290Y450750D01*
Y450786D01*
X724309Y450823D01*
Y450841D01*
X725802Y450713D01*
X725693Y450185D01*
X725547Y449730D01*
X725365Y449329D01*
X725183Y449001D01*
X725001Y448746D01*
X724910Y448637D01*
X724837Y448546D01*
X724782Y448492D01*
X724727Y448437D01*
X724709Y448419D01*
X724691Y448400D01*
X724509Y448255D01*
X724309Y448127D01*
X723908Y447927D01*
X723507Y447781D01*
X723125Y447690D01*
X722779Y447617D01*
X722633Y447599D01*
X722506D01*
X722414Y447581D01*
X722269D01*
X721759Y447617D01*
X721304Y447690D01*
X720885Y447818D01*
X720539Y447963D01*
X720393Y448018D01*
X720247Y448091D01*
X720138Y448164D01*
X720029Y448218D01*
X719956Y448255D01*
X719901Y448291D01*
X719865Y448328D01*
X719847D01*
X719482Y448637D01*
X719155Y448983D01*
X718900Y449347D01*
X718681Y449693D01*
X718499Y450003D01*
X718426Y450149D01*
X718372Y450258D01*
X718335Y450367D01*
X718299Y450440D01*
X718280Y450477D01*
Y450495D01*
X718189Y450768D01*
X718098Y451078D01*
X717971Y451697D01*
X717880Y452352D01*
X717825Y452972D01*
X717789Y453245D01*
X717770Y453518D01*
Y453755D01*
X717752Y453955D01*
Y454119D01*
Y454246D01*
Y454338D01*
Y454356D01*
Y454775D01*
X717770Y455175D01*
X717807Y455540D01*
X717843Y455886D01*
X717880Y456195D01*
X717916Y456487D01*
X717971Y456760D01*
X718026Y456996D01*
X718080Y457197D01*
X718117Y457379D01*
X718171Y457543D01*
X718208Y457670D01*
X718244Y457761D01*
X718280Y457834D01*
X718299Y457871D01*
Y457889D01*
X718517Y458326D01*
X718754Y458708D01*
X719027Y459036D01*
X719264Y459309D01*
X719501Y459510D01*
X719683Y459655D01*
X719756Y459710D01*
X719810Y459746D01*
X719828Y459783D01*
X719847D01*
X720229Y460001D01*
X720612Y460165D01*
X720994Y460293D01*
X721340Y460366D01*
X721650Y460420D01*
X721777Y460438D01*
X721868D01*
X721959Y460457D01*
X722087D01*
X722396Y460438D01*
D02*
G37*
%LPC*%
G36*
X721996Y459182D02*
X721704D01*
X721522Y459145D01*
X721194Y459054D01*
X720903Y458927D01*
X720648Y458799D01*
X720448Y458654D01*
X720302Y458526D01*
X720211Y458435D01*
X720174Y458417D01*
Y458399D01*
X719938Y458089D01*
X719756Y457743D01*
X719628Y457379D01*
X719555Y457033D01*
X719501Y456741D01*
X719482Y456614D01*
Y456487D01*
X719464Y456395D01*
Y456323D01*
Y456286D01*
Y456268D01*
X719501Y455794D01*
X719574Y455376D01*
X719683Y455029D01*
X719810Y454738D01*
X719956Y454501D01*
X720065Y454338D01*
X720138Y454228D01*
X720174Y454192D01*
X720448Y453937D01*
X720739Y453755D01*
X721030Y453627D01*
X721322Y453536D01*
X721559Y453481D01*
X721759Y453463D01*
X721832Y453445D01*
X721941D01*
X722324Y453481D01*
X722670Y453554D01*
X722979Y453682D01*
X723252Y453828D01*
X723453Y453955D01*
X723616Y454082D01*
X723708Y454155D01*
X723744Y454192D01*
X723981Y454483D01*
X724163Y454811D01*
X724272Y455139D01*
X724363Y455448D01*
X724418Y455722D01*
X724436Y455831D01*
Y455940D01*
X724454Y456031D01*
Y456086D01*
Y456122D01*
Y456141D01*
X724418Y456614D01*
X724345Y457051D01*
X724218Y457434D01*
X724072Y457743D01*
X723944Y457998D01*
X723817Y458180D01*
X723780Y458235D01*
X723744Y458289D01*
X723708Y458308D01*
Y458326D01*
X723562Y458472D01*
X723416Y458617D01*
X723107Y458818D01*
X722797Y458982D01*
X722506Y459073D01*
X722269Y459145D01*
X722068Y459164D01*
X721996Y459182D01*
D02*
G37*
%LPD*%
D11*
X470740Y537540D02*
X468865Y538623D01*
Y536457D01*
X470740Y537540D01*
D12*
X723570Y540420D02*
X722188Y542322D01*
X719952Y541596D01*
Y539244D01*
X722188Y538518D01*
X723570Y540420D01*
X857880Y424530D02*
X855880D01*
X857880D01*
X356930Y453600D02*
X355548Y455502D01*
X353312Y454776D01*
Y452424D01*
X355548Y451698D01*
X356930Y453600D01*
X1013570Y447900D02*
X1011570D01*
X1013570D01*
D13*
X554736Y849630D02*
Y854710D01*
X550164D02*
X554736D01*
X550164Y849630D02*
Y854710D01*
Y849630D02*
X554736D01*
X801370Y548620D02*
Y596920D01*
X725170Y548620D02*
Y596920D01*
X665480Y647714D02*
Y652286D01*
X660400Y647714D02*
X665480D01*
X660400Y652286D02*
X665480D01*
X660400Y647714D02*
Y652286D01*
X401066Y519430D02*
Y524510D01*
X396494Y519430D02*
X401066D01*
X396494Y524510D02*
X401066D01*
X396494Y519430D02*
Y524510D01*
X401066Y544830D02*
Y549910D01*
X396494Y544830D02*
X401066D01*
X396494Y549910D02*
X401066D01*
X396494Y544830D02*
Y549910D01*
X671576Y538480D02*
Y543560D01*
X667004Y538480D02*
X671576D01*
X667004Y543560D02*
X671576D01*
X667004Y538480D02*
Y543560D01*
X661710Y487110D02*
Y525110D01*
X609710D02*
X661710D01*
X609710Y487110D02*
X661710D01*
X609710D02*
Y525110D01*
X880930Y512930D02*
X919930D01*
X880930Y424330D02*
X919930D01*
X712724Y854710D02*
X717296D01*
Y859790D01*
X712724Y854710D02*
Y859790D01*
X717296D01*
X754380Y792734D02*
Y797306D01*
X749300D02*
X754380D01*
X749300Y792734D02*
X754380D01*
X749300D02*
Y797306D01*
X515620Y782574D02*
Y787146D01*
Y782574D02*
X520700D01*
X515620Y787146D02*
X520700D01*
Y782574D02*
Y787146D01*
X947674Y458470D02*
X952246D01*
X947674Y453390D02*
Y458470D01*
X952246Y453390D02*
Y458470D01*
X947674Y453390D02*
X952246D01*
X649560Y637000D02*
Y663000D01*
X621860Y637000D02*
Y663000D01*
X298430Y533400D02*
X346730D01*
X298430Y457200D02*
X346730D01*
X988980Y462900D02*
Y476900D01*
X1020160Y462900D02*
Y476900D01*
X595884Y560070D02*
Y565150D01*
X600456Y560070D02*
Y565150D01*
X595884D02*
X600456D01*
X595884Y560070D02*
X600456D01*
X642620Y462534D02*
X647700D01*
X642620Y467106D02*
X647700D01*
X642620Y462534D02*
Y467106D01*
X647700Y462534D02*
Y467106D01*
X688086Y560070D02*
Y565150D01*
X683514Y560070D02*
Y565150D01*
Y560070D02*
X688086D01*
X683514Y565150D02*
X688086D01*
X474980Y457454D02*
X480060D01*
X474980Y462026D02*
X480060D01*
X474980Y457454D02*
Y462026D01*
X480060Y457454D02*
Y462026D01*
D14*
X1157040Y497880D02*
Y584160D01*
X1078040D02*
X1157040D01*
X1078040Y497880D02*
X1157040D01*
X1078040D02*
Y584160D01*
X1165620Y401320D02*
Y474980D01*
X786863Y1057355D02*
X773534D01*
X780198D01*
Y1037362D01*
X756872D02*
X763537D01*
X766869Y1040694D01*
Y1047358D01*
X763537Y1050691D01*
X756872D01*
X753540Y1047358D01*
Y1044026D01*
X766869D01*
X743543Y1050691D02*
X736879D01*
X733547Y1047358D01*
Y1037362D01*
X743543D01*
X746876Y1040694D01*
X743543Y1044026D01*
X733547D01*
X713553Y1050691D02*
X723550D01*
X726882Y1047358D01*
Y1040694D01*
X723550Y1037362D01*
X713553D01*
X706888Y1057355D02*
Y1037362D01*
Y1047358D01*
X703556Y1050691D01*
X696892D01*
X693559Y1047358D01*
Y1037362D01*
X686895D02*
Y1057355D01*
X680230Y1050691D01*
X673566Y1057355D01*
Y1037362D01*
X656905D02*
X663569D01*
X666901Y1040694D01*
Y1047358D01*
X663569Y1050691D01*
X656905D01*
X653572Y1047358D01*
Y1044026D01*
X666901D01*
X646908Y1037362D02*
Y1057355D01*
X636911D01*
X633579Y1054023D01*
Y1047358D01*
X636911Y1044026D01*
X646908D01*
X613585Y1050691D02*
X623582D01*
X626914Y1047358D01*
Y1040694D01*
X623582Y1037362D01*
X613585D01*
X606921Y1057355D02*
Y1037362D01*
X596924D01*
X593592Y1040694D01*
Y1044026D01*
Y1047358D01*
X596924Y1050691D01*
X606921D01*
X573598Y1037362D02*
X586927D01*
X573598Y1050691D01*
Y1054023D01*
X576930Y1057355D01*
X583595D01*
X586927Y1054023D01*
X566934D02*
X563601Y1057355D01*
X556937D01*
X553605Y1054023D01*
Y1040694D01*
X556937Y1037362D01*
X563601D01*
X566934Y1040694D01*
Y1054023D01*
X533611Y1037362D02*
X546940D01*
X533611Y1050691D01*
Y1054023D01*
X536943Y1057355D01*
X543608D01*
X546940Y1054023D01*
X526946D02*
X523614Y1057355D01*
X516950D01*
X513617Y1054023D01*
Y1040694D01*
X516950Y1037362D01*
X523614D01*
X526946Y1040694D01*
Y1054023D01*
X746876Y1023934D02*
Y1020602D01*
X750208D01*
X743543D01*
X746876D01*
Y1010605D01*
X743543Y1007273D01*
X730214D02*
X723550D01*
X720217Y1010605D01*
Y1017270D01*
X723550Y1020602D01*
X730214D01*
X733547Y1017270D01*
Y1010605D01*
X730214Y1007273D01*
X713553D02*
Y1020602D01*
X710221D01*
X706888Y1017270D01*
Y1007273D01*
Y1017270D01*
X703556Y1020602D01*
X700224Y1017270D01*
Y1007273D01*
X683563Y1013938D02*
Y1017270D01*
X686895D01*
Y1013938D01*
X683563D01*
X680230Y1017270D01*
Y1023934D01*
X683563Y1027267D01*
X690227D01*
X693559Y1023934D01*
Y1010605D01*
X690227Y1007273D01*
X680230D01*
X670234Y1023934D02*
Y1020602D01*
X673566D01*
X666901D01*
X670234D01*
Y1010605D01*
X666901Y1007273D01*
X653572D02*
X646908D01*
X643576Y1010605D01*
Y1017270D01*
X646908Y1020602D01*
X653572D01*
X656905Y1017270D01*
Y1010605D01*
X653572Y1007273D01*
X636911D02*
Y1020602D01*
X633579D01*
X630246Y1017270D01*
Y1007273D01*
Y1017270D01*
X626914Y1020602D01*
X623582Y1017270D01*
Y1007273D01*
X616917D02*
Y1027267D01*
Y1013938D02*
X606921Y1020602D01*
X616917Y1013938D02*
X606921Y1007273D01*
X596924D02*
Y1010605D01*
X593592D01*
Y1007273D01*
X596924D01*
X580262D02*
X573598D01*
X576930D01*
Y1020602D01*
X580262D01*
X563601Y1007273D02*
Y1020602D01*
X553605D01*
X550272Y1017270D01*
Y1007273D01*
X763537Y997178D02*
X770201D01*
X766869D01*
Y980517D01*
X770201Y977185D01*
X773534D01*
X776866Y980517D01*
X756872Y990514D02*
Y980517D01*
X753540Y977185D01*
X743543D01*
Y990514D01*
X736879Y977185D02*
Y990514D01*
X726882D01*
X723550Y987182D01*
Y977185D01*
X706888D02*
X713553D01*
X716885Y980517D01*
Y987182D01*
X713553Y990514D01*
X706888D01*
X703556Y987182D01*
Y983849D01*
X716885D01*
X663569Y977185D02*
X676898D01*
X663569Y990514D01*
Y993846D01*
X666901Y997178D01*
X673566D01*
X676898Y993846D01*
X656905D02*
X653572Y997178D01*
X646908D01*
X643576Y993846D01*
Y980517D01*
X646908Y977185D01*
X653572D01*
X656905Y980517D01*
Y993846D01*
X623582Y977185D02*
X636911D01*
X623582Y990514D01*
Y993846D01*
X626914Y997178D01*
X633579D01*
X636911Y993846D01*
X616917D02*
X613585Y997178D01*
X606921D01*
X603588Y993846D01*
Y980517D01*
X606921Y977185D01*
X613585D01*
X616917Y980517D01*
Y993846D01*
X576930Y990514D02*
Y977185D01*
Y983849D01*
X573598Y987182D01*
X570266Y990514D01*
X566934D01*
X543608D02*
X553605D01*
X556937Y987182D01*
Y980517D01*
X553605Y977185D01*
X543608D01*
X523614D02*
X536943D01*
X523614Y990514D01*
Y993846D01*
X526946Y997178D01*
X533611D01*
X536943Y993846D01*
X1181100Y554352D02*
X1168404D01*
X1174752Y560700D02*
Y548004D01*
X1181100Y527682D02*
X1168404D01*
X1156339Y498660D02*
X1160337D01*
X1158338D01*
Y488663D01*
X1160337Y486664D01*
X1162337D01*
X1164336Y488663D01*
X1152340Y486664D02*
X1148341D01*
X1150340D01*
Y498660D01*
X1152340Y496661D01*
X505297Y563528D02*
Y553531D01*
X503297Y551532D01*
X499299D01*
X497299Y553531D01*
Y563528D01*
X485303Y551532D02*
X493301D01*
X485303Y559529D01*
Y561529D01*
X487303Y563528D01*
X491301D01*
X493301Y561529D01*
X1102197Y568042D02*
Y580038D01*
X1096199D01*
X1094199Y578039D01*
Y574040D01*
X1096199Y572041D01*
X1102197D01*
X1082203Y568042D02*
X1090201D01*
X1082203Y576039D01*
Y578039D01*
X1084203Y580038D01*
X1088201D01*
X1090201Y578039D01*
X652617Y590198D02*
Y588199D01*
X648618Y584200D01*
X644619Y588199D01*
Y590198D01*
X648618Y584200D02*
Y578202D01*
X640621Y588199D02*
X638621Y590198D01*
X634623D01*
X632623Y588199D01*
Y586199D01*
X634623Y584200D01*
X636622D01*
X634623D01*
X632623Y582201D01*
Y580201D01*
X634623Y578202D01*
X638621D01*
X640621Y580201D01*
X438277Y450188D02*
Y452188D01*
X442276Y456186D01*
X446275Y452188D01*
Y450188D01*
X442276Y456186D02*
Y462184D01*
X450273D02*
X454272D01*
X452273D01*
Y450188D01*
X450273Y452188D01*
X933287Y531778D02*
Y521781D01*
X931287Y519782D01*
X927289D01*
X925289Y521781D01*
Y531778D01*
X913293D02*
X921291D01*
Y525780D01*
X917292Y527779D01*
X915293D01*
X913293Y525780D01*
Y521781D01*
X915293Y519782D01*
X919291D01*
X921291Y521781D01*
X591631Y680230D02*
X589632Y682230D01*
Y686228D01*
X591631Y688228D01*
X593631D01*
X595630Y686228D01*
Y682230D01*
X597629Y680230D01*
X599629D01*
X601628Y682230D01*
Y686228D01*
X599629Y688228D01*
X589632Y668234D02*
Y676232D01*
X601628D01*
Y668234D01*
X595630Y676232D02*
Y672233D01*
X601628Y664236D02*
X589632D01*
X601628Y656238D01*
X589632D01*
X591631Y644242D02*
X589632Y646241D01*
Y650240D01*
X591631Y652239D01*
X593631D01*
X595630Y650240D01*
Y646241D01*
X597629Y644242D01*
X599629D01*
X601628Y646241D01*
Y650240D01*
X599629Y652239D01*
X589632Y634245D02*
Y638244D01*
X591631Y640243D01*
X599629D01*
X601628Y638244D01*
Y634245D01*
X599629Y632246D01*
X591631D01*
X589632Y634245D01*
X601628Y628247D02*
X589632D01*
Y622249D01*
X591631Y620250D01*
X595630D01*
X597629Y622249D01*
Y628247D01*
Y624248D02*
X601628Y620250D01*
Y616251D02*
Y612252D01*
Y614252D01*
X589632D01*
X591631Y616251D01*
X723548Y534155D02*
X711552D01*
Y528157D01*
X713551Y526157D01*
X717550D01*
X719549Y528157D01*
Y534155D01*
Y530156D02*
X723548Y526157D01*
X713551Y522159D02*
X711552Y520159D01*
Y516161D01*
X713551Y514161D01*
X715551D01*
X717550Y516161D01*
Y518160D01*
Y516161D01*
X719549Y514161D01*
X721549D01*
X723548Y516161D01*
Y520159D01*
X721549Y522159D01*
X723548Y502165D02*
Y510163D01*
X715551Y502165D01*
X713551D01*
X711552Y504165D01*
Y508163D01*
X713551Y510163D01*
X598195Y512162D02*
Y524158D01*
X592197D01*
X590198Y522159D01*
Y518160D01*
X592197Y516161D01*
X598195D01*
X594197D02*
X590198Y512162D01*
X578202D02*
X586199D01*
X578202Y520159D01*
Y522159D01*
X580201Y524158D01*
X584200D01*
X586199Y522159D01*
X574203Y512162D02*
X570205D01*
X572204D01*
Y524158D01*
X574203Y522159D01*
X705605Y458822D02*
Y470818D01*
X699607D01*
X697607Y468819D01*
Y464820D01*
X699607Y462821D01*
X705605D01*
X701606D02*
X697607Y458822D01*
X685611D02*
X693609D01*
X685611Y466819D01*
Y468819D01*
X687611Y470818D01*
X691609D01*
X693609Y468819D01*
X681613D02*
X679613Y470818D01*
X675614D01*
X673615Y468819D01*
Y460821D01*
X675614Y458822D01*
X679613D01*
X681613Y460821D01*
Y468819D01*
X680965Y519078D02*
Y507082D01*
X686963D01*
X688962Y509081D01*
Y513080D01*
X686963Y515079D01*
X680965D01*
X684964D02*
X688962Y519078D01*
X692961D02*
X696960D01*
X694960D01*
Y507082D01*
X692961Y509081D01*
X702958Y517079D02*
X704957Y519078D01*
X708956D01*
X710955Y517079D01*
Y509081D01*
X708956Y507082D01*
X704957D01*
X702958Y509081D01*
Y511081D01*
X704957Y513080D01*
X710955D01*
X633378Y451875D02*
X621382D01*
Y445877D01*
X623381Y443878D01*
X627380D01*
X629379Y445877D01*
Y451875D01*
Y447876D02*
X633378Y443878D01*
Y439879D02*
Y435880D01*
Y437880D01*
X621382D01*
X623381Y439879D01*
Y429882D02*
X621382Y427883D01*
Y423884D01*
X623381Y421885D01*
X625381D01*
X627380Y423884D01*
X629379Y421885D01*
X631379D01*
X633378Y423884D01*
Y427883D01*
X631379Y429882D01*
X629379D01*
X627380Y427883D01*
X625381Y429882D01*
X623381D01*
X627380Y427883D02*
Y423884D01*
X1164345Y353412D02*
Y365408D01*
X1158347D01*
X1156348Y363409D01*
Y359410D01*
X1158347Y357411D01*
X1164345D01*
X1160346D02*
X1156348Y353412D01*
X1152349D02*
X1148350D01*
X1150350D01*
Y365408D01*
X1152349Y363409D01*
X1142352Y365408D02*
X1134355D01*
Y363409D01*
X1142352Y355411D01*
Y353412D01*
X401616Y474062D02*
Y486058D01*
X395618D01*
X393618Y484059D01*
Y480060D01*
X395618Y478061D01*
X401616D01*
X397617D02*
X393618Y474062D01*
X389620D02*
X385621D01*
X387620D01*
Y486058D01*
X389620Y484059D01*
X379623Y474062D02*
X375624D01*
X377623D01*
Y486058D01*
X379623Y484059D01*
X547207Y512162D02*
Y524158D01*
X541209D01*
X539209Y522159D01*
Y518160D01*
X541209Y516161D01*
X547207D01*
X543208D02*
X539209Y512162D01*
X535211Y522159D02*
X533211Y524158D01*
X529213D01*
X527213Y522159D01*
Y520159D01*
X529213Y518160D01*
X531212D01*
X529213D01*
X527213Y516161D01*
Y514161D01*
X529213Y512162D01*
X533211D01*
X535211Y514161D01*
X564987Y462632D02*
Y474628D01*
X558989D01*
X556989Y472629D01*
Y468630D01*
X558989Y466631D01*
X564987D01*
X560988D02*
X556989Y462632D01*
X544993D02*
X552991D01*
X544993Y470629D01*
Y472629D01*
X546993Y474628D01*
X550991D01*
X552991Y472629D01*
X772512Y815371D02*
X784508D01*
Y821369D01*
X782509Y823368D01*
X778510D01*
X776511Y821369D01*
Y815371D01*
X784508Y827367D02*
Y831366D01*
Y829366D01*
X772512D01*
Y827367D01*
Y831366D01*
X784508Y837364D02*
X772512Y845361D01*
X784508D02*
X772512Y837364D01*
X784508Y857357D02*
Y849360D01*
X772512D01*
Y857357D01*
X778510Y849360D02*
Y853358D01*
X784508Y861356D02*
X772512D01*
Y869353D01*
Y879350D02*
X784508D01*
X778510Y873352D01*
Y881349D01*
X731489Y938882D02*
Y950878D01*
X725491D01*
X723492Y948879D01*
Y944880D01*
X725491Y942881D01*
X731489D01*
X719493Y950878D02*
X715495D01*
X717494D01*
Y938882D01*
X719493D01*
X715495D01*
X709496Y950878D02*
X701499Y938882D01*
Y950878D02*
X709496Y938882D01*
X689503Y950878D02*
X697500D01*
Y938882D01*
X689503D01*
X697500Y944880D02*
X693502D01*
X685504Y950878D02*
Y938882D01*
X677507D01*
X673508Y948879D02*
X671509Y950878D01*
X667510D01*
X665511Y948879D01*
Y946879D01*
X667510Y944880D01*
X669509D01*
X667510D01*
X665511Y942881D01*
Y940881D01*
X667510Y938882D01*
X671509D01*
X673508Y940881D01*
X595599Y940152D02*
Y952148D01*
X589601D01*
X587602Y950149D01*
Y946150D01*
X589601Y944151D01*
X595599D01*
X583603Y952148D02*
X579604D01*
X581604D01*
Y940152D01*
X583603D01*
X579604D01*
X573606Y952148D02*
X565609Y940152D01*
Y952148D02*
X573606Y940152D01*
X553613Y952148D02*
X561610D01*
Y940152D01*
X553613D01*
X561610Y946150D02*
X557612D01*
X549614Y952148D02*
Y940152D01*
X541617D01*
X529621D02*
X537618D01*
X529621Y948149D01*
Y950149D01*
X531620Y952148D01*
X535619D01*
X537618Y950149D01*
X501298Y883160D02*
X489302D01*
Y877162D01*
X491301Y875163D01*
X495300D01*
X497299Y877162D01*
Y883160D01*
X489302Y871164D02*
Y867165D01*
Y869165D01*
X501298D01*
Y871164D01*
Y867165D01*
X489302Y861167D02*
X501298Y853170D01*
X489302D02*
X501298Y861167D01*
X489302Y841173D02*
Y849171D01*
X501298D01*
Y841173D01*
X495300Y849171D02*
Y845172D01*
X489302Y837175D02*
X501298D01*
Y829177D01*
Y825179D02*
Y821180D01*
Y823179D01*
X489302D01*
X491301Y825179D01*
X826607Y580742D02*
Y592738D01*
X820609D01*
X818609Y590739D01*
Y586740D01*
X820609Y584741D01*
X826607D01*
X808613Y580742D02*
Y592738D01*
X814611Y586740D01*
X806613D01*
X761837Y420722D02*
Y432718D01*
X755839D01*
X753839Y430719D01*
Y426720D01*
X755839Y424721D01*
X761837D01*
X749841Y430719D02*
X747841Y432718D01*
X743843D01*
X741843Y430719D01*
Y428719D01*
X743843Y426720D01*
X745842D01*
X743843D01*
X741843Y424721D01*
Y422721D01*
X743843Y420722D01*
X747841D01*
X749841Y422721D01*
X1158494Y435414D02*
Y423418D01*
X1152496D01*
X1150497Y425417D01*
Y427417D01*
X1152496Y429416D01*
X1158494D01*
X1152496D01*
X1150497Y431415D01*
Y433415D01*
X1152496Y435414D01*
X1158494D01*
X1146498Y423418D02*
Y431415D01*
X1142499Y435414D01*
X1138501Y431415D01*
Y423418D01*
Y429416D01*
X1146498D01*
X1134502Y435414D02*
X1126504D01*
X1130503D01*
Y423418D01*
X1114508D02*
X1122506D01*
X1114508Y431415D01*
Y433415D01*
X1116508Y435414D01*
X1120506D01*
X1122506Y433415D01*
X362204Y543560D02*
Y555556D01*
X356206D01*
X354207Y553557D01*
Y549558D01*
X356206Y547559D01*
X362204D01*
X350208Y543560D02*
X346209D01*
X348209D01*
Y555556D01*
X350208Y553557D01*
X652724Y545748D02*
X648725D01*
X650724D01*
Y533752D01*
X652724D01*
X648725D01*
X642727D02*
Y545748D01*
X638728Y541749D01*
X634730Y545748D01*
Y533752D01*
X630731Y545748D02*
Y535751D01*
X628732Y533752D01*
X624733D01*
X622733Y535751D01*
Y545748D01*
X618735Y533752D02*
X614736D01*
X616735D01*
Y545748D01*
X618735Y543749D01*
X1249869Y527968D02*
Y515972D01*
X1243871D01*
X1241871Y517971D01*
Y525969D01*
X1243871Y527968D01*
X1249869D01*
X763459Y827663D02*
X765458Y825663D01*
Y821665D01*
X763459Y819665D01*
X755461D01*
X753462Y821665D01*
Y825663D01*
X755461Y827663D01*
X753462Y839659D02*
Y831661D01*
X761459Y839659D01*
X763459D01*
X765458Y837659D01*
Y833661D01*
X763459Y831661D01*
X755461Y843657D02*
X753462Y845657D01*
Y849656D01*
X755461Y851655D01*
X763459D01*
X765458Y849656D01*
Y845657D01*
X763459Y843657D01*
X761459D01*
X759460Y845657D01*
Y851655D01*
X474791Y856357D02*
X472792Y858357D01*
Y862355D01*
X474791Y864355D01*
X482789D01*
X484788Y862355D01*
Y858357D01*
X482789Y856357D01*
X484788Y844361D02*
Y852359D01*
X476791Y844361D01*
X474791D01*
X472792Y846361D01*
Y850359D01*
X474791Y852359D01*
X472792Y840363D02*
Y832365D01*
X474791D01*
X482789Y840363D01*
X484788D01*
X690503Y924371D02*
X688503Y922372D01*
X684504D01*
X682505Y924371D01*
Y932369D01*
X684504Y934368D01*
X688503D01*
X690503Y932369D01*
X702499Y934368D02*
X694501D01*
X702499Y926371D01*
Y924371D01*
X700499Y922372D01*
X696501D01*
X694501Y924371D01*
X712495Y934368D02*
Y922372D01*
X706497Y928370D01*
X714495D01*
X538103Y918021D02*
X536103Y916022D01*
X532104D01*
X530105Y918021D01*
Y926019D01*
X532104Y928018D01*
X536103D01*
X538103Y926019D01*
X550099Y928018D02*
X542101D01*
X550099Y920021D01*
Y918021D01*
X548099Y916022D01*
X544101D01*
X542101Y918021D01*
X554097D02*
X556097Y916022D01*
X560095D01*
X562095Y918021D01*
Y920021D01*
X560095Y922020D01*
X558096D01*
X560095D01*
X562095Y924019D01*
Y926019D01*
X560095Y928018D01*
X556097D01*
X554097Y926019D01*
X606167Y581849D02*
X608167Y583848D01*
X612165D01*
X614165Y581849D01*
Y573851D01*
X612165Y571852D01*
X608167D01*
X606167Y573851D01*
X594171Y571852D02*
X602169D01*
X594171Y579849D01*
Y581849D01*
X596171Y583848D01*
X600169D01*
X602169Y581849D01*
X590173D02*
X588173Y583848D01*
X584174D01*
X582175Y581849D01*
Y573851D01*
X584174Y571852D01*
X588173D01*
X590173Y573851D01*
Y581849D01*
X639891Y443878D02*
X637892Y445877D01*
Y449876D01*
X639891Y451875D01*
X647889D01*
X649888Y449876D01*
Y445877D01*
X647889Y443878D01*
X649888Y439879D02*
Y435880D01*
Y437880D01*
X637892D01*
X639891Y439879D01*
X647889Y429882D02*
X649888Y427883D01*
Y423884D01*
X647889Y421885D01*
X639891D01*
X637892Y423884D01*
Y427883D01*
X639891Y429882D01*
X641891D01*
X643890Y427883D01*
Y421885D01*
X658941Y687718D02*
X656942Y689717D01*
Y693716D01*
X658941Y695715D01*
X666939D01*
X668938Y693716D01*
Y689717D01*
X666939Y687718D01*
X668938Y683719D02*
Y679720D01*
Y681720D01*
X656942D01*
X658941Y683719D01*
Y673722D02*
X656942Y671723D01*
Y667724D01*
X658941Y665725D01*
X660941D01*
X662940Y667724D01*
X664939Y665725D01*
X666939D01*
X668938Y667724D01*
Y671723D01*
X666939Y673722D01*
X664939D01*
X662940Y671723D01*
X660941Y673722D01*
X658941D01*
X662940Y671723D02*
Y667724D01*
X678802Y576391D02*
X676803Y574392D01*
X672804D01*
X670805Y576391D01*
Y584389D01*
X672804Y586388D01*
X676803D01*
X678802Y584389D01*
X682801Y586388D02*
X686800D01*
X684800D01*
Y574392D01*
X682801Y576391D01*
X692798Y574392D02*
X700795D01*
Y576391D01*
X692798Y584389D01*
Y586388D01*
X688962Y537021D02*
X686963Y535022D01*
X682964D01*
X680965Y537021D01*
Y545019D01*
X682964Y547018D01*
X686963D01*
X688962Y545019D01*
X692961Y547018D02*
X696960D01*
X694960D01*
Y535022D01*
X692961Y537021D01*
X710955Y535022D02*
X706956Y537021D01*
X702958Y541020D01*
Y545019D01*
X704957Y547018D01*
X708956D01*
X710955Y545019D01*
Y543019D01*
X708956Y541020D01*
X702958D01*
X1157618Y379919D02*
X1159617Y381918D01*
X1163616D01*
X1165615Y379919D01*
Y371921D01*
X1163616Y369922D01*
X1159617D01*
X1157618Y371921D01*
X1153619Y369922D02*
X1149620D01*
X1151620D01*
Y381918D01*
X1153619Y379919D01*
X1135625Y381918D02*
X1143622D01*
Y375920D01*
X1139624Y377919D01*
X1137624D01*
X1135625Y375920D01*
Y371921D01*
X1137624Y369922D01*
X1141623D01*
X1143622Y371921D01*
X960768Y443419D02*
X962767Y445418D01*
X966766D01*
X968765Y443419D01*
Y435421D01*
X966766Y433422D01*
X962767D01*
X960768Y435421D01*
X956769Y433422D02*
X952770D01*
X954770D01*
Y445418D01*
X956769Y443419D01*
X940774Y433422D02*
Y445418D01*
X946772Y439420D01*
X938775D01*
X417289Y565339D02*
X419289Y567338D01*
X423287D01*
X425287Y565339D01*
Y557341D01*
X423287Y555342D01*
X419289D01*
X417289Y557341D01*
X407293Y555342D02*
Y567338D01*
X413291Y561340D01*
X405293D01*
X471809Y489041D02*
X473808Y491040D01*
X477807D01*
X479806Y489041D01*
Y481043D01*
X477807Y479044D01*
X473808D01*
X471809Y481043D01*
X467810Y489041D02*
X465811Y491040D01*
X461812D01*
X459813Y489041D01*
Y487041D01*
X461812Y485042D01*
X463811D01*
X461812D01*
X459813Y483043D01*
Y481043D01*
X461812Y479044D01*
X465811D01*
X467810Y481043D01*
X414749Y511999D02*
X416749Y513998D01*
X420747D01*
X422747Y511999D01*
Y504001D01*
X420747Y502002D01*
X416749D01*
X414749Y504001D01*
X402753Y502002D02*
X410751D01*
X402753Y509999D01*
Y511999D01*
X404753Y513998D01*
X408751D01*
X410751Y511999D01*
D17*
X742710Y770000D02*
Y810000D01*
X727710D02*
X742710D01*
X727710Y790000D02*
Y810000D01*
Y770000D02*
X742710D01*
X727710D02*
Y790000D01*
X708860Y881700D02*
X728860D01*
Y866700D02*
Y881700D01*
X688860D02*
X708860D01*
X688860Y866700D02*
X728860D01*
X688860D02*
Y881700D01*
X562020D02*
X582020D01*
Y866700D02*
Y881700D01*
X542020D02*
X562020D01*
X542020Y866700D02*
X582020D01*
X542020D02*
Y881700D01*
X541750Y790000D02*
Y810000D01*
Y770000D02*
Y790000D01*
X526750Y810000D02*
X541750D01*
X526750Y770000D02*
X541750D01*
X526750D02*
Y810000D01*
X522040Y494540D02*
Y526540D01*
X472040Y494540D02*
X522040D01*
X472040Y526540D02*
X522040D01*
X472040Y494540D02*
Y526540D01*
X804601Y437469D02*
Y515031D01*
X732099D02*
X804601D01*
X732099Y437469D02*
X804601D01*
X732099D02*
Y515031D01*
D41*
X321120Y10820D02*
X1091120D01*
X321120Y410820D02*
X1091120D01*
X321120Y10820D02*
Y410820D01*
X1091120Y10820D02*
Y410820D01*
D76*
X485040Y516540D02*
X483910Y518885D01*
X481372Y519465D01*
X479337Y517842D01*
Y515238D01*
X481372Y513615D01*
X483910Y514194D01*
X485040Y516540D01*
D77*
X658710Y529110D02*
X656710D01*
X658710D01*
D78*
X646210Y666000D02*
D03*
M02*
