G04*
G04 #@! TF.GenerationSoftware,Altium Limited,Altium Designer,20.1.11 (218)*
G04*
G04 Layer_Physical_Order=1*
G04 Layer_Color=255*
%FSLAX44Y44*%
%MOMM*%
G71*
G04*
G04 #@! TF.SameCoordinates,0FF46C02-4E5C-4EA8-B578-918FE2A0E2C6*
G04*
G04*
G04 #@! TF.FilePolarity,Positive*
G04*
G01*
G75*
%ADD12C,0.2000*%
%ADD14C,0.2540*%
%ADD17R,1.7000X1.1000*%
%ADD18R,1.1000X0.6500*%
%ADD19R,1.1000X1.7000*%
%ADD20R,0.8700X0.9700*%
%ADD21R,0.9652X0.7620*%
%ADD22R,0.9700X0.8700*%
%ADD23R,1.1500X0.6000*%
%ADD24R,0.7620X0.9652*%
%ADD25R,1.2000X2.5000*%
%ADD26R,2.4000X3.3000*%
G04:AMPARAMS|DCode=27|XSize=1.6mm|YSize=0.55mm|CornerRadius=0.1458mm|HoleSize=0mm|Usage=FLASHONLY|Rotation=180.000|XOffset=0mm|YOffset=0mm|HoleType=Round|Shape=RoundedRectangle|*
%AMROUNDEDRECTD27*
21,1,1.6000,0.2585,0,0,180.0*
21,1,1.3085,0.5500,0,0,180.0*
1,1,0.2915,-0.6543,0.1293*
1,1,0.2915,0.6543,0.1293*
1,1,0.2915,0.6543,-0.1293*
1,1,0.2915,-0.6543,-0.1293*
%
%ADD27ROUNDEDRECTD27*%
G04:AMPARAMS|DCode=28|XSize=1.6mm|YSize=0.55mm|CornerRadius=0.1458mm|HoleSize=0mm|Usage=FLASHONLY|Rotation=270.000|XOffset=0mm|YOffset=0mm|HoleType=Round|Shape=RoundedRectangle|*
%AMROUNDEDRECTD28*
21,1,1.6000,0.2585,0,0,270.0*
21,1,1.3085,0.5500,0,0,270.0*
1,1,0.2915,-0.1293,-0.6543*
1,1,0.2915,-0.1293,0.6543*
1,1,0.2915,0.1293,0.6543*
1,1,0.2915,0.1293,-0.6543*
%
%ADD28ROUNDEDRECTD28*%
%ADD29R,1.5500X1.3000*%
%ADD30R,1.3000X1.5500*%
%ADD31R,6.0700X6.0700*%
%ADD32R,2.0000X5.5000*%
%ADD33O,4.0000X1.9050*%
G04:AMPARAMS|DCode=34|XSize=2mm|YSize=1mm|CornerRadius=0.25mm|HoleSize=0mm|Usage=FLASHONLY|Rotation=180.000|XOffset=0mm|YOffset=0mm|HoleType=Round|Shape=RoundedRectangle|*
%AMROUNDEDRECTD34*
21,1,2.0000,0.5000,0,0,180.0*
21,1,1.5000,1.0000,0,0,180.0*
1,1,0.5000,-0.7500,0.2500*
1,1,0.5000,0.7500,0.2500*
1,1,0.5000,0.7500,-0.2500*
1,1,0.5000,-0.7500,-0.2500*
%
%ADD34ROUNDEDRECTD34*%
%ADD35O,4.0000X1.6000*%
G04:AMPARAMS|DCode=36|XSize=1.6mm|YSize=4mm|CornerRadius=0.2mm|HoleSize=0mm|Usage=FLASHONLY|Rotation=270.000|XOffset=0mm|YOffset=0mm|HoleType=Round|Shape=RoundedRectangle|*
%AMROUNDEDRECTD36*
21,1,1.6000,3.6000,0,0,270.0*
21,1,1.2000,4.0000,0,0,270.0*
1,1,0.4000,-1.8000,-0.6000*
1,1,0.4000,-1.8000,0.6000*
1,1,0.4000,1.8000,0.6000*
1,1,0.4000,1.8000,-0.6000*
%
%ADD36ROUNDEDRECTD36*%
%ADD37C,1.2700*%
%ADD38C,3.0000*%
%ADD39C,1.0000*%
%ADD40C,0.5000*%
%ADD41C,0.3500*%
G36*
X1166460Y10070D02*
X113420D01*
Y1169670D01*
X1166460D01*
Y10070D01*
D02*
G37*
%LPC*%
G36*
X664210Y906855D02*
X608330D01*
X606843Y906559D01*
X605583Y905717D01*
X601090Y901223D01*
X600491Y901471D01*
X598170Y901777D01*
X595849Y901471D01*
X593687Y900575D01*
X591830Y899150D01*
X590405Y897293D01*
X589509Y895131D01*
X589203Y892810D01*
X589509Y890489D01*
X590405Y888327D01*
X591830Y886470D01*
X593687Y885045D01*
X595849Y884149D01*
X598170Y883843D01*
X600491Y884149D01*
X602653Y885045D01*
X604510Y886470D01*
X605935Y888327D01*
X606831Y890489D01*
X607137Y892810D01*
X606831Y895131D01*
X606583Y895730D01*
X609939Y899085D01*
X627174D01*
X627736Y897946D01*
X627235Y897293D01*
X626339Y895131D01*
X626264Y894560D01*
X643736D01*
X643661Y895131D01*
X642765Y897293D01*
X642264Y897946D01*
X642826Y899085D01*
X662601D01*
X665631Y896056D01*
X665248Y895131D01*
X664942Y892810D01*
X665248Y890489D01*
X666143Y888327D01*
X667568Y886470D01*
X669425Y885045D01*
X671588Y884149D01*
X673909Y883843D01*
X676229Y884149D01*
X678392Y885045D01*
X680249Y886470D01*
X681674Y888327D01*
X682570Y890489D01*
X682876Y892810D01*
X682570Y895131D01*
X681674Y897293D01*
X680249Y899150D01*
X678392Y900575D01*
X676229Y901471D01*
X673909Y901777D01*
X671588Y901471D01*
X671315Y901358D01*
X666957Y905717D01*
X665697Y906559D01*
X664210Y906855D01*
D02*
G37*
G36*
X643736Y891060D02*
X636750D01*
Y884074D01*
X637321Y884149D01*
X639483Y885045D01*
X641340Y886470D01*
X642765Y888327D01*
X643661Y890489D01*
X643736Y891060D01*
D02*
G37*
G36*
X633250D02*
X626264D01*
X626339Y890489D01*
X627235Y888327D01*
X628660Y886470D01*
X630517Y885045D01*
X632679Y884149D01*
X633250Y884074D01*
Y891060D01*
D02*
G37*
G36*
X740890Y887576D02*
Y880590D01*
X747876D01*
X747801Y881161D01*
X746905Y883323D01*
X745480Y885180D01*
X743623Y886605D01*
X741461Y887501D01*
X740890Y887576D01*
D02*
G37*
G36*
X737390D02*
X736819Y887501D01*
X734657Y886605D01*
X732800Y885180D01*
X731375Y883323D01*
X730479Y881161D01*
X730404Y880590D01*
X737390D01*
Y887576D01*
D02*
G37*
G36*
X708660Y908985D02*
X705222Y908646D01*
X701915Y907643D01*
X698868Y906014D01*
X696197Y903823D01*
X694006Y901152D01*
X692377Y898105D01*
X691374Y894798D01*
X691035Y891360D01*
X691374Y887922D01*
X692377Y884615D01*
X694006Y881568D01*
X696197Y878897D01*
X698868Y876705D01*
X701915Y875077D01*
X705222Y874074D01*
X708660Y873735D01*
X712098Y874074D01*
X715405Y875077D01*
X718452Y876705D01*
X721123Y878897D01*
X723315Y881568D01*
X724943Y884615D01*
X725946Y887922D01*
X726285Y891360D01*
X725946Y894798D01*
X724943Y898105D01*
X723315Y901152D01*
X721123Y903823D01*
X718452Y906014D01*
X715405Y907643D01*
X712098Y908646D01*
X708660Y908985D01*
D02*
G37*
G36*
X562017Y908983D02*
X558578Y908645D01*
X555272Y907642D01*
X552225Y906013D01*
X549554Y903821D01*
X547362Y901150D01*
X545734Y898103D01*
X544731Y894797D01*
X544392Y891358D01*
X544731Y887920D01*
X545734Y884614D01*
X547362Y881567D01*
X549554Y878896D01*
X552225Y876704D01*
X555272Y875075D01*
X558578Y874072D01*
X562017Y873734D01*
X565455Y874072D01*
X568762Y875075D01*
X571809Y876704D01*
X574480Y878896D01*
X576671Y881567D01*
X578300Y884614D01*
X579303Y887920D01*
X579642Y891358D01*
X579303Y894797D01*
X578300Y898103D01*
X576671Y901150D01*
X574480Y903821D01*
X571809Y906013D01*
X568762Y907642D01*
X565455Y908645D01*
X562017Y908983D01*
D02*
G37*
G36*
X747876Y877090D02*
X740890D01*
Y870104D01*
X741461Y870179D01*
X743623Y871075D01*
X745480Y872500D01*
X746905Y874357D01*
X747801Y876519D01*
X747876Y877090D01*
D02*
G37*
G36*
X737390D02*
X730404D01*
X730479Y876519D01*
X731375Y874357D01*
X732800Y872500D01*
X734657Y871075D01*
X736819Y870179D01*
X737390Y870104D01*
Y877090D01*
D02*
G37*
G36*
X538480Y882727D02*
X536159Y882421D01*
X533997Y881525D01*
X532140Y880100D01*
X530715Y878243D01*
X529819Y876081D01*
X529513Y873760D01*
X529819Y871439D01*
X530067Y870841D01*
X510333Y851107D01*
X509491Y849847D01*
X509195Y848360D01*
Y846756D01*
X507287Y845965D01*
X505430Y844540D01*
X504005Y842683D01*
X503109Y840521D01*
X502803Y838200D01*
X503109Y835879D01*
X504005Y833717D01*
X505430Y831860D01*
X507287Y830435D01*
X509449Y829539D01*
X511770Y829233D01*
X514091Y829539D01*
X516253Y830435D01*
X518110Y831860D01*
X519535Y833717D01*
X520431Y835879D01*
X520737Y838200D01*
X520431Y840521D01*
X519535Y842683D01*
X518110Y844540D01*
X516965Y845420D01*
Y846751D01*
X535560Y865347D01*
X536159Y865099D01*
X538480Y864793D01*
X540801Y865099D01*
X542963Y865995D01*
X544820Y867420D01*
X546245Y869277D01*
X547141Y871439D01*
X547447Y873760D01*
X547141Y876081D01*
X546245Y878243D01*
X544820Y880100D01*
X542963Y881525D01*
X540801Y882421D01*
X538480Y882727D01*
D02*
G37*
G36*
X636187Y857243D02*
X600307Y854563D01*
X600138Y854516D01*
X599962Y854513D01*
X540532Y841893D01*
X540185Y841744D01*
X539825Y841631D01*
X539724Y841546D01*
X539604Y841495D01*
X539340Y841224D01*
X539050Y840981D01*
X538990Y840865D01*
X538898Y840771D01*
X538758Y840420D01*
X538584Y840085D01*
X538572Y839954D01*
X538524Y839832D01*
X538529Y839455D01*
X538496Y839078D01*
X548471Y747868D01*
X547257Y747286D01*
X516912Y777631D01*
Y797415D01*
X517511Y797663D01*
X519368Y799088D01*
X520793Y800945D01*
X521689Y803108D01*
X521994Y805429D01*
X521689Y807749D01*
X520793Y809912D01*
X519368Y811769D01*
X517511Y813194D01*
X515348Y814090D01*
X513028Y814395D01*
X510707Y814090D01*
X508544Y813194D01*
X506687Y811769D01*
X505262Y809912D01*
X504366Y807749D01*
X504061Y805429D01*
X504366Y803108D01*
X505262Y800945D01*
X506687Y799088D01*
X508544Y797663D01*
X509143Y797415D01*
Y776022D01*
X509439Y774536D01*
X510281Y773276D01*
X557323Y726233D01*
X558583Y725391D01*
X560070Y725095D01*
X589738D01*
X631563Y683270D01*
X631154Y682068D01*
X630338Y681960D01*
X628176Y681065D01*
X626319Y679640D01*
X624894Y677783D01*
X623998Y675620D01*
X623693Y673299D01*
X623998Y670978D01*
X624894Y668816D01*
X626319Y666959D01*
X628176Y665534D01*
X628774Y665286D01*
Y583468D01*
X596908Y551601D01*
X595411Y552221D01*
X594595Y552329D01*
X594187Y553531D01*
X618697Y578041D01*
X619539Y579302D01*
X619835Y580788D01*
Y651117D01*
X620433Y651365D01*
X622290Y652790D01*
X623715Y654647D01*
X624611Y656809D01*
X624917Y659130D01*
X624611Y661451D01*
X623715Y663613D01*
X622290Y665470D01*
X620433Y666895D01*
X618271Y667791D01*
X615950Y668097D01*
X613629Y667791D01*
X611467Y666895D01*
X609610Y665470D01*
X608185Y663613D01*
X607289Y661451D01*
X606983Y659130D01*
X607289Y656809D01*
X608185Y654647D01*
X609610Y652790D01*
X611467Y651365D01*
X612065Y651117D01*
Y582397D01*
X579218Y549550D01*
X578901Y549681D01*
X576580Y549987D01*
X574259Y549681D01*
X572097Y548785D01*
X570240Y547360D01*
X568815Y545503D01*
X567919Y543341D01*
X567613Y541020D01*
X567919Y538699D01*
X568167Y538101D01*
X559063Y528997D01*
X558182Y529361D01*
X555862Y529667D01*
X553541Y529361D01*
X551378Y528465D01*
X549521Y527040D01*
X548096Y525183D01*
X547200Y523021D01*
X546895Y520700D01*
X547200Y518379D01*
X548096Y516217D01*
X549521Y514360D01*
X551378Y512935D01*
X553541Y512039D01*
X555315Y511805D01*
X555811Y510505D01*
X533193Y487887D01*
X532351Y486627D01*
X532055Y485140D01*
Y477913D01*
X531457Y477665D01*
X529600Y476240D01*
X528175Y474383D01*
X527279Y472221D01*
X526973Y469900D01*
X527279Y467579D01*
X528175Y465417D01*
X529600Y463560D01*
X531457Y462135D01*
X533619Y461239D01*
X535940Y460933D01*
X538261Y461239D01*
X540423Y462135D01*
X542280Y463560D01*
X543705Y465417D01*
X544601Y467579D01*
X544907Y469900D01*
X544601Y472221D01*
X543705Y474383D01*
X542280Y476240D01*
X540423Y477665D01*
X539825Y477913D01*
Y483531D01*
X591143Y534850D01*
X593090Y534593D01*
X595411Y534899D01*
X597573Y535795D01*
X599430Y537220D01*
X600855Y539077D01*
X601751Y541239D01*
X602057Y543560D01*
X601800Y545507D01*
X635406Y579112D01*
X636248Y580373D01*
X636544Y581859D01*
Y665286D01*
X637142Y665534D01*
X637795Y666035D01*
X638935Y665473D01*
Y649971D01*
X638735Y648970D01*
Y511828D01*
X637465Y511500D01*
X636260Y513070D01*
X634403Y514495D01*
X632241Y515391D01*
X631670Y515466D01*
Y506730D01*
Y497994D01*
X632241Y498069D01*
X634403Y498965D01*
X636260Y500390D01*
X637465Y501960D01*
X638735Y501632D01*
Y440140D01*
X635230D01*
Y426360D01*
X648252D01*
X648582Y425810D01*
X647863Y424540D01*
X635230D01*
Y415864D01*
X633500Y414134D01*
X633070Y414183D01*
X632230Y414570D01*
Y424540D01*
X617450D01*
Y410760D01*
X618626D01*
X619112Y409587D01*
X610865Y401340D01*
X610083Y400169D01*
X609889Y399196D01*
X608699Y398708D01*
X607559Y399318D01*
Y400525D01*
X610882Y403848D01*
X611665Y405019D01*
X611939Y406400D01*
Y410760D01*
X615720D01*
Y424540D01*
X600940D01*
Y410760D01*
X604721D01*
Y407895D01*
X601398Y404572D01*
X600626Y403417D01*
X600549Y403403D01*
X599327Y403436D01*
X599285Y403651D01*
X598502Y404822D01*
X595429Y407895D01*
Y410760D01*
X599210D01*
Y424540D01*
X584430D01*
X584430Y424540D01*
Y424540D01*
X583160Y424364D01*
X567668Y439855D01*
X566408Y440697D01*
X564922Y440993D01*
X396749D01*
X392491Y445252D01*
X392739Y445850D01*
X393044Y448171D01*
X392739Y450492D01*
X391843Y452654D01*
X390418Y454511D01*
X388561Y455936D01*
X386398Y456832D01*
X384077Y457138D01*
X381757Y456832D01*
X379594Y455936D01*
X377737Y454511D01*
X376312Y452654D01*
X375416Y450492D01*
X375309Y449676D01*
X374106Y449268D01*
X330275Y493099D01*
Y513450D01*
X331460Y514360D01*
X332885Y516217D01*
X333781Y518379D01*
X334087Y520700D01*
X333781Y523021D01*
X332885Y525183D01*
X331460Y527040D01*
X329603Y528465D01*
X327441Y529361D01*
X325120Y529667D01*
X322799Y529361D01*
X320637Y528465D01*
X318780Y527040D01*
X317355Y525183D01*
X316459Y523021D01*
X316153Y520700D01*
X316459Y518379D01*
X317355Y516217D01*
X318780Y514360D01*
X320637Y512935D01*
X322505Y512161D01*
Y495344D01*
X321332Y494857D01*
X318143Y498047D01*
X316882Y498889D01*
X315396Y499185D01*
X269361D01*
X267875Y498889D01*
X266614Y498047D01*
X263942Y495375D01*
X213409D01*
X212817Y496805D01*
X211127Y499007D01*
X208925Y500697D01*
X206362Y501759D01*
X203610Y502121D01*
X179610D01*
X176859Y501759D01*
X174294Y500697D01*
X172093Y499007D01*
X170403Y496805D01*
X169597Y494860D01*
X168223D01*
X167417Y496805D01*
X165727Y499007D01*
X163526Y500697D01*
X160961Y501759D01*
X158210Y502121D01*
X134210D01*
X131459Y501759D01*
X128895Y500697D01*
X126693Y499007D01*
X125003Y496805D01*
X123941Y494241D01*
X123579Y491490D01*
X123941Y488739D01*
X125003Y486175D01*
X126693Y483973D01*
X128895Y482283D01*
X131459Y481221D01*
X134210Y480859D01*
X158210D01*
X160961Y481221D01*
X163526Y482283D01*
X165727Y483973D01*
X167417Y486175D01*
X168223Y488120D01*
X169597D01*
X170403Y486175D01*
X172093Y483973D01*
X172217Y483877D01*
X171809Y482675D01*
X170910D01*
X169423Y482379D01*
X168163Y481537D01*
X162392Y475766D01*
X160961Y476359D01*
X158210Y476721D01*
X134210D01*
X131459Y476359D01*
X128895Y475297D01*
X126693Y473607D01*
X125003Y471405D01*
X123941Y468842D01*
X123579Y466090D01*
X123941Y463339D01*
X125003Y460774D01*
X126693Y458573D01*
X127508Y457948D01*
X127600Y456276D01*
X119653Y448329D01*
X118811Y447068D01*
X118515Y445582D01*
Y401700D01*
X118811Y400213D01*
X119653Y398953D01*
X124534Y394072D01*
X123941Y392641D01*
X123579Y389890D01*
X123941Y387138D01*
X125003Y384575D01*
X126693Y382373D01*
X128895Y380683D01*
X131459Y379621D01*
X134210Y379259D01*
X158210D01*
X160961Y379621D01*
X163526Y380683D01*
X165727Y382373D01*
X167417Y384575D01*
X168223Y386520D01*
X169597D01*
X170403Y384575D01*
X172093Y382373D01*
X173289Y381455D01*
X172858Y380185D01*
X170020D01*
X168533Y379889D01*
X167273Y379047D01*
X162392Y374166D01*
X160961Y374759D01*
X158210Y375121D01*
X134210D01*
X131459Y374759D01*
X128895Y373697D01*
X126693Y372007D01*
X125003Y369805D01*
X123941Y367242D01*
X123579Y364490D01*
X123941Y361739D01*
X125003Y359174D01*
X126693Y356973D01*
X128895Y355283D01*
X131459Y354221D01*
X134210Y353859D01*
X158210D01*
X160961Y354221D01*
X163526Y355283D01*
X165727Y356973D01*
X167417Y359174D01*
X168223Y361120D01*
X169597D01*
X170403Y359174D01*
X172093Y356973D01*
X172217Y356877D01*
X171809Y355675D01*
X170910D01*
X169423Y355379D01*
X168163Y354537D01*
X162392Y348766D01*
X160961Y349359D01*
X158210Y349721D01*
X134210D01*
X131459Y349359D01*
X128895Y348297D01*
X126693Y346607D01*
X125003Y344406D01*
X123941Y341842D01*
X123579Y339090D01*
X123941Y336339D01*
X125003Y333774D01*
X126693Y331573D01*
X128895Y329883D01*
X131459Y328821D01*
X134210Y328459D01*
X158210D01*
X160961Y328821D01*
X163526Y329883D01*
X165727Y331573D01*
X167417Y333774D01*
X168223Y335720D01*
X169597D01*
X170403Y333774D01*
X172093Y331573D01*
X174294Y329883D01*
X176859Y328821D01*
X179610Y328459D01*
X203610D01*
X206362Y328821D01*
X208925Y329883D01*
X211127Y331573D01*
X212817Y333774D01*
X213879Y336339D01*
X214241Y339090D01*
X213879Y341842D01*
X212817Y344406D01*
X211127Y346607D01*
X211003Y346703D01*
X211411Y347905D01*
X218990D01*
Y344400D01*
X232770D01*
Y359180D01*
X218990D01*
Y355675D01*
X211411D01*
X211003Y356877D01*
X211127Y356973D01*
X212817Y359174D01*
X213879Y361739D01*
X214241Y364490D01*
X213879Y367242D01*
X212817Y369805D01*
X211127Y372007D01*
X210726Y372315D01*
X210620Y373765D01*
X211391Y374575D01*
X218990D01*
Y371070D01*
X232770D01*
Y385850D01*
X218990D01*
Y382345D01*
X212706D01*
X212080Y383615D01*
X212817Y384575D01*
X213879Y387138D01*
X214241Y389890D01*
X213879Y392641D01*
X212817Y395205D01*
X211127Y397407D01*
X209931Y398325D01*
X210362Y399595D01*
X218948D01*
X219565Y398107D01*
X220990Y396250D01*
X222847Y394825D01*
X225009Y393929D01*
X227330Y393623D01*
X229651Y393929D01*
X231813Y394825D01*
X233670Y396250D01*
X235095Y398107D01*
X235991Y400269D01*
X236297Y402590D01*
X235991Y404911D01*
X235095Y407073D01*
X233670Y408930D01*
X231813Y410355D01*
X229651Y411251D01*
X227330Y411557D01*
X225009Y411251D01*
X222847Y410355D01*
X220990Y408930D01*
X219788Y407365D01*
X212415D01*
X211789Y408635D01*
X212817Y409975D01*
X213879Y412538D01*
X214241Y415290D01*
X213879Y418041D01*
X212817Y420606D01*
X211127Y422807D01*
X208925Y424497D01*
X206362Y425559D01*
X203610Y425921D01*
X179610D01*
X176859Y425559D01*
X174294Y424497D01*
X172093Y422807D01*
X170403Y420606D01*
X169597Y418660D01*
X168223D01*
X167417Y420606D01*
X165727Y422807D01*
X163526Y424497D01*
X160961Y425559D01*
X158210Y425921D01*
X134210D01*
X131459Y425559D01*
X128895Y424497D01*
X127555Y423469D01*
X126285Y424095D01*
Y431885D01*
X127555Y432511D01*
X128895Y431483D01*
X131459Y430421D01*
X134210Y430059D01*
X158210D01*
X160961Y430421D01*
X163526Y431483D01*
X165727Y433173D01*
X167417Y435374D01*
X168223Y437320D01*
X169597D01*
X170403Y435374D01*
X172093Y433173D01*
X174294Y431483D01*
X176859Y430421D01*
X179610Y430059D01*
X203610D01*
X206362Y430421D01*
X208925Y431483D01*
X211127Y433173D01*
X212817Y435374D01*
X213409Y436805D01*
X218990D01*
Y433300D01*
X232770D01*
Y448080D01*
X218990D01*
Y444575D01*
X213409D01*
X212817Y446006D01*
X211127Y448207D01*
X208925Y449897D01*
X206362Y450959D01*
X203610Y451321D01*
X179610D01*
X176859Y450959D01*
X174294Y449897D01*
X172093Y448207D01*
X170403Y446006D01*
X169597Y444060D01*
X168223D01*
X167417Y446006D01*
X165727Y448207D01*
X164531Y449125D01*
X164962Y450395D01*
X167800D01*
X169287Y450691D01*
X170547Y451533D01*
X175428Y456414D01*
X176859Y455821D01*
X179610Y455459D01*
X203610D01*
X206362Y455821D01*
X208925Y456883D01*
X210080Y457769D01*
X210855Y456993D01*
X212116Y456151D01*
X213602Y455855D01*
X219170D01*
Y452350D01*
X232950D01*
Y467130D01*
X219170D01*
Y463625D01*
X215211D01*
X214067Y464769D01*
X214241Y466090D01*
X213879Y468842D01*
X212817Y471405D01*
X211127Y473607D01*
X211003Y473703D01*
X211411Y474905D01*
X218990D01*
Y471400D01*
X232770D01*
Y486180D01*
X218990D01*
Y482675D01*
X211411D01*
X211003Y483877D01*
X211127Y483973D01*
X212817Y486175D01*
X213409Y487605D01*
X265551D01*
X267038Y487901D01*
X268298Y488743D01*
X270970Y491415D01*
X313787D01*
X320649Y484553D01*
X320241Y483350D01*
X319425Y483243D01*
X317262Y482347D01*
X315405Y480922D01*
X314003Y479095D01*
X248370D01*
Y486180D01*
X234590D01*
Y471400D01*
X244185D01*
X244560Y471325D01*
X313472D01*
X313980Y470098D01*
X315405Y468241D01*
X317262Y466816D01*
X319425Y465920D01*
X321746Y465615D01*
X324067Y465920D01*
X324665Y466168D01*
X326036Y464798D01*
X325550Y463625D01*
X273443D01*
X273195Y464223D01*
X271770Y466080D01*
X269913Y467505D01*
X267751Y468401D01*
X265430Y468707D01*
X263109Y468401D01*
X260947Y467505D01*
X259090Y466080D01*
X257665Y464223D01*
X257417Y463625D01*
X248550D01*
Y467130D01*
X234770D01*
Y452350D01*
X248550D01*
Y455855D01*
X257417D01*
X257665Y455257D01*
X259090Y453400D01*
X260947Y451975D01*
X263109Y451079D01*
X265430Y450773D01*
X267751Y451079D01*
X269913Y451975D01*
X271770Y453400D01*
X273195Y455257D01*
X273443Y455855D01*
X334978D01*
X339957Y450877D01*
X339502Y449536D01*
X338097Y449351D01*
X335935Y448455D01*
X334078Y447030D01*
X332653Y445173D01*
X332405Y444575D01*
X248370D01*
Y448080D01*
X234590D01*
Y433300D01*
X248370D01*
Y436805D01*
X332405D01*
X332653Y436207D01*
X334078Y434350D01*
X335935Y432925D01*
X338097Y432029D01*
X340418Y431723D01*
X342739Y432029D01*
X343338Y432277D01*
X350128Y425486D01*
X349673Y424145D01*
X348199Y423951D01*
X346037Y423055D01*
X344180Y421630D01*
X342755Y419773D01*
X341859Y417611D01*
X341553Y415290D01*
X341859Y412969D01*
X342107Y412370D01*
X312081Y382345D01*
X248370D01*
Y385850D01*
X234590D01*
Y371070D01*
X248370D01*
Y374575D01*
X313690D01*
X315177Y374871D01*
X316437Y375713D01*
X347601Y406877D01*
X348199Y406629D01*
X350520Y406323D01*
X352841Y406629D01*
X355003Y407525D01*
X356860Y408950D01*
X358285Y410807D01*
X359181Y412969D01*
X359375Y414443D01*
X360716Y414898D01*
X446791Y328823D01*
X446305Y327650D01*
X424070D01*
Y294691D01*
X422897Y294205D01*
X385435Y331667D01*
X384175Y332509D01*
X382688Y332805D01*
X247999D01*
X245365Y335439D01*
Y344400D01*
X248370D01*
Y359180D01*
X234590D01*
Y344400D01*
X237595D01*
Y333830D01*
X237891Y332343D01*
X238733Y331083D01*
X243643Y326173D01*
X244903Y325331D01*
X246390Y325035D01*
X354570D01*
Y310360D01*
X369110D01*
X383650D01*
Y320805D01*
X384823Y321291D01*
X424185Y281929D01*
Y252782D01*
X424481Y251295D01*
X425323Y250035D01*
X470705Y204653D01*
X471965Y203811D01*
X473452Y203515D01*
X569350D01*
X570837Y203811D01*
X572097Y204653D01*
X605410Y237967D01*
X606009Y237719D01*
X608330Y237413D01*
X610651Y237719D01*
X612813Y238615D01*
X614670Y240040D01*
X616095Y241897D01*
X616991Y244059D01*
X617297Y246380D01*
X616991Y248701D01*
X616696Y249413D01*
X617773Y250133D01*
X634392Y233513D01*
X633799Y232311D01*
X632460Y232487D01*
X630139Y232181D01*
X627977Y231285D01*
X626120Y229860D01*
X624695Y228003D01*
X623799Y225841D01*
X623493Y223520D01*
X623799Y221199D01*
X624695Y219037D01*
X626120Y217180D01*
X627977Y215755D01*
X630139Y214859D01*
X632460Y214553D01*
X634781Y214859D01*
X636943Y215755D01*
X637473Y216161D01*
X637533Y216121D01*
X639019Y215825D01*
X746421D01*
X762793Y199453D01*
X764053Y198611D01*
X765540Y198315D01*
X771120D01*
Y195310D01*
X785900D01*
Y209090D01*
X771120D01*
Y206085D01*
X767149D01*
X760492Y212742D01*
X760978Y213915D01*
X771120D01*
Y210910D01*
X785900D01*
Y213915D01*
X787630D01*
Y210910D01*
X802410D01*
Y210910D01*
X802894Y211524D01*
X817626D01*
Y213989D01*
X852339D01*
X852965Y212719D01*
X852025Y211493D01*
X851129Y209331D01*
X850823Y207010D01*
X851129Y204689D01*
X852025Y202527D01*
X853450Y200670D01*
X855307Y199245D01*
X857469Y198349D01*
X859790Y198043D01*
X862111Y198349D01*
X862710Y198597D01*
X977693Y83613D01*
X978953Y82771D01*
X980440Y82475D01*
X992236D01*
Y78994D01*
X1004936D01*
Y93726D01*
X992236D01*
Y90245D01*
X982049D01*
X868203Y204090D01*
X868451Y204689D01*
X868757Y207010D01*
X868451Y209331D01*
X867555Y211493D01*
X866615Y212719D01*
X867241Y213989D01*
X956420D01*
Y213530D01*
X977000D01*
Y218685D01*
X1035920D01*
Y213530D01*
X1056500D01*
Y231610D01*
X1035920D01*
Y226455D01*
X977000D01*
Y231610D01*
X956420D01*
Y221759D01*
X817626D01*
Y224224D01*
X802894D01*
X802410Y224690D01*
Y224690D01*
X787630D01*
Y221685D01*
X785900D01*
Y224690D01*
X771120D01*
Y221685D01*
X758733D01*
X753163Y227255D01*
X753511Y228366D01*
X753632Y228525D01*
X876547D01*
X877580Y227180D01*
X879437Y225755D01*
X881599Y224859D01*
X883920Y224553D01*
X886241Y224859D01*
X888403Y225755D01*
X890260Y227180D01*
X891685Y229037D01*
X892581Y231199D01*
X892887Y233520D01*
X892581Y235841D01*
X891685Y238003D01*
X891184Y238656D01*
X891746Y239795D01*
X937953D01*
X939439Y240091D01*
X940700Y240933D01*
X956202Y256435D01*
X1074920D01*
Y250030D01*
X1093000D01*
Y270610D01*
X1087845D01*
Y329530D01*
X1093000D01*
Y350110D01*
X1079164D01*
X1067117Y362157D01*
X1065857Y362999D01*
X1064370Y363295D01*
X769429D01*
X746436Y386287D01*
X745176Y387129D01*
X743690Y387425D01*
X726646D01*
X726084Y388564D01*
X726585Y389217D01*
X726833Y389815D01*
X754901D01*
X771120Y373596D01*
Y365310D01*
X785900D01*
Y379090D01*
X776980D01*
X776553Y379640D01*
X777175Y380910D01*
X785900D01*
Y383915D01*
X787630D01*
Y380910D01*
X802410D01*
Y380910D01*
X802894Y381524D01*
X817626D01*
Y383989D01*
X925084D01*
X926571Y384285D01*
X927831Y385127D01*
X956159Y413455D01*
X961480D01*
X961855Y413530D01*
X977000D01*
Y418685D01*
X1035920D01*
Y413530D01*
X1056500D01*
Y431610D01*
X1035920D01*
Y426455D01*
X977000D01*
Y431610D01*
X956420D01*
Y421225D01*
X954550D01*
X953063Y420929D01*
X951803Y420087D01*
X946179Y414463D01*
X944838Y414918D01*
X944651Y416341D01*
X943755Y418503D01*
X942330Y420360D01*
X940473Y421785D01*
X938311Y422681D01*
X935990Y422987D01*
X933669Y422681D01*
X931507Y421785D01*
X929650Y420360D01*
X928597Y418989D01*
X914735D01*
X914173Y420128D01*
X914655Y420757D01*
X915551Y422919D01*
X915857Y425240D01*
X915551Y427561D01*
X914655Y429723D01*
X913230Y431580D01*
X911373Y433005D01*
X909750Y433678D01*
Y459347D01*
X910242Y460535D01*
X910547Y462855D01*
X910242Y465176D01*
X909346Y467339D01*
X907921Y469196D01*
X906064Y470621D01*
X903901Y471517D01*
X901581Y471822D01*
X901002Y471746D01*
X900040Y472900D01*
Y478780D01*
X890750D01*
Y472490D01*
X898291D01*
X898544Y471220D01*
X897097Y470621D01*
X895240Y469196D01*
X893815Y467339D01*
X892919Y465176D01*
X892614Y462855D01*
X892919Y460535D01*
X893815Y458372D01*
X895240Y456515D01*
X897097Y455090D01*
X899260Y454194D01*
X901581Y453889D01*
X901981Y453538D01*
Y432678D01*
X900550Y431580D01*
X899125Y429723D01*
X898229Y427561D01*
X897923Y425240D01*
X898229Y422919D01*
X899125Y420757D01*
X899607Y420128D01*
X899045Y418989D01*
X897649D01*
X874004Y442634D01*
X872337Y443748D01*
X870370Y444139D01*
X862312D01*
X860346Y443748D01*
X858679Y442634D01*
X846843Y430798D01*
X845640Y431206D01*
X845591Y431581D01*
X844695Y433743D01*
X843270Y435600D01*
X841413Y437025D01*
X839251Y437921D01*
X836930Y438227D01*
X834609Y437921D01*
X834010Y437673D01*
X826277Y445407D01*
X826763Y446580D01*
X832340D01*
Y457660D01*
X829369D01*
Y470130D01*
X831300D01*
Y472381D01*
X834430D01*
X836396Y472772D01*
X838064Y473886D01*
X842074Y477896D01*
X842637Y478740D01*
X844275D01*
X844761Y477567D01*
X843133Y475939D01*
X842185Y474520D01*
X841852Y472846D01*
Y472186D01*
X839216D01*
Y466570D01*
X851916D01*
Y472186D01*
X851916Y472186D01*
X851916D01*
X852667Y473102D01*
X856533Y476967D01*
X857481Y478386D01*
X857551Y478740D01*
X860301D01*
Y472186D01*
X854964D01*
Y457454D01*
X867664D01*
Y464919D01*
X869074Y466328D01*
X870188Y467995D01*
X870579Y469962D01*
Y478740D01*
X873480D01*
Y490101D01*
X899256D01*
X899402Y489840D01*
X898948Y488868D01*
X898659Y488570D01*
X890750D01*
Y482280D01*
X900040D01*
Y487346D01*
X900040Y488392D01*
X900432Y488721D01*
X900963Y488849D01*
X901488Y488883D01*
X901708Y488714D01*
X903542Y487954D01*
X905510Y487695D01*
X949198D01*
X950242Y486894D01*
X951002Y486579D01*
X952077Y486134D01*
X954045Y485875D01*
X1017920D01*
X1019888Y486134D01*
X1021722Y486894D01*
X1023298Y488102D01*
X1033675Y498480D01*
X1040000D01*
Y528560D01*
X1039065D01*
Y553480D01*
X1040000D01*
Y583560D01*
X1022920D01*
Y553480D01*
X1023855D01*
Y528560D01*
X1022920D01*
Y509235D01*
X1016173Y502489D01*
X1015000Y502975D01*
Y528560D01*
X1014065D01*
Y536751D01*
X1014875Y537807D01*
X1015771Y539969D01*
X1016077Y542290D01*
X1015771Y544611D01*
X1014875Y546773D01*
X1014065Y547829D01*
Y553480D01*
X1015000D01*
Y583560D01*
X997920D01*
Y553480D01*
X998855D01*
Y545591D01*
X998449Y544611D01*
X998143Y542290D01*
X998449Y539969D01*
X998855Y538989D01*
Y528560D01*
X997920D01*
Y501085D01*
X990000D01*
Y528560D01*
X989065D01*
Y536328D01*
X989225Y536537D01*
X990121Y538699D01*
X990427Y541020D01*
X990121Y543341D01*
X989225Y545503D01*
X989065Y545712D01*
Y553480D01*
X990000D01*
Y583560D01*
X972920D01*
Y553480D01*
X973855D01*
Y545712D01*
X973695Y545503D01*
X972799Y543341D01*
X972493Y541020D01*
X972799Y538699D01*
X973695Y536537D01*
X973855Y536328D01*
Y528560D01*
X972920D01*
Y501085D01*
X957072D01*
X956028Y501886D01*
X954193Y502646D01*
X952225Y502905D01*
X905510D01*
X903542Y502646D01*
X901708Y501886D01*
X901310Y501581D01*
X900040Y502207D01*
Y515570D01*
X895409D01*
Y524460D01*
X909040D01*
Y533960D01*
Y538000D01*
X901000D01*
Y541500D01*
X909040D01*
Y546295D01*
X912114D01*
Y545084D01*
X916156D01*
X916463Y544848D01*
X918298Y544088D01*
X920266Y543829D01*
X921242D01*
X923211Y544088D01*
X925045Y544848D01*
X925352Y545084D01*
X926846D01*
Y546283D01*
X932478Y551914D01*
X933686Y553489D01*
X934001Y554249D01*
X934446Y555323D01*
X934705Y557292D01*
Y568422D01*
X934446Y570390D01*
X933686Y572224D01*
X932478Y573800D01*
X919240Y587038D01*
X917664Y588246D01*
X915830Y589006D01*
X913862Y589265D01*
X738480D01*
X713546Y614200D01*
X713511Y614461D01*
X712615Y616623D01*
X711190Y618480D01*
X709333Y619905D01*
X707171Y620801D01*
X704850Y621107D01*
X702529Y620801D01*
X700367Y619905D01*
X698510Y618480D01*
X697085Y616623D01*
X696189Y614461D01*
X695883Y612140D01*
X696189Y609819D01*
X697085Y607657D01*
X698510Y605800D01*
X700367Y604375D01*
X702529Y603479D01*
X702790Y603445D01*
X729952Y576282D01*
X731527Y575074D01*
X732287Y574759D01*
X733362Y574314D01*
X735330Y574055D01*
X781440D01*
Y568970D01*
X792480D01*
X803520D01*
Y574055D01*
X820865D01*
X821296Y572785D01*
X818761Y570839D01*
X816547Y567955D01*
X815155Y564595D01*
X814681Y560990D01*
X815155Y557385D01*
X816547Y554025D01*
X818761Y551141D01*
X821645Y548927D01*
X825005Y547535D01*
X825661Y547449D01*
X825578Y546179D01*
X811888D01*
X809919Y545920D01*
X809846Y545890D01*
X803520D01*
Y548260D01*
X781440D01*
Y545890D01*
X722164D01*
X721965Y546043D01*
X721643Y546176D01*
X721509Y546350D01*
X685785Y582075D01*
Y637928D01*
X685945Y638137D01*
X686841Y640299D01*
X687147Y642620D01*
X686841Y644941D01*
X685945Y647103D01*
X684520Y648960D01*
X682663Y650385D01*
X680501Y651281D01*
X678180Y651587D01*
X675859Y651281D01*
X673697Y650385D01*
X671840Y648960D01*
X670415Y647103D01*
X669519Y644941D01*
X669213Y642620D01*
X669519Y640299D01*
X670415Y638137D01*
X670575Y637928D01*
Y578924D01*
X670834Y576956D01*
X671594Y575122D01*
X672802Y573547D01*
X708582Y537767D01*
X708820Y535956D01*
X709716Y533794D01*
X711141Y531937D01*
X712202Y531123D01*
Y450700D01*
X712042Y450491D01*
X711146Y448329D01*
X710841Y446008D01*
X711146Y443687D01*
X712042Y441525D01*
X713467Y439667D01*
X715324Y438242D01*
X715367Y438225D01*
X715115Y436955D01*
X709398D01*
X708527Y437825D01*
X708737Y439420D01*
X708431Y441741D01*
X707535Y443903D01*
X706110Y445760D01*
X704253Y447185D01*
X702091Y448081D01*
X699770Y448387D01*
X697449Y448081D01*
X695287Y447185D01*
X693430Y445760D01*
X692005Y443903D01*
X691109Y441741D01*
X690803Y439420D01*
X691109Y437099D01*
X692005Y434937D01*
X693380Y433145D01*
X693308Y432710D01*
X693024Y431875D01*
X675715D01*
X675468Y432473D01*
X674043Y434330D01*
X672186Y435755D01*
X670023Y436651D01*
X667702Y436957D01*
X666411Y436787D01*
X665279Y437919D01*
X665310Y438150D01*
X665004Y440471D01*
X664108Y442633D01*
X662683Y444490D01*
X660826Y445915D01*
X658664Y446811D01*
X656343Y447117D01*
X654022Y446811D01*
X651860Y445915D01*
X650003Y444490D01*
X648577Y442633D01*
X647682Y440471D01*
X646505Y440779D01*
Y648168D01*
X646704Y649169D01*
Y677508D01*
X646408Y678994D01*
X645566Y680254D01*
X594094Y731727D01*
X592833Y732569D01*
X591347Y732865D01*
X561679D01*
X551939Y742604D01*
X552581Y743759D01*
X615252Y729148D01*
X615572Y729137D01*
X615887Y729081D01*
X661677Y729911D01*
X661943Y729969D01*
X662216Y729977D01*
X717986Y742927D01*
X718035Y742950D01*
X718090Y742954D01*
X718494Y743157D01*
X718906Y743344D01*
X718944Y743383D01*
X718992Y743408D01*
X719288Y743750D01*
X719598Y744080D01*
X719617Y744131D01*
X719653Y744172D01*
X719795Y744602D01*
X719955Y745026D01*
X719953Y745080D01*
X719970Y745132D01*
X731600Y839042D01*
X731567Y839494D01*
X731552Y839948D01*
X731530Y839996D01*
X731526Y840050D01*
X731323Y840455D01*
X731135Y840868D01*
X731096Y840905D01*
X731072Y840952D01*
X730729Y841249D01*
X730398Y841559D01*
X730348Y841578D01*
X730308Y841613D01*
X729877Y841755D01*
X729452Y841915D01*
X636802Y857215D01*
X636493Y857205D01*
X636187Y857243D01*
D02*
G37*
G36*
X803520Y565470D02*
X794230D01*
Y559180D01*
X803520D01*
Y565470D01*
D02*
G37*
G36*
X790730D02*
X781440D01*
Y559180D01*
X790730D01*
Y565470D01*
D02*
G37*
G36*
X243610Y574919D02*
X240005Y574445D01*
X236645Y573053D01*
X233761Y570839D01*
X231547Y567955D01*
X230155Y564595D01*
X229681Y560990D01*
X230155Y557385D01*
X231547Y554025D01*
X233761Y551141D01*
X236645Y548927D01*
X240005Y547535D01*
X243610Y547061D01*
X247215Y547535D01*
X250575Y548927D01*
X253459Y551141D01*
X255673Y554025D01*
X257065Y557385D01*
X257539Y560990D01*
X257065Y564595D01*
X255673Y567955D01*
X253459Y570839D01*
X250575Y573053D01*
X247215Y574445D01*
X243610Y574919D01*
D02*
G37*
G36*
X189860Y552921D02*
X179610D01*
X176859Y552559D01*
X174294Y551497D01*
X172093Y549807D01*
X170403Y547606D01*
X169597Y545660D01*
X168223D01*
X167417Y547606D01*
X165727Y549807D01*
X163526Y551497D01*
X160961Y552559D01*
X158210Y552921D01*
X134210D01*
X131459Y552559D01*
X128895Y551497D01*
X126693Y549807D01*
X125003Y547606D01*
X123941Y545042D01*
X123579Y542290D01*
X123941Y539538D01*
X125003Y536974D01*
X126693Y534773D01*
X128895Y533083D01*
X131459Y532021D01*
X134210Y531659D01*
X158210D01*
X160961Y532021D01*
X163526Y533083D01*
X165727Y534773D01*
X167417Y536974D01*
X168223Y538920D01*
X169597D01*
X170403Y536974D01*
X172093Y534773D01*
X174294Y533083D01*
X176859Y532021D01*
X179610Y531659D01*
X189860D01*
Y542290D01*
Y552921D01*
D02*
G37*
G36*
X203610D02*
X193360D01*
Y544040D01*
X214011D01*
X213879Y545042D01*
X212817Y547606D01*
X211127Y549807D01*
X208925Y551497D01*
X206362Y552559D01*
X203610Y552921D01*
D02*
G37*
G36*
X926846Y542036D02*
X921230D01*
Y537436D01*
X926846D01*
Y542036D01*
D02*
G37*
G36*
X917730D02*
X912114D01*
Y537436D01*
X917730D01*
Y542036D01*
D02*
G37*
G36*
X214011Y540540D02*
X193360D01*
Y531659D01*
X203610D01*
X206362Y532021D01*
X208925Y533083D01*
X211127Y534773D01*
X212817Y536974D01*
X213879Y539538D01*
X214011Y540540D01*
D02*
G37*
G36*
X1151725Y565889D02*
X1130775D01*
X1127625Y565475D01*
X1124690Y564259D01*
X1122170Y562325D01*
X1120236Y559805D01*
X1119020Y556870D01*
X1118606Y553720D01*
X1119020Y550570D01*
X1120236Y547635D01*
X1122170Y545115D01*
X1124690Y543181D01*
X1127625Y541965D01*
X1129942Y541660D01*
Y540379D01*
X1127625Y540075D01*
X1124690Y538859D01*
X1122170Y536925D01*
X1120236Y534405D01*
X1119020Y531470D01*
X1118836Y530070D01*
X1141250D01*
X1163664D01*
X1163479Y531470D01*
X1162264Y534405D01*
X1160330Y536925D01*
X1157810Y538859D01*
X1154875Y540075D01*
X1152557Y540379D01*
Y541660D01*
X1154875Y541965D01*
X1157810Y543181D01*
X1160330Y545115D01*
X1162264Y547635D01*
X1163479Y550570D01*
X1163894Y553720D01*
X1163479Y556870D01*
X1162264Y559805D01*
X1160330Y562325D01*
X1157810Y564259D01*
X1154875Y565475D01*
X1151725Y565889D01*
D02*
G37*
G36*
X926846Y533936D02*
X921230D01*
Y529336D01*
X926846D01*
Y533936D01*
D02*
G37*
G36*
X917730D02*
X912114D01*
Y529336D01*
X917730D01*
Y533936D01*
D02*
G37*
G36*
X203610Y527521D02*
X179610D01*
X176859Y527159D01*
X174294Y526097D01*
X172093Y524407D01*
X170403Y522206D01*
X169597Y520260D01*
X168223D01*
X167417Y522206D01*
X165727Y524407D01*
X163526Y526097D01*
X160961Y527159D01*
X158210Y527521D01*
X134210D01*
X131459Y527159D01*
X128895Y526097D01*
X126693Y524407D01*
X125003Y522206D01*
X123941Y519641D01*
X123579Y516890D01*
X123941Y514138D01*
X125003Y511575D01*
X126693Y509373D01*
X128895Y507683D01*
X131459Y506621D01*
X134210Y506259D01*
X158210D01*
X160961Y506621D01*
X163526Y507683D01*
X165727Y509373D01*
X167417Y511575D01*
X168223Y513520D01*
X169597D01*
X170403Y511575D01*
X172093Y509373D01*
X174294Y507683D01*
X176859Y506621D01*
X179610Y506259D01*
X203610D01*
X206362Y506621D01*
X208925Y507683D01*
X211127Y509373D01*
X212817Y511575D01*
X213879Y514138D01*
X214241Y516890D01*
X213879Y519641D01*
X212817Y522206D01*
X211127Y524407D01*
X208925Y526097D01*
X206362Y527159D01*
X203610Y527521D01*
D02*
G37*
G36*
X1163664Y526570D02*
X1143000D01*
Y516151D01*
X1151725D01*
X1154875Y516566D01*
X1157810Y517781D01*
X1160330Y519715D01*
X1162264Y522235D01*
X1163479Y525170D01*
X1163664Y526570D01*
D02*
G37*
G36*
X1139500D02*
X1118836D01*
X1119020Y525170D01*
X1120236Y522235D01*
X1122170Y519715D01*
X1124690Y517781D01*
X1127625Y516566D01*
X1130775Y516151D01*
X1139500D01*
Y526570D01*
D02*
G37*
G36*
X677390Y521816D02*
Y514830D01*
X684376D01*
X684301Y515401D01*
X683405Y517563D01*
X681980Y519420D01*
X680123Y520845D01*
X677961Y521741D01*
X677390Y521816D01*
D02*
G37*
G36*
X673890D02*
X673319Y521741D01*
X671157Y520845D01*
X669300Y519420D01*
X667875Y517563D01*
X666979Y515401D01*
X666904Y514830D01*
X673890D01*
Y521816D01*
D02*
G37*
G36*
X628170Y515466D02*
X627599Y515391D01*
X625437Y514495D01*
X623580Y513070D01*
X622155Y511213D01*
X621259Y509051D01*
X621184Y508480D01*
X628170D01*
Y515466D01*
D02*
G37*
G36*
X684376Y511330D02*
X677390D01*
Y504344D01*
X677961Y504419D01*
X680123Y505315D01*
X681980Y506740D01*
X683405Y508597D01*
X684301Y510759D01*
X684376Y511330D01*
D02*
G37*
G36*
X673890D02*
X666904D01*
X666979Y510759D01*
X667875Y508597D01*
X669300Y506740D01*
X671157Y505315D01*
X673319Y504419D01*
X673890Y504344D01*
Y511330D01*
D02*
G37*
G36*
X628170Y504980D02*
X621184D01*
X621259Y504409D01*
X622155Y502247D01*
X623580Y500390D01*
X625437Y498965D01*
X627599Y498069D01*
X628170Y497994D01*
Y504980D01*
D02*
G37*
G36*
X591030Y491336D02*
Y484350D01*
X598016D01*
X597941Y484921D01*
X597045Y487083D01*
X595620Y488940D01*
X593763Y490365D01*
X591601Y491261D01*
X591030Y491336D01*
D02*
G37*
G36*
X587530D02*
X586959Y491261D01*
X584797Y490365D01*
X582940Y488940D01*
X581515Y487083D01*
X580619Y484921D01*
X580544Y484350D01*
X587530D01*
Y491336D01*
D02*
G37*
G36*
X887250Y488570D02*
X877960D01*
Y482280D01*
X887250D01*
Y488570D01*
D02*
G37*
G36*
X598016Y480850D02*
X591030D01*
Y473864D01*
X591601Y473939D01*
X593763Y474835D01*
X595620Y476260D01*
X597045Y478117D01*
X597941Y480279D01*
X598016Y480850D01*
D02*
G37*
G36*
X587530D02*
X580544D01*
X580619Y480279D01*
X581515Y478117D01*
X582940Y476260D01*
X584797Y474835D01*
X586959Y473939D01*
X587530Y473864D01*
Y480850D01*
D02*
G37*
G36*
X887250Y478780D02*
X877960D01*
Y472490D01*
X887250D01*
Y478780D01*
D02*
G37*
G36*
X1151620Y481789D02*
X1136620D01*
X1134653Y481398D01*
X1132986Y480284D01*
X1131872Y478616D01*
X1131481Y476650D01*
Y471650D01*
X1131872Y469683D01*
X1132986Y468016D01*
X1134653Y466902D01*
X1136620Y466511D01*
X1151620D01*
X1153587Y466902D01*
X1155254Y468016D01*
X1156368Y469683D01*
X1156759Y471650D01*
Y476650D01*
X1156368Y478616D01*
X1155254Y480284D01*
X1153587Y481398D01*
X1151620Y481789D01*
D02*
G37*
G36*
X1116920D02*
X1101920D01*
X1099954Y481398D01*
X1098286Y480284D01*
X1097172Y478616D01*
X1096781Y476650D01*
Y471650D01*
X1097172Y469683D01*
X1098286Y468016D01*
X1099954Y466902D01*
X1101920Y466511D01*
X1116920D01*
X1118886Y466902D01*
X1120554Y468016D01*
X1121668Y469683D01*
X1122059Y471650D01*
Y476650D01*
X1121668Y478616D01*
X1120554Y480284D01*
X1118886Y481398D01*
X1116920Y481789D01*
D02*
G37*
G36*
X664690Y467206D02*
Y460220D01*
X671676D01*
X671601Y460791D01*
X670705Y462953D01*
X669280Y464810D01*
X667423Y466235D01*
X665261Y467131D01*
X664690Y467206D01*
D02*
G37*
G36*
X661190D02*
X660619Y467131D01*
X658457Y466235D01*
X656600Y464810D01*
X655175Y462953D01*
X654279Y460791D01*
X654204Y460220D01*
X661190D01*
Y467206D01*
D02*
G37*
G36*
X851916Y463070D02*
X847316D01*
Y457454D01*
X851916D01*
Y463070D01*
D02*
G37*
G36*
X843816D02*
X839216D01*
Y457454D01*
X843816D01*
Y463070D01*
D02*
G37*
G36*
X1122620Y463289D02*
X1120654Y462898D01*
X1118986Y461784D01*
X1117872Y460117D01*
X1117481Y458150D01*
X1117872Y456184D01*
X1118986Y454516D01*
X1120654Y453402D01*
X1122620Y453011D01*
X1124586Y453402D01*
X1126254Y454516D01*
X1127368Y456184D01*
X1127759Y458150D01*
X1127368Y460117D01*
X1126254Y461784D01*
X1124586Y462898D01*
X1122620Y463289D01*
D02*
G37*
G36*
X608330Y454737D02*
X606009Y454431D01*
X603847Y453535D01*
X601990Y452110D01*
X600821Y450588D01*
X600425Y450481D01*
X599725D01*
X599329Y450588D01*
X598160Y452110D01*
X596303Y453535D01*
X594141Y454431D01*
X591820Y454737D01*
X589499Y454431D01*
X587337Y453535D01*
X585480Y452110D01*
X584055Y450253D01*
X583159Y448091D01*
X582853Y445770D01*
X583159Y443449D01*
X584055Y441287D01*
X584627Y440540D01*
X584430Y440140D01*
X584430D01*
Y426360D01*
X599210D01*
Y440036D01*
X599458Y440248D01*
X600925Y440021D01*
X600940Y440002D01*
Y426360D01*
X615720D01*
Y440140D01*
X615720D01*
X615523Y440540D01*
X616095Y441287D01*
X616991Y443449D01*
X617297Y445770D01*
X616991Y448091D01*
X616095Y450253D01*
X614670Y452110D01*
X612813Y453535D01*
X610651Y454431D01*
X608330Y454737D01*
D02*
G37*
G36*
X671676Y456720D02*
X664690D01*
Y449734D01*
X665261Y449809D01*
X667423Y450705D01*
X669280Y452130D01*
X670705Y453987D01*
X671601Y456149D01*
X671676Y456720D01*
D02*
G37*
G36*
X661190D02*
X654204D01*
X654279Y456149D01*
X655175Y453987D01*
X656600Y452130D01*
X658457Y450705D01*
X660619Y449809D01*
X661190Y449734D01*
Y456720D01*
D02*
G37*
G36*
X614680Y475057D02*
X612359Y474751D01*
X610197Y473855D01*
X608340Y472430D01*
X606915Y470573D01*
X606019Y468411D01*
X605713Y466090D01*
X606019Y463769D01*
X606915Y461607D01*
X608340Y459750D01*
X610197Y458325D01*
X612359Y457429D01*
X614680Y457123D01*
X617001Y457429D01*
X617599Y457677D01*
X620955Y454321D01*
Y440140D01*
X617450D01*
Y426360D01*
X632230D01*
Y440140D01*
X628725D01*
Y455930D01*
X628429Y457417D01*
X627587Y458677D01*
X623093Y463171D01*
X623341Y463769D01*
X623647Y466090D01*
X623341Y468411D01*
X622445Y470573D01*
X621020Y472430D01*
X619163Y473855D01*
X617001Y474751D01*
X614680Y475057D01*
D02*
G37*
G36*
X1091410Y424026D02*
Y417040D01*
X1098396D01*
X1098321Y417611D01*
X1097425Y419773D01*
X1096000Y421630D01*
X1094143Y423055D01*
X1091981Y423951D01*
X1091410Y424026D01*
D02*
G37*
G36*
X1087910D02*
X1087339Y423951D01*
X1085177Y423055D01*
X1083320Y421630D01*
X1081895Y419773D01*
X1080999Y417611D01*
X1080924Y417040D01*
X1087910D01*
Y424026D01*
D02*
G37*
G36*
X1122620Y423289D02*
X1120654Y422898D01*
X1118986Y421784D01*
X1117872Y420117D01*
X1117481Y418150D01*
X1117872Y416184D01*
X1118986Y414516D01*
X1120654Y413402D01*
X1122620Y413011D01*
X1124586Y413402D01*
X1126254Y414516D01*
X1127368Y416184D01*
X1127759Y418150D01*
X1127368Y420117D01*
X1126254Y421784D01*
X1124586Y422898D01*
X1122620Y423289D01*
D02*
G37*
G36*
X1151620Y409789D02*
X1136620D01*
X1136451Y409755D01*
X1117089D01*
X1116920Y409789D01*
X1101920D01*
X1099954Y409398D01*
X1098286Y408284D01*
X1097172Y406617D01*
X1096781Y404650D01*
Y399650D01*
X1097172Y397683D01*
X1098286Y396016D01*
X1099954Y394902D01*
X1101920Y394511D01*
X1116920D01*
X1117089Y394545D01*
X1136451D01*
X1136620Y394511D01*
X1151620D01*
X1153587Y394902D01*
X1155254Y396016D01*
X1156368Y397683D01*
X1156759Y399650D01*
Y404650D01*
X1156368Y406617D01*
X1155254Y408284D01*
X1153587Y409398D01*
X1151620Y409789D01*
D02*
G37*
G36*
X1098396Y413540D02*
X1091410D01*
Y406554D01*
X1091981Y406629D01*
X1094143Y407525D01*
X1096000Y408950D01*
X1097425Y410807D01*
X1098321Y412969D01*
X1098396Y413540D01*
D02*
G37*
G36*
X1087910D02*
X1080924D01*
X1080999Y412969D01*
X1081895Y410807D01*
X1083320Y408950D01*
X1085177Y407525D01*
X1087339Y406629D01*
X1087910Y406554D01*
Y413540D01*
D02*
G37*
G36*
X977000Y386610D02*
X968460D01*
Y379320D01*
X977000D01*
Y386610D01*
D02*
G37*
G36*
X1056500D02*
X1047960D01*
Y379320D01*
X1056500D01*
Y386610D01*
D02*
G37*
G36*
X1044460D02*
X1035920D01*
Y379320D01*
X1044460D01*
Y386610D01*
D02*
G37*
G36*
X964960D02*
X956420D01*
Y379320D01*
X964960D01*
Y386610D01*
D02*
G37*
G36*
X793270Y379090D02*
X787630D01*
Y373950D01*
X793270D01*
Y379090D01*
D02*
G37*
G36*
X812010Y378476D02*
Y373876D01*
X817626D01*
Y378476D01*
X812010D01*
D02*
G37*
G36*
X1056500Y375820D02*
X1047960D01*
Y368530D01*
X1056500D01*
Y375820D01*
D02*
G37*
G36*
X1044460D02*
X1035920D01*
Y368530D01*
X1044460D01*
Y375820D01*
D02*
G37*
G36*
X977000D02*
X968460D01*
Y368530D01*
X977000D01*
Y375820D01*
D02*
G37*
G36*
X964960D02*
X956420D01*
Y368530D01*
X964960D01*
Y375820D01*
D02*
G37*
G36*
X817626Y370376D02*
X812010D01*
Y365776D01*
X817626D01*
Y370376D01*
D02*
G37*
G36*
X793270Y370450D02*
X787630D01*
Y365310D01*
X793270D01*
Y370450D01*
D02*
G37*
G36*
X802410Y379090D02*
X801878Y379090D01*
X796770D01*
Y372200D01*
Y365310D01*
X801817D01*
X802410Y365310D01*
X803487Y365776D01*
X808510D01*
Y372126D01*
Y378476D01*
X803426Y378476D01*
X802410Y379090D01*
D02*
G37*
G36*
X1050290Y551257D02*
X1047969Y550951D01*
X1045807Y550055D01*
X1043950Y548630D01*
X1042525Y546773D01*
X1041629Y544611D01*
X1041323Y542290D01*
X1041629Y539969D01*
X1042525Y537807D01*
X1043950Y535950D01*
X1045807Y534525D01*
X1047969Y533629D01*
X1048230Y533595D01*
X1063382Y518443D01*
Y389513D01*
X1063641Y387545D01*
X1064400Y385711D01*
X1065609Y384136D01*
X1083504Y366240D01*
X1083539Y365979D01*
X1084435Y363817D01*
X1085860Y361960D01*
X1087717Y360535D01*
X1089879Y359639D01*
X1092200Y359333D01*
X1094521Y359639D01*
X1096683Y360535D01*
X1098540Y361960D01*
X1099965Y363817D01*
X1100861Y365979D01*
X1101167Y368300D01*
X1100861Y370621D01*
X1099965Y372783D01*
X1098540Y374640D01*
X1096683Y376065D01*
X1094521Y376961D01*
X1094260Y376996D01*
X1078592Y392663D01*
Y521593D01*
X1078333Y523562D01*
X1077573Y525396D01*
X1076364Y526971D01*
X1058986Y544350D01*
X1058951Y544611D01*
X1058055Y546773D01*
X1056630Y548630D01*
X1054773Y550055D01*
X1052611Y550951D01*
X1050290Y551257D01*
D02*
G37*
G36*
X1138000Y350110D02*
X1130710D01*
Y341570D01*
X1138000D01*
Y350110D01*
D02*
G37*
G36*
X1127210D02*
X1119920D01*
Y341570D01*
X1127210D01*
Y350110D01*
D02*
G37*
G36*
X1138000Y338070D02*
X1130710D01*
Y329530D01*
X1138000D01*
Y338070D01*
D02*
G37*
G36*
X1127210D02*
X1119920D01*
Y329530D01*
X1127210D01*
Y338070D01*
D02*
G37*
G36*
X203610Y324321D02*
X179610D01*
X176859Y323959D01*
X174294Y322897D01*
X172093Y321207D01*
X170403Y319006D01*
X169597Y317060D01*
X168223D01*
X167417Y319006D01*
X165727Y321207D01*
X163526Y322897D01*
X160961Y323959D01*
X158210Y324321D01*
X134210D01*
X131459Y323959D01*
X128895Y322897D01*
X126693Y321207D01*
X125003Y319006D01*
X123941Y316441D01*
X123579Y313690D01*
X123941Y310938D01*
X125003Y308375D01*
X126693Y306173D01*
X128895Y304483D01*
X131459Y303421D01*
X134210Y303059D01*
X158210D01*
X160961Y303421D01*
X163526Y304483D01*
X165727Y306173D01*
X167417Y308375D01*
X168223Y310320D01*
X169597D01*
X170403Y308375D01*
X172093Y306173D01*
X174294Y304483D01*
X176859Y303421D01*
X179610Y303059D01*
X203610D01*
X206362Y303421D01*
X208925Y304483D01*
X211127Y306173D01*
X212817Y308375D01*
X213879Y310938D01*
X214241Y313690D01*
X213879Y316441D01*
X212817Y319006D01*
X211127Y321207D01*
X208925Y322897D01*
X206362Y323959D01*
X203610Y324321D01*
D02*
G37*
G36*
Y298921D02*
X179610D01*
X176859Y298559D01*
X174294Y297497D01*
X172093Y295807D01*
X170403Y293605D01*
X169597Y291660D01*
X168223D01*
X167417Y293605D01*
X165727Y295807D01*
X163526Y297497D01*
X160961Y298559D01*
X158210Y298921D01*
X134210D01*
X131459Y298559D01*
X128895Y297497D01*
X126693Y295807D01*
X125003Y293605D01*
X123941Y291042D01*
X123579Y288290D01*
X123941Y285539D01*
X125003Y282974D01*
X126693Y280773D01*
X128895Y279083D01*
X131459Y278021D01*
X134210Y277659D01*
X158210D01*
X160961Y278021D01*
X163526Y279083D01*
X165727Y280773D01*
X167417Y282974D01*
X168223Y284920D01*
X169597D01*
X170403Y282974D01*
X172093Y280773D01*
X174294Y279083D01*
X176859Y278021D01*
X179610Y277659D01*
X203610D01*
X206362Y278021D01*
X208925Y279083D01*
X211127Y280773D01*
X212817Y282974D01*
X213879Y285539D01*
X214241Y288290D01*
X213879Y291042D01*
X212817Y293605D01*
X211127Y295807D01*
X208925Y297497D01*
X206362Y298559D01*
X203610Y298921D01*
D02*
G37*
G36*
X383650Y306860D02*
X370860D01*
Y289570D01*
X383650D01*
Y306860D01*
D02*
G37*
G36*
X203610Y273521D02*
X179610D01*
X176859Y273159D01*
X174294Y272097D01*
X172093Y270407D01*
X170403Y268206D01*
X169597Y266260D01*
X168223D01*
X167417Y268206D01*
X165727Y270407D01*
X163526Y272097D01*
X160961Y273159D01*
X158210Y273521D01*
X134210D01*
X131459Y273159D01*
X128895Y272097D01*
X126693Y270407D01*
X125003Y268206D01*
X123941Y265641D01*
X123579Y262890D01*
X123941Y260138D01*
X125003Y257575D01*
X126693Y255373D01*
X128895Y253683D01*
X131459Y252621D01*
X134210Y252259D01*
X158210D01*
X160961Y252621D01*
X163526Y253683D01*
X165727Y255373D01*
X167417Y257575D01*
X168223Y259520D01*
X169597D01*
X170403Y257575D01*
X172093Y255373D01*
X174294Y253683D01*
X176859Y252621D01*
X179610Y252259D01*
X203610D01*
X206362Y252621D01*
X208925Y253683D01*
X211127Y255373D01*
X212817Y257575D01*
X213879Y260138D01*
X214241Y262890D01*
X213879Y265641D01*
X212817Y268206D01*
X211127Y270407D01*
X208925Y272097D01*
X206362Y273159D01*
X203610Y273521D01*
D02*
G37*
G36*
X1138000Y270610D02*
X1130710D01*
Y262070D01*
X1138000D01*
Y270610D01*
D02*
G37*
G36*
X1127210D02*
X1119920D01*
Y262070D01*
X1127210D01*
Y270610D01*
D02*
G37*
G36*
X1138000Y258570D02*
X1130710D01*
Y250030D01*
X1138000D01*
Y258570D01*
D02*
G37*
G36*
X1127210D02*
X1119920D01*
Y250030D01*
X1127210D01*
Y258570D01*
D02*
G37*
G36*
X203610Y248121D02*
X179610D01*
X176859Y247759D01*
X174294Y246697D01*
X172093Y245007D01*
X170403Y242806D01*
X169597Y240860D01*
X168223D01*
X167417Y242806D01*
X165727Y245007D01*
X163526Y246697D01*
X160961Y247759D01*
X158210Y248121D01*
X134210D01*
X131459Y247759D01*
X128895Y246697D01*
X126693Y245007D01*
X125003Y242806D01*
X123941Y240242D01*
X123579Y237490D01*
X123941Y234739D01*
X125003Y232174D01*
X126693Y229973D01*
X128895Y228283D01*
X131459Y227221D01*
X134210Y226859D01*
X158210D01*
X160961Y227221D01*
X163526Y228283D01*
X165727Y229973D01*
X167417Y232174D01*
X168223Y234120D01*
X169597D01*
X170403Y232174D01*
X172093Y229973D01*
X174294Y228283D01*
X176859Y227221D01*
X179610Y226859D01*
X203610D01*
X206362Y227221D01*
X208925Y228283D01*
X211127Y229973D01*
X212817Y232174D01*
X213879Y234739D01*
X214241Y237490D01*
X213879Y240242D01*
X212817Y242806D01*
X211127Y245007D01*
X208925Y246697D01*
X206362Y247759D01*
X203610Y248121D01*
D02*
G37*
G36*
Y222721D02*
X179610D01*
X176859Y222359D01*
X174294Y221297D01*
X172093Y219607D01*
X170403Y217405D01*
X169597Y215460D01*
X168223D01*
X167417Y217405D01*
X165727Y219607D01*
X163526Y221297D01*
X160961Y222359D01*
X158210Y222721D01*
X134210D01*
X131459Y222359D01*
X128895Y221297D01*
X126693Y219607D01*
X125003Y217405D01*
X123941Y214841D01*
X123579Y212090D01*
X123941Y209338D01*
X125003Y206775D01*
X126693Y204573D01*
X128895Y202883D01*
X131459Y201821D01*
X134210Y201459D01*
X158210D01*
X160961Y201821D01*
X163526Y202883D01*
X165727Y204573D01*
X167417Y206775D01*
X168223Y208720D01*
X169597D01*
X170403Y206775D01*
X172093Y204573D01*
X174294Y202883D01*
X176859Y201821D01*
X179610Y201459D01*
X203610D01*
X206362Y201821D01*
X208925Y202883D01*
X211127Y204573D01*
X212817Y206775D01*
X213879Y209338D01*
X214241Y212090D01*
X213879Y214841D01*
X212817Y217405D01*
X211127Y219607D01*
X208925Y221297D01*
X206362Y222359D01*
X203610Y222721D01*
D02*
G37*
G36*
X793270Y209090D02*
X787630D01*
Y203950D01*
X793270D01*
Y209090D01*
D02*
G37*
G36*
X812010Y208476D02*
Y203876D01*
X817626D01*
Y208476D01*
X812010D01*
D02*
G37*
G36*
X817626Y200376D02*
X812010D01*
Y195776D01*
X817626D01*
Y200376D01*
D02*
G37*
G36*
X793270Y200450D02*
X787630D01*
Y195310D01*
X793270D01*
Y200450D01*
D02*
G37*
G36*
X802410Y209090D02*
X801878Y209090D01*
X796770D01*
Y202200D01*
Y195310D01*
X801817D01*
X802410Y195310D01*
X803487Y195776D01*
X808510D01*
Y202126D01*
Y208476D01*
X803426Y208476D01*
X802410Y209090D01*
D02*
G37*
G36*
X203610Y197321D02*
X179610D01*
X176859Y196959D01*
X174294Y195897D01*
X172093Y194207D01*
X170403Y192006D01*
X169597Y190060D01*
X168223D01*
X167417Y192006D01*
X165727Y194207D01*
X163526Y195897D01*
X160961Y196959D01*
X158210Y197321D01*
X134210D01*
X131459Y196959D01*
X128895Y195897D01*
X126693Y194207D01*
X125003Y192006D01*
X123941Y189442D01*
X123579Y186690D01*
X123941Y183939D01*
X125003Y181374D01*
X126693Y179173D01*
X128895Y177483D01*
X131459Y176421D01*
X134210Y176059D01*
X158210D01*
X160961Y176421D01*
X163526Y177483D01*
X165727Y179173D01*
X167417Y181374D01*
X168223Y183320D01*
X169597D01*
X170403Y181374D01*
X172093Y179173D01*
X174294Y177483D01*
X176859Y176421D01*
X179610Y176059D01*
X203610D01*
X206362Y176421D01*
X208925Y177483D01*
X211127Y179173D01*
X212817Y181374D01*
X213879Y183939D01*
X214241Y186690D01*
X213879Y189442D01*
X212817Y192006D01*
X211127Y194207D01*
X208925Y195897D01*
X206362Y196959D01*
X203610Y197321D01*
D02*
G37*
G36*
X977000Y186610D02*
X968460D01*
Y179320D01*
X977000D01*
Y186610D01*
D02*
G37*
G36*
X1056500D02*
X1047960D01*
Y179320D01*
X1056500D01*
Y186610D01*
D02*
G37*
G36*
X1044460D02*
X1035920D01*
Y179320D01*
X1044460D01*
Y186610D01*
D02*
G37*
G36*
X964960D02*
X956420D01*
Y179320D01*
X964960D01*
Y186610D01*
D02*
G37*
G36*
X1056500Y175820D02*
X1047960D01*
Y168530D01*
X1056500D01*
Y175820D01*
D02*
G37*
G36*
X1044460D02*
X1035920D01*
Y168530D01*
X1044460D01*
Y175820D01*
D02*
G37*
G36*
X977000D02*
X968460D01*
Y168530D01*
X977000D01*
Y175820D01*
D02*
G37*
G36*
X964960D02*
X956420D01*
Y168530D01*
X964960D01*
Y175820D01*
D02*
G37*
G36*
X203610Y171921D02*
X179610D01*
X176859Y171559D01*
X174294Y170497D01*
X172093Y168807D01*
X170403Y166605D01*
X169597Y164660D01*
X168223D01*
X167417Y166605D01*
X165727Y168807D01*
X163526Y170497D01*
X160961Y171559D01*
X158210Y171921D01*
X134210D01*
X131459Y171559D01*
X128895Y170497D01*
X126693Y168807D01*
X125003Y166605D01*
X123941Y164042D01*
X123579Y161290D01*
X123941Y158539D01*
X125003Y155975D01*
X126693Y153773D01*
X128895Y152083D01*
X131459Y151021D01*
X134210Y150659D01*
X158210D01*
X160961Y151021D01*
X163526Y152083D01*
X165727Y153773D01*
X167417Y155975D01*
X168223Y157920D01*
X169597D01*
X170403Y155975D01*
X172093Y153773D01*
X174294Y152083D01*
X176859Y151021D01*
X179610Y150659D01*
X203610D01*
X206362Y151021D01*
X208925Y152083D01*
X211127Y153773D01*
X212817Y155975D01*
X213879Y158539D01*
X214241Y161290D01*
X213879Y164042D01*
X212817Y166605D01*
X211127Y168807D01*
X208925Y170497D01*
X206362Y171559D01*
X203610Y171921D01*
D02*
G37*
G36*
Y146521D02*
X179610D01*
X176859Y146159D01*
X174294Y145097D01*
X172093Y143407D01*
X170403Y141206D01*
X169597Y139260D01*
X168223D01*
X167417Y141206D01*
X165727Y143407D01*
X163526Y145097D01*
X160961Y146159D01*
X158210Y146521D01*
X134210D01*
X131459Y146159D01*
X128895Y145097D01*
X126693Y143407D01*
X125003Y141206D01*
X123941Y138642D01*
X123579Y135890D01*
X123941Y133139D01*
X125003Y130575D01*
X126693Y128373D01*
X128895Y126683D01*
X131459Y125621D01*
X134210Y125259D01*
X158210D01*
X160961Y125621D01*
X163526Y126683D01*
X165727Y128373D01*
X167417Y130575D01*
X168223Y132520D01*
X169597D01*
X170403Y130575D01*
X172093Y128373D01*
X174294Y126683D01*
X176859Y125621D01*
X179610Y125259D01*
X203610D01*
X206362Y125621D01*
X208925Y126683D01*
X211127Y128373D01*
X212817Y130575D01*
X213879Y133139D01*
X214241Y135890D01*
X213879Y138642D01*
X212817Y141206D01*
X211127Y143407D01*
X208925Y145097D01*
X206362Y146159D01*
X203610Y146521D01*
D02*
G37*
G36*
X480540Y140816D02*
Y133830D01*
X487526D01*
X487451Y134401D01*
X486555Y136563D01*
X485130Y138420D01*
X483273Y139845D01*
X481111Y140741D01*
X480540Y140816D01*
D02*
G37*
G36*
X477040D02*
X476469Y140741D01*
X474307Y139845D01*
X472450Y138420D01*
X471025Y136563D01*
X470129Y134401D01*
X470054Y133830D01*
X477040D01*
Y140816D01*
D02*
G37*
G36*
X487526Y130330D02*
X480540D01*
Y123344D01*
X481111Y123419D01*
X483273Y124315D01*
X485130Y125740D01*
X486555Y127597D01*
X487451Y129759D01*
X487526Y130330D01*
D02*
G37*
G36*
X477040D02*
X470054D01*
X470129Y129759D01*
X471025Y127597D01*
X472450Y125740D01*
X474307Y124315D01*
X476469Y123419D01*
X477040Y123344D01*
Y130330D01*
D02*
G37*
G36*
X719960Y145920D02*
X688820D01*
Y114780D01*
X719960D01*
Y145920D01*
D02*
G37*
G36*
X685320D02*
X654180D01*
Y114780D01*
X685320D01*
Y145920D01*
D02*
G37*
G36*
X203610Y121121D02*
X179610D01*
X176859Y120759D01*
X174294Y119697D01*
X172093Y118007D01*
X170403Y115806D01*
X169597Y113860D01*
X168223D01*
X167417Y115806D01*
X165727Y118007D01*
X163526Y119697D01*
X160961Y120759D01*
X158210Y121121D01*
X134210D01*
X131459Y120759D01*
X128895Y119697D01*
X126693Y118007D01*
X125003Y115806D01*
X123941Y113242D01*
X123579Y110490D01*
X123941Y107739D01*
X125003Y105175D01*
X126693Y102973D01*
X128895Y101283D01*
X131459Y100221D01*
X134210Y99859D01*
X158210D01*
X160961Y100221D01*
X163526Y101283D01*
X165727Y102973D01*
X167417Y105175D01*
X168223Y107120D01*
X169597D01*
X170403Y105175D01*
X172093Y102973D01*
X174294Y101283D01*
X176859Y100221D01*
X179610Y99859D01*
X203610D01*
X206362Y100221D01*
X208925Y101283D01*
X211127Y102973D01*
X212817Y105175D01*
X213879Y107739D01*
X214241Y110490D01*
X213879Y113242D01*
X212817Y115806D01*
X211127Y118007D01*
X208925Y119697D01*
X206362Y120759D01*
X203610Y121121D01*
D02*
G37*
G36*
Y95721D02*
X179610D01*
X176859Y95359D01*
X174294Y94297D01*
X172093Y92607D01*
X170403Y90406D01*
X169597Y88460D01*
X168223D01*
X167417Y90406D01*
X165727Y92607D01*
X163526Y94297D01*
X160961Y95359D01*
X158210Y95721D01*
X134210D01*
X131459Y95359D01*
X128895Y94297D01*
X126693Y92607D01*
X125003Y90406D01*
X123941Y87842D01*
X123579Y85090D01*
X123941Y82338D01*
X125003Y79774D01*
X126693Y77573D01*
X128895Y75883D01*
X131459Y74821D01*
X134210Y74459D01*
X158210D01*
X160961Y74821D01*
X163526Y75883D01*
X165727Y77573D01*
X167417Y79774D01*
X168223Y81720D01*
X169597D01*
X170403Y79774D01*
X172093Y77573D01*
X174294Y75883D01*
X176859Y74821D01*
X179610Y74459D01*
X203610D01*
X206362Y74821D01*
X208925Y75883D01*
X211127Y77573D01*
X212817Y79774D01*
X213879Y82338D01*
X214241Y85090D01*
X213879Y87842D01*
X212817Y90406D01*
X211127Y92607D01*
X208925Y94297D01*
X206362Y95359D01*
X203610Y95721D01*
D02*
G37*
G36*
X810260Y161367D02*
X807939Y161061D01*
X805777Y160165D01*
X803920Y158740D01*
X802495Y156883D01*
X801599Y154721D01*
X801293Y152400D01*
X801599Y150079D01*
X802495Y147917D01*
X802655Y147708D01*
Y145920D01*
X777480D01*
Y80140D01*
X843260D01*
Y145920D01*
X817865D01*
Y147708D01*
X818025Y147917D01*
X818921Y150079D01*
X819227Y152400D01*
X818921Y154721D01*
X818025Y156883D01*
X816600Y158740D01*
X814743Y160165D01*
X812581Y161061D01*
X810260Y161367D01*
D02*
G37*
G36*
X719960Y111280D02*
X688820D01*
Y80140D01*
X719960D01*
Y111280D01*
D02*
G37*
G36*
X685320D02*
X654180D01*
Y80140D01*
X685320D01*
Y111280D01*
D02*
G37*
G36*
X344170Y322657D02*
X341849Y322351D01*
X339687Y321455D01*
X337830Y320030D01*
X336405Y318173D01*
X335509Y316011D01*
X335203Y313690D01*
X335509Y311369D01*
X336405Y309207D01*
X336565Y308998D01*
Y294387D01*
X336824Y292418D01*
X337584Y290584D01*
X338792Y289009D01*
X480850Y146951D01*
X482425Y145743D01*
X484260Y144983D01*
X486228Y144724D01*
X530880D01*
Y80140D01*
X596660D01*
Y145920D01*
X574374D01*
Y147636D01*
X574534Y147845D01*
X575430Y150008D01*
X575736Y152329D01*
X575430Y154649D01*
X574534Y156812D01*
X573110Y158669D01*
X571253Y160094D01*
X569090Y160990D01*
X566769Y161296D01*
X564448Y160990D01*
X562286Y160094D01*
X562077Y159934D01*
X489378D01*
X360915Y288397D01*
X361401Y289570D01*
X367360D01*
Y306860D01*
X354570D01*
Y296401D01*
X353397Y295915D01*
X351775Y297537D01*
Y308998D01*
X351935Y309207D01*
X352831Y311369D01*
X353137Y313690D01*
X352831Y316011D01*
X351935Y318173D01*
X350510Y320030D01*
X348653Y321455D01*
X346491Y322351D01*
X344170Y322657D01*
D02*
G37*
G36*
X1005550Y75970D02*
X1000410D01*
Y70330D01*
X1005550D01*
Y75970D01*
D02*
G37*
G36*
X996910D02*
X991770D01*
Y70330D01*
X996910D01*
Y75970D01*
D02*
G37*
G36*
X203610Y70321D02*
X179610D01*
X176859Y69959D01*
X174294Y68897D01*
X172093Y67207D01*
X170403Y65005D01*
X170109Y64295D01*
X168839Y64547D01*
Y65690D01*
X168487Y67461D01*
X167483Y68963D01*
X165981Y69967D01*
X164210Y70319D01*
X128210D01*
X126439Y69967D01*
X124937Y68963D01*
X123933Y67461D01*
X123581Y65690D01*
Y53690D01*
X123933Y51919D01*
X124937Y50417D01*
X126439Y49413D01*
X128210Y49061D01*
X164210D01*
X165981Y49413D01*
X167483Y50417D01*
X168487Y51919D01*
X168839Y53690D01*
Y54833D01*
X170109Y55085D01*
X170403Y54374D01*
X172093Y52173D01*
X174294Y50483D01*
X176859Y49421D01*
X179610Y49059D01*
X203610D01*
X206362Y49421D01*
X208925Y50483D01*
X211127Y52173D01*
X212817Y54374D01*
X213879Y56939D01*
X214241Y59690D01*
X213879Y62442D01*
X212817Y65005D01*
X211127Y67207D01*
X208925Y68897D01*
X206362Y69959D01*
X203610Y70321D01*
D02*
G37*
G36*
X1020684Y93726D02*
X1007984D01*
Y78994D01*
X1010449D01*
Y75970D01*
X1007370D01*
Y61190D01*
X1021150D01*
Y75970D01*
X1018219D01*
Y78994D01*
X1020684D01*
Y93726D01*
D02*
G37*
G36*
X1005550Y66830D02*
X1000410D01*
Y61190D01*
X1005550D01*
Y66830D01*
D02*
G37*
G36*
X996910D02*
X991770D01*
Y61190D01*
X996910D01*
Y66830D01*
D02*
G37*
G36*
X828610Y54919D02*
X825005Y54444D01*
X821645Y53053D01*
X818761Y50839D01*
X816547Y47955D01*
X815155Y44595D01*
X814681Y40990D01*
X815155Y37385D01*
X816547Y34025D01*
X818761Y31141D01*
X821645Y28927D01*
X825005Y27535D01*
X828610Y27061D01*
X832215Y27535D01*
X835575Y28927D01*
X838459Y31141D01*
X840673Y34025D01*
X842065Y37385D01*
X842539Y40990D01*
X842065Y44595D01*
X840673Y47955D01*
X838459Y50839D01*
X835575Y53053D01*
X832215Y54444D01*
X828610Y54919D01*
D02*
G37*
G36*
X243610D02*
X240005Y54444D01*
X236645Y53053D01*
X233761Y50839D01*
X231547Y47955D01*
X230155Y44595D01*
X229681Y40990D01*
X230155Y37385D01*
X231547Y34025D01*
X233761Y31141D01*
X236645Y28927D01*
X240005Y27535D01*
X243610Y27061D01*
X247215Y27535D01*
X250575Y28927D01*
X253459Y31141D01*
X255673Y34025D01*
X257065Y37385D01*
X257539Y40990D01*
X257065Y44595D01*
X255673Y47955D01*
X253459Y50839D01*
X250575Y53053D01*
X247215Y54444D01*
X243610Y54919D01*
D02*
G37*
%LPD*%
G36*
X874776Y568861D02*
X873366Y567452D01*
X872252Y565784D01*
X871861Y563818D01*
Y555040D01*
X868960D01*
Y543460D01*
X885040D01*
X885321Y542307D01*
Y537193D01*
X885040Y536040D01*
X868960D01*
Y531727D01*
X868622Y531389D01*
X860271D01*
X860088Y531628D01*
X859588Y532128D01*
X858012Y533336D01*
X856178Y534096D01*
X854383Y534332D01*
X844764Y543952D01*
X843188Y545160D01*
X841354Y545920D01*
X839386Y546179D01*
X831642D01*
X831559Y547449D01*
X832215Y547535D01*
X835575Y548927D01*
X838459Y551141D01*
X840673Y554025D01*
X842065Y557385D01*
X842539Y560990D01*
X842065Y564595D01*
X840673Y567955D01*
X838459Y570839D01*
X835924Y572785D01*
X836355Y574055D01*
X846788D01*
X847414Y572785D01*
X846945Y572173D01*
X846049Y570011D01*
X845974Y569440D01*
X863446D01*
X863371Y570011D01*
X862475Y572173D01*
X862006Y572785D01*
X862632Y574055D01*
X874776D01*
Y568861D01*
D02*
G37*
G36*
X890524Y570710D02*
X896874D01*
Y568960D01*
X898624D01*
Y561594D01*
X901924D01*
X901929Y561559D01*
X902825Y559397D01*
X904188Y557620D01*
X904147Y557221D01*
X903837Y556255D01*
X903467Y556182D01*
X901800Y555068D01*
X901773Y555040D01*
X892960D01*
Y553089D01*
X891446Y552788D01*
X889779Y551674D01*
X886826Y548721D01*
X886310Y547948D01*
X885040Y548334D01*
Y555040D01*
X882139D01*
Y561594D01*
X887476D01*
Y574055D01*
X890524D01*
Y570710D01*
D02*
G37*
G36*
X793260Y456080D02*
X808915D01*
Y449232D01*
X808933Y449142D01*
X808128Y448160D01*
X803300D01*
Y442620D01*
X801550D01*
Y440870D01*
X793260D01*
Y437080D01*
X797723D01*
X798210Y435907D01*
X792335Y430032D01*
X792299Y430050D01*
X782320D01*
Y433550D01*
X791056D01*
X790981Y434121D01*
X790085Y436283D01*
X789206Y437430D01*
X789710Y438700D01*
X789710D01*
Y443840D01*
X782320D01*
Y445590D01*
X780570D01*
Y452480D01*
X777299D01*
Y454300D01*
X789710D01*
Y456266D01*
X793260D01*
Y456080D01*
D02*
G37*
G36*
X561195Y408267D02*
X562620Y406410D01*
X564477Y404985D01*
X565651Y404498D01*
X566066Y402952D01*
X565362Y402034D01*
X564466Y399872D01*
X564161Y397551D01*
X564289Y396574D01*
X563099Y395887D01*
X562449Y396385D01*
X560286Y397281D01*
X557966Y397587D01*
X555645Y397281D01*
X553482Y396385D01*
X551625Y394960D01*
X550200Y393103D01*
X549305Y390941D01*
X548999Y388620D01*
X549305Y386299D01*
X550200Y384137D01*
X551625Y382280D01*
X553482Y380855D01*
X555041Y380209D01*
Y374650D01*
X555337Y373163D01*
X555871Y372364D01*
X555470Y371506D01*
Y364744D01*
Y358394D01*
X561086D01*
Y365337D01*
X562259Y365823D01*
X562755Y365327D01*
X563671Y364715D01*
X563842Y363858D01*
X564609Y362710D01*
X563842Y361562D01*
X563623Y360460D01*
X584677D01*
X584458Y361562D01*
X583691Y362710D01*
X584458Y363858D01*
X584768Y365418D01*
Y368003D01*
X584458Y369562D01*
X583691Y370710D01*
X584458Y371858D01*
X584768Y373418D01*
Y376003D01*
X584547Y377115D01*
X584609Y377238D01*
X585422Y378051D01*
X585545Y378113D01*
X586657Y377892D01*
X589243D01*
X590802Y378202D01*
X591950Y378969D01*
X593098Y378202D01*
X594658Y377892D01*
X597243D01*
X598802Y378202D01*
X599950Y378969D01*
X601098Y378202D01*
X602355Y377952D01*
X603052Y376774D01*
X602997Y376701D01*
X602101Y374539D01*
X601795Y372218D01*
X602101Y369897D01*
X602997Y367735D01*
X604422Y365878D01*
X606279Y364453D01*
X608441Y363557D01*
X609416Y363428D01*
X609767Y362905D01*
X610058Y362063D01*
X609266Y360152D01*
X608961Y357831D01*
X609266Y355510D01*
X610162Y353348D01*
X611587Y351490D01*
X613444Y350065D01*
X615607Y349170D01*
X617927Y348864D01*
X620248Y349170D01*
X622411Y350065D01*
X624268Y351490D01*
X625693Y353348D01*
X626589Y355510D01*
X626894Y357831D01*
X626589Y360152D01*
X626040Y361476D01*
X626185Y362203D01*
Y363991D01*
X627455Y364618D01*
X628202Y364044D01*
X630365Y363148D01*
X632686Y362843D01*
X635006Y363148D01*
X637169Y364044D01*
X639026Y365469D01*
X640451Y367326D01*
X641347Y369489D01*
X641652Y371810D01*
X641347Y374130D01*
X640451Y376293D01*
X640191Y376631D01*
X640525Y378038D01*
X640875Y378235D01*
X641120Y378198D01*
X642657Y377892D01*
X645242D01*
X646355Y378113D01*
X646478Y378051D01*
X647291Y377238D01*
X647353Y377115D01*
X647132Y376003D01*
Y373418D01*
X647442Y371858D01*
X648209Y370710D01*
X647442Y369562D01*
X647132Y368003D01*
Y365418D01*
X647442Y363858D01*
X648209Y362710D01*
X647442Y361562D01*
X647132Y360003D01*
Y357417D01*
X647442Y355858D01*
X648209Y354710D01*
X647442Y353562D01*
X647223Y352460D01*
X657750D01*
X668277D01*
X668058Y353562D01*
X667545Y354330D01*
X668083Y355370D01*
X669349Y355571D01*
X671157Y354185D01*
X673319Y353289D01*
X675640Y352983D01*
X677961Y353289D01*
X680123Y354185D01*
X681980Y355610D01*
X683405Y357467D01*
X684301Y359629D01*
X684607Y361950D01*
X684301Y364271D01*
X683405Y366433D01*
X681980Y368290D01*
X680123Y369715D01*
X677961Y370611D01*
X676790Y370765D01*
X676873Y372035D01*
X682446D01*
X683295Y369986D01*
X684720Y368129D01*
X686577Y366704D01*
X688740Y365808D01*
X691060Y365503D01*
X693381Y365808D01*
X694920Y366446D01*
X696190Y365691D01*
Y353610D01*
X704976D01*
X714935Y343651D01*
Y334403D01*
X714337Y334155D01*
X712480Y332730D01*
X711947Y332037D01*
X686816D01*
Y333756D01*
X672084D01*
Y330319D01*
X668558D01*
X667879Y331589D01*
X668058Y331858D01*
X668368Y333418D01*
Y336003D01*
X668058Y337562D01*
X667291Y338710D01*
X668058Y339858D01*
X668368Y341418D01*
Y344002D01*
X668058Y345562D01*
X667291Y346710D01*
X668058Y347858D01*
X668277Y348960D01*
X657750D01*
X647223D01*
X647442Y347858D01*
X648209Y346710D01*
X647442Y345562D01*
X647132Y344002D01*
Y341418D01*
X647442Y339858D01*
X648209Y338710D01*
X647442Y337562D01*
X647132Y336003D01*
Y333418D01*
X647442Y331858D01*
X648209Y330710D01*
X647442Y329562D01*
X647132Y328003D01*
Y325418D01*
X647442Y323858D01*
X648209Y322710D01*
X647442Y321562D01*
X647132Y320003D01*
Y317418D01*
X647353Y316305D01*
X647291Y316182D01*
X646478Y315369D01*
X646355Y315307D01*
X645242Y315528D01*
X642657D01*
X641098Y315218D01*
X639950Y314451D01*
X638802Y315218D01*
X637243Y315528D01*
X634658D01*
X633098Y315218D01*
X631950Y314451D01*
X630802Y315218D01*
X629243Y315528D01*
X626657D01*
X625098Y315218D01*
X623950Y314451D01*
X622802Y315218D01*
X621242Y315528D01*
X618657D01*
X617098Y315218D01*
X615950Y314451D01*
X614802Y315218D01*
X613242Y315528D01*
X610658D01*
X609098Y315218D01*
X607950Y314451D01*
X606802Y315218D01*
X605243Y315528D01*
X602658D01*
X601098Y315218D01*
X599950Y314451D01*
X598802Y315218D01*
X597243Y315528D01*
X594658D01*
X593098Y315218D01*
X591950Y314451D01*
X590802Y315218D01*
X589243Y315528D01*
X586657D01*
X585545Y315307D01*
X585422Y315369D01*
X584609Y316182D01*
X584547Y316305D01*
X584768Y317418D01*
Y320003D01*
X584458Y321562D01*
X583691Y322710D01*
X584458Y323858D01*
X584768Y325418D01*
Y328003D01*
X584623Y328733D01*
X585350Y330172D01*
X587018Y331286D01*
X589915Y334184D01*
X591820Y333933D01*
X594141Y334239D01*
X596303Y335135D01*
X598160Y336560D01*
X599585Y338417D01*
X600481Y340579D01*
X600787Y342900D01*
X600481Y345221D01*
X599585Y347383D01*
X598160Y349240D01*
X596303Y350665D01*
X594141Y351561D01*
X591820Y351867D01*
X589579Y351572D01*
X587018Y354134D01*
X585350Y355248D01*
X584623Y356687D01*
X584677Y356960D01*
X563623D01*
X563842Y355858D01*
X564609Y354710D01*
X563842Y353562D01*
X563776Y353230D01*
X562706D01*
X562356Y353161D01*
X561086Y354203D01*
Y355346D01*
X546354D01*
Y342783D01*
X544840Y341620D01*
X543415Y339763D01*
X542519Y337601D01*
X542365Y336430D01*
X541095Y336513D01*
Y362966D01*
X544576D01*
Y375666D01*
X529844D01*
Y373201D01*
X510380D01*
Y406325D01*
X547701D01*
X549188Y406621D01*
X550448Y407463D01*
X551850Y408865D01*
X560947D01*
X561195Y408267D01*
D02*
G37*
G36*
X765073Y356663D02*
X766333Y355821D01*
X767820Y355525D01*
X1062761D01*
X1074733Y343553D01*
X1074920Y343428D01*
Y329530D01*
X1080075D01*
Y270610D01*
X1074920D01*
Y264205D01*
X954593D01*
X953106Y263909D01*
X951846Y263067D01*
X939270Y250491D01*
X938000Y251017D01*
Y258570D01*
X930710D01*
Y250030D01*
X937013D01*
X937539Y248760D01*
X936344Y247565D01*
X897996D01*
X897510Y248738D01*
X918650Y269878D01*
X919920Y269352D01*
Y262070D01*
X927210D01*
Y270610D01*
X921178D01*
X920652Y271880D01*
X928881Y280109D01*
X929663Y281279D01*
X961914Y313530D01*
X977000D01*
Y318685D01*
X1035920D01*
Y313530D01*
X1056500D01*
Y331610D01*
X1035920D01*
Y326455D01*
X977000D01*
Y331610D01*
X956420D01*
Y319024D01*
X923387Y285991D01*
X922606Y284821D01*
X894173Y256389D01*
X893000Y256875D01*
Y270610D01*
X887845D01*
Y275213D01*
X888403Y275445D01*
X890260Y276870D01*
X891685Y278727D01*
X892581Y280889D01*
X892887Y283210D01*
X892581Y285531D01*
X891685Y287693D01*
X890260Y289550D01*
X888403Y290975D01*
X887845Y291207D01*
Y329530D01*
X893000D01*
Y350110D01*
X874920D01*
Y343705D01*
X821470D01*
X819983Y343409D01*
X818896Y342682D01*
X817626Y343037D01*
Y343624D01*
X812010D01*
Y339024D01*
X813521D01*
X814007Y337851D01*
X812132Y335976D01*
X802894D01*
X802410Y336590D01*
Y336590D01*
X787630D01*
Y333585D01*
X785900D01*
Y336590D01*
X771120D01*
Y322810D01*
X785900D01*
Y325815D01*
X787630D01*
Y322810D01*
X802410D01*
Y322810D01*
X802894Y323276D01*
X817626D01*
Y330482D01*
X823079Y335935D01*
X874920D01*
Y329530D01*
X880075D01*
Y291240D01*
X879437Y290975D01*
X877580Y289550D01*
X876155Y287693D01*
X875259Y285531D01*
X874953Y283210D01*
X875259Y280889D01*
X876155Y278727D01*
X877580Y276870D01*
X879437Y275445D01*
X880075Y275180D01*
Y270610D01*
X874920D01*
Y256183D01*
X873747Y255697D01*
X857442Y272001D01*
X858036Y273204D01*
X859790Y272973D01*
X862111Y273279D01*
X864273Y274175D01*
X866130Y275600D01*
X867555Y277457D01*
X868451Y279619D01*
X868757Y281940D01*
X868451Y284261D01*
X867555Y286423D01*
X866130Y288280D01*
X864273Y289705D01*
X862111Y290601D01*
X859790Y290907D01*
X857469Y290601D01*
X856870Y290353D01*
X833517Y313707D01*
X832257Y314549D01*
X830770Y314845D01*
X697529D01*
X696042Y314549D01*
X695675Y314638D01*
X694765Y315223D01*
X694509Y317167D01*
X693613Y319329D01*
X692723Y320489D01*
X693350Y321759D01*
X711168D01*
X712480Y320050D01*
X714337Y318625D01*
X716499Y317729D01*
X718820Y317423D01*
X721141Y317729D01*
X723303Y318625D01*
X725160Y320050D01*
X726585Y321907D01*
X727481Y324069D01*
X727787Y326390D01*
X727481Y328711D01*
X727233Y329310D01*
X739479Y341555D01*
X771120D01*
Y338410D01*
X785900D01*
Y352190D01*
X771120D01*
Y349325D01*
X737870D01*
X736383Y349029D01*
X735123Y348187D01*
X723878Y336942D01*
X722705Y337428D01*
Y345260D01*
X722409Y346747D01*
X721567Y348007D01*
X710970Y358604D01*
Y367390D01*
X699281D01*
X698594Y368660D01*
X698953Y369210D01*
X710970D01*
Y379655D01*
X742081D01*
X765073Y356663D01*
D02*
G37*
G36*
X485300Y346390D02*
X510380D01*
Y365431D01*
X529844D01*
Y362966D01*
X533325D01*
Y332740D01*
X533621Y331253D01*
X534463Y329993D01*
X542083Y322373D01*
X543343Y321531D01*
X544830Y321235D01*
X556408D01*
X557895Y321531D01*
X559155Y322373D01*
X559607Y322825D01*
X563158D01*
X563842Y321562D01*
X563532Y320003D01*
Y318835D01*
X547019Y302323D01*
X545846Y302809D01*
Y303304D01*
X540230D01*
Y298704D01*
X541741D01*
X542227Y297531D01*
X540352Y295656D01*
X531114D01*
Y293191D01*
X510380D01*
Y311470D01*
X487915D01*
Y319482D01*
X487619Y320968D01*
X486777Y322229D01*
X403853Y405152D01*
X404339Y406325D01*
X485300D01*
Y346390D01*
D02*
G37*
G36*
X869718Y248738D02*
X869232Y247565D01*
X817626D01*
Y250976D01*
X802894D01*
X802410Y251590D01*
Y251590D01*
X787630D01*
Y248585D01*
X785900D01*
Y251590D01*
X771120D01*
Y237810D01*
X785900D01*
Y240815D01*
X787630D01*
Y237810D01*
X802410D01*
Y237810D01*
X802894Y238276D01*
X817626D01*
Y239795D01*
X876094D01*
X876656Y238656D01*
X876155Y238003D01*
X875447Y236295D01*
X649782D01*
X632055Y254022D01*
X632541Y255195D01*
X652833D01*
X654319Y255491D01*
X655580Y256333D01*
X688317Y289070D01*
X689658Y288615D01*
X689839Y287239D01*
X690735Y285077D01*
X692160Y283220D01*
X694017Y281795D01*
X696179Y280899D01*
X698500Y280593D01*
X700821Y280899D01*
X702983Y281795D01*
X704840Y283220D01*
X706265Y285077D01*
X706513Y285675D01*
X771120D01*
Y280310D01*
X774625D01*
Y267190D01*
X771120D01*
Y253410D01*
X785900D01*
Y267190D01*
X782395D01*
Y280310D01*
X785900D01*
Y294090D01*
X771120D01*
Y293445D01*
X706513D01*
X706265Y294043D01*
X704840Y295900D01*
X702983Y297325D01*
X702211Y297645D01*
X702464Y298915D01*
X771120D01*
Y295910D01*
X785900D01*
Y298915D01*
X787630D01*
Y295910D01*
X802410D01*
Y295910D01*
X802894Y296524D01*
X817626D01*
Y298989D01*
X819467D01*
X869718Y248738D01*
D02*
G37*
G36*
X581928Y313501D02*
X582741Y312688D01*
X582803Y312565D01*
X582582Y311453D01*
Y298368D01*
X582892Y296808D01*
X583775Y295485D01*
X584065Y295292D01*
Y285449D01*
X584361Y283962D01*
X585203Y282702D01*
X598836Y269069D01*
X598428Y267866D01*
X597612Y267759D01*
X595449Y266863D01*
X593592Y265438D01*
X592167Y263581D01*
X591272Y261419D01*
X591150Y260496D01*
X589746Y259557D01*
X589477Y259629D01*
X589425Y259753D01*
X588000Y261610D01*
X586143Y263035D01*
X583981Y263931D01*
X581660Y264237D01*
X579339Y263931D01*
X577177Y263035D01*
X575320Y261610D01*
X573895Y259753D01*
X573457Y258698D01*
X572083D01*
X571645Y259753D01*
X570220Y261610D01*
X568363Y263035D01*
X566201Y263931D01*
X563880Y264237D01*
X561559Y263931D01*
X559397Y263035D01*
X557540Y261610D01*
X556115Y259753D01*
X555677Y258698D01*
X554303D01*
X553865Y259753D01*
X552440Y261610D01*
X550583Y263035D01*
X548421Y263931D01*
X546100Y264237D01*
X543779Y263931D01*
X541617Y263035D01*
X539760Y261610D01*
X538335Y259753D01*
X537439Y257591D01*
X537133Y255270D01*
X537164Y255038D01*
X536224Y254005D01*
X510380D01*
Y285421D01*
X517886D01*
X518138Y284151D01*
X516217Y283355D01*
X514360Y281930D01*
X512935Y280073D01*
X512039Y277911D01*
X511964Y277340D01*
X529436D01*
X529361Y277911D01*
X528465Y280073D01*
X527040Y281930D01*
X525183Y283355D01*
X523262Y284151D01*
X523514Y285421D01*
X531114D01*
Y282956D01*
X545846D01*
Y290162D01*
X569025Y313342D01*
X580692D01*
X581805Y313563D01*
X581928Y313501D01*
D02*
G37*
%LPC*%
G36*
X863446Y565940D02*
X856460D01*
Y558954D01*
X857031Y559029D01*
X859193Y559925D01*
X861050Y561350D01*
X862475Y563207D01*
X863371Y565369D01*
X863446Y565940D01*
D02*
G37*
G36*
X852960D02*
X845974D01*
X846049Y565369D01*
X846945Y563207D01*
X848370Y561350D01*
X850227Y559925D01*
X852389Y559029D01*
X852960Y558954D01*
Y565940D01*
D02*
G37*
G36*
X895124Y567210D02*
X890524D01*
Y561594D01*
X895124D01*
Y567210D01*
D02*
G37*
G36*
X789710Y452480D02*
X784070D01*
Y447340D01*
X789710D01*
Y452480D01*
D02*
G37*
G36*
X799800Y448160D02*
X793260D01*
Y444370D01*
X799800D01*
Y448160D01*
D02*
G37*
G36*
X544576Y391414D02*
X538960D01*
Y386814D01*
X544576D01*
Y391414D01*
D02*
G37*
G36*
X535460D02*
X529844D01*
Y386814D01*
X535460D01*
Y391414D01*
D02*
G37*
G36*
X544576Y383314D02*
X538960D01*
Y378714D01*
X544576D01*
Y383314D01*
D02*
G37*
G36*
X535460D02*
X529844D01*
Y378714D01*
X535460D01*
Y383314D01*
D02*
G37*
G36*
X551970Y371094D02*
X546354D01*
Y366494D01*
X551970D01*
Y371094D01*
D02*
G37*
G36*
Y362994D02*
X546354D01*
Y358394D01*
X551970D01*
Y362994D01*
D02*
G37*
G36*
X677700Y349504D02*
X672084D01*
Y344904D01*
X677700D01*
Y349504D01*
D02*
G37*
G36*
X695170Y351636D02*
Y344650D01*
X702156D01*
X702081Y345221D01*
X701185Y347383D01*
X699760Y349240D01*
X697903Y350665D01*
X695741Y351561D01*
X695170Y351636D01*
D02*
G37*
G36*
X677700Y341404D02*
X672084D01*
Y336804D01*
X677700D01*
Y341404D01*
D02*
G37*
G36*
X702156Y341150D02*
X695170D01*
Y334164D01*
X695741Y334239D01*
X697903Y335135D01*
X699760Y336560D01*
X701185Y338417D01*
X702081Y340579D01*
X702156Y341150D01*
D02*
G37*
G36*
X691670Y351636D02*
X691099Y351561D01*
X688937Y350665D01*
X687967Y349921D01*
X686816Y349504D01*
X686816Y349504D01*
X686816Y349504D01*
X681200D01*
Y343154D01*
Y336804D01*
X685842D01*
X687017Y336641D01*
X687080Y336560D01*
X687766Y336033D01*
X687766Y336032D01*
X688006Y335849D01*
X688937Y335135D01*
X691099Y334239D01*
X691670Y334164D01*
Y342900D01*
Y351636D01*
D02*
G37*
G36*
X629130Y340206D02*
Y333220D01*
X636116D01*
X636041Y333791D01*
X635145Y335953D01*
X633720Y337810D01*
X631863Y339235D01*
X629701Y340131D01*
X629130Y340206D01*
D02*
G37*
G36*
X625630D02*
X625059Y340131D01*
X622897Y339235D01*
X621040Y337810D01*
X619615Y335953D01*
X618719Y333791D01*
X618644Y333220D01*
X625630D01*
Y340206D01*
D02*
G37*
G36*
X636116Y329720D02*
X629130D01*
Y322734D01*
X629701Y322809D01*
X631863Y323705D01*
X633720Y325130D01*
X635145Y326987D01*
X636041Y329149D01*
X636116Y329720D01*
D02*
G37*
G36*
X625630D02*
X618644D01*
X618719Y329149D01*
X619615Y326987D01*
X621040Y325130D01*
X622897Y323705D01*
X625059Y322809D01*
X625630Y322734D01*
Y329720D01*
D02*
G37*
G36*
X744700Y369416D02*
Y362430D01*
X751686D01*
X751611Y363001D01*
X750715Y365163D01*
X749290Y367020D01*
X747433Y368445D01*
X745271Y369341D01*
X744700Y369416D01*
D02*
G37*
G36*
X741200D02*
X740629Y369341D01*
X738467Y368445D01*
X736610Y367020D01*
X735185Y365163D01*
X734289Y363001D01*
X734214Y362430D01*
X741200D01*
Y369416D01*
D02*
G37*
G36*
X751686Y358930D02*
X744700D01*
Y351944D01*
X745271Y352019D01*
X747433Y352915D01*
X749290Y354340D01*
X750715Y356197D01*
X751611Y358359D01*
X751686Y358930D01*
D02*
G37*
G36*
X741200D02*
X734214D01*
X734289Y358359D01*
X735185Y356197D01*
X736610Y354340D01*
X738467Y352915D01*
X740629Y352019D01*
X741200Y351944D01*
Y358930D01*
D02*
G37*
G36*
X812010Y351724D02*
Y347124D01*
X817626D01*
Y351724D01*
X812010D01*
D02*
G37*
G36*
X793270Y352190D02*
X787630D01*
Y347050D01*
X793270D01*
Y352190D01*
D02*
G37*
G36*
X938000Y350110D02*
X930710D01*
Y341570D01*
X938000D01*
Y350110D01*
D02*
G37*
G36*
X927210D02*
X919920D01*
Y341570D01*
X927210D01*
Y350110D01*
D02*
G37*
G36*
X793270Y343550D02*
X787630D01*
Y338410D01*
X793270D01*
Y343550D01*
D02*
G37*
G36*
X802410Y352190D02*
X801817Y352190D01*
X796770D01*
Y345300D01*
Y338410D01*
X802410D01*
X803426Y339024D01*
X803680Y339024D01*
X808510D01*
Y345374D01*
Y351724D01*
X803487D01*
X802410Y352190D01*
D02*
G37*
G36*
X938000Y338070D02*
X930710D01*
Y329530D01*
X938000D01*
Y338070D01*
D02*
G37*
G36*
X927210D02*
X919920D01*
Y329530D01*
X927210D01*
Y338070D01*
D02*
G37*
G36*
X977000Y286610D02*
X968460D01*
Y279320D01*
X977000D01*
Y286610D01*
D02*
G37*
G36*
X1056500D02*
X1047960D01*
Y279320D01*
X1056500D01*
Y286610D01*
D02*
G37*
G36*
X1044460D02*
X1035920D01*
Y279320D01*
X1044460D01*
Y286610D01*
D02*
G37*
G36*
X964960D02*
X956420D01*
Y279320D01*
X964960D01*
Y286610D01*
D02*
G37*
G36*
X1056500Y275820D02*
X1047960D01*
Y268530D01*
X1056500D01*
Y275820D01*
D02*
G37*
G36*
X1044460D02*
X1035920D01*
Y268530D01*
X1044460D01*
Y275820D01*
D02*
G37*
G36*
X977000D02*
X968460D01*
Y268530D01*
X977000D01*
Y275820D01*
D02*
G37*
G36*
X964960D02*
X956420D01*
Y268530D01*
X964960D01*
Y275820D01*
D02*
G37*
G36*
X938000Y270610D02*
X930710D01*
Y262070D01*
X938000D01*
Y270610D01*
D02*
G37*
G36*
X927210Y258570D02*
X919920D01*
Y250030D01*
X927210D01*
Y258570D01*
D02*
G37*
G36*
X545846Y311404D02*
X540230D01*
Y306804D01*
X545846D01*
Y311404D01*
D02*
G37*
G36*
X536730D02*
X531114D01*
Y306804D01*
X536730D01*
Y311404D01*
D02*
G37*
G36*
X522450Y313536D02*
Y306550D01*
X529436D01*
X529361Y307121D01*
X528465Y309283D01*
X527040Y311140D01*
X525183Y312565D01*
X523021Y313461D01*
X522450Y313536D01*
D02*
G37*
G36*
X518950D02*
X518379Y313461D01*
X516217Y312565D01*
X514360Y311140D01*
X512935Y309283D01*
X512039Y307121D01*
X511964Y306550D01*
X518950D01*
Y313536D01*
D02*
G37*
G36*
X536730Y303304D02*
X531114D01*
Y298704D01*
X536730D01*
Y303304D01*
D02*
G37*
G36*
X529436Y303050D02*
X522450D01*
Y296064D01*
X523021Y296139D01*
X525183Y297035D01*
X527040Y298460D01*
X528465Y300317D01*
X529361Y302479D01*
X529436Y303050D01*
D02*
G37*
G36*
X518950D02*
X511964D01*
X512039Y302479D01*
X512935Y300317D01*
X514360Y298460D01*
X516217Y297035D01*
X518379Y296139D01*
X518950Y296064D01*
Y303050D01*
D02*
G37*
G36*
X793270Y294090D02*
X787630D01*
Y288950D01*
X793270D01*
Y294090D01*
D02*
G37*
G36*
X812010Y293476D02*
Y288876D01*
X817626D01*
Y293476D01*
X812010D01*
D02*
G37*
G36*
X817626Y285376D02*
X812010D01*
Y280776D01*
X817626D01*
Y285376D01*
D02*
G37*
G36*
X793270Y285450D02*
X787630D01*
Y280310D01*
X793270D01*
Y285450D01*
D02*
G37*
G36*
X802410Y294090D02*
X801878Y294090D01*
X796770D01*
Y287200D01*
Y280310D01*
X801817D01*
X802410Y280310D01*
X803487Y280776D01*
X808510D01*
Y287126D01*
Y293476D01*
X803426Y293476D01*
X802410Y294090D01*
D02*
G37*
G36*
X832330Y275436D02*
Y268450D01*
X839316D01*
X839241Y269021D01*
X838345Y271183D01*
X836920Y273040D01*
X835063Y274465D01*
X832901Y275361D01*
X832330Y275436D01*
D02*
G37*
G36*
X828830D02*
X828259Y275361D01*
X826097Y274465D01*
X824240Y273040D01*
X822815Y271183D01*
X821919Y269021D01*
X821844Y268450D01*
X828830D01*
Y275436D01*
D02*
G37*
G36*
X812010Y266724D02*
Y262124D01*
X817626D01*
Y266724D01*
X812010D01*
D02*
G37*
G36*
X793270Y267190D02*
X787630D01*
Y262050D01*
X793270D01*
Y267190D01*
D02*
G37*
G36*
X839316Y264950D02*
X832330D01*
Y257964D01*
X832901Y258039D01*
X835063Y258935D01*
X836920Y260360D01*
X838345Y262217D01*
X839241Y264379D01*
X839316Y264950D01*
D02*
G37*
G36*
X828830D02*
X821844D01*
X821919Y264379D01*
X822815Y262217D01*
X824240Y260360D01*
X826097Y258935D01*
X828259Y258039D01*
X828830Y257964D01*
Y264950D01*
D02*
G37*
G36*
X817626Y258624D02*
X812010D01*
Y254024D01*
X817626D01*
Y258624D01*
D02*
G37*
G36*
X793270Y258550D02*
X787630D01*
Y253410D01*
X793270D01*
Y258550D01*
D02*
G37*
G36*
X802410Y267190D02*
X801817Y267190D01*
X796770D01*
Y260300D01*
Y253410D01*
X802410D01*
X803426Y254024D01*
X803680Y254024D01*
X808510D01*
Y260374D01*
Y266724D01*
X803487D01*
X802410Y267190D01*
D02*
G37*
G36*
X577060Y284326D02*
Y277340D01*
X584046D01*
X583971Y277911D01*
X583075Y280073D01*
X581650Y281930D01*
X579793Y283355D01*
X577631Y284251D01*
X577060Y284326D01*
D02*
G37*
G36*
X573560D02*
X572989Y284251D01*
X570827Y283355D01*
X568970Y281930D01*
X567545Y280073D01*
X566649Y277911D01*
X566574Y277340D01*
X573560D01*
Y284326D01*
D02*
G37*
G36*
X584046Y273840D02*
X577060D01*
Y266854D01*
X577631Y266929D01*
X579793Y267825D01*
X581650Y269250D01*
X583075Y271107D01*
X583971Y273269D01*
X584046Y273840D01*
D02*
G37*
G36*
X573560D02*
X566574D01*
X566649Y273269D01*
X567545Y271107D01*
X568970Y269250D01*
X570827Y267825D01*
X572989Y266929D01*
X573560Y266854D01*
Y273840D01*
D02*
G37*
G36*
X529436D02*
X522450D01*
Y266854D01*
X523021Y266929D01*
X525183Y267825D01*
X527040Y269250D01*
X528465Y271107D01*
X529361Y273269D01*
X529436Y273840D01*
D02*
G37*
G36*
X518950D02*
X511964D01*
X512039Y273269D01*
X512935Y271107D01*
X514360Y269250D01*
X516217Y267825D01*
X518379Y266929D01*
X518950Y266854D01*
Y273840D01*
D02*
G37*
%LPD*%
D12*
X591820Y406400D02*
X595950Y402270D01*
X591820Y406400D02*
Y417650D01*
X595950Y388510D02*
Y402270D01*
X635950Y388510D02*
Y411480D01*
X642120Y417650D01*
X642620D01*
X624840Y410210D02*
Y417650D01*
X611950Y388510D02*
X613418Y389978D01*
Y398788D01*
X624840Y410210D01*
X603950Y388510D02*
Y402020D01*
X608330Y406400D02*
Y417650D01*
X603950Y402020D02*
X608330Y406400D01*
X657750Y326710D02*
X678754D01*
D14*
X587950Y285449D02*
X648609Y224790D01*
X639019Y219710D02*
X748030D01*
X765540Y202200D01*
X778510D01*
X757124Y217800D02*
X795020D01*
X648609Y224790D02*
X750134D01*
X635209Y223520D02*
X639019Y219710D01*
X632460Y223520D02*
X635209D01*
X750134Y224790D02*
X757124Y217800D01*
X737870Y345440D02*
X778510D01*
X718312Y326898D02*
X719328D01*
X718312D02*
X718820Y327406D01*
X673909Y892810D02*
Y893271D01*
X664210Y902970D02*
X673909Y893271D01*
X598170Y892810D02*
X608330Y902970D01*
X664210D01*
X841440Y494030D02*
X847090D01*
X822960Y492506D02*
X824484Y494030D01*
X802079Y503481D02*
X802500Y503060D01*
Y485798D02*
Y503060D01*
X321746Y474582D02*
Y478790D01*
X497840Y281430D02*
X505716Y289306D01*
X538480D01*
X568900Y318710D02*
X574150D01*
X539496Y289306D02*
X568900Y318710D01*
X538480Y289306D02*
X539496D01*
X562340Y342710D02*
X574150D01*
X556854Y337224D02*
X562340Y342710D01*
X553124Y337224D02*
X556854D01*
X551180Y335280D02*
X553124Y337224D01*
X557998Y326710D02*
X574150D01*
X556408Y325120D02*
X557998Y326710D01*
X544830Y325120D02*
X556408D01*
X537210Y332740D02*
X544830Y325120D01*
X537210Y332740D02*
Y369316D01*
X782320Y431800D02*
Y445590D01*
X773262Y414100D02*
X803990D01*
X754293Y433070D02*
X773262Y414100D01*
X771158Y409020D02*
X848440D01*
X866140Y426720D01*
X752188Y427990D02*
X771158Y409020D01*
X803990Y414100D02*
X811530Y421640D01*
X901581Y462855D02*
X902532D01*
X905865Y426265D02*
X906890Y425240D01*
X902532Y462855D02*
X905865Y459522D01*
Y426265D02*
Y459522D01*
X896874Y568960D02*
X902970D01*
X908050Y563880D02*
X910590D01*
X902970Y568960D02*
X908050Y563880D01*
X703580Y360500D02*
X704080D01*
X707160Y357420D01*
Y356920D02*
Y357420D01*
Y356920D02*
X718820Y345260D01*
Y327406D02*
Y345260D01*
X820880Y445310D02*
X836930Y429260D01*
X816722Y445310D02*
X820880D01*
X812800Y449232D02*
X816722Y445310D01*
X612045Y373501D02*
Y388415D01*
X610762Y372218D02*
X612045Y373501D01*
X535940Y469900D02*
Y485140D01*
X241480Y378460D02*
X313690D01*
X350520Y415290D01*
X340418Y440690D02*
X454660Y326448D01*
Y261620D02*
Y326448D01*
X384077Y448171D02*
X395140Y437108D01*
X564922D01*
X315396Y495300D02*
X400486Y410210D01*
X547701D01*
X550241Y412750D01*
X326390Y491490D02*
X397510Y420370D01*
X535940D01*
X587950Y388510D02*
Y403468D01*
X580995Y410423D02*
X587950Y403468D01*
X580995Y410423D02*
Y421035D01*
X564922Y437108D02*
X580995Y421035D01*
X550241Y412750D02*
X568960D01*
X569762Y393959D02*
X574150Y389571D01*
X558926Y374650D02*
Y387660D01*
X557966Y388620D02*
X558926Y387660D01*
X573127Y397324D02*
Y397551D01*
X569762Y393959D02*
X573127Y397324D01*
X624840Y433250D02*
Y455930D01*
X614680Y466090D02*
X624840Y455930D01*
X608330Y433250D02*
Y445770D01*
X699770Y439420D02*
X701438D01*
X707788Y433070D01*
X688340Y377190D02*
X691060D01*
X666890Y387350D02*
X706918D01*
X691060Y374469D02*
Y377190D01*
X665871Y386331D02*
X666890Y387350D01*
X691060Y377190D02*
X702490D01*
X678796Y397728D02*
X684928Y403860D01*
X678180Y398344D02*
X678796Y397728D01*
X676076Y398344D02*
X678180D01*
X687070Y375920D02*
X688340Y377190D01*
X658960Y375920D02*
X687070D01*
X674219Y361950D02*
X675640D01*
X669459Y366710D02*
X674219Y361950D01*
X657750Y366710D02*
X669459D01*
X702490Y377190D02*
X703580Y376100D01*
X706918Y387350D02*
X710728Y383540D01*
X743690D02*
X767820Y359410D01*
X710728Y383540D02*
X743690D01*
X684928Y403860D02*
X761950D01*
X778010Y387800D01*
X755164Y417830D02*
X774214Y398780D01*
X662542Y417830D02*
X755164D01*
X667702Y427990D02*
X752188D01*
X654399Y429149D02*
Y436206D01*
X652811Y427561D02*
X654399Y429149D01*
Y436206D02*
X656343Y438150D01*
X535940Y485140D02*
X632659Y581859D01*
X615950Y580788D02*
Y659130D01*
X576580Y541020D02*
Y541418D01*
X615950Y580788D01*
X556260Y520700D02*
X576580Y541020D01*
X513028Y776022D02*
Y805429D01*
Y776022D02*
X560070Y728980D01*
X591347D02*
X642819Y677508D01*
X560070Y728980D02*
X591347D01*
X513080Y848360D02*
X538480Y873760D01*
X513080Y839510D02*
Y848360D01*
X511770Y838200D02*
X513080Y839510D01*
X776150Y289560D02*
X778510Y287200D01*
X698500Y289560D02*
X776150D01*
X778510Y302800D02*
X795020D01*
X696553D02*
X778510D01*
X652833Y259080D02*
X696553Y302800D01*
X659675Y273106D02*
X697529Y310960D01*
X830770D01*
X859790Y281940D01*
X778510Y260300D02*
Y287200D01*
X719328Y326898D02*
X737870Y345440D01*
X778510Y345300D02*
Y345440D01*
X718820Y393700D02*
X756510D01*
X778010Y372200D02*
X778510D01*
X756510Y393700D02*
X778010Y372200D01*
X632686Y371810D02*
Y374559D01*
X617927Y357831D02*
X622300Y362203D01*
X707788Y433070D02*
X754293D01*
X657962Y407670D02*
X659130D01*
X643950Y388510D02*
Y393658D01*
X652811Y427561D02*
X662542Y417830D01*
X643950Y393658D02*
X657962Y407670D01*
X810260Y387874D02*
X925084D01*
X954550Y417340D01*
X795094Y387874D02*
X810260D01*
X800650Y483948D02*
X802500Y485798D01*
X800650Y471092D02*
X803312Y468430D01*
X808878D01*
X800650Y471092D02*
Y483948D01*
X812800Y449232D02*
Y464508D01*
X808878Y468430D02*
X812800Y464508D01*
X774214Y398780D02*
X831850D01*
X642620Y648970D02*
X642819Y649169D01*
Y677508D01*
X632659Y581859D02*
Y673299D01*
X642620Y433070D02*
Y648970D01*
X555862Y520700D02*
X556260D01*
X642620Y433070D02*
Y433250D01*
Y433070D02*
X642620Y433070D01*
X621314Y378816D02*
Y387146D01*
X629314Y377930D02*
X632686Y374559D01*
X621314Y378816D02*
X622300Y377830D01*
X629314Y377930D02*
Y387146D01*
X622300Y362203D02*
Y377830D01*
X627950Y388510D02*
X629314Y387146D01*
X619950Y388510D02*
X621314Y387146D01*
X325120Y520700D02*
X326390Y519430D01*
Y491490D02*
Y519430D01*
X336587Y459740D02*
X478950Y317377D01*
X321746Y474582D02*
X331507Y464820D01*
X338692D01*
X484030Y252352D02*
Y319482D01*
X241480Y478290D02*
Y478790D01*
X244560Y475210D02*
X318166D01*
X321746Y478790D01*
X269361Y495300D02*
X315396D01*
X241480Y478290D02*
X244560Y475210D01*
X338692Y464820D02*
X484030Y319482D01*
X241660Y459740D02*
X336587D01*
X478950Y250248D02*
Y317377D01*
X321746Y474582D02*
Y478790D01*
X241480Y440690D02*
X340418D01*
X265551Y491490D02*
X269361Y495300D01*
X611950Y388510D02*
X612045Y388415D01*
X170020Y403480D02*
X226440D01*
X227330Y402590D01*
X158210Y415290D02*
X170020Y403480D01*
X156210Y415290D02*
X158210D01*
X122400Y401700D02*
Y445582D01*
X131098Y454280D01*
X134210Y389890D02*
X156210D01*
X122400Y401700D02*
X134210Y389890D01*
X569350Y207400D02*
X608330Y246380D01*
X562610Y219710D02*
X599933Y257033D01*
Y259098D01*
X167800Y454280D02*
X179610Y466090D01*
X181610D01*
X131098Y454280D02*
X167800D01*
X657750Y374710D02*
X658960Y375920D01*
X181610Y491490D02*
X265551D01*
X382688Y328920D02*
X428070Y283538D01*
Y252782D02*
Y283538D01*
X246390Y328920D02*
X382688D01*
X538201Y250120D02*
X543351Y255270D01*
X546100D01*
X478950Y250248D02*
X484158Y245040D01*
X553650D02*
X563880Y255270D01*
X484158Y245040D02*
X553650D01*
X484030Y252352D02*
X486262Y250120D01*
X538201D01*
X477520Y238760D02*
X565150D01*
X581660Y255270D01*
X507530Y219710D02*
X562610D01*
X645330Y303530D02*
X660400D01*
X621314Y296261D02*
Y303546D01*
Y296261D02*
X624840Y292736D01*
X665210Y293100D02*
X675640Y303530D01*
X637540Y279365D02*
X638719Y278186D01*
X624840Y284480D02*
Y292736D01*
X637540Y279365D02*
Y288036D01*
X619950Y304910D02*
X621314Y303546D01*
X643950Y304910D02*
X645330Y303530D01*
X657750Y318710D02*
X679235D01*
X683099Y314846D01*
X685848D01*
X587950Y285449D02*
Y304910D01*
X595950Y284633D02*
Y304910D01*
Y284633D02*
X648173Y232410D01*
X881380D01*
X606870Y280897D02*
X628687Y259080D01*
X652833D01*
X603950Y287686D02*
X606870Y284766D01*
Y280897D02*
Y284766D01*
X611950Y283002D02*
X630792Y264160D01*
X642030D02*
X650976Y273106D01*
X630792Y264160D02*
X642030D01*
X650976Y273106D02*
X659675D01*
X637314Y296261D02*
Y303546D01*
Y296261D02*
X640476Y293100D01*
X665210D01*
X635950Y304910D02*
X637314Y303546D01*
X629390Y296186D02*
X637540Y288036D01*
X629314Y297180D02*
X629390D01*
Y296186D02*
Y297180D01*
X629314D02*
Y303546D01*
X627950Y304910D02*
X629314Y303546D01*
X438610Y264630D02*
X480530Y222710D01*
X454660Y261620D02*
X477520Y238760D01*
X438610Y264630D02*
Y308610D01*
X473452Y207400D02*
X569350D01*
X428070Y252782D02*
X473452Y207400D01*
X591820Y433250D02*
Y445770D01*
X170910Y351790D02*
X225880D01*
X158210Y339090D02*
X170910Y351790D01*
X156210Y339090D02*
X158210D01*
X208882Y378460D02*
X225880D01*
X206722Y376300D02*
X208882Y378460D01*
X170020Y376300D02*
X206722D01*
X158210Y364490D02*
X170020Y376300D01*
X156210Y364490D02*
X158210D01*
X181610Y440690D02*
X225880D01*
X213602Y459740D02*
X226060D01*
X207252Y466090D02*
X213602Y459740D01*
X181610Y466090D02*
X207252D01*
X156210D02*
X158210D01*
X170910Y478790D01*
X225880D01*
X241480Y333830D02*
Y351790D01*
Y333830D02*
X246390Y328920D01*
X778010Y387800D02*
X778510D01*
X574150Y374710D02*
Y389571D01*
X1083960Y339820D02*
Y341070D01*
X1078730Y346300D02*
X1083960Y341070D01*
X1077480Y346300D02*
X1078730D01*
X1064370Y359410D02*
X1077480Y346300D01*
X767820Y359410D02*
X1064370D01*
X795094Y329626D02*
X810260D01*
X811276D01*
X821470Y339820D02*
X883960D01*
Y260320D02*
Y339820D01*
X811276Y329626D02*
X821470Y339820D01*
X572786Y368074D02*
X574150Y366710D01*
X565501Y368074D02*
X572786D01*
X558926Y374650D02*
X565501Y368074D01*
X603950Y287686D02*
Y304910D01*
X611950Y283002D02*
Y304910D01*
X480530Y219710D02*
Y222710D01*
X980440Y86360D02*
X998586D01*
X859790Y207010D02*
X980440Y86360D01*
X881380Y232410D02*
X882490Y233520D01*
X883920D01*
X811206Y243680D02*
X937953D01*
X954593Y260320D01*
X1083960D01*
X892038Y248760D02*
X926134Y282856D01*
X875190Y248760D02*
X892038D01*
X821076Y302874D02*
X875190Y248760D01*
X553720Y348996D02*
X562356D01*
X562706Y349346D01*
X572786D01*
X574150Y350710D01*
X504954Y369316D02*
X537210D01*
X497840Y376430D02*
X504954Y369316D01*
X1014334Y68654D02*
Y86360D01*
X1014260Y68580D02*
X1014334Y68654D01*
X778510Y244700D02*
X795020D01*
X795094Y244626D02*
X810260D01*
X795020Y244700D02*
X795094Y244626D01*
X810260D02*
X811206Y243680D01*
X795094Y217874D02*
X810260D01*
X795020Y217800D02*
X795094Y217874D01*
X962014D02*
X966710Y222570D01*
X810260Y217874D02*
X962014D01*
X795094Y302874D02*
X810260D01*
X795020Y302800D02*
X795094Y302874D01*
X810260D02*
X821076D01*
X965460Y322570D02*
X966710D01*
X926134Y283244D02*
X965460Y322570D01*
X926134Y282856D02*
Y283244D01*
X778510Y387800D02*
X795020D01*
X795094Y387874D01*
X961480Y417340D02*
X966710Y422570D01*
X954550Y417340D02*
X961480D01*
X778510Y329700D02*
X795020D01*
X795094Y329626D01*
X966710Y222570D02*
X1046210D01*
X1083960Y260320D02*
Y339820D01*
X966710Y322570D02*
X1046210D01*
X966710Y422570D02*
X1046210D01*
D17*
X792480Y567220D02*
D03*
Y540220D02*
D03*
X889000Y480530D02*
D03*
Y507530D02*
D03*
D18*
X901000Y539750D02*
D03*
Y549250D02*
D03*
Y530250D02*
D03*
X877000Y549250D02*
D03*
Y530250D02*
D03*
X865440Y503530D02*
D03*
Y484530D02*
D03*
X841440D02*
D03*
Y503530D02*
D03*
Y494030D02*
D03*
D19*
X484340Y222250D02*
D03*
X511340D02*
D03*
D20*
X241480Y351790D02*
D03*
X225880D02*
D03*
X241480Y378460D02*
D03*
X225880D02*
D03*
X241660Y459740D02*
D03*
X226060D02*
D03*
X241480Y440690D02*
D03*
X225880D02*
D03*
X241480Y478790D02*
D03*
X225880D02*
D03*
X824410Y477520D02*
D03*
X808810D02*
D03*
X1014260Y68580D02*
D03*
X998660D02*
D03*
D21*
X810260Y345374D02*
D03*
Y329626D02*
D03*
Y302874D02*
D03*
Y287126D02*
D03*
Y217874D02*
D03*
Y202126D02*
D03*
Y387874D02*
D03*
Y372126D02*
D03*
X822960Y492506D02*
D03*
Y508254D02*
D03*
X919480Y551434D02*
D03*
Y535686D02*
D03*
X679450Y343154D02*
D03*
Y327406D02*
D03*
X553720Y364744D02*
D03*
Y348996D02*
D03*
X538480Y289306D02*
D03*
Y305054D02*
D03*
X810260Y244626D02*
D03*
Y260374D02*
D03*
X537210Y385064D02*
D03*
Y369316D02*
D03*
D22*
X795020Y345300D02*
D03*
Y329700D02*
D03*
X778510Y345300D02*
D03*
Y329700D02*
D03*
Y302800D02*
D03*
Y287200D02*
D03*
X795020Y302800D02*
D03*
Y287200D02*
D03*
X778510Y260300D02*
D03*
Y244700D02*
D03*
X795020Y260300D02*
D03*
Y244700D02*
D03*
Y217800D02*
D03*
Y202200D02*
D03*
X778510Y217800D02*
D03*
Y202200D02*
D03*
X795020Y387800D02*
D03*
Y372200D02*
D03*
X778510Y387800D02*
D03*
Y372200D02*
D03*
X782320Y495480D02*
D03*
Y479880D02*
D03*
Y461190D02*
D03*
Y445590D02*
D03*
X642620Y433250D02*
D03*
Y417650D02*
D03*
X624840Y433250D02*
D03*
Y417650D02*
D03*
X608330Y433250D02*
D03*
Y417650D02*
D03*
X591820Y433250D02*
D03*
Y417650D02*
D03*
X703580Y360500D02*
D03*
Y376100D02*
D03*
D23*
X824050Y452120D02*
D03*
X801550Y461620D02*
D03*
Y442620D02*
D03*
D24*
X861314Y464820D02*
D03*
X845566D02*
D03*
X896874Y568960D02*
D03*
X881126D02*
D03*
X1014334Y86360D02*
D03*
X998586D02*
D03*
D25*
X1031460Y568520D02*
D03*
X1006460D02*
D03*
Y513520D02*
D03*
X1031460D02*
D03*
X981460D02*
D03*
Y568520D02*
D03*
D26*
X438610Y308610D02*
D03*
X369110D02*
D03*
D27*
X657750Y366710D02*
D03*
Y374710D02*
D03*
Y350710D02*
D03*
Y342710D02*
D03*
Y358710D02*
D03*
Y334710D02*
D03*
Y326710D02*
D03*
Y318710D02*
D03*
X574150Y366710D02*
D03*
Y342710D02*
D03*
Y374710D02*
D03*
Y358710D02*
D03*
Y350710D02*
D03*
Y334710D02*
D03*
Y318710D02*
D03*
Y326710D02*
D03*
D28*
X611950Y388510D02*
D03*
X619950D02*
D03*
X603950D02*
D03*
X635950D02*
D03*
X643950D02*
D03*
X627950D02*
D03*
X611950Y304910D02*
D03*
X619950D02*
D03*
X603950D02*
D03*
X635950D02*
D03*
X643950D02*
D03*
X627950D02*
D03*
X587950Y388510D02*
D03*
X595950D02*
D03*
X587950Y304910D02*
D03*
X595950D02*
D03*
D29*
X1046210Y422570D02*
D03*
Y377570D02*
D03*
X966710Y422570D02*
D03*
Y377570D02*
D03*
X1046210Y322570D02*
D03*
Y277570D02*
D03*
X966710Y322570D02*
D03*
Y277570D02*
D03*
X1046210Y222570D02*
D03*
Y177570D02*
D03*
X966710Y222570D02*
D03*
Y177570D02*
D03*
D30*
X883960Y339820D02*
D03*
X928960D02*
D03*
Y260320D02*
D03*
X883960D02*
D03*
X1083960Y339820D02*
D03*
X1128960D02*
D03*
Y260320D02*
D03*
X1083960D02*
D03*
D31*
X687070Y113030D02*
D03*
X563770D02*
D03*
X810370D02*
D03*
D32*
X497840Y281430D02*
D03*
Y376430D02*
D03*
D33*
X1141250Y553720D02*
D03*
Y528320D02*
D03*
D34*
X1109420Y402150D02*
D03*
Y474150D02*
D03*
X1144120Y402150D02*
D03*
Y474150D02*
D03*
D35*
X146210Y313690D02*
D03*
Y237490D02*
D03*
Y161290D02*
D03*
Y466090D02*
D03*
Y389890D02*
D03*
X191610Y59690D02*
D03*
Y161290D02*
D03*
Y313690D02*
D03*
Y237490D02*
D03*
Y389890D02*
D03*
Y466090D02*
D03*
X146210Y85090D02*
D03*
Y110490D02*
D03*
Y135890D02*
D03*
Y212090D02*
D03*
Y186690D02*
D03*
Y288290D02*
D03*
Y262890D02*
D03*
Y339090D02*
D03*
Y364490D02*
D03*
Y440690D02*
D03*
Y415290D02*
D03*
Y542290D02*
D03*
Y516890D02*
D03*
Y491490D02*
D03*
X191610Y85090D02*
D03*
Y110490D02*
D03*
Y135890D02*
D03*
Y186690D02*
D03*
Y212090D02*
D03*
Y288290D02*
D03*
Y262890D02*
D03*
Y339090D02*
D03*
Y364490D02*
D03*
Y440690D02*
D03*
Y415290D02*
D03*
Y542290D02*
D03*
Y516890D02*
D03*
Y491490D02*
D03*
D36*
X146210Y59690D02*
D03*
D37*
X704850Y612140D02*
D03*
X635000Y892810D02*
D03*
X673909D02*
D03*
X675640Y513080D02*
D03*
X589280Y482600D02*
D03*
X802079Y503481D02*
D03*
X520700Y304800D02*
D03*
X575310Y275590D02*
D03*
X520700D02*
D03*
X546100Y255270D02*
D03*
X478790Y132080D02*
D03*
X739140Y878840D02*
D03*
X598170Y892810D02*
D03*
X830580Y266700D02*
D03*
X551180Y335280D02*
D03*
X782320Y431800D02*
D03*
X901581Y462855D02*
D03*
X906890Y425240D02*
D03*
X910590Y563880D02*
D03*
X854710Y567690D02*
D03*
X866140Y426720D02*
D03*
X742950Y360680D02*
D03*
X693420Y342900D02*
D03*
X662940Y458470D02*
D03*
X836930Y429260D02*
D03*
X629920Y506730D02*
D03*
X1089660Y415290D02*
D03*
X627380Y331470D02*
D03*
X610762Y372218D02*
D03*
X535940Y469900D02*
D03*
X350520Y415290D02*
D03*
X384077Y448171D02*
D03*
X568960Y412750D02*
D03*
X573127Y397551D02*
D03*
X557966Y388620D02*
D03*
X614680Y466090D02*
D03*
X608330Y445770D02*
D03*
X699770Y439420D02*
D03*
X719807Y446008D02*
D03*
X691060Y374469D02*
D03*
X665871Y386331D02*
D03*
X676076Y398344D02*
D03*
X675640Y361950D02*
D03*
X667702Y427990D02*
D03*
X656343Y438150D02*
D03*
X593090Y543560D02*
D03*
X576580Y541020D02*
D03*
X717482Y538277D02*
D03*
X511770Y838200D02*
D03*
X538480Y873760D02*
D03*
X981460Y541020D02*
D03*
X1007110Y542290D02*
D03*
X1050290D02*
D03*
X1092200Y368300D02*
D03*
X935990Y414020D02*
D03*
X632460Y223520D02*
D03*
X698500Y289560D02*
D03*
X718820Y393700D02*
D03*
X632686Y371810D02*
D03*
X617927Y357831D02*
D03*
X659130Y407670D02*
D03*
X811530Y421640D02*
D03*
X831850Y398780D02*
D03*
X632659Y673299D02*
D03*
X555862Y520700D02*
D03*
X615950Y659130D02*
D03*
X591820Y342900D02*
D03*
X535940Y420370D02*
D03*
X325120Y520700D02*
D03*
X321746Y474582D02*
D03*
X340418Y440690D02*
D03*
X678180Y642620D02*
D03*
X227330Y402590D02*
D03*
X718820Y326390D02*
D03*
X566769Y152329D02*
D03*
X599933Y259098D02*
D03*
X608330Y246380D02*
D03*
X265430Y459740D02*
D03*
X563880Y255270D02*
D03*
X581660D02*
D03*
X660400Y303530D02*
D03*
X624840Y284480D02*
D03*
X638719Y278186D02*
D03*
X675640Y303530D02*
D03*
X685848Y314846D02*
D03*
X591820Y445770D02*
D03*
X344170Y313690D02*
D03*
X810260Y152400D02*
D03*
X513028Y805429D02*
D03*
X859790Y207010D02*
D03*
Y281940D02*
D03*
X883920Y233520D02*
D03*
Y283210D02*
D03*
D38*
X708660Y891360D02*
D03*
X562017Y891358D02*
D03*
D39*
X704850Y612140D02*
X735330Y581660D01*
X913862D01*
X716132Y540358D02*
X718205Y538284D01*
X717998Y537554D02*
X718729Y538284D01*
X927100Y557292D02*
Y568422D01*
X920266Y551434D02*
X921242D01*
X927100Y557292D01*
X913862Y581660D02*
X927100Y568422D01*
X678180Y578924D02*
Y642620D01*
X719807Y446008D02*
Y535221D01*
X717998Y537030D02*
X719807Y535221D01*
X717998Y537030D02*
Y537554D01*
X716132Y540358D02*
Y540973D01*
X839386Y538574D02*
X851210Y526750D01*
X678180Y578924D02*
X716132Y540973D01*
X811888Y538574D02*
X839386D01*
X811598Y538284D02*
X811888Y538574D01*
X718729Y538284D02*
X811598D01*
X854210Y526750D02*
X854710Y526250D01*
X851210Y526750D02*
X854210D01*
X1109420Y402150D02*
X1144120D01*
X981460Y541020D02*
Y568520D01*
Y513520D02*
Y541020D01*
X1006460Y513520D02*
Y568520D01*
X1070987Y389513D02*
X1092200Y368300D01*
X1070987Y389513D02*
Y521593D01*
X1050290Y542290D02*
X1070987Y521593D01*
X344170Y294387D02*
Y313690D01*
Y294387D02*
X486228Y152329D01*
X566769D01*
X810260Y113140D02*
X810370Y113030D01*
X810260Y113140D02*
Y152400D01*
X563880Y113030D02*
X566769Y115919D01*
Y152329D01*
X563770Y113030D02*
X563880D01*
X1031460Y507020D02*
Y513520D01*
X1017920Y493480D02*
X1031460Y507020D01*
X954045Y493480D02*
X1017920D01*
X905510Y495300D02*
X952225D01*
X954045Y493480D01*
X1031460Y513520D02*
Y568520D01*
D40*
X898750Y549250D02*
X901000D01*
X893412Y548040D02*
X897540D01*
X893872Y531000D02*
X900250D01*
X897540Y548040D02*
X898750Y549250D01*
X890460Y534412D02*
X893872Y531000D01*
X890460Y545088D02*
X893412Y548040D01*
X900250Y531000D02*
X901000Y530250D01*
X890460Y534412D02*
Y545088D01*
X678942Y326898D02*
X718312D01*
X824484Y494030D02*
X841440D01*
X828440Y503530D02*
X841440D01*
X825286Y506684D02*
X828440Y503530D01*
X825286Y506684D02*
Y506944D01*
X823976Y508254D02*
X825286Y506944D01*
X822960Y508254D02*
X823976D01*
X782820Y495480D02*
X790689Y503349D01*
X821944Y508254D02*
X822960D01*
X813094Y498404D02*
X813469Y498779D01*
Y499779D02*
X821944Y508254D01*
X790689Y503349D02*
Y508199D01*
X804519Y518366D02*
X814686Y528534D01*
X813094Y494726D02*
Y498404D01*
X790689Y508199D02*
X800857Y518366D01*
X804519D01*
X813469Y498779D02*
Y499779D01*
X808810Y490442D02*
X813094Y494726D01*
X789980Y420410D02*
X804150Y434580D01*
X815502D01*
X770930Y427082D02*
Y436518D01*
Y427082D02*
X777602Y420410D01*
X772160Y437748D02*
Y458081D01*
X777602Y420410D02*
X789980D01*
X770930Y436518D02*
X772160Y437748D01*
X895520Y413850D02*
X935990D01*
X870370Y439000D02*
X895520Y413850D01*
X862312Y439000D02*
X870370D01*
X815502Y434580D02*
X832212Y417870D01*
X848320Y425008D02*
X862312Y439000D01*
X848320Y424542D02*
Y425008D01*
X841648Y417870D02*
X848320Y424542D01*
X832212Y417870D02*
X841648D01*
X772160Y458081D02*
X775089Y461010D01*
X814686Y528534D02*
X829874D01*
X845328Y513080D01*
X808810Y477520D02*
Y490442D01*
X782140Y461010D02*
X782320Y461190D01*
X775089Y461010D02*
X782140D01*
X845328Y513080D02*
X853640D01*
X782320Y461190D02*
Y479880D01*
X782535Y461405D02*
X798887D01*
X591364Y342900D02*
X591820D01*
X590984D02*
X591364D01*
X583384Y334920D02*
X591364Y342900D01*
X574150Y334710D02*
X574360Y334920D01*
X583384D01*
X574150Y350710D02*
X574360Y350500D01*
X583384D01*
X590984Y342900D01*
X678754Y326710D02*
X678942Y326898D01*
X877000Y563818D02*
X881126Y567944D01*
Y568960D01*
X877000Y549250D02*
Y563818D01*
X853640Y513080D02*
X863190Y503530D01*
X865440D01*
X857250Y495300D02*
X857792D01*
X857852Y495240D01*
X905450D01*
X905510Y495300D01*
X849770Y502780D02*
X857250Y495300D01*
X841440Y503530D02*
X842190Y502780D01*
X849770D01*
X901000Y549250D02*
X903250D01*
X905434Y551434D01*
X919480D01*
X782320Y495480D02*
X782820D01*
X782320Y461190D02*
X782535Y461405D01*
X824230Y477340D02*
X824410Y477520D01*
X824230Y452300D02*
Y477340D01*
X824050Y452120D02*
X824230Y452300D01*
X824410Y477520D02*
X834430D01*
X838440Y481530D01*
Y483780D01*
X839190Y484530D01*
X841440D01*
X865440Y469962D02*
Y484530D01*
X861314Y465836D02*
X865440Y469962D01*
X861314Y464820D02*
Y465836D01*
X865440Y503530D02*
X866190Y504280D01*
X888290D01*
X890270Y506260D01*
X854710Y526250D02*
X870750D01*
X874750Y530250D01*
X877000D01*
X890270Y506260D02*
Y534222D01*
X890460Y534412D01*
D41*
X853440Y480060D02*
Y487680D01*
X845566Y464820D02*
X846226Y465480D01*
Y472846D01*
X853440Y480060D01*
X847090Y494030D02*
X853440Y487680D01*
M02*
