G04*
G04 #@! TF.GenerationSoftware,Altium Limited,Altium Designer,20.1.10 (176)*
G04*
G04 Layer_Color=16711935*
%FSLAX25Y25*%
%MOIN*%
G70*
G04*
G04 #@! TF.SameCoordinates,5521C82E-C4DF-45B8-AF43-17A550F81722*
G04*
G04*
G04 #@! TF.FilePolarity,Negative*
G04*
G01*
G75*
%ADD17R,0.04619X0.04225*%
%ADD26R,0.04225X0.04619*%
%ADD28R,0.04600X0.03800*%
%ADD29R,0.03800X0.04600*%
%ADD32O,0.16548X0.08123*%
G04:AMPARAMS|DCode=33|XSize=81.23mil|YSize=165.48mil|CornerRadius=13.15mil|HoleSize=0mil|Usage=FLASHONLY|Rotation=270.000|XOffset=0mil|YOffset=0mil|HoleType=Round|Shape=RoundedRectangle|*
%AMROUNDEDRECTD33*
21,1,0.08123,0.13917,0,0,270.0*
21,1,0.05492,0.16548,0,0,270.0*
1,1,0.02631,-0.06959,-0.02746*
1,1,0.02631,-0.06959,0.02746*
1,1,0.02631,0.06959,0.02746*
1,1,0.02631,0.06959,-0.02746*
%
%ADD33ROUNDEDRECTD33*%
%ADD34C,0.06351*%
%ADD35C,0.00800*%
G04:AMPARAMS|DCode=36|XSize=86.74mil|YSize=47.37mil|CornerRadius=13.84mil|HoleSize=0mil|Usage=FLASHONLY|Rotation=180.000|XOffset=0mil|YOffset=0mil|HoleType=Round|Shape=RoundedRectangle|*
%AMROUNDEDRECTD36*
21,1,0.08674,0.01968,0,0,180.0*
21,1,0.05906,0.04737,0,0,180.0*
1,1,0.02769,-0.02953,0.00984*
1,1,0.02769,0.02953,0.00984*
1,1,0.02769,0.02953,-0.00984*
1,1,0.02769,-0.02953,-0.00984*
%
%ADD36ROUNDEDRECTD36*%
%ADD37O,0.16548X0.08300*%
%ADD38C,0.11811*%
%ADD85R,0.03315X0.11386*%
%ADD86R,0.03316X0.11386*%
%ADD87R,0.03359X0.02178*%
%ADD88R,0.03359X0.02769*%
%ADD89R,0.03359X0.02572*%
%ADD90R,0.03359X0.03162*%
%ADD91R,0.02178X0.03359*%
%ADD92R,0.02769X0.03359*%
%ADD93R,0.02572X0.03359*%
%ADD94R,0.03162X0.03359*%
G04:AMPARAMS|DCode=95|XSize=27.29mil|YSize=25.72mil|CornerRadius=6.22mil|HoleSize=0mil|Usage=FLASHONLY|Rotation=90.000|XOffset=0mil|YOffset=0mil|HoleType=Round|Shape=RoundedRectangle|*
%AMROUNDEDRECTD95*
21,1,0.02729,0.01329,0,0,90.0*
21,1,0.01486,0.02572,0,0,90.0*
1,1,0.01243,0.00664,0.00743*
1,1,0.01243,0.00664,-0.00743*
1,1,0.01243,-0.00664,-0.00743*
1,1,0.01243,-0.00664,0.00743*
%
%ADD95ROUNDEDRECTD95*%
%ADD96R,0.05800X0.10800*%
%ADD97R,0.03713X0.11784*%
%ADD98R,0.10800X0.05800*%
%ADD99R,0.05131X0.05131*%
%ADD100R,0.09265X0.02375*%
%ADD101R,0.01981X0.02867*%
%ADD102R,0.02473X0.01981*%
G04:AMPARAMS|DCode=103|XSize=57.61mil|YSize=31.23mil|CornerRadius=9.81mil|HoleSize=0mil|Usage=FLASHONLY|Rotation=90.000|XOffset=0mil|YOffset=0mil|HoleType=Round|Shape=RoundedRectangle|*
%AMROUNDEDRECTD103*
21,1,0.05761,0.01161,0,0,90.0*
21,1,0.03799,0.03123,0,0,90.0*
1,1,0.01961,0.00581,0.01900*
1,1,0.01961,0.00581,-0.01900*
1,1,0.01961,-0.00581,-0.01900*
1,1,0.01961,-0.00581,0.01900*
%
%ADD103ROUNDEDRECTD103*%
G04:AMPARAMS|DCode=104|XSize=57.61mil|YSize=46.98mil|CornerRadius=13.74mil|HoleSize=0mil|Usage=FLASHONLY|Rotation=90.000|XOffset=0mil|YOffset=0mil|HoleType=Round|Shape=RoundedRectangle|*
%AMROUNDEDRECTD104*
21,1,0.05761,0.01949,0,0,90.0*
21,1,0.03012,0.04698,0,0,90.0*
1,1,0.02749,0.00974,0.01506*
1,1,0.02749,0.00974,-0.01506*
1,1,0.02749,-0.00974,-0.01506*
1,1,0.02749,-0.00974,0.01506*
%
%ADD104ROUNDEDRECTD104*%
%ADD105R,0.32296X0.32296*%
%ADD106R,0.14186X0.06312*%
%ADD107R,0.14580X0.04737*%
%ADD108R,0.05131X0.08280*%
%ADD109R,0.08280X0.05131*%
%ADD110O,0.03162X0.06312*%
%ADD111R,0.08280X0.03162*%
G04:AMPARAMS|DCode=112|XSize=82.8mil|YSize=31.62mil|CornerRadius=9.91mil|HoleSize=0mil|Usage=FLASHONLY|Rotation=0.000|XOffset=0mil|YOffset=0mil|HoleType=Round|Shape=RoundedRectangle|*
%AMROUNDEDRECTD112*
21,1,0.08280,0.01181,0,0,0.0*
21,1,0.06299,0.03162,0,0,0.0*
1,1,0.01981,0.03150,-0.00591*
1,1,0.01981,-0.03150,-0.00591*
1,1,0.01981,-0.03150,0.00591*
1,1,0.01981,0.03150,0.00591*
%
%ADD112ROUNDEDRECTD112*%
G36*
X287020Y330458D02*
X282440Y293484D01*
X260486Y288385D01*
X242455Y288059D01*
X217007Y293991D01*
X213020Y330458D01*
X236419Y335426D01*
X250542Y336481D01*
X287020Y330458D01*
D02*
G37*
D17*
X446000Y151071D02*
D03*
Y144929D02*
D03*
X283000Y189429D02*
D03*
Y195571D02*
D03*
X247500Y179929D02*
D03*
Y186071D02*
D03*
D26*
X233071Y198000D02*
D03*
X226929D02*
D03*
X267429Y189000D02*
D03*
X273571D02*
D03*
X267429Y196000D02*
D03*
X273571D02*
D03*
X210929Y197500D02*
D03*
X217071D02*
D03*
X210929Y190500D02*
D03*
X217071D02*
D03*
X210929Y204500D02*
D03*
X217071D02*
D03*
D28*
X296000Y309900D02*
D03*
Y316100D02*
D03*
X204000Y312100D02*
D03*
Y305900D02*
D03*
X453000Y151100D02*
D03*
Y144900D02*
D03*
X254000Y179900D02*
D03*
Y186100D02*
D03*
X261000Y259005D02*
D03*
Y252805D02*
D03*
X188000Y177900D02*
D03*
Y184100D02*
D03*
D29*
X278400Y337500D02*
D03*
X284600D02*
D03*
X220400Y338000D02*
D03*
X226600D02*
D03*
X306400Y168000D02*
D03*
X312600D02*
D03*
X232400Y221500D02*
D03*
X238600D02*
D03*
X273100D02*
D03*
X266900D02*
D03*
X266600Y213000D02*
D03*
X260400D02*
D03*
X153900Y215500D02*
D03*
X160100D02*
D03*
X153900Y205500D02*
D03*
X160100D02*
D03*
D32*
X75437Y163500D02*
D03*
Y173500D02*
D03*
Y183500D02*
D03*
Y193500D02*
D03*
Y203500D02*
D03*
Y213500D02*
D03*
Y153500D02*
D03*
Y143500D02*
D03*
Y133500D02*
D03*
Y83500D02*
D03*
Y93500D02*
D03*
Y103500D02*
D03*
Y113500D02*
D03*
Y123500D02*
D03*
Y73500D02*
D03*
Y63500D02*
D03*
Y53500D02*
D03*
Y43500D02*
D03*
Y33500D02*
D03*
Y23500D02*
D03*
X57563Y73500D02*
D03*
Y63500D02*
D03*
Y53500D02*
D03*
Y43500D02*
D03*
Y33500D02*
D03*
Y83500D02*
D03*
Y93500D02*
D03*
Y103500D02*
D03*
Y153500D02*
D03*
Y143500D02*
D03*
Y133500D02*
D03*
Y123500D02*
D03*
Y113500D02*
D03*
Y163500D02*
D03*
Y173500D02*
D03*
Y183500D02*
D03*
Y193500D02*
D03*
Y203500D02*
D03*
Y213500D02*
D03*
D33*
Y23500D02*
D03*
D34*
X326224Y16138D02*
D03*
X95910D02*
D03*
Y220862D02*
D03*
X326224D02*
D03*
D35*
X441976Y180374D02*
D03*
Y164626D02*
D03*
D36*
X450441Y158327D02*
D03*
Y186673D02*
D03*
X436779D02*
D03*
Y158327D02*
D03*
D37*
X449311Y218000D02*
D03*
Y208000D02*
D03*
D38*
X279000Y350929D02*
D03*
X221267Y350929D02*
D03*
D85*
X312501Y179500D02*
D03*
Y195500D02*
D03*
X307501Y179500D02*
D03*
Y195500D02*
D03*
X297499Y179500D02*
D03*
Y195500D02*
D03*
X292499Y179500D02*
D03*
Y195500D02*
D03*
D86*
X302500Y179500D02*
D03*
Y195500D02*
D03*
D87*
X208660Y308563D02*
D03*
X291126Y313484D02*
D03*
D88*
X208660Y305315D02*
D03*
X291126Y316732D02*
D03*
D89*
X208660Y315846D02*
D03*
X291126Y306201D02*
D03*
D90*
X208660Y312008D02*
D03*
X291126Y310039D02*
D03*
D91*
X281461Y342500D02*
D03*
X223728D02*
D03*
D92*
X284709D02*
D03*
X226976D02*
D03*
D93*
X274177D02*
D03*
X216445D02*
D03*
D94*
X278016D02*
D03*
X220284D02*
D03*
D95*
X246441Y252087D02*
D03*
X254118D02*
D03*
X251559D02*
D03*
X249000D02*
D03*
X246441Y259724D02*
D03*
X254118D02*
D03*
X251559D02*
D03*
X249000D02*
D03*
D96*
X290500Y214752D02*
D03*
Y236248D02*
D03*
X300500Y214752D02*
D03*
Y236248D02*
D03*
X310500Y214752D02*
D03*
Y236248D02*
D03*
D97*
X312500Y179500D02*
D03*
Y195500D02*
D03*
X307500Y179500D02*
D03*
Y195500D02*
D03*
X302500Y179500D02*
D03*
Y195500D02*
D03*
X297500Y179500D02*
D03*
Y195500D02*
D03*
X292500Y179500D02*
D03*
Y195500D02*
D03*
D98*
X137748Y185000D02*
D03*
X116252D02*
D03*
X137748Y195000D02*
D03*
X116252D02*
D03*
X137748Y205000D02*
D03*
X116252D02*
D03*
D99*
X454969Y166595D02*
D03*
Y178405D02*
D03*
D100*
X438000Y167382D02*
D03*
Y169941D02*
D03*
Y172500D02*
D03*
Y175059D02*
D03*
Y177618D02*
D03*
D101*
X257169Y205408D02*
D03*
X255201D02*
D03*
X253232D02*
D03*
X251264D02*
D03*
X249295D02*
D03*
X247327D02*
D03*
X245358D02*
D03*
X243390D02*
D03*
X241421D02*
D03*
Y193104D02*
D03*
X243390D02*
D03*
X245358D02*
D03*
X247327D02*
D03*
X249295D02*
D03*
X251264D02*
D03*
X253232D02*
D03*
X255201D02*
D03*
X257169D02*
D03*
X259138D02*
D03*
Y205408D02*
D03*
D102*
X241175Y202209D02*
D03*
Y200240D02*
D03*
Y198272D02*
D03*
Y196303D02*
D03*
X259384D02*
D03*
Y198272D02*
D03*
Y200240D02*
D03*
Y202209D02*
D03*
D103*
X399240Y188858D02*
D03*
X391760D02*
D03*
Y181142D02*
D03*
D104*
X398453D02*
D03*
D105*
X441386Y121583D02*
D03*
Y44417D02*
D03*
X114614D02*
D03*
Y121583D02*
D03*
D106*
X448953Y198748D02*
D03*
Y227252D02*
D03*
D107*
X428953Y209063D02*
D03*
Y216937D02*
D03*
D108*
X248079Y221500D02*
D03*
X257921D02*
D03*
D109*
X171500Y215421D02*
D03*
Y205579D02*
D03*
D110*
X188185Y211630D02*
D03*
X193185D02*
D03*
X198185D02*
D03*
X203185D02*
D03*
X188185Y190370D02*
D03*
X193185D02*
D03*
X198185D02*
D03*
X203185D02*
D03*
D111*
X364165Y169500D02*
D03*
Y174500D02*
D03*
Y179500D02*
D03*
Y184500D02*
D03*
Y189500D02*
D03*
Y194500D02*
D03*
Y199500D02*
D03*
X344835D02*
D03*
Y194500D02*
D03*
Y189500D02*
D03*
Y184500D02*
D03*
Y179500D02*
D03*
Y174500D02*
D03*
D112*
Y169500D02*
D03*
M02*
