M48
;Layer_Color=9474304
;FILE_FORMAT=2:5
INCH,LZ
;TYPE=PLATED
T1F00S00C0.01968
T3F00S00C0.04000
T4F00S00C0.04567
T5F00S00C0.05512
T6F00S00C0.11811
%
T01
X0441976Y0164626
Y0180374
T03
X0453248Y0208
Y0218
T04
X00615Y00235
X00715
Y00335
Y00435
Y00535
Y00635
Y00735
Y00835
Y00935
Y01035
Y01135
Y01235
Y01335
Y01435
Y01535
X00615
Y01435
Y01335
Y01235
Y01135
Y01035
Y00935
Y00835
Y00735
Y00635
Y00535
Y00435
Y00335
Y01635
X00715
Y01735
Y01835
Y01935
Y02035
Y02135
X00615
Y02035
Y01935
Y01835
Y01735
T05
X009591Y0016138
X0326224
Y0220862
X009591
T06
X0221267Y0350929
X0279Y0350929
M30
