G04*
G04 #@! TF.GenerationSoftware,Altium Limited,Altium Designer,20.1.10 (176)*
G04*
G04 Layer_Color=8388736*
%FSLAX44Y44*%
%MOMM*%
G71*
G04*
G04 #@! TF.SameCoordinates,3C272685-A037-487F-9890-8FF06BE111D6*
G04*
G04*
G04 #@! TF.FilePolarity,Negative*
G04*
G01*
G75*
%ADD17R,0.8700X0.9700*%
%ADD18R,1.7000X1.1000*%
%ADD19R,0.9652X0.7620*%
%ADD20R,0.9700X0.8700*%
%ADD21R,1.1000X0.6500*%
%ADD22R,1.1500X0.6000*%
%ADD23R,0.7620X0.9652*%
%ADD24R,1.2000X2.5000*%
%ADD25R,2.4000X3.3000*%
G04:AMPARAMS|DCode=26|XSize=1.6mm|YSize=0.55mm|CornerRadius=0.1458mm|HoleSize=0mm|Usage=FLASHONLY|Rotation=180.000|XOffset=0mm|YOffset=0mm|HoleType=Round|Shape=RoundedRectangle|*
%AMROUNDEDRECTD26*
21,1,1.6000,0.2585,0,0,180.0*
21,1,1.3085,0.5500,0,0,180.0*
1,1,0.2915,-0.6543,0.1293*
1,1,0.2915,0.6543,0.1293*
1,1,0.2915,0.6543,-0.1293*
1,1,0.2915,-0.6543,-0.1293*
%
%ADD26ROUNDEDRECTD26*%
G04:AMPARAMS|DCode=27|XSize=1.6mm|YSize=0.55mm|CornerRadius=0.1458mm|HoleSize=0mm|Usage=FLASHONLY|Rotation=270.000|XOffset=0mm|YOffset=0mm|HoleType=Round|Shape=RoundedRectangle|*
%AMROUNDEDRECTD27*
21,1,1.6000,0.2585,0,0,270.0*
21,1,1.3085,0.5500,0,0,270.0*
1,1,0.2915,-0.1293,-0.6543*
1,1,0.2915,-0.1293,0.6543*
1,1,0.2915,0.1293,0.6543*
1,1,0.2915,0.1293,-0.6543*
%
%ADD27ROUNDEDRECTD27*%
%ADD28R,1.5500X1.3000*%
%ADD29R,1.3000X1.5500*%
%ADD30R,6.0700X6.0700*%
%ADD31R,1.1000X1.7000*%
%ADD32R,2.0000X5.5000*%
%ADD33O,4.0000X1.9050*%
G04:AMPARAMS|DCode=34|XSize=2mm|YSize=1mm|CornerRadius=0.25mm|HoleSize=0mm|Usage=FLASHONLY|Rotation=180.000|XOffset=0mm|YOffset=0mm|HoleType=Round|Shape=RoundedRectangle|*
%AMROUNDEDRECTD34*
21,1,2.0000,0.5000,0,0,180.0*
21,1,1.5000,1.0000,0,0,180.0*
1,1,0.5000,-0.7500,0.2500*
1,1,0.5000,0.7500,0.2500*
1,1,0.5000,0.7500,-0.2500*
1,1,0.5000,-0.7500,-0.2500*
%
%ADD34ROUNDEDRECTD34*%
%ADD35O,4.0000X1.6000*%
G04:AMPARAMS|DCode=36|XSize=1.6mm|YSize=4mm|CornerRadius=0.2mm|HoleSize=0mm|Usage=FLASHONLY|Rotation=270.000|XOffset=0mm|YOffset=0mm|HoleType=Round|Shape=RoundedRectangle|*
%AMROUNDEDRECTD36*
21,1,1.6000,3.6000,0,0,270.0*
21,1,1.2000,4.0000,0,0,270.0*
1,1,0.4000,-1.8000,-0.6000*
1,1,0.4000,-1.8000,0.6000*
1,1,0.4000,1.8000,0.6000*
1,1,0.4000,1.8000,-0.6000*
%
%ADD36ROUNDEDRECTD36*%
%ADD37C,1.2700*%
%ADD38C,3.0000*%
G36*
X729031Y839363D02*
X717398Y745451D01*
X661633Y732497D01*
X615835Y731669D01*
X551197Y746738D01*
X541071Y839363D01*
X600504Y851982D01*
X636378Y854662D01*
X729031Y839363D01*
D02*
G37*
D17*
X241480Y351790D02*
D03*
X225880D02*
D03*
X241480Y378460D02*
D03*
X225880D02*
D03*
X241660Y459740D02*
D03*
X226060D02*
D03*
X241480Y440690D02*
D03*
X225880D02*
D03*
X241480Y478790D02*
D03*
X225880D02*
D03*
X824410Y477520D02*
D03*
X808810D02*
D03*
X1014260Y68580D02*
D03*
X998660D02*
D03*
D18*
X854710Y553250D02*
D03*
Y526250D02*
D03*
X890270Y506260D02*
D03*
Y479260D02*
D03*
D19*
X810260Y345374D02*
D03*
Y329626D02*
D03*
Y302874D02*
D03*
Y287126D02*
D03*
Y217874D02*
D03*
Y202126D02*
D03*
Y387874D02*
D03*
Y372126D02*
D03*
X822960Y492506D02*
D03*
Y508254D02*
D03*
X919480Y551434D02*
D03*
Y535686D02*
D03*
X679450Y343154D02*
D03*
Y327406D02*
D03*
X553720Y364744D02*
D03*
Y348996D02*
D03*
X538480Y289306D02*
D03*
Y305054D02*
D03*
X810260Y244626D02*
D03*
Y260374D02*
D03*
X537210Y385064D02*
D03*
Y369316D02*
D03*
D20*
X795020Y345300D02*
D03*
Y329700D02*
D03*
X778510Y345300D02*
D03*
Y329700D02*
D03*
Y302800D02*
D03*
Y287200D02*
D03*
X795020Y302800D02*
D03*
Y287200D02*
D03*
X778510Y260300D02*
D03*
Y244700D02*
D03*
X795020Y260300D02*
D03*
Y244700D02*
D03*
Y217800D02*
D03*
Y202200D02*
D03*
X778510Y217800D02*
D03*
Y202200D02*
D03*
X795020Y387800D02*
D03*
Y372200D02*
D03*
X778510Y387800D02*
D03*
Y372200D02*
D03*
X782320Y495480D02*
D03*
Y479880D02*
D03*
Y461190D02*
D03*
Y445590D02*
D03*
X642620Y433250D02*
D03*
Y417650D02*
D03*
X624840Y433250D02*
D03*
Y417650D02*
D03*
X608330Y433250D02*
D03*
Y417650D02*
D03*
X591820Y433250D02*
D03*
Y417650D02*
D03*
X703580Y360500D02*
D03*
Y376100D02*
D03*
D21*
X901000Y539750D02*
D03*
Y549250D02*
D03*
Y530250D02*
D03*
X877000Y549250D02*
D03*
Y530250D02*
D03*
X865440Y503530D02*
D03*
Y484530D02*
D03*
X841440D02*
D03*
Y503530D02*
D03*
Y494030D02*
D03*
D22*
X824050Y452120D02*
D03*
X801550Y461620D02*
D03*
Y442620D02*
D03*
D23*
X861314Y464820D02*
D03*
X845566D02*
D03*
X896874Y568960D02*
D03*
X881126D02*
D03*
X1014334Y86360D02*
D03*
X998586D02*
D03*
D24*
X1031460Y568520D02*
D03*
X1006460D02*
D03*
Y513520D02*
D03*
X1031460D02*
D03*
X981460D02*
D03*
Y568520D02*
D03*
D25*
X438610Y308610D02*
D03*
X369110D02*
D03*
D26*
X657750Y366710D02*
D03*
Y374710D02*
D03*
Y350710D02*
D03*
Y342710D02*
D03*
Y358710D02*
D03*
Y334710D02*
D03*
Y326710D02*
D03*
Y318710D02*
D03*
X574150Y366710D02*
D03*
Y342710D02*
D03*
Y374710D02*
D03*
Y358710D02*
D03*
Y350710D02*
D03*
Y334710D02*
D03*
Y318710D02*
D03*
Y326710D02*
D03*
D27*
X611950Y388510D02*
D03*
X619950D02*
D03*
X603950D02*
D03*
X635950D02*
D03*
X643950D02*
D03*
X627950D02*
D03*
X611950Y304910D02*
D03*
X619950D02*
D03*
X603950D02*
D03*
X635950D02*
D03*
X643950D02*
D03*
X627950D02*
D03*
X587950Y388510D02*
D03*
X595950D02*
D03*
X587950Y304910D02*
D03*
X595950D02*
D03*
D28*
X1046210Y422570D02*
D03*
Y377570D02*
D03*
X966710Y422570D02*
D03*
Y377570D02*
D03*
X1046210Y322570D02*
D03*
Y277570D02*
D03*
X966710Y322570D02*
D03*
Y277570D02*
D03*
X1046210Y222570D02*
D03*
Y177570D02*
D03*
X966710Y222570D02*
D03*
Y177570D02*
D03*
D29*
X883960Y339820D02*
D03*
X928960D02*
D03*
Y260320D02*
D03*
X883960D02*
D03*
X1083960Y339820D02*
D03*
X1128960D02*
D03*
Y260320D02*
D03*
X1083960D02*
D03*
D30*
X687070Y113030D02*
D03*
X563770D02*
D03*
X810370D02*
D03*
D31*
X480530Y219710D02*
D03*
X507530D02*
D03*
D32*
X497840Y281430D02*
D03*
Y376430D02*
D03*
D33*
X1141250Y553720D02*
D03*
Y528320D02*
D03*
D34*
X1109420Y402150D02*
D03*
Y474150D02*
D03*
X1144120Y402150D02*
D03*
Y474150D02*
D03*
D35*
X146210Y313690D02*
D03*
Y237490D02*
D03*
Y161290D02*
D03*
Y466090D02*
D03*
Y389890D02*
D03*
X191610Y59690D02*
D03*
Y161290D02*
D03*
Y313690D02*
D03*
Y237490D02*
D03*
Y389890D02*
D03*
Y466090D02*
D03*
X146210Y85090D02*
D03*
Y110490D02*
D03*
Y135890D02*
D03*
Y212090D02*
D03*
Y186690D02*
D03*
Y288290D02*
D03*
Y262890D02*
D03*
Y339090D02*
D03*
Y364490D02*
D03*
Y440690D02*
D03*
Y415290D02*
D03*
Y542290D02*
D03*
Y516890D02*
D03*
Y491490D02*
D03*
X191610Y85090D02*
D03*
Y110490D02*
D03*
Y135890D02*
D03*
Y186690D02*
D03*
Y212090D02*
D03*
Y288290D02*
D03*
Y262890D02*
D03*
Y339090D02*
D03*
Y364490D02*
D03*
Y440690D02*
D03*
Y415290D02*
D03*
Y542290D02*
D03*
Y516890D02*
D03*
Y491490D02*
D03*
D36*
X146210Y59690D02*
D03*
D37*
X635000Y892810D02*
D03*
X673909D02*
D03*
X675640Y513080D02*
D03*
X589280Y482600D02*
D03*
X802079Y503481D02*
D03*
X520700Y304800D02*
D03*
X575310Y275590D02*
D03*
X520700D02*
D03*
X546100Y255270D02*
D03*
X478790Y132080D02*
D03*
X739140Y878840D02*
D03*
X598170Y892810D02*
D03*
X830580Y266700D02*
D03*
X551180Y335280D02*
D03*
X782320Y431800D02*
D03*
X901581Y462855D02*
D03*
X906890Y425240D02*
D03*
X910590Y563880D02*
D03*
X854710Y567690D02*
D03*
X866140Y426720D02*
D03*
X742950Y360680D02*
D03*
X693420Y342900D02*
D03*
X662940Y458470D02*
D03*
X836930Y429260D02*
D03*
X629920Y506730D02*
D03*
X1089660Y415290D02*
D03*
X627380Y331470D02*
D03*
X610762Y372218D02*
D03*
X535940Y469900D02*
D03*
X350520Y415290D02*
D03*
X384077Y448171D02*
D03*
X568960Y412750D02*
D03*
X573127Y397551D02*
D03*
X557966Y388620D02*
D03*
X614680Y466090D02*
D03*
X608330Y445770D02*
D03*
X699770Y439420D02*
D03*
X719807Y446008D02*
D03*
X691060Y374469D02*
D03*
X665871Y386331D02*
D03*
X676076Y398344D02*
D03*
X675640Y361950D02*
D03*
X667702Y427990D02*
D03*
X656343Y438150D02*
D03*
X593090Y543560D02*
D03*
X576580Y541020D02*
D03*
X717482Y538277D02*
D03*
X511770Y838200D02*
D03*
X737764Y626004D02*
D03*
X538480Y873760D02*
D03*
X981460Y541020D02*
D03*
X1007110Y542290D02*
D03*
X1050290D02*
D03*
X1092200Y368300D02*
D03*
X935990Y414020D02*
D03*
X632460Y223520D02*
D03*
X698500Y289560D02*
D03*
X718820Y393700D02*
D03*
X632686Y371810D02*
D03*
X617927Y357831D02*
D03*
X659130Y407670D02*
D03*
X811530Y421640D02*
D03*
X831850Y398780D02*
D03*
X632659Y673299D02*
D03*
X555862Y520700D02*
D03*
X615950Y659130D02*
D03*
X591820Y342900D02*
D03*
X535940Y420370D02*
D03*
X325120Y520700D02*
D03*
X321746Y474582D02*
D03*
X340418Y440690D02*
D03*
X678180Y642620D02*
D03*
X227330Y402590D02*
D03*
X718820Y326390D02*
D03*
X566769Y152329D02*
D03*
X599933Y259098D02*
D03*
X608330Y246380D02*
D03*
X265430Y459740D02*
D03*
X563880Y255270D02*
D03*
X581660D02*
D03*
X660400Y303530D02*
D03*
X624840Y284480D02*
D03*
X638719Y278186D02*
D03*
X675640Y303530D02*
D03*
X685848Y314846D02*
D03*
X591820Y445770D02*
D03*
X344170Y313690D02*
D03*
X810260Y152400D02*
D03*
X513028Y805429D02*
D03*
X859790Y207010D02*
D03*
Y281940D02*
D03*
X883920Y233520D02*
D03*
Y283210D02*
D03*
D38*
X708660Y891360D02*
D03*
X562017Y891358D02*
D03*
M02*
