G04*
G04 #@! TF.GenerationSoftware,Altium Limited,Altium Designer,20.1.11 (218)*
G04*
G04 Layer_Color=8421504*
%FSLAX44Y44*%
%MOMM*%
G71*
G04*
G04 #@! TF.SameCoordinates,0FF46C02-4E5C-4EA8-B578-918FE2A0E2C6*
G04*
G04*
G04 #@! TF.FilePolarity,Positive*
G04*
G01*
G75*
%ADD17R,1.7000X1.1000*%
%ADD18R,1.1000X0.6500*%
%ADD19R,1.1000X1.7000*%
%ADD20R,0.8700X0.9700*%
%ADD21R,0.9652X0.7620*%
%ADD22R,0.9700X0.8700*%
%ADD23R,1.1500X0.6000*%
%ADD24R,0.7620X0.9652*%
%ADD25R,1.2000X2.5000*%
%ADD26R,2.4000X3.3000*%
G04:AMPARAMS|DCode=27|XSize=1.6mm|YSize=0.55mm|CornerRadius=0.1458mm|HoleSize=0mm|Usage=FLASHONLY|Rotation=180.000|XOffset=0mm|YOffset=0mm|HoleType=Round|Shape=RoundedRectangle|*
%AMROUNDEDRECTD27*
21,1,1.6000,0.2585,0,0,180.0*
21,1,1.3085,0.5500,0,0,180.0*
1,1,0.2915,-0.6543,0.1293*
1,1,0.2915,0.6543,0.1293*
1,1,0.2915,0.6543,-0.1293*
1,1,0.2915,-0.6543,-0.1293*
%
%ADD27ROUNDEDRECTD27*%
G04:AMPARAMS|DCode=28|XSize=1.6mm|YSize=0.55mm|CornerRadius=0.1458mm|HoleSize=0mm|Usage=FLASHONLY|Rotation=270.000|XOffset=0mm|YOffset=0mm|HoleType=Round|Shape=RoundedRectangle|*
%AMROUNDEDRECTD28*
21,1,1.6000,0.2585,0,0,270.0*
21,1,1.3085,0.5500,0,0,270.0*
1,1,0.2915,-0.1293,-0.6543*
1,1,0.2915,-0.1293,0.6543*
1,1,0.2915,0.1293,0.6543*
1,1,0.2915,0.1293,-0.6543*
%
%ADD28ROUNDEDRECTD28*%
%ADD29R,1.5500X1.3000*%
%ADD30R,1.3000X1.5500*%
%ADD31R,6.0700X6.0700*%
%ADD32R,2.0000X5.5000*%
D17*
X792480Y567220D02*
D03*
Y540220D02*
D03*
X889000Y480530D02*
D03*
Y507530D02*
D03*
D18*
X901000Y539750D02*
D03*
Y549250D02*
D03*
Y530250D02*
D03*
X877000Y549250D02*
D03*
Y530250D02*
D03*
X865440Y503530D02*
D03*
Y484530D02*
D03*
X841440D02*
D03*
Y503530D02*
D03*
Y494030D02*
D03*
D19*
X484340Y222250D02*
D03*
X511340D02*
D03*
D20*
X241480Y351790D02*
D03*
X225880D02*
D03*
X241480Y378460D02*
D03*
X225880D02*
D03*
X241660Y459740D02*
D03*
X226060D02*
D03*
X241480Y440690D02*
D03*
X225880D02*
D03*
X241480Y478790D02*
D03*
X225880D02*
D03*
X824410Y477520D02*
D03*
X808810D02*
D03*
X1014260Y68580D02*
D03*
X998660D02*
D03*
D21*
X810260Y345374D02*
D03*
Y329626D02*
D03*
Y302874D02*
D03*
Y287126D02*
D03*
Y217874D02*
D03*
Y202126D02*
D03*
Y387874D02*
D03*
Y372126D02*
D03*
X822960Y492506D02*
D03*
Y508254D02*
D03*
X919480Y551434D02*
D03*
Y535686D02*
D03*
X679450Y343154D02*
D03*
Y327406D02*
D03*
X553720Y364744D02*
D03*
Y348996D02*
D03*
X538480Y289306D02*
D03*
Y305054D02*
D03*
X810260Y244626D02*
D03*
Y260374D02*
D03*
X537210Y385064D02*
D03*
Y369316D02*
D03*
D22*
X795020Y345300D02*
D03*
Y329700D02*
D03*
X778510Y345300D02*
D03*
Y329700D02*
D03*
Y302800D02*
D03*
Y287200D02*
D03*
X795020Y302800D02*
D03*
Y287200D02*
D03*
X778510Y260300D02*
D03*
Y244700D02*
D03*
X795020Y260300D02*
D03*
Y244700D02*
D03*
Y217800D02*
D03*
Y202200D02*
D03*
X778510Y217800D02*
D03*
Y202200D02*
D03*
X795020Y387800D02*
D03*
Y372200D02*
D03*
X778510Y387800D02*
D03*
Y372200D02*
D03*
X782320Y495480D02*
D03*
Y479880D02*
D03*
Y461190D02*
D03*
Y445590D02*
D03*
X642620Y433250D02*
D03*
Y417650D02*
D03*
X624840Y433250D02*
D03*
Y417650D02*
D03*
X608330Y433250D02*
D03*
Y417650D02*
D03*
X591820Y433250D02*
D03*
Y417650D02*
D03*
X703580Y360500D02*
D03*
Y376100D02*
D03*
D23*
X824050Y452120D02*
D03*
X801550Y461620D02*
D03*
Y442620D02*
D03*
D24*
X861314Y464820D02*
D03*
X845566D02*
D03*
X896874Y568960D02*
D03*
X881126D02*
D03*
X1014334Y86360D02*
D03*
X998586D02*
D03*
D25*
X1031460Y568520D02*
D03*
X1006460D02*
D03*
Y513520D02*
D03*
X1031460D02*
D03*
X981460D02*
D03*
Y568520D02*
D03*
D26*
X438610Y308610D02*
D03*
X369110D02*
D03*
D27*
X657750Y366710D02*
D03*
Y374710D02*
D03*
Y350710D02*
D03*
Y342710D02*
D03*
Y358710D02*
D03*
Y334710D02*
D03*
Y326710D02*
D03*
Y318710D02*
D03*
X574150Y366710D02*
D03*
Y342710D02*
D03*
Y374710D02*
D03*
Y358710D02*
D03*
Y350710D02*
D03*
Y334710D02*
D03*
Y318710D02*
D03*
Y326710D02*
D03*
D28*
X611950Y388510D02*
D03*
X619950D02*
D03*
X603950D02*
D03*
X635950D02*
D03*
X643950D02*
D03*
X627950D02*
D03*
X611950Y304910D02*
D03*
X619950D02*
D03*
X603950D02*
D03*
X635950D02*
D03*
X643950D02*
D03*
X627950D02*
D03*
X587950Y388510D02*
D03*
X595950D02*
D03*
X587950Y304910D02*
D03*
X595950D02*
D03*
D29*
X1046210Y422570D02*
D03*
Y377570D02*
D03*
X966710Y422570D02*
D03*
Y377570D02*
D03*
X1046210Y322570D02*
D03*
Y277570D02*
D03*
X966710Y322570D02*
D03*
Y277570D02*
D03*
X1046210Y222570D02*
D03*
Y177570D02*
D03*
X966710Y222570D02*
D03*
Y177570D02*
D03*
D30*
X883960Y339820D02*
D03*
X928960D02*
D03*
Y260320D02*
D03*
X883960D02*
D03*
X1083960Y339820D02*
D03*
X1128960D02*
D03*
Y260320D02*
D03*
X1083960D02*
D03*
D31*
X563770Y113030D02*
D03*
X810370D02*
D03*
D32*
X497840Y281430D02*
D03*
Y376430D02*
D03*
M02*
