M48
;Layer_Color=9474304
;FILE_FORMAT=4:4
METRIC,LZ
;TYPE=PLATED
T1F00S00C0.5000
T3F00S00C0.7112
T4F00S00C1.0160
T5F00S00C1.1600
T6F00S00C3.0000
;TYPE=NON_PLATED
T7F00S00C1.4000
%
T01
X0112262Y0041815
Y0045815
T03
X0034417Y0031369
X005207Y003048
Y0027559
X005461Y0025527
X0056388
X0058166
X00599933Y00259098
X0060833Y0024638
X0063246Y0022352
X00638719Y00278186
X0062484Y0028448
X0062738Y0033147
X00617927Y00357831
X00610762Y00372218
X00632686Y0037181
X00665871Y00386331
X0067564Y0036195
X0069106Y00374469
X0069342Y003429
X00685848Y00314846
X0067564Y0030353
X006604
X006985Y0028956
X0071882Y0032639
X0074295Y0036068
X0071882Y003937
X00557966Y0038862
X0055118Y0033528
X0059182Y003429
X0057531Y0027559
X00566769Y00152329
X0047879Y0013208
X0081026Y001524
X0085979Y0020701
X0088392Y0023352
Y0028321
X0085979Y0028194
X0083058Y002667
X010922Y003683
X0108966Y0041529
X0093599Y0041402
X0090689Y0042524
X0086614Y0042672
X0083693Y0042926
X0081153Y0042164
X0083185Y0039878
X00901581Y00462855
X0091059Y0056388
X0085471Y0056769
X00802079Y00503481
X0098146Y0054102
X0100711Y0054229
X0105029
X00717482Y00538277
X0067564Y0051308
X0062992Y0050673
X0061468Y0046609
X0060833Y0044577
X0059182
X0058928Y004826
X0059309Y0054356
X0057658Y0054102
X00555862Y005207
X0053594Y004699
Y0042037
X0056896Y0041275
X00573127Y00397551
X0065913Y0040767
X00676076Y00398344
X00667702Y0042799
X00656343Y0043815
X0066294Y0045847
X0069977Y0043942
X00719807Y00446008
X0078232Y004318
X00737764Y00626004
X0067818Y0064262
X00632659Y00673299
X0061595Y0065913
X0032512Y005207
X00321746Y00474582
X00340418Y0044069
X0035052Y0041529
X00384077Y00448171
X0026543Y0045974
X0022733Y0040259
X00513028Y00805429
X0051177Y008382
X0053848Y0087376
X0059817Y0089281
X00635
X00673909
X0073914Y0087884
T04
X0115125Y0052832
Y0055372
T05
X0015621Y0005969
X0018161
Y0008509
X0015621
Y0011049
Y0013589
Y0016129
X0018161
Y0013589
Y0011049
Y0018669
X0015621
Y0021209
Y0023749
X0018161
Y0021209
Y0026289
X0015621
Y0028829
Y0031369
X0018161
Y0028829
Y0033909
X0015621
Y0036449
Y0038989
X0018161
Y0036449
Y0041529
X0015621
Y0044069
Y0046609
X0018161
Y0044069
Y0049149
X0015621
Y0051689
Y0054229
X0018161
Y0051689
T06
X00562017Y00891358
X0070866Y0089136
T07
X0024361Y0004099
X0082861
Y0056099
X0024361
M30
