G04*
G04 #@! TF.GenerationSoftware,Altium Limited,Altium Designer,20.1.11 (218)*
G04*
G04 Layer_Physical_Order=2*
G04 Layer_Color=16711680*
%FSLAX44Y44*%
%MOMM*%
G71*
G04*
G04 #@! TF.SameCoordinates,0FF46C02-4E5C-4EA8-B578-918FE2A0E2C6*
G04*
G04*
G04 #@! TF.FilePolarity,Positive*
G04*
G01*
G75*
%ADD14C,0.2540*%
%ADD20R,0.8700X0.9700*%
%ADD21R,0.9652X0.7620*%
%ADD22R,0.9700X0.8700*%
%ADD24R,0.7620X0.9652*%
%ADD33O,4.0000X1.9050*%
G04:AMPARAMS|DCode=34|XSize=2mm|YSize=1mm|CornerRadius=0.25mm|HoleSize=0mm|Usage=FLASHONLY|Rotation=180.000|XOffset=0mm|YOffset=0mm|HoleType=Round|Shape=RoundedRectangle|*
%AMROUNDEDRECTD34*
21,1,2.0000,0.5000,0,0,180.0*
21,1,1.5000,1.0000,0,0,180.0*
1,1,0.5000,-0.7500,0.2500*
1,1,0.5000,0.7500,0.2500*
1,1,0.5000,0.7500,-0.2500*
1,1,0.5000,-0.7500,-0.2500*
%
%ADD34ROUNDEDRECTD34*%
%ADD35O,4.0000X1.6000*%
G04:AMPARAMS|DCode=36|XSize=1.6mm|YSize=4mm|CornerRadius=0.2mm|HoleSize=0mm|Usage=FLASHONLY|Rotation=270.000|XOffset=0mm|YOffset=0mm|HoleType=Round|Shape=RoundedRectangle|*
%AMROUNDEDRECTD36*
21,1,1.6000,3.6000,0,0,270.0*
21,1,1.2000,4.0000,0,0,270.0*
1,1,0.4000,-1.8000,-0.6000*
1,1,0.4000,-1.8000,0.6000*
1,1,0.4000,1.8000,0.6000*
1,1,0.4000,1.8000,-0.6000*
%
%ADD36ROUNDEDRECTD36*%
%ADD37C,1.2700*%
%ADD38C,3.0000*%
%ADD39C,1.0000*%
%ADD40C,0.5000*%
%ADD42R,1.1000X1.4000*%
%ADD43R,3.4000X1.4000*%
%ADD44R,3.5000X1.0000*%
%ADD45R,1.2700X2.5400*%
%ADD46R,0.6500X0.3500*%
%ADD47R,0.6500X0.6000*%
%ADD48R,0.6500X0.5000*%
%ADD49R,0.6500X0.4500*%
%ADD50R,0.5000X0.6500*%
%ADD51R,0.3500X0.6500*%
%ADD52R,0.6000X0.6500*%
%ADD53R,0.4500X0.6500*%
%ADD54O,0.6000X1.4000*%
%ADD55R,1.1000X1.9000*%
%ADD56R,0.3000X0.5250*%
%ADD57R,0.4250X0.3000*%
%ADD58R,0.7399X2.7899*%
%ADD59R,1.9000X0.6000*%
G04:AMPARAMS|DCode=60|XSize=1.9mm|YSize=0.6mm|CornerRadius=0.15mm|HoleSize=0mm|Usage=FLASHONLY|Rotation=0.000|XOffset=0mm|YOffset=0mm|HoleType=Round|Shape=RoundedRectangle|*
%AMROUNDEDRECTD60*
21,1,1.9000,0.3000,0,0,0.0*
21,1,1.6000,0.6000,0,0,0.0*
1,1,0.3000,0.8000,-0.1500*
1,1,0.3000,-0.8000,-0.1500*
1,1,0.3000,-0.8000,0.1500*
1,1,0.3000,0.8000,0.1500*
%
%ADD60ROUNDEDRECTD60*%
%ADD61R,2.1500X0.4000*%
%ADD62R,1.1000X1.1000*%
G04:AMPARAMS|DCode=63|XSize=0.49mm|YSize=0.45mm|CornerRadius=0.0563mm|HoleSize=0mm|Usage=FLASHONLY|Rotation=90.000|XOffset=0mm|YOffset=0mm|HoleType=Round|Shape=RoundedRectangle|*
%AMROUNDEDRECTD63*
21,1,0.4900,0.3375,0,0,90.0*
21,1,0.3775,0.4500,0,0,90.0*
1,1,0.1125,0.1688,0.1888*
1,1,0.1125,0.1688,-0.1888*
1,1,0.1125,-0.1688,-0.1888*
1,1,0.1125,-0.1688,0.1888*
%
%ADD63ROUNDEDRECTD63*%
%ADD64R,2.5400X1.2700*%
G04:AMPARAMS|DCode=65|XSize=1.26mm|YSize=0.59mm|CornerRadius=0.1475mm|HoleSize=0mm|Usage=FLASHONLY|Rotation=90.000|XOffset=0mm|YOffset=0mm|HoleType=Round|Shape=RoundedRectangle|*
%AMROUNDEDRECTD65*
21,1,1.2600,0.2950,0,0,90.0*
21,1,0.9650,0.5900,0,0,90.0*
1,1,0.2950,0.1475,0.4825*
1,1,0.2950,0.1475,-0.4825*
1,1,0.2950,-0.1475,-0.4825*
1,1,0.2950,-0.1475,0.4825*
%
%ADD65ROUNDEDRECTD65*%
G04:AMPARAMS|DCode=66|XSize=1.26mm|YSize=0.99mm|CornerRadius=0.2475mm|HoleSize=0mm|Usage=FLASHONLY|Rotation=90.000|XOffset=0mm|YOffset=0mm|HoleType=Round|Shape=RoundedRectangle|*
%AMROUNDEDRECTD66*
21,1,1.2600,0.4950,0,0,90.0*
21,1,0.7650,0.9900,0,0,90.0*
1,1,0.4950,0.2475,0.3825*
1,1,0.4950,0.2475,-0.3825*
1,1,0.4950,-0.2475,-0.3825*
1,1,0.4950,-0.2475,0.3825*
%
%ADD66ROUNDEDRECTD66*%
%ADD67R,8.0000X8.0000*%
%ADD68R,1.9000X1.1000*%
%ADD69C,0.1900*%
%ADD70C,0.1600*%
%ADD71C,0.8000*%
%ADD72C,0.3810*%
%ADD73C,2.0000*%
G36*
X1166460Y10070D02*
X113420D01*
Y1169670D01*
X1166460D01*
Y10070D01*
D02*
G37*
%LPC*%
G36*
X732790Y929625D02*
X537210D01*
X535242Y929366D01*
X533408Y928606D01*
X531832Y927398D01*
X496260Y891825D01*
X495051Y890250D01*
X494292Y888416D01*
X494033Y886448D01*
Y858520D01*
X494292Y856552D01*
X495051Y854717D01*
X495241Y854470D01*
Y801370D01*
X495632Y799404D01*
X496746Y797736D01*
X504078Y790405D01*
X505745Y789291D01*
X507711Y788900D01*
X510794D01*
Y786384D01*
X524210D01*
Y783336D01*
X519910D01*
Y776986D01*
X518160D01*
D01*
X519910D01*
Y770636D01*
X524210D01*
Y770460D01*
X528250D01*
Y775500D01*
X530000D01*
Y777250D01*
X535790D01*
Y781997D01*
X536315Y782101D01*
X537575Y782943D01*
X539807Y785175D01*
X540649Y786435D01*
X540945Y787922D01*
Y805005D01*
X542215Y805074D01*
X548626Y746459D01*
X548647Y746390D01*
X548645Y746318D01*
X548798Y745910D01*
X548929Y745495D01*
X548975Y745440D01*
X549001Y745372D01*
X549299Y745054D01*
X549579Y744721D01*
X549642Y744687D01*
X549692Y744635D01*
X550089Y744455D01*
X550475Y744254D01*
X550546Y744248D01*
X550612Y744218D01*
X615252Y729148D01*
X615572Y729137D01*
X615887Y729081D01*
X661677Y729911D01*
X661943Y729969D01*
X662216Y729977D01*
X717986Y742927D01*
X718035Y742950D01*
X718090Y742954D01*
X718494Y743157D01*
X718906Y743344D01*
X718944Y743383D01*
X718992Y743408D01*
X719288Y743750D01*
X719598Y744080D01*
X719617Y744131D01*
X719653Y744172D01*
X719795Y744602D01*
X719955Y745026D01*
X719953Y745080D01*
X719970Y745132D01*
X727245Y803878D01*
X728515Y803799D01*
Y780170D01*
X728811Y778683D01*
X729653Y777423D01*
X731313Y775763D01*
X732573Y774921D01*
X733670Y774703D01*
Y772960D01*
X745250D01*
Y780796D01*
X746701D01*
Y769209D01*
X698651Y721158D01*
X697230Y721345D01*
X695262Y721086D01*
X693428Y720326D01*
X691852Y719118D01*
X690644Y717542D01*
X689884Y715708D01*
X689625Y713740D01*
Y630698D01*
X689884Y628730D01*
X690644Y626895D01*
X691852Y625320D01*
X696728Y620444D01*
Y615763D01*
X696189Y614461D01*
X695883Y612140D01*
X696189Y609819D01*
X697085Y607657D01*
X698510Y605800D01*
X700367Y604375D01*
X702529Y603479D01*
X704850Y603173D01*
X707171Y603479D01*
X709333Y604375D01*
X711190Y605800D01*
X712615Y607657D01*
X713511Y609819D01*
X713817Y612140D01*
X713511Y614461D01*
X712615Y616623D01*
X711938Y617506D01*
Y623595D01*
X711679Y625563D01*
X710920Y627397D01*
X709711Y628972D01*
X704835Y633848D01*
Y712808D01*
X755474Y763446D01*
X756588Y765114D01*
X756979Y767080D01*
Y780796D01*
X759206D01*
Y786229D01*
X760843Y787866D01*
X761299Y787676D01*
X763268Y787417D01*
X765236Y787676D01*
X767070Y788436D01*
X768645Y789645D01*
X774998Y795997D01*
X776206Y797572D01*
X776966Y799407D01*
X777225Y801375D01*
Y885190D01*
X776966Y887158D01*
X776206Y888992D01*
X774998Y890568D01*
X738168Y927398D01*
X736592Y928606D01*
X734758Y929366D01*
X732790Y929625D01*
D02*
G37*
G36*
X516410Y783336D02*
X510794D01*
Y778736D01*
X516410D01*
Y783336D01*
D02*
G37*
G36*
Y775236D02*
X510794D01*
Y770636D01*
X516410D01*
Y775236D01*
D02*
G37*
G36*
X535790Y773750D02*
X531750D01*
Y770460D01*
X535790D01*
Y773750D01*
D02*
G37*
G36*
X632659Y682266D02*
X630338Y681960D01*
X628176Y681065D01*
X626319Y679640D01*
X624894Y677783D01*
X623998Y675620D01*
X623693Y673299D01*
X623998Y670978D01*
X624894Y668816D01*
X626319Y666959D01*
X627541Y666021D01*
X627110Y664751D01*
X624272D01*
X623062Y664510D01*
X623039Y664495D01*
X622290Y665470D01*
X620433Y666895D01*
X618271Y667791D01*
X615950Y668097D01*
X613629Y667791D01*
X611467Y666895D01*
X609610Y665470D01*
X608185Y663613D01*
X607289Y661451D01*
X606983Y659130D01*
X607289Y656809D01*
X608185Y654647D01*
X609610Y652790D01*
X611467Y651365D01*
X613629Y650469D01*
X615950Y650163D01*
X618271Y650469D01*
X620433Y651365D01*
X622290Y652790D01*
X623715Y654647D01*
X623759Y654751D01*
X624272Y654649D01*
X627648D01*
X628858Y654890D01*
X629210Y655125D01*
X629562Y654890D01*
X630773Y654649D01*
X634147D01*
X635358Y654890D01*
X635710Y655125D01*
X636062Y654890D01*
X637272Y654649D01*
X640648D01*
X641858Y654890D01*
X642210Y655125D01*
X642562Y654890D01*
X643710Y654662D01*
Y657303D01*
X643811Y657812D01*
Y659700D01*
X645460D01*
Y661450D01*
X650311D01*
Y661588D01*
X650070Y662798D01*
X650025Y662865D01*
X650704Y664135D01*
X655574D01*
Y659624D01*
X662940D01*
Y657874D01*
X664690D01*
Y651524D01*
X667945D01*
Y649783D01*
X667894Y649731D01*
X662940D01*
X660972Y649472D01*
X659138Y648712D01*
X658830Y648476D01*
X655574D01*
Y644185D01*
X649544D01*
X649384Y644424D01*
X648358Y645110D01*
X647148Y645351D01*
X643773D01*
X642562Y645110D01*
X642210Y644875D01*
X641858Y645110D01*
X640710Y645338D01*
Y642697D01*
X640609Y642187D01*
Y640300D01*
X637311D01*
Y642187D01*
X637210Y642697D01*
Y645338D01*
X636062Y645110D01*
X635710Y644875D01*
X635358Y645110D01*
X634147Y645351D01*
X630773D01*
X629562Y645110D01*
X629210Y644875D01*
X628858Y645110D01*
X627710Y645338D01*
Y642697D01*
X627609Y642187D01*
Y640300D01*
Y638413D01*
X627710Y637903D01*
Y635262D01*
X628858Y635490D01*
X629703Y634528D01*
X630153Y633854D01*
X632715Y631293D01*
X633975Y630451D01*
X635461Y630155D01*
X642459D01*
X643945Y630451D01*
X645206Y631293D01*
X647767Y633854D01*
X648609Y635115D01*
X648734Y635741D01*
X649384Y636176D01*
X649544Y636415D01*
X655574D01*
Y635776D01*
X658785D01*
X658843Y635713D01*
X659132Y634327D01*
X638741Y613936D01*
X614718D01*
X612750Y613677D01*
X610915Y612917D01*
X609341Y611709D01*
X557232Y559601D01*
X556024Y558026D01*
X555264Y556191D01*
X555005Y554223D01*
Y542195D01*
X547265D01*
X545297Y541936D01*
X544222Y541491D01*
X543462Y541176D01*
X541888Y539968D01*
X525170Y523250D01*
X507826D01*
X507200Y524520D01*
X507976Y525532D01*
X508736Y527366D01*
X508995Y529334D01*
Y531603D01*
X509454Y531994D01*
X510845Y531511D01*
X510872Y531378D01*
X512096Y529546D01*
X513928Y528321D01*
X514340Y528240D01*
Y537540D01*
Y546840D01*
X513928Y546758D01*
X512096Y545534D01*
X510872Y543702D01*
X510761Y543146D01*
X509418Y542707D01*
X508696Y543262D01*
X508609Y543702D01*
X507384Y545534D01*
X505552Y546758D01*
X503390Y547188D01*
X501228Y546758D01*
X499396Y545534D01*
X498172Y543702D01*
X498105Y543368D01*
X497291Y542816D01*
X495988Y543304D01*
X495909Y543702D01*
X494684Y545534D01*
X492852Y546758D01*
X490690Y547188D01*
X490561Y547163D01*
X486627Y551097D01*
X485367Y551939D01*
X483880Y552235D01*
X463982D01*
X462495Y551939D01*
X461235Y551097D01*
X461193Y551055D01*
X447650D01*
Y555210D01*
X423570D01*
Y551255D01*
X413004D01*
Y554736D01*
X400304D01*
Y540004D01*
X413004D01*
Y543485D01*
X423570D01*
Y539130D01*
X447650D01*
Y543285D01*
X462802D01*
X464288Y543581D01*
X465549Y544423D01*
X465591Y544465D01*
X471871D01*
X472671Y543195D01*
X472341Y541540D01*
Y533540D01*
X472367Y533411D01*
X465011Y526055D01*
X447650D01*
Y530210D01*
X423570D01*
Y525855D01*
X413004D01*
Y529336D01*
X400304D01*
Y514604D01*
X413004D01*
Y518085D01*
X423570D01*
Y514130D01*
X447650D01*
Y518285D01*
X466620D01*
X468107Y518581D01*
X469367Y519423D01*
X477861Y527917D01*
X477990Y527892D01*
X480152Y528321D01*
X481984Y529546D01*
X483209Y531378D01*
X483639Y533540D01*
Y540027D01*
X484909Y540793D01*
X485042Y540723D01*
Y533540D01*
X485471Y531378D01*
X486696Y529546D01*
X488107Y528603D01*
X488294Y527790D01*
X487844Y526648D01*
X486769Y526203D01*
X486009Y525888D01*
X484434Y524680D01*
X476630Y516875D01*
X464820D01*
X462852Y516616D01*
X461017Y515856D01*
X459442Y514648D01*
X394050Y449255D01*
X392848Y449664D01*
X392739Y450492D01*
X391843Y452654D01*
X390418Y454511D01*
X388561Y455936D01*
X386398Y456832D01*
X384077Y457138D01*
X381757Y456832D01*
X379594Y455936D01*
X377737Y454511D01*
X376312Y452654D01*
X375416Y450492D01*
X375111Y448171D01*
X375416Y445850D01*
X375466Y445730D01*
X353439Y423703D01*
X352841Y423951D01*
X350520Y424257D01*
X348199Y423951D01*
X346037Y423055D01*
X344180Y421630D01*
X342755Y419773D01*
X341859Y417611D01*
X341553Y415290D01*
X341859Y412969D01*
X342755Y410807D01*
X344180Y408950D01*
X346037Y407525D01*
X348199Y406629D01*
X349461Y406463D01*
X349917Y405122D01*
X338792Y393998D01*
X337584Y392422D01*
X336824Y390588D01*
X336565Y388620D01*
Y318382D01*
X336405Y318173D01*
X335509Y316011D01*
X335203Y313690D01*
X335509Y311369D01*
X336405Y309207D01*
X337830Y307350D01*
X339687Y305925D01*
X341849Y305029D01*
X344170Y304723D01*
X346491Y305029D01*
X348653Y305925D01*
X350510Y307350D01*
X351935Y309207D01*
X352831Y311369D01*
X353137Y313690D01*
X352831Y316011D01*
X351935Y318173D01*
X351775Y318382D01*
Y385470D01*
X467970Y501665D01*
X477495D01*
X477981Y500492D01*
X472612Y495123D01*
X471404Y493548D01*
X470644Y491714D01*
X470385Y489746D01*
Y485540D01*
X470644Y483572D01*
X471404Y481738D01*
X472341Y480516D01*
Y479540D01*
X472771Y477378D01*
X473996Y475546D01*
X474105Y475473D01*
Y473964D01*
X470154D01*
Y461264D01*
X484886D01*
Y473964D01*
X481875D01*
Y475473D01*
X481984Y475546D01*
X483209Y477378D01*
X483611Y479402D01*
X483732Y479596D01*
X483772Y479620D01*
X484010Y479605D01*
X485155Y478969D01*
X485471Y477378D01*
X486696Y475546D01*
X488528Y474322D01*
X490690Y473891D01*
X490819Y473917D01*
X494425Y470311D01*
Y407636D01*
X494721Y406149D01*
X495563Y404889D01*
X547607Y352845D01*
X548867Y352003D01*
X550354Y351708D01*
X586693D01*
X587040Y350438D01*
X585480Y349240D01*
X584055Y347383D01*
X583159Y345221D01*
X582853Y342900D01*
X583159Y340579D01*
X584055Y338417D01*
X584215Y338208D01*
Y325730D01*
X530016Y271531D01*
X528939Y272250D01*
X529361Y273269D01*
X529436Y273840D01*
X522450D01*
Y266854D01*
X523021Y266929D01*
X524040Y267351D01*
X524759Y266274D01*
X522942Y264458D01*
X521734Y262882D01*
X520974Y261048D01*
X520715Y259080D01*
Y198120D01*
X520974Y196152D01*
X521734Y194317D01*
X522942Y192742D01*
X539155Y176530D01*
X430030Y67405D01*
X234935D01*
Y397898D01*
X235095Y398107D01*
X235732Y399643D01*
X284698Y448609D01*
X285906Y450184D01*
X286666Y452018D01*
X286925Y453987D01*
Y457140D01*
X290795Y461010D01*
X310520D01*
Y474605D01*
X310590Y474954D01*
X311692Y476057D01*
X312895Y475464D01*
X312779Y474582D01*
X313085Y472261D01*
X313980Y470098D01*
X315405Y468241D01*
X317262Y466816D01*
X319425Y465920D01*
X321746Y465615D01*
X324067Y465920D01*
X326229Y466816D01*
X328086Y468241D01*
X329511Y470098D01*
X330407Y472261D01*
X330713Y474582D01*
X330433Y476709D01*
X340134Y486410D01*
X365120D01*
Y491415D01*
X373930D01*
Y487910D01*
X387710D01*
Y496635D01*
X388980Y497257D01*
X389530Y496830D01*
Y487910D01*
X403310D01*
Y502690D01*
X395024D01*
X389507Y508207D01*
X388247Y509049D01*
X386760Y509345D01*
X335602D01*
X334115Y509049D01*
X332855Y508207D01*
X311790Y487142D01*
X310520Y487668D01*
Y504190D01*
X280040D01*
Y490595D01*
X279965Y490220D01*
Y486749D01*
X264627Y471411D01*
X263785Y470151D01*
X263489Y468664D01*
Y468451D01*
X263109Y468401D01*
X260947Y467505D01*
X259090Y466080D01*
X257665Y464223D01*
X256769Y462061D01*
X256463Y459740D01*
X256769Y457419D01*
X257665Y455257D01*
X259090Y453400D01*
X260947Y451975D01*
X263109Y451079D01*
X263937Y450970D01*
X264345Y449767D01*
X225954Y411376D01*
X225009Y411251D01*
X222847Y410355D01*
X220990Y408930D01*
X220575Y408390D01*
X219305Y408821D01*
Y428880D01*
X219009Y430367D01*
X218167Y431627D01*
X213286Y436508D01*
X213879Y437938D01*
X214241Y440690D01*
X213879Y443442D01*
X212817Y446006D01*
X211127Y448207D01*
X208925Y449897D01*
X206362Y450959D01*
X203610Y451321D01*
X179610D01*
X176859Y450959D01*
X174294Y449897D01*
X172093Y448207D01*
X170403Y446006D01*
X169597Y444060D01*
X168223D01*
X167417Y446006D01*
X165727Y448207D01*
X163526Y449897D01*
X160961Y450959D01*
X158210Y451321D01*
X134210D01*
X131459Y450959D01*
X128895Y449897D01*
X127555Y448868D01*
X126285Y449495D01*
Y452671D01*
X130028Y456414D01*
X131459Y455821D01*
X134210Y455459D01*
X158210D01*
X160961Y455821D01*
X163526Y456883D01*
X165727Y458573D01*
X167417Y460774D01*
X168223Y462720D01*
X169597D01*
X170403Y460774D01*
X172093Y458573D01*
X174294Y456883D01*
X176859Y455821D01*
X179610Y455459D01*
X203610D01*
X206362Y455821D01*
X208925Y456883D01*
X211127Y458573D01*
X212817Y460774D01*
X213879Y463339D01*
X214241Y466090D01*
X213879Y468842D01*
X212817Y471405D01*
X211127Y473607D01*
X208925Y475297D01*
X206362Y476359D01*
X203610Y476721D01*
X179610D01*
X176859Y476359D01*
X174294Y475297D01*
X172093Y473607D01*
X170403Y471405D01*
X169597Y469460D01*
X168223D01*
X167417Y471405D01*
X165727Y473607D01*
X163526Y475297D01*
X160961Y476359D01*
X158210Y476721D01*
X134210D01*
X131459Y476359D01*
X128895Y475297D01*
X126693Y473607D01*
X125003Y471405D01*
X123941Y468842D01*
X123579Y466090D01*
X123941Y463339D01*
X124534Y461908D01*
X119653Y457027D01*
X118811Y455767D01*
X118515Y454280D01*
Y359598D01*
X118811Y358112D01*
X119653Y356851D01*
X127600Y348904D01*
X127508Y347233D01*
X126693Y346607D01*
X125003Y344406D01*
X123941Y341842D01*
X123579Y339090D01*
X123941Y336339D01*
X125003Y333774D01*
X126693Y331573D01*
X128895Y329883D01*
X131459Y328821D01*
X134210Y328459D01*
X158210D01*
X160961Y328821D01*
X163526Y329883D01*
X165727Y331573D01*
X167417Y333774D01*
X168223Y335720D01*
X169597D01*
X170403Y333774D01*
X172093Y331573D01*
X174294Y329883D01*
X176859Y328821D01*
X179610Y328459D01*
X203610D01*
X206362Y328821D01*
X208925Y329883D01*
X211127Y331573D01*
X212817Y333774D01*
X213879Y336339D01*
X214241Y339090D01*
X213879Y341842D01*
X212817Y344406D01*
X211127Y346607D01*
X208925Y348297D01*
X206362Y349359D01*
X203610Y349721D01*
X179610D01*
X176859Y349359D01*
X175428Y348766D01*
X170547Y353647D01*
X169287Y354489D01*
X167800Y354785D01*
X164962D01*
X164531Y356055D01*
X165727Y356973D01*
X167417Y359174D01*
X168223Y361120D01*
X169597D01*
X170403Y359174D01*
X172093Y356973D01*
X174294Y355283D01*
X176859Y354221D01*
X179610Y353859D01*
X203610D01*
X206362Y354221D01*
X208925Y355283D01*
X211127Y356973D01*
X212817Y359174D01*
X213879Y361739D01*
X214241Y364490D01*
X213879Y367242D01*
X212817Y369805D01*
X211127Y372007D01*
X208925Y373697D01*
X206362Y374759D01*
X203610Y375121D01*
X179610D01*
X176859Y374759D01*
X174294Y373697D01*
X172093Y372007D01*
X170403Y369805D01*
X169597Y367860D01*
X168223D01*
X167417Y369805D01*
X165727Y372007D01*
X163526Y373697D01*
X160961Y374759D01*
X158210Y375121D01*
X134210D01*
X131459Y374759D01*
X128895Y373697D01*
X127555Y372668D01*
X126285Y373295D01*
Y381085D01*
X127555Y381712D01*
X128895Y380683D01*
X131459Y379621D01*
X134210Y379259D01*
X158210D01*
X160961Y379621D01*
X163526Y380683D01*
X165727Y382373D01*
X167417Y384575D01*
X168223Y386520D01*
X169597D01*
X170403Y384575D01*
X172093Y382373D01*
X174294Y380683D01*
X176859Y379621D01*
X179610Y379259D01*
X203610D01*
X206362Y379621D01*
X208925Y380683D01*
X211127Y382373D01*
X212817Y384575D01*
X213879Y387138D01*
X214241Y389890D01*
X213879Y392641D01*
X213286Y394072D01*
X217935Y398722D01*
X219325Y398684D01*
X219565Y398107D01*
X219725Y397898D01*
Y67405D01*
X210869D01*
X208925Y68897D01*
X206362Y69959D01*
X203610Y70321D01*
X179610D01*
X176859Y69959D01*
X174294Y68897D01*
X172093Y67207D01*
X170403Y65005D01*
X170109Y64295D01*
X168839Y64547D01*
Y65690D01*
X168487Y67461D01*
X167483Y68963D01*
X165981Y69967D01*
X164210Y70319D01*
X128210D01*
X126439Y69967D01*
X124937Y68963D01*
X123933Y67461D01*
X123581Y65690D01*
Y53690D01*
X123933Y51919D01*
X124937Y50417D01*
X126439Y49413D01*
X128210Y49061D01*
X164210D01*
X165981Y49413D01*
X167483Y50417D01*
X168487Y51919D01*
X168839Y53690D01*
Y54833D01*
X170109Y55085D01*
X170403Y54374D01*
X172093Y52173D01*
X174294Y50483D01*
X176859Y49421D01*
X179610Y49059D01*
X203610D01*
X206362Y49421D01*
X208925Y50483D01*
X211127Y52173D01*
X211144Y52195D01*
X233552D01*
X233960Y50992D01*
X233761Y50839D01*
X231547Y47955D01*
X230155Y44595D01*
X229681Y40990D01*
X230155Y37385D01*
X231547Y34025D01*
X233761Y31141D01*
X236645Y28927D01*
X240005Y27535D01*
X243610Y27061D01*
X247215Y27535D01*
X250575Y28927D01*
X253459Y31141D01*
X255673Y34025D01*
X257065Y37385D01*
X257539Y40990D01*
X257065Y44595D01*
X255673Y47955D01*
X253459Y50839D01*
X253260Y50992D01*
X253668Y52195D01*
X433180D01*
X435148Y52454D01*
X436982Y53214D01*
X438558Y54422D01*
X553060Y168925D01*
X586740D01*
X588708Y169184D01*
X590542Y169944D01*
X592118Y171152D01*
X636562Y215597D01*
X636943Y215755D01*
X638800Y217180D01*
X640225Y219037D01*
X640384Y219418D01*
X702602Y281637D01*
X702983Y281795D01*
X704840Y283220D01*
X706265Y285077D01*
X706423Y285458D01*
X724198Y303232D01*
X725406Y304807D01*
X726166Y306642D01*
X726425Y308610D01*
Y321698D01*
X726585Y321907D01*
X727481Y324069D01*
X727787Y326390D01*
X727481Y328711D01*
X726585Y330873D01*
X726425Y331082D01*
Y389008D01*
X726585Y389217D01*
X727481Y391379D01*
X727787Y393700D01*
X727481Y396021D01*
X726585Y398183D01*
X726425Y398392D01*
Y405071D01*
X824036D01*
X824598Y403932D01*
X824085Y403263D01*
X823189Y401101D01*
X822883Y398780D01*
X823189Y396459D01*
X824085Y394297D01*
X825510Y392440D01*
X827367Y391015D01*
X829529Y390119D01*
X831850Y389813D01*
X834171Y390119D01*
X836333Y391015D01*
X838190Y392440D01*
X839615Y394297D01*
X839863Y394895D01*
X894930D01*
X896417Y395191D01*
X897677Y396033D01*
X926634Y424990D01*
X937020D01*
Y436070D01*
X919579D01*
X918926Y437340D01*
X919177Y437690D01*
X937020D01*
Y448564D01*
X948436D01*
Y463296D01*
X937020D01*
Y466880D01*
X924980D01*
Y468630D01*
X923230D01*
Y474170D01*
X915555D01*
Y475790D01*
X937020D01*
Y479973D01*
X947943D01*
X963350Y464566D01*
X962823Y463296D01*
X959584D01*
Y457680D01*
X964184D01*
Y462134D01*
X965454Y462813D01*
X965865Y462538D01*
X967600Y462193D01*
X989501D01*
Y455275D01*
X989813Y453708D01*
X990700Y452380D01*
X991793Y451650D01*
Y450778D01*
X992138Y449044D01*
X993120Y447574D01*
X1005674Y435020D01*
X1007144Y434038D01*
X1008878Y433693D01*
X1008878Y433693D01*
X1099230D01*
Y427110D01*
Y426900D01*
X1112520D01*
Y425150D01*
X1114270D01*
Y420610D01*
X1116791D01*
X1117718Y419340D01*
X1117481Y418150D01*
X1117872Y416184D01*
X1118986Y414516D01*
X1120036Y413815D01*
X1120436Y412249D01*
X1120247Y412004D01*
X1119602Y410447D01*
X1119547Y410326D01*
X1118192Y409536D01*
X1116920Y409789D01*
X1101920D01*
X1099954Y409398D01*
X1098286Y408284D01*
X1097172Y406617D01*
X1096781Y404650D01*
Y399650D01*
X1097015Y398476D01*
X1096080Y397206D01*
X1043400D01*
X1021923Y418684D01*
X1020556Y419733D01*
X1018965Y420392D01*
X1017258Y420616D01*
X941997D01*
X940473Y421785D01*
X938311Y422681D01*
X935990Y422987D01*
X933669Y422681D01*
X931507Y421785D01*
X929650Y420360D01*
X928225Y418503D01*
X927329Y416341D01*
X927023Y414020D01*
X927329Y411699D01*
X928225Y409537D01*
X929650Y407680D01*
X931507Y406255D01*
X933669Y405359D01*
X935990Y405053D01*
X938311Y405359D01*
X940473Y406255D01*
X941997Y407424D01*
X1014526D01*
X1036004Y385946D01*
X1037370Y384897D01*
X1038961Y384238D01*
X1040668Y384013D01*
X1103330D01*
Y377670D01*
X1111370D01*
Y374170D01*
X1103330D01*
Y366380D01*
X1104180D01*
Y361160D01*
X1111070D01*
Y357660D01*
X1104180D01*
Y352630D01*
X1104180Y352020D01*
X1103183Y351360D01*
X1099805D01*
Y363608D01*
X1099965Y363817D01*
X1100861Y365979D01*
X1101167Y368300D01*
X1100861Y370621D01*
X1099965Y372783D01*
X1098540Y374640D01*
X1096683Y376065D01*
X1094521Y376961D01*
X1092200Y377267D01*
X1089879Y376961D01*
X1087717Y376065D01*
X1085860Y374640D01*
X1084435Y372783D01*
X1083539Y370621D01*
X1083233Y368300D01*
X1083539Y365979D01*
X1084435Y363817D01*
X1084595Y363608D01*
Y351360D01*
X1078580D01*
Y266280D01*
X1163660D01*
Y351360D01*
X1134557D01*
X1133560Y352020D01*
X1133560Y352630D01*
Y366380D01*
X1134410D01*
Y378193D01*
X1142234Y386016D01*
X1143348Y387683D01*
X1143739Y389650D01*
Y394511D01*
X1151620D01*
X1153587Y394902D01*
X1155254Y396016D01*
X1156368Y397683D01*
X1156759Y399650D01*
Y404650D01*
X1156368Y406617D01*
X1155254Y408284D01*
X1154085Y409064D01*
X1153780Y410555D01*
X1158335Y415110D01*
X1163660D01*
Y431190D01*
X1163225D01*
Y445110D01*
X1163660D01*
Y461190D01*
X1158335D01*
X1156725Y462800D01*
Y471481D01*
X1156759Y471650D01*
Y476650D01*
X1156368Y478616D01*
X1155254Y480284D01*
X1153587Y481398D01*
X1151620Y481789D01*
X1136620D01*
X1136451Y481755D01*
X1117089D01*
X1116920Y481789D01*
X1101920D01*
X1099954Y481398D01*
X1098286Y480284D01*
X1097172Y478616D01*
X1096781Y476650D01*
Y471650D01*
X1097172Y469683D01*
X1098286Y468016D01*
X1099954Y466902D01*
X1101920Y466511D01*
X1116920D01*
X1117089Y466545D01*
X1136451D01*
X1136620Y466511D01*
X1141515D01*
Y459650D01*
X1141774Y457682D01*
X1142534Y455848D01*
X1143742Y454272D01*
X1147580Y450435D01*
Y445110D01*
X1148015D01*
Y431190D01*
X1147580D01*
Y425865D01*
X1139526Y417812D01*
X1138256Y418338D01*
Y441430D01*
X1138032Y443138D01*
X1137373Y444729D01*
X1136324Y446095D01*
X1135545Y446693D01*
Y446950D01*
X1135249Y448437D01*
X1134407Y449697D01*
X1130207Y453897D01*
X1128947Y454739D01*
X1128049Y454917D01*
X1127402Y456120D01*
X1127392Y456305D01*
X1127759Y458150D01*
X1127368Y460117D01*
X1126254Y461784D01*
X1124586Y462898D01*
X1122620Y463289D01*
X1120654Y462898D01*
X1118986Y461784D01*
X1117872Y460117D01*
X1117481Y458150D01*
X1117718Y456960D01*
X1116791Y455690D01*
X1104724D01*
X1078877Y481537D01*
X1077617Y482379D01*
X1076130Y482675D01*
X1019639D01*
Y484525D01*
X1019327Y486092D01*
X1018440Y487420D01*
X1017112Y488307D01*
X1015545Y488619D01*
X1012595D01*
X1011028Y488307D01*
X1009700Y487420D01*
X1008813Y486092D01*
X1008501Y484525D01*
Y474875D01*
X1008813Y473308D01*
X1009700Y471980D01*
X1011028Y471093D01*
X1012595Y470781D01*
X1015545D01*
X1017112Y471093D01*
X1018440Y471980D01*
X1019327Y473308D01*
X1019639Y474875D01*
Y474905D01*
X1074521D01*
X1099049Y450377D01*
X1098793Y449107D01*
X1013386D01*
X1012505Y449988D01*
X1012991Y451162D01*
X1014545D01*
X1016502Y451551D01*
X1018161Y452659D01*
X1019269Y454318D01*
X1019658Y456275D01*
Y458350D01*
X1012070D01*
Y460100D01*
X1010320D01*
Y469038D01*
X1009595D01*
X1008186Y468758D01*
X1007348Y468849D01*
X1006513Y469424D01*
X1005880Y470372D01*
X1000647Y475604D01*
Y478655D01*
X1000647Y478655D01*
X1000639Y478698D01*
Y484525D01*
X1000327Y486092D01*
X999440Y487420D01*
X998112Y488307D01*
X996545Y488619D01*
X993595D01*
X992028Y488307D01*
X990700Y487420D01*
X989813Y486092D01*
X989501Y484525D01*
Y477607D01*
X972107D01*
X955655Y494060D01*
X954184Y495042D01*
X952450Y495387D01*
X937020D01*
Y499570D01*
X917361D01*
X916554Y500840D01*
X916718Y501190D01*
X937020D01*
Y512270D01*
X912940D01*
Y510577D01*
X911643Y510319D01*
X910665Y509665D01*
X909395Y510109D01*
Y516541D01*
X909099Y518027D01*
X908257Y519288D01*
X882277Y545267D01*
X881017Y546109D01*
X879530Y546405D01*
X832804D01*
X832552Y547675D01*
X835575Y548927D01*
X838459Y551141D01*
X840673Y554025D01*
X842065Y557385D01*
X842539Y560990D01*
X842065Y564595D01*
X840673Y567955D01*
X838459Y570839D01*
X835575Y573053D01*
X832215Y574445D01*
X828610Y574919D01*
X825005Y574445D01*
X821645Y573053D01*
X818761Y570839D01*
X816547Y567955D01*
X815155Y564595D01*
X814681Y560990D01*
X815155Y557385D01*
X816547Y554025D01*
X818761Y551141D01*
X821645Y548927D01*
X824668Y547675D01*
X824416Y546405D01*
X817989D01*
X782395Y581999D01*
Y584830D01*
X786920D01*
Y600070D01*
Y615310D01*
X782395D01*
Y616452D01*
X782099Y617939D01*
X781257Y619199D01*
X776049Y624407D01*
X774789Y625249D01*
X773302Y625545D01*
X753110D01*
X751623Y625249D01*
X750363Y624407D01*
X741266Y615310D01*
X728980D01*
Y584830D01*
X744145D01*
Y560710D01*
X728980D01*
Y546399D01*
X721105D01*
X719802Y546938D01*
X717482Y547244D01*
X715161Y546938D01*
X712998Y546043D01*
X711141Y544618D01*
X709716Y542761D01*
X709177Y541458D01*
X703978Y536259D01*
X683514D01*
Y539270D01*
X677164D01*
Y541020D01*
X675414D01*
Y548386D01*
X670814D01*
Y544036D01*
X669641Y543550D01*
X667766Y545425D01*
Y548386D01*
X663232D01*
X661416Y548625D01*
X660244Y548471D01*
X660101Y548503D01*
X659124Y549300D01*
X659178Y550570D01*
X663160D01*
Y558725D01*
X671576D01*
Y555244D01*
X684276D01*
Y569976D01*
X671576D01*
Y566495D01*
X663160D01*
Y574650D01*
X647080D01*
Y550570D01*
X649652D01*
X650178Y549300D01*
X647924Y547045D01*
X646498Y547416D01*
X645877Y548347D01*
X638160Y556064D01*
Y574650D01*
X622080D01*
Y566495D01*
X612394D01*
Y569976D01*
X599694D01*
Y555244D01*
X612394D01*
Y558725D01*
X622080D01*
Y550570D01*
X632666D01*
X639245Y543991D01*
Y526900D01*
X613077D01*
X600869Y539109D01*
X601751Y541239D01*
X602057Y543560D01*
X601751Y545881D01*
X600855Y548043D01*
X599430Y549900D01*
X597573Y551325D01*
X595411Y552221D01*
X593090Y552527D01*
X590769Y552221D01*
X588607Y551325D01*
X586750Y549900D01*
X585325Y548043D01*
X584859Y546920D01*
X583405Y546729D01*
X582920Y547360D01*
X581063Y548785D01*
X578901Y549681D01*
X576580Y549987D01*
X574259Y549681D01*
X572097Y548785D01*
X571485Y548316D01*
X570215Y548942D01*
Y551073D01*
X582773Y563631D01*
X583946Y563145D01*
Y555244D01*
X588546D01*
Y562610D01*
X590296D01*
Y564360D01*
X596646D01*
Y569976D01*
X590777D01*
X590291Y571149D01*
X617868Y598726D01*
X641891D01*
X643860Y598985D01*
X645694Y599745D01*
X647269Y600954D01*
X680240Y633924D01*
X680501Y633959D01*
X682663Y634855D01*
X684520Y636280D01*
X685945Y638137D01*
X686841Y640299D01*
X687147Y642620D01*
X686841Y644941D01*
X685945Y647103D01*
X684520Y648960D01*
X682663Y650385D01*
X680501Y651281D01*
X678180Y651587D01*
X676985Y651429D01*
X675715Y652543D01*
Y666532D01*
X675419Y668019D01*
X674577Y669279D01*
X673089Y670767D01*
X671829Y671609D01*
X670342Y671905D01*
X644021D01*
X642688Y671639D01*
X642060Y672002D01*
X641515Y672455D01*
X641626Y673299D01*
X641320Y675620D01*
X640425Y677783D01*
X639000Y679640D01*
X637142Y681065D01*
X634980Y681960D01*
X632659Y682266D01*
D02*
G37*
G36*
X650311Y657950D02*
X647210D01*
Y654662D01*
X648358Y654890D01*
X649384Y655576D01*
X650070Y656602D01*
X650311Y657812D01*
Y657950D01*
D02*
G37*
G36*
X661190Y656124D02*
X655574D01*
Y651524D01*
X661190D01*
Y656124D01*
D02*
G37*
G36*
X624210Y645338D02*
X623062Y645110D01*
X622036Y644424D01*
X621350Y643398D01*
X621109Y642188D01*
Y642050D01*
X624210D01*
Y645338D01*
D02*
G37*
G36*
Y638550D02*
X621109D01*
Y638413D01*
X621350Y637202D01*
X622036Y636176D01*
X623062Y635490D01*
X624210Y635262D01*
Y638550D01*
D02*
G37*
G36*
X797560Y615310D02*
X790420D01*
Y601820D01*
X797560D01*
Y615310D01*
D02*
G37*
G36*
Y598320D02*
X790420D01*
Y584830D01*
X797560D01*
Y598320D01*
D02*
G37*
G36*
X856460Y576426D02*
Y569440D01*
X863446D01*
X863371Y570011D01*
X862475Y572173D01*
X861050Y574030D01*
X859193Y575455D01*
X857031Y576351D01*
X856460Y576426D01*
D02*
G37*
G36*
X852960D02*
X852389Y576351D01*
X850227Y575455D01*
X848370Y574030D01*
X846945Y572173D01*
X846049Y570011D01*
X845974Y569440D01*
X852960D01*
Y576426D01*
D02*
G37*
G36*
X1159880Y586760D02*
X1120800D01*
Y567680D01*
X1159880D01*
Y586760D01*
D02*
G37*
G36*
X912340Y572616D02*
Y565630D01*
X919326D01*
X919251Y566201D01*
X918355Y568363D01*
X916930Y570220D01*
X915073Y571645D01*
X912911Y572541D01*
X912340Y572616D01*
D02*
G37*
G36*
X908840D02*
X908269Y572541D01*
X906107Y571645D01*
X904250Y570220D01*
X902825Y568363D01*
X901929Y566201D01*
X901854Y565630D01*
X908840D01*
Y572616D01*
D02*
G37*
G36*
X700024Y569976D02*
X695424D01*
Y564360D01*
X700024D01*
Y569976D01*
D02*
G37*
G36*
X691924D02*
X687324D01*
Y564360D01*
X691924D01*
Y569976D01*
D02*
G37*
G36*
X863446Y565940D02*
X856460D01*
Y558954D01*
X857031Y559029D01*
X859193Y559925D01*
X861050Y561350D01*
X862475Y563207D01*
X863371Y565369D01*
X863446Y565940D01*
D02*
G37*
G36*
X852960D02*
X845974D01*
X846049Y565369D01*
X846945Y563207D01*
X848370Y561350D01*
X850227Y559925D01*
X852389Y559029D01*
X852960Y558954D01*
Y565940D01*
D02*
G37*
G36*
X700024Y560860D02*
X695424D01*
Y555244D01*
X700024D01*
Y560860D01*
D02*
G37*
G36*
X691924D02*
X687324D01*
Y555244D01*
X691924D01*
Y560860D01*
D02*
G37*
G36*
X596646D02*
X592046D01*
Y555244D01*
X596646D01*
Y560860D01*
D02*
G37*
G36*
X919326Y562130D02*
X912340D01*
Y555144D01*
X912911Y555219D01*
X915073Y556115D01*
X916930Y557540D01*
X918355Y559397D01*
X919251Y561559D01*
X919326Y562130D01*
D02*
G37*
G36*
X908840D02*
X901854D01*
X901929Y561559D01*
X902825Y559397D01*
X904250Y557540D01*
X906107Y556115D01*
X908269Y555219D01*
X908840Y555144D01*
Y562130D01*
D02*
G37*
G36*
X397256Y554736D02*
X392656D01*
Y549120D01*
X397256D01*
Y554736D01*
D02*
G37*
G36*
X389156D02*
X384556D01*
Y549120D01*
X389156D01*
Y554736D01*
D02*
G37*
G36*
X243610Y574919D02*
X240005Y574445D01*
X236645Y573053D01*
X233761Y570839D01*
X231547Y567955D01*
X230155Y564595D01*
X229681Y560990D01*
X230155Y557385D01*
X231547Y554025D01*
X233761Y551141D01*
X236645Y548927D01*
X240005Y547535D01*
X243610Y547061D01*
X247215Y547535D01*
X250575Y548927D01*
X253459Y551141D01*
X255673Y554025D01*
X257065Y557385D01*
X257539Y560990D01*
X257065Y564595D01*
X255673Y567955D01*
X253459Y570839D01*
X250575Y573053D01*
X247215Y574445D01*
X243610Y574919D01*
D02*
G37*
G36*
X189860Y552921D02*
X179610D01*
X176859Y552559D01*
X174294Y551497D01*
X172093Y549807D01*
X170403Y547606D01*
X169597Y545660D01*
X168223D01*
X167417Y547606D01*
X165727Y549807D01*
X163526Y551497D01*
X160961Y552559D01*
X158210Y552921D01*
X134210D01*
X131459Y552559D01*
X128895Y551497D01*
X126693Y549807D01*
X125003Y547606D01*
X123941Y545042D01*
X123579Y542290D01*
X123941Y539538D01*
X125003Y536974D01*
X126693Y534773D01*
X128895Y533083D01*
X131459Y532021D01*
X134210Y531659D01*
X158210D01*
X160961Y532021D01*
X163526Y533083D01*
X165727Y534773D01*
X167417Y536974D01*
X168223Y538920D01*
X169597D01*
X170403Y536974D01*
X172093Y534773D01*
X174294Y533083D01*
X176859Y532021D01*
X179610Y531659D01*
X189860D01*
Y542290D01*
Y552921D01*
D02*
G37*
G36*
X203610D02*
X193360D01*
Y544040D01*
X214011D01*
X213879Y545042D01*
X212817Y547606D01*
X211127Y549807D01*
X208925Y551497D01*
X206362Y552559D01*
X203610Y552921D01*
D02*
G37*
G36*
X683514Y548386D02*
X678914D01*
Y542770D01*
X683514D01*
Y548386D01*
D02*
G37*
G36*
X397256Y545620D02*
X392656D01*
Y540004D01*
X397256D01*
Y545620D01*
D02*
G37*
G36*
X389156D02*
X384556D01*
Y540004D01*
X389156D01*
Y545620D01*
D02*
G37*
G36*
X517840Y546840D02*
Y539290D01*
X521739D01*
Y541540D01*
X521309Y543702D01*
X520084Y545534D01*
X518252Y546758D01*
X517840Y546840D01*
D02*
G37*
G36*
X1109580Y538560D02*
X1091290D01*
Y532770D01*
X1109580D01*
Y538560D01*
D02*
G37*
G36*
X1087790D02*
X1069500D01*
Y532770D01*
X1087790D01*
Y538560D01*
D02*
G37*
G36*
X214011Y540540D02*
X193360D01*
Y531659D01*
X203610D01*
X206362Y532021D01*
X208925Y533083D01*
X211127Y534773D01*
X212817Y536974D01*
X213879Y539538D01*
X214011Y540540D01*
D02*
G37*
G36*
X1062910Y572755D02*
X1005590D01*
X1003622Y572496D01*
X1001787Y571736D01*
X1000212Y570528D01*
X979400Y549715D01*
X979139Y549681D01*
X976977Y548785D01*
X975120Y547360D01*
X973695Y545503D01*
X972799Y543341D01*
X972493Y541020D01*
X972799Y538699D01*
X973695Y536537D01*
X975120Y534680D01*
X976977Y533255D01*
X979139Y532359D01*
X981460Y532053D01*
X983781Y532359D01*
X985943Y533255D01*
X987800Y534680D01*
X989225Y536537D01*
X990121Y538699D01*
X990155Y538960D01*
X997971Y546776D01*
X999048Y546056D01*
X998449Y544611D01*
X998143Y542290D01*
X998449Y539969D01*
X999345Y537807D01*
X1000770Y535950D01*
X1002627Y534525D01*
X1004789Y533629D01*
X1007110Y533323D01*
X1009431Y533629D01*
X1011593Y534525D01*
X1011802Y534685D01*
X1045598D01*
X1045807Y534525D01*
X1047969Y533629D01*
X1050290Y533323D01*
X1052611Y533629D01*
X1054773Y534525D01*
X1056630Y535950D01*
X1058055Y537807D01*
X1058951Y539969D01*
X1059257Y542290D01*
X1058951Y544611D01*
X1058055Y546773D01*
X1056630Y548630D01*
X1054773Y550055D01*
X1052611Y550951D01*
X1050290Y551257D01*
X1047969Y550951D01*
X1045807Y550055D01*
X1045598Y549895D01*
X1011802D01*
X1011593Y550055D01*
X1009431Y550951D01*
X1007110Y551257D01*
X1004789Y550951D01*
X1003344Y550352D01*
X1002624Y551429D01*
X1008740Y557545D01*
X1059760D01*
X1069500Y547805D01*
Y543480D01*
X1076546D01*
X1077040Y543415D01*
X1102040D01*
X1102534Y543480D01*
X1109580D01*
Y546115D01*
X1121403D01*
X1122170Y545115D01*
X1124690Y543181D01*
X1127625Y541965D01*
X1129942Y541660D01*
Y540379D01*
X1127625Y540075D01*
X1124690Y538859D01*
X1122170Y536925D01*
X1120236Y534405D01*
X1119020Y531470D01*
X1118836Y530070D01*
X1141250D01*
X1163664D01*
X1163479Y531470D01*
X1162264Y534405D01*
X1160330Y536925D01*
X1157810Y538859D01*
X1154875Y540075D01*
X1152557Y540379D01*
Y541660D01*
X1154875Y541965D01*
X1157810Y543181D01*
X1160330Y545115D01*
X1162264Y547635D01*
X1163479Y550570D01*
X1163894Y553720D01*
X1163479Y556870D01*
X1162264Y559805D01*
X1160330Y562325D01*
X1157810Y564259D01*
X1154875Y565475D01*
X1151725Y565889D01*
X1130775D01*
X1127625Y565475D01*
X1124690Y564259D01*
X1122170Y562325D01*
X1121403Y561325D01*
X1104740D01*
X1102772Y561066D01*
X1100938Y560306D01*
X1099362Y559098D01*
X1098890Y558625D01*
X1080190D01*
X1068288Y570528D01*
X1066712Y571736D01*
X1064878Y572496D01*
X1062910Y572755D01*
D02*
G37*
G36*
X521739Y535790D02*
X517840D01*
Y528240D01*
X518252Y528321D01*
X520084Y529546D01*
X521309Y531378D01*
X521739Y533540D01*
Y535790D01*
D02*
G37*
G36*
X397256Y529336D02*
X392656D01*
Y523720D01*
X397256D01*
Y529336D01*
D02*
G37*
G36*
X389156D02*
X384556D01*
Y523720D01*
X389156D01*
Y529336D01*
D02*
G37*
G36*
X1109580Y529270D02*
X1091290D01*
Y523480D01*
X1109580D01*
Y529270D01*
D02*
G37*
G36*
X1087790D02*
X1069500D01*
Y523480D01*
X1087790D01*
Y529270D01*
D02*
G37*
G36*
X310520Y529590D02*
X297030D01*
Y522450D01*
X310520D01*
Y529590D01*
D02*
G37*
G36*
X293530D02*
X280040D01*
Y522450D01*
X293530D01*
Y529590D01*
D02*
G37*
G36*
X203610Y527521D02*
X179610D01*
X176859Y527159D01*
X174294Y526097D01*
X172093Y524407D01*
X170403Y522206D01*
X169597Y520260D01*
X168223D01*
X167417Y522206D01*
X165727Y524407D01*
X163526Y526097D01*
X160961Y527159D01*
X158210Y527521D01*
X134210D01*
X131459Y527159D01*
X128895Y526097D01*
X126693Y524407D01*
X125003Y522206D01*
X123941Y519641D01*
X123579Y516890D01*
X123941Y514138D01*
X125003Y511575D01*
X126693Y509373D01*
X128895Y507683D01*
X131459Y506621D01*
X134210Y506259D01*
X158210D01*
X160961Y506621D01*
X163526Y507683D01*
X165727Y509373D01*
X167417Y511575D01*
X168223Y513520D01*
X169597D01*
X170403Y511575D01*
X172093Y509373D01*
X174294Y507683D01*
X176859Y506621D01*
X179610Y506259D01*
X203610D01*
X206362Y506621D01*
X208925Y507683D01*
X211127Y509373D01*
X212817Y511575D01*
X213879Y514138D01*
X214241Y516890D01*
X213879Y519641D01*
X212817Y522206D01*
X211127Y524407D01*
X208925Y526097D01*
X206362Y527159D01*
X203610Y527521D01*
D02*
G37*
G36*
X1163664Y526570D02*
X1143000D01*
Y516151D01*
X1151725D01*
X1154875Y516566D01*
X1157810Y517781D01*
X1160330Y519715D01*
X1162264Y522235D01*
X1163479Y525170D01*
X1163664Y526570D01*
D02*
G37*
G36*
X1139500D02*
X1118836D01*
X1119020Y525170D01*
X1120236Y522235D01*
X1122170Y519715D01*
X1124690Y517781D01*
X1127625Y516566D01*
X1130775Y516151D01*
X1139500D01*
Y526570D01*
D02*
G37*
G36*
X397256Y520220D02*
X392656D01*
Y514604D01*
X397256D01*
Y520220D01*
D02*
G37*
G36*
X389156D02*
X384556D01*
Y514604D01*
X389156D01*
Y520220D01*
D02*
G37*
G36*
X325120Y529667D02*
X322799Y529361D01*
X320637Y528465D01*
X318780Y527040D01*
X317355Y525183D01*
X316459Y523021D01*
X316153Y520700D01*
X316459Y518379D01*
X317355Y516217D01*
X318780Y514360D01*
X320637Y512935D01*
X322799Y512039D01*
X325120Y511733D01*
X327441Y512039D01*
X329603Y512935D01*
X331460Y514360D01*
X332885Y516217D01*
X333133Y516815D01*
X334640D01*
Y511810D01*
X365120D01*
Y529590D01*
X334640D01*
Y524585D01*
X333133D01*
X332885Y525183D01*
X331460Y527040D01*
X329603Y528465D01*
X327441Y529361D01*
X325120Y529667D01*
D02*
G37*
G36*
X310520Y518950D02*
X297030D01*
Y511810D01*
X310520D01*
Y518950D01*
D02*
G37*
G36*
X293530D02*
X280040D01*
Y511810D01*
X293530D01*
Y518950D01*
D02*
G37*
G36*
X1159880Y514360D02*
X1120800D01*
Y495280D01*
X1159880D01*
Y514360D01*
D02*
G37*
G36*
X203610Y502121D02*
X179610D01*
X176859Y501759D01*
X174294Y500697D01*
X172093Y499007D01*
X170403Y496805D01*
X169597Y494860D01*
X168223D01*
X167417Y496805D01*
X165727Y499007D01*
X163526Y500697D01*
X160961Y501759D01*
X158210Y502121D01*
X134210D01*
X131459Y501759D01*
X128895Y500697D01*
X126693Y499007D01*
X125003Y496805D01*
X123941Y494241D01*
X123579Y491490D01*
X123941Y488739D01*
X125003Y486175D01*
X126693Y483973D01*
X128895Y482283D01*
X131459Y481221D01*
X134210Y480859D01*
X158210D01*
X160961Y481221D01*
X163526Y482283D01*
X165727Y483973D01*
X167417Y486175D01*
X168223Y488120D01*
X169597D01*
X170403Y486175D01*
X172093Y483973D01*
X174294Y482283D01*
X176859Y481221D01*
X179610Y480859D01*
X203610D01*
X206362Y481221D01*
X208925Y482283D01*
X211127Y483973D01*
X212817Y486175D01*
X213879Y488739D01*
X214241Y491490D01*
X213879Y494241D01*
X212817Y496805D01*
X211127Y499007D01*
X208925Y500697D01*
X206362Y501759D01*
X203610Y502121D01*
D02*
G37*
G36*
X937020Y474170D02*
X926730D01*
Y470380D01*
X937020D01*
Y474170D01*
D02*
G37*
G36*
X1014545Y469038D02*
X1013820D01*
Y461850D01*
X1019658D01*
Y463925D01*
X1019269Y465882D01*
X1018161Y467541D01*
X1016502Y468649D01*
X1014545Y469038D01*
D02*
G37*
G36*
X956084Y463296D02*
X951484D01*
Y457680D01*
X956084D01*
Y463296D01*
D02*
G37*
G36*
X484886Y458216D02*
X479270D01*
Y453616D01*
X484886D01*
Y458216D01*
D02*
G37*
G36*
X475770D02*
X470154D01*
Y453616D01*
X475770D01*
Y458216D01*
D02*
G37*
G36*
X964184Y454180D02*
X959584D01*
Y448564D01*
X964184D01*
Y454180D01*
D02*
G37*
G36*
X956084D02*
X951484D01*
Y448564D01*
X956084D01*
Y454180D01*
D02*
G37*
G36*
X484886Y450116D02*
X479270D01*
Y445516D01*
X484886D01*
Y450116D01*
D02*
G37*
G36*
X475770D02*
X470154D01*
Y445516D01*
X475770D01*
Y450116D01*
D02*
G37*
G36*
X365120Y478790D02*
X334640D01*
Y461010D01*
X336534D01*
Y448703D01*
X335935Y448455D01*
X334078Y447030D01*
X332653Y445173D01*
X331757Y443011D01*
X331451Y440690D01*
X331757Y438369D01*
X332653Y436207D01*
X334078Y434350D01*
X335935Y432925D01*
X338097Y432029D01*
X340418Y431723D01*
X342739Y432029D01*
X344902Y432925D01*
X346759Y434350D01*
X348184Y436207D01*
X349079Y438369D01*
X349385Y440690D01*
X349079Y443011D01*
X348184Y445173D01*
X346759Y447030D01*
X344902Y448455D01*
X344303Y448703D01*
Y461010D01*
X365120D01*
Y478790D01*
D02*
G37*
G36*
X1110770Y423400D02*
X1099230D01*
Y420610D01*
X1110770D01*
Y423400D01*
D02*
G37*
G36*
X1091410Y424026D02*
Y417040D01*
X1098396D01*
X1098321Y417611D01*
X1097425Y419773D01*
X1096000Y421630D01*
X1094143Y423055D01*
X1091981Y423951D01*
X1091410Y424026D01*
D02*
G37*
G36*
X1087910D02*
X1087339Y423951D01*
X1085177Y423055D01*
X1083320Y421630D01*
X1081895Y419773D01*
X1080999Y417611D01*
X1080924Y417040D01*
X1087910D01*
Y424026D01*
D02*
G37*
G36*
X1098396Y413540D02*
X1091410D01*
Y406554D01*
X1091981Y406629D01*
X1094143Y407525D01*
X1096000Y408950D01*
X1097425Y410807D01*
X1098321Y412969D01*
X1098396Y413540D01*
D02*
G37*
G36*
X1087910D02*
X1080924D01*
X1080999Y412969D01*
X1081895Y410807D01*
X1083320Y408950D01*
X1085177Y407525D01*
X1087339Y406629D01*
X1087910Y406554D01*
Y413540D01*
D02*
G37*
G36*
X744700Y369416D02*
Y362430D01*
X751686D01*
X751611Y363001D01*
X750715Y365163D01*
X749290Y367020D01*
X747433Y368445D01*
X745271Y369341D01*
X744700Y369416D01*
D02*
G37*
G36*
X741200D02*
X740629Y369341D01*
X738467Y368445D01*
X736610Y367020D01*
X735185Y365163D01*
X734289Y363001D01*
X734214Y362430D01*
X741200D01*
Y369416D01*
D02*
G37*
G36*
X751686Y358930D02*
X744700D01*
Y351944D01*
X745271Y352019D01*
X747433Y352915D01*
X749290Y354340D01*
X750715Y356197D01*
X751611Y358359D01*
X751686Y358930D01*
D02*
G37*
G36*
X741200D02*
X734214D01*
X734289Y358359D01*
X735185Y356197D01*
X736610Y354340D01*
X738467Y352915D01*
X740629Y352019D01*
X741200Y351944D01*
Y358930D01*
D02*
G37*
G36*
X552930Y344016D02*
Y337030D01*
X559916D01*
X559841Y337601D01*
X558945Y339763D01*
X557520Y341620D01*
X555663Y343045D01*
X553501Y343941D01*
X552930Y344016D01*
D02*
G37*
G36*
X549430D02*
X548859Y343941D01*
X546697Y343045D01*
X544840Y341620D01*
X543415Y339763D01*
X542519Y337601D01*
X542444Y337030D01*
X549430D01*
Y344016D01*
D02*
G37*
G36*
X559916Y333530D02*
X552930D01*
Y326544D01*
X553501Y326619D01*
X555663Y327515D01*
X557520Y328940D01*
X558945Y330797D01*
X559841Y332959D01*
X559916Y333530D01*
D02*
G37*
G36*
X549430D02*
X542444D01*
X542519Y332959D01*
X543415Y330797D01*
X544840Y328940D01*
X546697Y327515D01*
X548859Y326619D01*
X549430Y326544D01*
Y333530D01*
D02*
G37*
G36*
X203610Y324321D02*
X179610D01*
X176859Y323959D01*
X174294Y322897D01*
X172093Y321207D01*
X170403Y319006D01*
X169597Y317060D01*
X168223D01*
X167417Y319006D01*
X165727Y321207D01*
X163526Y322897D01*
X160961Y323959D01*
X158210Y324321D01*
X134210D01*
X131459Y323959D01*
X128895Y322897D01*
X126693Y321207D01*
X125003Y319006D01*
X123941Y316441D01*
X123579Y313690D01*
X123941Y310938D01*
X125003Y308375D01*
X126693Y306173D01*
X128895Y304483D01*
X131459Y303421D01*
X134210Y303059D01*
X158210D01*
X160961Y303421D01*
X163526Y304483D01*
X165727Y306173D01*
X167417Y308375D01*
X168223Y310320D01*
X169597D01*
X170403Y308375D01*
X172093Y306173D01*
X174294Y304483D01*
X176859Y303421D01*
X179610Y303059D01*
X203610D01*
X206362Y303421D01*
X208925Y304483D01*
X211127Y306173D01*
X212817Y308375D01*
X213879Y310938D01*
X214241Y313690D01*
X213879Y316441D01*
X212817Y319006D01*
X211127Y321207D01*
X208925Y322897D01*
X206362Y323959D01*
X203610Y324321D01*
D02*
G37*
G36*
X522450Y313536D02*
Y306550D01*
X529436D01*
X529361Y307121D01*
X528465Y309283D01*
X527040Y311140D01*
X525183Y312565D01*
X523021Y313461D01*
X522450Y313536D01*
D02*
G37*
G36*
X518950D02*
X518379Y313461D01*
X516217Y312565D01*
X514360Y311140D01*
X512935Y309283D01*
X512039Y307121D01*
X511964Y306550D01*
X518950D01*
Y313536D01*
D02*
G37*
G36*
X529436Y303050D02*
X522450D01*
Y296064D01*
X523021Y296139D01*
X525183Y297035D01*
X527040Y298460D01*
X528465Y300317D01*
X529361Y302479D01*
X529436Y303050D01*
D02*
G37*
G36*
X518950D02*
X511964D01*
X512039Y302479D01*
X512935Y300317D01*
X514360Y298460D01*
X516217Y297035D01*
X518379Y296139D01*
X518950Y296064D01*
Y303050D01*
D02*
G37*
G36*
X203610Y298921D02*
X179610D01*
X176859Y298559D01*
X174294Y297497D01*
X172093Y295807D01*
X170403Y293605D01*
X169597Y291660D01*
X168223D01*
X167417Y293605D01*
X165727Y295807D01*
X163526Y297497D01*
X160961Y298559D01*
X158210Y298921D01*
X134210D01*
X131459Y298559D01*
X128895Y297497D01*
X126693Y295807D01*
X125003Y293605D01*
X123941Y291042D01*
X123579Y288290D01*
X123941Y285539D01*
X125003Y282974D01*
X126693Y280773D01*
X128895Y279083D01*
X131459Y278021D01*
X134210Y277659D01*
X158210D01*
X160961Y278021D01*
X163526Y279083D01*
X165727Y280773D01*
X167417Y282974D01*
X168223Y284920D01*
X169597D01*
X170403Y282974D01*
X172093Y280773D01*
X174294Y279083D01*
X176859Y278021D01*
X179610Y277659D01*
X203610D01*
X206362Y278021D01*
X208925Y279083D01*
X211127Y280773D01*
X212817Y282974D01*
X213879Y285539D01*
X214241Y288290D01*
X213879Y291042D01*
X212817Y293605D01*
X211127Y295807D01*
X208925Y297497D01*
X206362Y298559D01*
X203610Y298921D01*
D02*
G37*
G36*
X522450Y284326D02*
Y277340D01*
X529436D01*
X529361Y277911D01*
X528465Y280073D01*
X527040Y281930D01*
X525183Y283355D01*
X523021Y284251D01*
X522450Y284326D01*
D02*
G37*
G36*
X518950D02*
X518379Y284251D01*
X516217Y283355D01*
X514360Y281930D01*
X512935Y280073D01*
X512039Y277911D01*
X511964Y277340D01*
X518950D01*
Y284326D01*
D02*
G37*
G36*
X832330Y275436D02*
Y268450D01*
X839316D01*
X839241Y269021D01*
X838345Y271183D01*
X836920Y273040D01*
X835063Y274465D01*
X832901Y275361D01*
X832330Y275436D01*
D02*
G37*
G36*
X828830D02*
X828259Y275361D01*
X826097Y274465D01*
X824240Y273040D01*
X822815Y271183D01*
X821919Y269021D01*
X821844Y268450D01*
X828830D01*
Y275436D01*
D02*
G37*
G36*
X518950Y273840D02*
X511964D01*
X512039Y273269D01*
X512935Y271107D01*
X514360Y269250D01*
X516217Y267825D01*
X518379Y266929D01*
X518950Y266854D01*
Y273840D01*
D02*
G37*
G36*
X203610Y273521D02*
X179610D01*
X176859Y273159D01*
X174294Y272097D01*
X172093Y270407D01*
X170403Y268206D01*
X169597Y266260D01*
X168223D01*
X167417Y268206D01*
X165727Y270407D01*
X163526Y272097D01*
X160961Y273159D01*
X158210Y273521D01*
X134210D01*
X131459Y273159D01*
X128895Y272097D01*
X126693Y270407D01*
X125003Y268206D01*
X123941Y265641D01*
X123579Y262890D01*
X123941Y260138D01*
X125003Y257575D01*
X126693Y255373D01*
X128895Y253683D01*
X131459Y252621D01*
X134210Y252259D01*
X158210D01*
X160961Y252621D01*
X163526Y253683D01*
X165727Y255373D01*
X167417Y257575D01*
X168223Y259520D01*
X169597D01*
X170403Y257575D01*
X172093Y255373D01*
X174294Y253683D01*
X176859Y252621D01*
X179610Y252259D01*
X203610D01*
X206362Y252621D01*
X208925Y253683D01*
X211127Y255373D01*
X212817Y257575D01*
X213879Y260138D01*
X214241Y262890D01*
X213879Y265641D01*
X212817Y268206D01*
X211127Y270407D01*
X208925Y272097D01*
X206362Y273159D01*
X203610Y273521D01*
D02*
G37*
G36*
X839316Y264950D02*
X832330D01*
Y257964D01*
X832901Y258039D01*
X835063Y258935D01*
X836920Y260360D01*
X838345Y262217D01*
X839241Y264379D01*
X839316Y264950D01*
D02*
G37*
G36*
X828830D02*
X821844D01*
X821919Y264379D01*
X822815Y262217D01*
X824240Y260360D01*
X826097Y258935D01*
X828259Y258039D01*
X828830Y257964D01*
Y264950D01*
D02*
G37*
G36*
X203610Y248121D02*
X179610D01*
X176859Y247759D01*
X174294Y246697D01*
X172093Y245007D01*
X170403Y242806D01*
X169597Y240860D01*
X168223D01*
X167417Y242806D01*
X165727Y245007D01*
X163526Y246697D01*
X160961Y247759D01*
X158210Y248121D01*
X134210D01*
X131459Y247759D01*
X128895Y246697D01*
X126693Y245007D01*
X125003Y242806D01*
X123941Y240242D01*
X123579Y237490D01*
X123941Y234739D01*
X125003Y232174D01*
X126693Y229973D01*
X128895Y228283D01*
X131459Y227221D01*
X134210Y226859D01*
X158210D01*
X160961Y227221D01*
X163526Y228283D01*
X165727Y229973D01*
X167417Y232174D01*
X168223Y234120D01*
X169597D01*
X170403Y232174D01*
X172093Y229973D01*
X174294Y228283D01*
X176859Y227221D01*
X179610Y226859D01*
X203610D01*
X206362Y227221D01*
X208925Y228283D01*
X211127Y229973D01*
X212817Y232174D01*
X213879Y234739D01*
X214241Y237490D01*
X213879Y240242D01*
X212817Y242806D01*
X211127Y245007D01*
X208925Y246697D01*
X206362Y247759D01*
X203610Y248121D01*
D02*
G37*
G36*
X883920Y292177D02*
X881599Y291871D01*
X879437Y290975D01*
X877580Y289550D01*
X876155Y287693D01*
X875259Y285531D01*
X874953Y283210D01*
X875259Y280889D01*
X876155Y278727D01*
X877580Y276870D01*
X879437Y275445D01*
X880035Y275197D01*
Y241533D01*
X879437Y241285D01*
X877580Y239860D01*
X876155Y238003D01*
X875259Y235841D01*
X874953Y233520D01*
X875259Y231199D01*
X876155Y229037D01*
X877580Y227180D01*
X879437Y225755D01*
X881599Y224859D01*
X883920Y224553D01*
X886241Y224859D01*
X888403Y225755D01*
X890260Y227180D01*
X891685Y229037D01*
X892581Y231199D01*
X892887Y233520D01*
X892581Y235841D01*
X891685Y238003D01*
X890260Y239860D01*
X888403Y241285D01*
X887805Y241533D01*
Y275197D01*
X888403Y275445D01*
X890260Y276870D01*
X891685Y278727D01*
X892581Y280889D01*
X892887Y283210D01*
X892581Y285531D01*
X891685Y287693D01*
X890260Y289550D01*
X888403Y290975D01*
X886241Y291871D01*
X883920Y292177D01*
D02*
G37*
G36*
X203610Y222721D02*
X179610D01*
X176859Y222359D01*
X174294Y221297D01*
X172093Y219607D01*
X170403Y217405D01*
X169597Y215460D01*
X168223D01*
X167417Y217405D01*
X165727Y219607D01*
X163526Y221297D01*
X160961Y222359D01*
X158210Y222721D01*
X134210D01*
X131459Y222359D01*
X128895Y221297D01*
X126693Y219607D01*
X125003Y217405D01*
X123941Y214841D01*
X123579Y212090D01*
X123941Y209338D01*
X125003Y206775D01*
X126693Y204573D01*
X128895Y202883D01*
X131459Y201821D01*
X134210Y201459D01*
X158210D01*
X160961Y201821D01*
X163526Y202883D01*
X165727Y204573D01*
X167417Y206775D01*
X168223Y208720D01*
X169597D01*
X170403Y206775D01*
X172093Y204573D01*
X174294Y202883D01*
X176859Y201821D01*
X179610Y201459D01*
X203610D01*
X206362Y201821D01*
X208925Y202883D01*
X211127Y204573D01*
X212817Y206775D01*
X213879Y209338D01*
X214241Y212090D01*
X213879Y214841D01*
X212817Y217405D01*
X211127Y219607D01*
X208925Y221297D01*
X206362Y222359D01*
X203610Y222721D01*
D02*
G37*
G36*
X859790Y290907D02*
X857469Y290601D01*
X855307Y289705D01*
X853450Y288280D01*
X852025Y286423D01*
X851129Y284261D01*
X850823Y281940D01*
X851129Y279619D01*
X852025Y277457D01*
X853450Y275600D01*
X855307Y274175D01*
X855905Y273927D01*
Y215023D01*
X855307Y214775D01*
X853450Y213350D01*
X852025Y211493D01*
X851129Y209331D01*
X850823Y207010D01*
X851129Y204689D01*
X852025Y202527D01*
X853450Y200670D01*
X855307Y199245D01*
X857469Y198349D01*
X859790Y198043D01*
X862111Y198349D01*
X864273Y199245D01*
X866130Y200670D01*
X867555Y202527D01*
X868451Y204689D01*
X868757Y207010D01*
X868451Y209331D01*
X867555Y211493D01*
X866130Y213350D01*
X864273Y214775D01*
X863675Y215023D01*
Y273927D01*
X864273Y274175D01*
X866130Y275600D01*
X867555Y277457D01*
X868451Y279619D01*
X868757Y281940D01*
X868451Y284261D01*
X867555Y286423D01*
X866130Y288280D01*
X864273Y289705D01*
X862111Y290601D01*
X859790Y290907D01*
D02*
G37*
G36*
X203610Y197321D02*
X179610D01*
X176859Y196959D01*
X174294Y195897D01*
X172093Y194207D01*
X170403Y192006D01*
X169597Y190060D01*
X168223D01*
X167417Y192006D01*
X165727Y194207D01*
X163526Y195897D01*
X160961Y196959D01*
X158210Y197321D01*
X134210D01*
X131459Y196959D01*
X128895Y195897D01*
X126693Y194207D01*
X125003Y192006D01*
X123941Y189442D01*
X123579Y186690D01*
X123941Y183939D01*
X125003Y181374D01*
X126693Y179173D01*
X128895Y177483D01*
X131459Y176421D01*
X134210Y176059D01*
X158210D01*
X160961Y176421D01*
X163526Y177483D01*
X165727Y179173D01*
X167417Y181374D01*
X168223Y183320D01*
X169597D01*
X170403Y181374D01*
X172093Y179173D01*
X174294Y177483D01*
X176859Y176421D01*
X179610Y176059D01*
X203610D01*
X206362Y176421D01*
X208925Y177483D01*
X211127Y179173D01*
X212817Y181374D01*
X213879Y183939D01*
X214241Y186690D01*
X213879Y189442D01*
X212817Y192006D01*
X211127Y194207D01*
X208925Y195897D01*
X206362Y196959D01*
X203610Y197321D01*
D02*
G37*
G36*
Y171921D02*
X179610D01*
X176859Y171559D01*
X174294Y170497D01*
X172093Y168807D01*
X170403Y166605D01*
X169597Y164660D01*
X168223D01*
X167417Y166605D01*
X165727Y168807D01*
X163526Y170497D01*
X160961Y171559D01*
X158210Y171921D01*
X134210D01*
X131459Y171559D01*
X128895Y170497D01*
X126693Y168807D01*
X125003Y166605D01*
X123941Y164042D01*
X123579Y161290D01*
X123941Y158539D01*
X125003Y155975D01*
X126693Y153773D01*
X128895Y152083D01*
X131459Y151021D01*
X134210Y150659D01*
X158210D01*
X160961Y151021D01*
X163526Y152083D01*
X165727Y153773D01*
X167417Y155975D01*
X168223Y157920D01*
X169597D01*
X170403Y155975D01*
X172093Y153773D01*
X174294Y152083D01*
X176859Y151021D01*
X179610Y150659D01*
X203610D01*
X206362Y151021D01*
X208925Y152083D01*
X211127Y153773D01*
X212817Y155975D01*
X213879Y158539D01*
X214241Y161290D01*
X213879Y164042D01*
X212817Y166605D01*
X211127Y168807D01*
X208925Y170497D01*
X206362Y171559D01*
X203610Y171921D01*
D02*
G37*
G36*
X810260Y161367D02*
X807939Y161061D01*
X805777Y160165D01*
X805521Y159970D01*
X571415D01*
X571253Y160094D01*
X569090Y160990D01*
X566769Y161296D01*
X564448Y160990D01*
X562286Y160094D01*
X560429Y158669D01*
X559004Y156812D01*
X558108Y154649D01*
X557802Y152329D01*
X558108Y150008D01*
X559004Y147845D01*
X560429Y145988D01*
X562286Y144563D01*
X564448Y143668D01*
X566769Y143362D01*
X569090Y143668D01*
X571253Y144563D01*
X571508Y144759D01*
X805614D01*
X805777Y144635D01*
X807939Y143739D01*
X810260Y143433D01*
X812581Y143739D01*
X814743Y144635D01*
X816600Y146060D01*
X818025Y147917D01*
X818921Y150079D01*
X819227Y152400D01*
X818921Y154721D01*
X818025Y156883D01*
X816600Y158740D01*
X814743Y160165D01*
X812581Y161061D01*
X810260Y161367D01*
D02*
G37*
G36*
X203610Y146521D02*
X179610D01*
X176859Y146159D01*
X174294Y145097D01*
X172093Y143407D01*
X170403Y141206D01*
X169597Y139260D01*
X168223D01*
X167417Y141206D01*
X165727Y143407D01*
X163526Y145097D01*
X160961Y146159D01*
X158210Y146521D01*
X134210D01*
X131459Y146159D01*
X128895Y145097D01*
X126693Y143407D01*
X125003Y141206D01*
X123941Y138642D01*
X123579Y135890D01*
X123941Y133139D01*
X125003Y130575D01*
X126693Y128373D01*
X128895Y126683D01*
X131459Y125621D01*
X134210Y125259D01*
X158210D01*
X160961Y125621D01*
X163526Y126683D01*
X165727Y128373D01*
X167417Y130575D01*
X168223Y132520D01*
X169597D01*
X170403Y130575D01*
X172093Y128373D01*
X174294Y126683D01*
X176859Y125621D01*
X179610Y125259D01*
X203610D01*
X206362Y125621D01*
X208925Y126683D01*
X211127Y128373D01*
X212817Y130575D01*
X213879Y133139D01*
X214241Y135890D01*
X213879Y138642D01*
X212817Y141206D01*
X211127Y143407D01*
X208925Y145097D01*
X206362Y146159D01*
X203610Y146521D01*
D02*
G37*
G36*
X480540Y140816D02*
Y133830D01*
X487526D01*
X487451Y134401D01*
X486555Y136563D01*
X485130Y138420D01*
X483273Y139845D01*
X481111Y140741D01*
X480540Y140816D01*
D02*
G37*
G36*
X477040D02*
X476469Y140741D01*
X474307Y139845D01*
X472450Y138420D01*
X471025Y136563D01*
X470129Y134401D01*
X470054Y133830D01*
X477040D01*
Y140816D01*
D02*
G37*
G36*
X487526Y130330D02*
X480540D01*
Y123344D01*
X481111Y123419D01*
X483273Y124315D01*
X485130Y125740D01*
X486555Y127597D01*
X487451Y129759D01*
X487526Y130330D01*
D02*
G37*
G36*
X477040D02*
X470054D01*
X470129Y129759D01*
X471025Y127597D01*
X472450Y125740D01*
X474307Y124315D01*
X476469Y123419D01*
X477040Y123344D01*
Y130330D01*
D02*
G37*
G36*
X1163660Y155360D02*
X1122870D01*
Y114570D01*
X1163660D01*
Y155360D01*
D02*
G37*
G36*
X1119370D02*
X1078580D01*
Y114570D01*
X1119370D01*
Y155360D01*
D02*
G37*
G36*
X203610Y121121D02*
X179610D01*
X176859Y120759D01*
X174294Y119697D01*
X172093Y118007D01*
X170403Y115806D01*
X169597Y113860D01*
X168223D01*
X167417Y115806D01*
X165727Y118007D01*
X163526Y119697D01*
X160961Y120759D01*
X158210Y121121D01*
X134210D01*
X131459Y120759D01*
X128895Y119697D01*
X126693Y118007D01*
X125003Y115806D01*
X123941Y113242D01*
X123579Y110490D01*
X123941Y107739D01*
X125003Y105175D01*
X126693Y102973D01*
X128895Y101283D01*
X131459Y100221D01*
X134210Y99859D01*
X158210D01*
X160961Y100221D01*
X163526Y101283D01*
X165727Y102973D01*
X167417Y105175D01*
X168223Y107120D01*
X169597D01*
X170403Y105175D01*
X172093Y102973D01*
X174294Y101283D01*
X176859Y100221D01*
X179610Y99859D01*
X203610D01*
X206362Y100221D01*
X208925Y101283D01*
X211127Y102973D01*
X212817Y105175D01*
X213879Y107739D01*
X214241Y110490D01*
X213879Y113242D01*
X212817Y115806D01*
X211127Y118007D01*
X208925Y119697D01*
X206362Y120759D01*
X203610Y121121D01*
D02*
G37*
G36*
X1121120Y112820D02*
D01*
D01*
D01*
D02*
G37*
G36*
X203610Y95721D02*
X179610D01*
X176859Y95359D01*
X174294Y94297D01*
X172093Y92607D01*
X170403Y90406D01*
X169597Y88460D01*
X168223D01*
X167417Y90406D01*
X165727Y92607D01*
X163526Y94297D01*
X160961Y95359D01*
X158210Y95721D01*
X134210D01*
X131459Y95359D01*
X128895Y94297D01*
X126693Y92607D01*
X125003Y90406D01*
X123941Y87842D01*
X123579Y85090D01*
X123941Y82338D01*
X125003Y79774D01*
X126693Y77573D01*
X128895Y75883D01*
X131459Y74821D01*
X134210Y74459D01*
X158210D01*
X160961Y74821D01*
X163526Y75883D01*
X165727Y77573D01*
X167417Y79774D01*
X168223Y81720D01*
X169597D01*
X170403Y79774D01*
X172093Y77573D01*
X174294Y75883D01*
X176859Y74821D01*
X179610Y74459D01*
X203610D01*
X206362Y74821D01*
X208925Y75883D01*
X211127Y77573D01*
X212817Y79774D01*
X213879Y82338D01*
X214241Y85090D01*
X213879Y87842D01*
X212817Y90406D01*
X211127Y92607D01*
X208925Y94297D01*
X206362Y95359D01*
X203610Y95721D01*
D02*
G37*
G36*
X1163660Y111070D02*
X1122870D01*
Y70280D01*
X1163660D01*
Y111070D01*
D02*
G37*
G36*
X1119370D02*
X1078580D01*
Y70280D01*
X1119370D01*
Y111070D01*
D02*
G37*
G36*
X333660Y351360D02*
X248580D01*
Y266280D01*
X278472D01*
Y155360D01*
X248580D01*
Y70280D01*
X333660D01*
Y155360D01*
X303768D01*
Y266280D01*
X333660D01*
Y351360D01*
D02*
G37*
G36*
X828610Y54919D02*
X825005Y54444D01*
X821645Y53053D01*
X818761Y50839D01*
X816547Y47955D01*
X815155Y44595D01*
X814681Y40990D01*
X815155Y37385D01*
X816547Y34025D01*
X818761Y31141D01*
X821645Y28927D01*
X825005Y27535D01*
X828610Y27061D01*
X832215Y27535D01*
X835575Y28927D01*
X838459Y31141D01*
X840673Y34025D01*
X842065Y37385D01*
X842539Y40990D01*
X842065Y44595D01*
X840673Y47955D01*
X838459Y50839D01*
X835575Y53053D01*
X832215Y54444D01*
X828610Y54919D01*
D02*
G37*
%LPD*%
G36*
X652721Y874871D02*
X653112Y872905D01*
X654226Y871238D01*
X657155Y868309D01*
X658822Y867195D01*
X660789Y866804D01*
X679862D01*
X692192Y854473D01*
X693859Y853359D01*
X695826Y852968D01*
X700786D01*
Y849884D01*
X711447D01*
X711521Y849513D01*
X712363Y848253D01*
X715003Y845613D01*
X715052Y845580D01*
X714575Y844372D01*
X636802Y857215D01*
X636493Y857205D01*
X636187Y857243D01*
X600307Y854563D01*
X600138Y854516D01*
X599962Y854513D01*
X567661Y847654D01*
X566674Y848453D01*
Y850420D01*
X560324D01*
Y853920D01*
X566674D01*
Y859536D01*
X560910D01*
X560424Y860709D01*
X560694Y860979D01*
X561808Y862646D01*
X562109Y864160D01*
X566517D01*
X566621Y863635D01*
X567463Y862375D01*
X569695Y860143D01*
X570955Y859301D01*
X572442Y859005D01*
X580598D01*
X582085Y859301D01*
X583345Y860143D01*
X600917Y877715D01*
X601759Y878975D01*
X602055Y880462D01*
Y884797D01*
X602653Y885045D01*
X604510Y886470D01*
X605935Y888327D01*
X606831Y890489D01*
X607137Y892810D01*
X606831Y895131D01*
X605935Y897293D01*
X604510Y899150D01*
X602653Y900575D01*
X600491Y901471D01*
X598170Y901777D01*
X595849Y901471D01*
X593687Y900575D01*
X591830Y899150D01*
X590405Y897293D01*
X589509Y895131D01*
X589203Y892810D01*
X589509Y890489D01*
X590405Y888327D01*
X591830Y886470D01*
X593687Y885045D01*
X594285Y884797D01*
Y882071D01*
X582733Y870519D01*
X581560Y871005D01*
Y875740D01*
X578270D01*
Y869950D01*
X574770D01*
Y875740D01*
X572636D01*
X572182Y877010D01*
X574480Y878896D01*
X576671Y881567D01*
X578300Y884614D01*
X579303Y887920D01*
X579642Y891358D01*
X579303Y894797D01*
X578300Y898103D01*
X576671Y901150D01*
X574480Y903821D01*
X571809Y906013D01*
X568762Y907642D01*
X565455Y908645D01*
X562017Y908983D01*
X558578Y908645D01*
X555272Y907642D01*
X552225Y906013D01*
X549554Y903821D01*
X547362Y901150D01*
X545734Y898103D01*
X544731Y894797D01*
X544392Y891358D01*
X544731Y887920D01*
X545734Y884614D01*
X547362Y881567D01*
X549554Y878896D01*
X551852Y877010D01*
X551398Y875740D01*
X547186D01*
X547141Y876081D01*
X546245Y878243D01*
X544820Y880100D01*
X542963Y881525D01*
X540801Y882421D01*
X538480Y882727D01*
X536159Y882421D01*
X533997Y881525D01*
X532140Y880100D01*
X530715Y878243D01*
X529819Y876081D01*
X529513Y873760D01*
X529819Y871439D01*
X530715Y869277D01*
X532140Y867420D01*
X533997Y865995D01*
X535178Y865505D01*
X535573Y865241D01*
X536040Y865148D01*
X536159Y865099D01*
X536541Y865049D01*
X537060Y864945D01*
X537166Y864966D01*
X538480Y864793D01*
X540801Y865099D01*
X542963Y865995D01*
X543535Y866433D01*
X544980D01*
Y864160D01*
X546623D01*
X547109Y862987D01*
X543659Y859536D01*
X538226D01*
Y854769D01*
X512656D01*
X509203Y858222D01*
X509243Y858520D01*
Y883298D01*
X540360Y914415D01*
X652721D01*
Y874871D01*
D02*
G37*
G36*
X762015Y882040D02*
Y804525D01*
X760379Y802889D01*
X759206Y803375D01*
Y809244D01*
X753590D01*
Y802894D01*
X750090D01*
Y809244D01*
X745250D01*
Y809540D01*
X741210D01*
Y804500D01*
X737710D01*
Y809540D01*
X736285D01*
Y811297D01*
X740617Y815629D01*
X741459Y816889D01*
X741755Y818376D01*
Y839470D01*
X741459Y840957D01*
X740617Y842217D01*
X731727Y851107D01*
X730467Y851949D01*
X729234Y852194D01*
Y855500D01*
X722884D01*
Y859000D01*
X729234D01*
Y864616D01*
X728400D01*
Y868200D01*
X723360D01*
Y869950D01*
X721610D01*
Y875740D01*
X719277D01*
X718823Y877010D01*
X721123Y878897D01*
X723315Y881568D01*
X724943Y884615D01*
X725946Y887922D01*
X726285Y891360D01*
X725946Y894798D01*
X724943Y898105D01*
X723315Y901152D01*
X721123Y903823D01*
X718452Y906014D01*
X715405Y907643D01*
X712098Y908646D01*
X708660Y908985D01*
X705222Y908646D01*
X701915Y907643D01*
X698868Y906014D01*
X696197Y903823D01*
X694006Y901152D01*
X692377Y898105D01*
X691374Y894798D01*
X691035Y891360D01*
X691374Y887922D01*
X692377Y884615D01*
X694006Y881568D01*
X696197Y878897D01*
X697736Y877634D01*
X697378Y876285D01*
X696857Y876197D01*
X682568Y890485D01*
X682570Y890489D01*
X682876Y892810D01*
X682570Y895131D01*
X681674Y897293D01*
X680249Y899150D01*
X678392Y900575D01*
X676229Y901471D01*
X673909Y901777D01*
X671588Y901471D01*
X669425Y900575D01*
X667568Y899150D01*
X666143Y897293D01*
X665248Y895131D01*
X664942Y892810D01*
X665248Y890489D01*
X666143Y888327D01*
X667568Y886470D01*
X669425Y885045D01*
X671588Y884149D01*
X673909Y883843D01*
X676229Y884149D01*
X677423Y884643D01*
X684112Y877954D01*
X683487Y876783D01*
X681990Y877081D01*
X662999D01*
Y914415D01*
X729640D01*
X762015Y882040D01*
D02*
G37*
%LPC*%
G36*
X636750Y901546D02*
Y894560D01*
X643736D01*
X643661Y895131D01*
X642765Y897293D01*
X641340Y899150D01*
X639483Y900575D01*
X637321Y901471D01*
X636750Y901546D01*
D02*
G37*
G36*
X633250D02*
X632679Y901471D01*
X630517Y900575D01*
X628660Y899150D01*
X627235Y897293D01*
X626339Y895131D01*
X626264Y894560D01*
X633250D01*
Y901546D01*
D02*
G37*
G36*
X643736Y891060D02*
X636750D01*
Y884074D01*
X637321Y884149D01*
X639483Y885045D01*
X641340Y886470D01*
X642765Y888327D01*
X643661Y890489D01*
X643736Y891060D01*
D02*
G37*
G36*
X633250D02*
X626264D01*
X626339Y890489D01*
X627235Y888327D01*
X628660Y886470D01*
X630517Y885045D01*
X632679Y884149D01*
X633250Y884074D01*
Y891060D01*
D02*
G37*
G36*
X740890Y887576D02*
Y880590D01*
X747876D01*
X747801Y881161D01*
X746905Y883323D01*
X745480Y885180D01*
X743623Y886605D01*
X741461Y887501D01*
X740890Y887576D01*
D02*
G37*
G36*
X737390D02*
X736819Y887501D01*
X734657Y886605D01*
X732800Y885180D01*
X731375Y883323D01*
X730479Y881161D01*
X730404Y880590D01*
X737390D01*
Y887576D01*
D02*
G37*
G36*
X728400Y875740D02*
X725110D01*
Y871700D01*
X728400D01*
Y875740D01*
D02*
G37*
G36*
X747876Y877090D02*
X740890D01*
Y870104D01*
X741461Y870179D01*
X743623Y871075D01*
X745480Y872500D01*
X746905Y874357D01*
X747801Y876519D01*
X747876Y877090D01*
D02*
G37*
G36*
X737390D02*
X730404D01*
X730479Y876519D01*
X731375Y874357D01*
X732800Y872500D01*
X734657Y871075D01*
X736819Y870179D01*
X737390Y870104D01*
Y877090D01*
D02*
G37*
%LPD*%
G36*
X601243Y510863D02*
X602503Y510021D01*
X603990Y509725D01*
X605477Y510021D01*
X605522Y510052D01*
X607920D01*
Y507158D01*
X603745D01*
X602383Y506888D01*
X601771Y506478D01*
X598890D01*
Y510310D01*
X585110D01*
Y495530D01*
X598890D01*
Y499362D01*
X603065D01*
X604427Y499632D01*
X605039Y500042D01*
X607920D01*
Y494570D01*
X609170D01*
Y492235D01*
X613210D01*
Y488735D01*
X609170D01*
Y485320D01*
X610552D01*
X611039Y484147D01*
X601773Y474881D01*
X600931Y473621D01*
X600635Y472135D01*
Y461882D01*
X600931Y460395D01*
X601773Y459135D01*
X605368Y455540D01*
X605070Y454042D01*
X603847Y453535D01*
X601990Y452110D01*
X600821Y450588D01*
X600425Y450481D01*
X599725D01*
X599329Y450588D01*
X598160Y452110D01*
X596303Y453535D01*
X594141Y454431D01*
X591820Y454737D01*
X589499Y454431D01*
X587337Y453535D01*
X585480Y452110D01*
X584055Y450253D01*
X583159Y448091D01*
X582853Y445770D01*
X583159Y443449D01*
X584055Y441287D01*
X585480Y439430D01*
X587337Y438005D01*
X589499Y437109D01*
X591820Y436803D01*
X594141Y437109D01*
X594739Y437357D01*
X606853Y425243D01*
X608113Y424401D01*
X609600Y424105D01*
X659689D01*
X659937Y423507D01*
X661362Y421650D01*
X663219Y420225D01*
X665381Y419329D01*
X667702Y419023D01*
X670023Y419329D01*
X672186Y420225D01*
X674043Y421650D01*
X675468Y423507D01*
X676363Y425669D01*
X676669Y427990D01*
X676363Y430311D01*
X675468Y432473D01*
X674043Y434330D01*
X672186Y435755D01*
X670023Y436651D01*
X667702Y436957D01*
X666411Y436787D01*
X665279Y437919D01*
X665310Y438150D01*
X665004Y440471D01*
X664108Y442633D01*
X663607Y443286D01*
X664169Y444425D01*
X685999D01*
X687486Y444721D01*
X688746Y445563D01*
X688878Y445695D01*
X691944D01*
X692506Y444556D01*
X692005Y443903D01*
X691109Y441741D01*
X690803Y439420D01*
X691109Y437099D01*
X692005Y434937D01*
X693430Y433080D01*
X695287Y431655D01*
X695885Y431407D01*
Y406341D01*
X686086Y396541D01*
X684883Y397135D01*
X685042Y398344D01*
X684737Y400665D01*
X683841Y402827D01*
X682416Y404685D01*
X680559Y406110D01*
X678397Y407005D01*
X676076Y407311D01*
X673755Y407005D01*
X671592Y406110D01*
X669735Y404685D01*
X668310Y402827D01*
X668016Y402117D01*
X667666Y402105D01*
X667205Y402753D01*
X666964Y403353D01*
X667791Y405349D01*
X668097Y407670D01*
X667791Y409991D01*
X666895Y412153D01*
X665470Y414010D01*
X663613Y415435D01*
X661451Y416331D01*
X659130Y416637D01*
X656809Y416331D01*
X654647Y415435D01*
X652790Y414010D01*
X651365Y412153D01*
X651117Y411555D01*
X578732D01*
X577895Y412509D01*
X577927Y412750D01*
X577621Y415071D01*
X576725Y417233D01*
X575300Y419090D01*
X573443Y420515D01*
X571281Y421411D01*
X568960Y421717D01*
X566639Y421411D01*
X564477Y420515D01*
X562620Y419090D01*
X561195Y417233D01*
X560299Y415071D01*
X559993Y412750D01*
X560299Y410429D01*
X561195Y408267D01*
X562620Y406410D01*
X564477Y404985D01*
X565651Y404498D01*
X566066Y402952D01*
X565362Y402034D01*
X564466Y399872D01*
X564161Y397551D01*
X564289Y396574D01*
X563099Y395887D01*
X562449Y396385D01*
X560286Y397281D01*
X557966Y397587D01*
X555645Y397281D01*
X553482Y396385D01*
X551625Y394960D01*
X551255Y394477D01*
X549985Y394908D01*
Y425450D01*
X549689Y426937D01*
X548847Y428197D01*
X519975Y457069D01*
Y475473D01*
X520084Y475546D01*
X521309Y477378D01*
X521739Y479540D01*
Y479655D01*
X528870D01*
Y476480D01*
X528870Y476480D01*
X528870D01*
X528824Y475229D01*
X528175Y474383D01*
X527279Y472221D01*
X526973Y469900D01*
X527279Y467579D01*
X528175Y465417D01*
X529600Y463560D01*
X531457Y462135D01*
X533619Y461239D01*
X535940Y460933D01*
X538261Y461239D01*
X540423Y462135D01*
X542280Y463560D01*
X543705Y465417D01*
X544601Y467579D01*
X544907Y469900D01*
X544601Y472221D01*
X543705Y474383D01*
X542970Y475342D01*
X542650Y476480D01*
X542650Y476480D01*
X542650D01*
X542650Y476480D01*
Y491260D01*
X528870D01*
Y487425D01*
X521739D01*
Y487540D01*
X521309Y489702D01*
X520084Y491534D01*
X518252Y492759D01*
X516289Y493149D01*
X515639Y494295D01*
X519109Y497765D01*
X528870D01*
Y494260D01*
X542650D01*
Y503180D01*
X543200Y503607D01*
X544470Y502985D01*
Y494260D01*
X558250D01*
X558725Y493187D01*
Y492333D01*
X558250Y491260D01*
X544470D01*
Y476480D01*
X558250D01*
Y479985D01*
X562610D01*
X564097Y480281D01*
X565357Y481123D01*
X566199Y482383D01*
X566495Y483870D01*
Y500041D01*
X568240Y501786D01*
X569510Y501260D01*
Y495530D01*
X574650D01*
Y502920D01*
Y510310D01*
X570305D01*
Y524258D01*
X571459Y525144D01*
X572668Y526719D01*
X573428Y528553D01*
X573687Y530522D01*
X573589Y531262D01*
X573767Y531552D01*
X574734Y532296D01*
X576580Y532053D01*
X578901Y532359D01*
X579500Y532607D01*
X601243Y510863D01*
D02*
G37*
G36*
X728980Y530230D02*
X744145D01*
Y524728D01*
X744441Y523241D01*
X745283Y521981D01*
X753031Y514233D01*
X752545Y513060D01*
X749410D01*
X749410Y513060D01*
X749190D01*
Y513060D01*
X748140Y513060D01*
X736711D01*
Y500635D01*
X726210D01*
Y503640D01*
X711430D01*
Y489860D01*
X726210D01*
Y492865D01*
X736711D01*
Y480080D01*
X743609D01*
X750096Y473593D01*
X749610Y472420D01*
X748140Y472420D01*
X736711D01*
Y439440D01*
X748140D01*
X749190Y439440D01*
X750460Y439440D01*
X761889D01*
Y439440D01*
X762111D01*
Y439440D01*
X766600D01*
Y455930D01*
X770100D01*
Y439440D01*
X774589D01*
Y439440D01*
X774810D01*
X775289Y439211D01*
X775434Y438986D01*
X775693Y437767D01*
X774555Y436283D01*
X773659Y434121D01*
X773584Y433550D01*
X782320D01*
Y431800D01*
X784070D01*
Y423064D01*
X784641Y423139D01*
X786803Y424035D01*
X787472Y424548D01*
X788611Y423986D01*
Y415349D01*
X726425D01*
Y440029D01*
X727573Y441525D01*
X728469Y443687D01*
X728774Y446008D01*
X728469Y448329D01*
X727573Y450491D01*
X726148Y452348D01*
X724452Y453649D01*
Y474260D01*
X726210D01*
Y488040D01*
X711430D01*
Y474260D01*
X714175D01*
Y458793D01*
X713002Y458307D01*
X708366Y462943D01*
X707106Y463785D01*
X705619Y464081D01*
X683143D01*
X675727Y471497D01*
X676213Y472670D01*
X686160D01*
Y487450D01*
X677412D01*
X675586Y489277D01*
X676072Y490450D01*
X686160D01*
Y505230D01*
X682099D01*
X681668Y506500D01*
X681980Y506740D01*
X683405Y508597D01*
X684301Y510759D01*
X684376Y511330D01*
X675640D01*
Y514830D01*
X684376D01*
X684301Y515401D01*
X683405Y517563D01*
X681980Y519420D01*
X681513Y519779D01*
X681944Y521049D01*
X707128D01*
X709096Y521308D01*
X710930Y522068D01*
X712505Y523276D01*
X718700Y529471D01*
X719802Y529616D01*
X721965Y530512D01*
X722847Y531189D01*
X728980D01*
Y530230D01*
D02*
G37*
G36*
X639170Y516570D02*
X649652D01*
Y508610D01*
X649922Y507248D01*
X650694Y506094D01*
X654170Y502618D01*
Y495650D01*
X617250D01*
Y496860D01*
X612585D01*
Y499570D01*
X617250D01*
Y504570D01*
Y507650D01*
X612585D01*
Y509570D01*
X617250D01*
Y516570D01*
X627294D01*
X627599Y515391D01*
X625437Y514495D01*
X623580Y513070D01*
X622155Y511213D01*
X621259Y509051D01*
X621184Y508480D01*
X638656D01*
X638581Y509051D01*
X637685Y511213D01*
X636260Y513070D01*
X634403Y514495D01*
X632241Y515391D01*
X632546Y516570D01*
X637251D01*
Y521735D01*
X639170D01*
Y516570D01*
D02*
G37*
G36*
X678787Y457449D02*
X680048Y456607D01*
X681534Y456311D01*
X704010D01*
X705637Y454685D01*
X705594Y454430D01*
X704154Y453430D01*
X703978Y453465D01*
X687269D01*
X685783Y453169D01*
X684522Y452327D01*
X684390Y452195D01*
X670766D01*
X670204Y453334D01*
X670705Y453987D01*
X671601Y456149D01*
X671676Y456720D01*
X662940D01*
Y460220D01*
X671676D01*
X671601Y460791D01*
X670705Y462953D01*
X669280Y464810D01*
X667423Y466235D01*
X665261Y467131D01*
X664090Y467285D01*
X664173Y468555D01*
X667681D01*
X678787Y457449D01*
D02*
G37*
G36*
X711215Y424861D02*
Y410210D01*
Y398392D01*
X711055Y398183D01*
X710159Y396021D01*
X709853Y393700D01*
X710159Y391379D01*
X711055Y389217D01*
X711215Y389008D01*
Y331082D01*
X711055Y330873D01*
X710159Y328711D01*
X709853Y326390D01*
X710159Y324069D01*
X711055Y321907D01*
X711215Y321698D01*
Y311760D01*
X697903Y298448D01*
X696179Y298221D01*
X694017Y297325D01*
X692160Y295900D01*
X691003Y294393D01*
X689733Y294824D01*
Y306833D01*
X690331Y307081D01*
X692188Y308506D01*
X693613Y310363D01*
X694509Y312525D01*
X694815Y314846D01*
X694509Y317167D01*
X693613Y319329D01*
X692188Y321186D01*
X690331Y322612D01*
X688169Y323507D01*
X685848Y323813D01*
X683527Y323507D01*
X681365Y322612D01*
X679508Y321186D01*
X678083Y319329D01*
X677187Y317167D01*
X676881Y314846D01*
X677046Y313592D01*
X675914Y312461D01*
X675640Y312497D01*
X673319Y312191D01*
X671157Y311295D01*
X669300Y309870D01*
X668655Y309030D01*
X667385D01*
X666740Y309870D01*
X664883Y311295D01*
X662721Y312191D01*
X660400Y312497D01*
X658079Y312191D01*
X655917Y311295D01*
X654060Y309870D01*
X652635Y308013D01*
X651739Y305851D01*
X651433Y303530D01*
X651739Y301209D01*
X652635Y299047D01*
X654060Y297190D01*
X655917Y295765D01*
X656515Y295517D01*
Y284421D01*
X648768Y276673D01*
X647565Y277267D01*
X647686Y278186D01*
X647381Y280507D01*
X646485Y282669D01*
X645060Y284526D01*
X643203Y285951D01*
X641040Y286847D01*
X638719Y287153D01*
X636399Y286847D01*
X634860Y286210D01*
X633585Y286764D01*
X633442Y286943D01*
X632605Y288963D01*
X631180Y290820D01*
X629323Y292245D01*
X627161Y293141D01*
X624840Y293447D01*
X622519Y293141D01*
X620357Y292245D01*
X618500Y290820D01*
X617075Y288963D01*
X616179Y286801D01*
X615873Y284480D01*
X616179Y282159D01*
X616911Y280391D01*
X603686Y267166D01*
X602253Y267759D01*
X599933Y268065D01*
X597612Y267759D01*
X595449Y266863D01*
X593592Y265438D01*
X592167Y263581D01*
X591272Y261419D01*
X591150Y260496D01*
X589746Y259557D01*
X589477Y259629D01*
X589425Y259753D01*
X588000Y261610D01*
X586143Y263035D01*
X583981Y263931D01*
X581660Y264237D01*
X579339Y263931D01*
X577177Y263035D01*
X575320Y261610D01*
X573895Y259753D01*
X573457Y258698D01*
X572083D01*
X571645Y259753D01*
X570220Y261610D01*
X568363Y263035D01*
X566201Y263931D01*
X563880Y264237D01*
X561559Y263931D01*
X559397Y263035D01*
X557540Y261610D01*
X556115Y259753D01*
X555677Y258698D01*
X554303D01*
X553865Y259753D01*
X552440Y261610D01*
X550583Y263035D01*
X548421Y263931D01*
X546100Y264237D01*
X545907Y264211D01*
X545345Y265350D01*
X597198Y317202D01*
X598406Y318778D01*
X599166Y320612D01*
X599425Y322580D01*
Y338208D01*
X599585Y338417D01*
X600481Y340579D01*
X600750Y342624D01*
X601003Y343065D01*
X601951Y343786D01*
X675729D01*
X677216Y344082D01*
X678476Y344924D01*
X693807Y360255D01*
X694649Y361516D01*
X694945Y363002D01*
Y366456D01*
X695544Y366704D01*
X697401Y368129D01*
X698826Y369986D01*
X699722Y372149D01*
X700027Y374469D01*
X699722Y376790D01*
X698826Y378953D01*
X697401Y380810D01*
X695544Y382235D01*
X693381Y383131D01*
X692565Y383238D01*
X692157Y384441D01*
X707597Y399881D01*
X708439Y401141D01*
X708735Y402627D01*
Y424040D01*
X710042Y425347D01*
X711215Y424861D01*
D02*
G37*
%LPC*%
G36*
X583290Y510310D02*
X578150D01*
Y504670D01*
X583290D01*
Y510310D01*
D02*
G37*
G36*
Y501170D02*
X578150D01*
Y495530D01*
X583290D01*
Y501170D01*
D02*
G37*
G36*
X591030Y491336D02*
Y484350D01*
X598016D01*
X597941Y484921D01*
X597045Y487083D01*
X595620Y488940D01*
X593763Y490365D01*
X591601Y491261D01*
X591030Y491336D01*
D02*
G37*
G36*
X587530D02*
X586959Y491261D01*
X584797Y490365D01*
X582940Y488940D01*
X581515Y487083D01*
X580619Y484921D01*
X580544Y484350D01*
X587530D01*
Y491336D01*
D02*
G37*
G36*
X598016Y480850D02*
X591030D01*
Y473864D01*
X591601Y473939D01*
X593763Y474835D01*
X595620Y476260D01*
X597045Y478117D01*
X597941Y480279D01*
X598016Y480850D01*
D02*
G37*
G36*
X587530D02*
X580544D01*
X580619Y480279D01*
X581515Y478117D01*
X582940Y476260D01*
X584797Y474835D01*
X586959Y473939D01*
X587530Y473864D01*
Y480850D01*
D02*
G37*
G36*
X701760Y505230D02*
X696620D01*
Y499590D01*
X701760D01*
Y505230D01*
D02*
G37*
G36*
X693120D02*
X687980D01*
Y499590D01*
X693120D01*
Y505230D01*
D02*
G37*
G36*
X701760Y496090D02*
X696620D01*
Y490450D01*
X701760D01*
Y496090D01*
D02*
G37*
G36*
X693120D02*
X687980D01*
Y490450D01*
X693120D01*
Y496090D01*
D02*
G37*
G36*
X701760Y487450D02*
X696620D01*
Y481810D01*
X701760D01*
Y487450D01*
D02*
G37*
G36*
X693120D02*
X687980D01*
Y481810D01*
X693120D01*
Y487450D01*
D02*
G37*
G36*
X701760Y478310D02*
X696620D01*
Y472670D01*
X701760D01*
Y478310D01*
D02*
G37*
G36*
X693120D02*
X687980D01*
Y472670D01*
X693120D01*
Y478310D01*
D02*
G37*
G36*
X780570Y430050D02*
X773584D01*
X773659Y429479D01*
X774555Y427317D01*
X775980Y425460D01*
X777837Y424035D01*
X779999Y423139D01*
X780570Y423064D01*
Y430050D01*
D02*
G37*
G36*
X638656Y504980D02*
X631670D01*
Y497994D01*
X632241Y498069D01*
X634403Y498965D01*
X636260Y500390D01*
X637685Y502247D01*
X638581Y504409D01*
X638656Y504980D01*
D02*
G37*
G36*
X628170D02*
X621184D01*
X621259Y504409D01*
X622155Y502247D01*
X623580Y500390D01*
X625437Y498965D01*
X627599Y498069D01*
X628170Y497994D01*
Y504980D01*
D02*
G37*
G36*
X695170Y351636D02*
Y344650D01*
X702156D01*
X702081Y345221D01*
X701185Y347383D01*
X699760Y349240D01*
X697903Y350665D01*
X695741Y351561D01*
X695170Y351636D01*
D02*
G37*
G36*
X691670D02*
X691099Y351561D01*
X688937Y350665D01*
X687080Y349240D01*
X685655Y347383D01*
X684759Y345221D01*
X684684Y344650D01*
X691670D01*
Y351636D01*
D02*
G37*
G36*
X702156Y341150D02*
X695170D01*
Y334164D01*
X695741Y334239D01*
X697903Y335135D01*
X699760Y336560D01*
X701185Y338417D01*
X702081Y340579D01*
X702156Y341150D01*
D02*
G37*
G36*
X691670D02*
X684684D01*
X684759Y340579D01*
X685655Y338417D01*
X687080Y336560D01*
X688937Y335135D01*
X691099Y334239D01*
X691670Y334164D01*
Y341150D01*
D02*
G37*
G36*
X629130Y340206D02*
Y333220D01*
X636116D01*
X636041Y333791D01*
X635145Y335953D01*
X633720Y337810D01*
X631863Y339235D01*
X629701Y340131D01*
X629130Y340206D01*
D02*
G37*
G36*
X625630D02*
X625059Y340131D01*
X622897Y339235D01*
X621040Y337810D01*
X619615Y335953D01*
X618719Y333791D01*
X618644Y333220D01*
X625630D01*
Y340206D01*
D02*
G37*
G36*
X636116Y329720D02*
X629130D01*
Y322734D01*
X629701Y322809D01*
X631863Y323705D01*
X633720Y325130D01*
X635145Y326987D01*
X636041Y329149D01*
X636116Y329720D01*
D02*
G37*
G36*
X625630D02*
X618644D01*
X618719Y329149D01*
X619615Y326987D01*
X621040Y325130D01*
X622897Y323705D01*
X625059Y322809D01*
X625630Y322734D01*
Y329720D01*
D02*
G37*
G36*
X577060Y284326D02*
Y277340D01*
X584046D01*
X583971Y277911D01*
X583075Y280073D01*
X581650Y281930D01*
X579793Y283355D01*
X577631Y284251D01*
X577060Y284326D01*
D02*
G37*
G36*
X573560D02*
X572989Y284251D01*
X570827Y283355D01*
X568970Y281930D01*
X567545Y280073D01*
X566649Y277911D01*
X566574Y277340D01*
X573560D01*
Y284326D01*
D02*
G37*
G36*
X584046Y273840D02*
X577060D01*
Y266854D01*
X577631Y266929D01*
X579793Y267825D01*
X581650Y269250D01*
X583075Y271107D01*
X583971Y273269D01*
X584046Y273840D01*
D02*
G37*
G36*
X573560D02*
X566574D01*
X566649Y273269D01*
X567545Y271107D01*
X568970Y269250D01*
X570827Y267825D01*
X572989Y266929D01*
X573560Y266854D01*
Y273840D01*
D02*
G37*
%LPD*%
D14*
X570210Y865122D02*
Y866510D01*
X568270Y868450D02*
X570210Y866510D01*
X580598Y862890D02*
X598170Y880462D01*
X568270Y868450D02*
Y869950D01*
X570210Y865122D02*
X572442Y862890D01*
X580598D01*
X598170Y880462D02*
Y892810D01*
X673909D02*
X674750D01*
X732400Y812906D02*
X737870Y818376D01*
X728980Y848360D02*
X737870Y839470D01*
Y818376D02*
Y839470D01*
X732400Y780170D02*
Y812906D01*
X645160Y456946D02*
X646684Y458470D01*
X662940D01*
X675110Y513610D02*
X675640Y513080D01*
X796180Y503481D02*
X802079D01*
X793750Y501051D02*
X796180Y503481D01*
X793750Y496570D02*
Y501051D01*
X546100Y255270D02*
X575310Y226060D01*
X781050Y455930D02*
X781685Y455295D01*
Y432435D02*
Y455295D01*
Y432435D02*
X782320Y431800D01*
X739460Y804500D02*
X750234D01*
X751840Y802894D01*
X723360Y857726D02*
Y869950D01*
X722884Y857250D02*
X723360Y857726D01*
X862067Y506730D02*
X875880D01*
X834127Y478790D02*
X862067Y506730D01*
X788493Y478790D02*
X834127D01*
X839470Y473710D02*
X859790Y494030D01*
X755473Y473710D02*
X839470D01*
X859790Y494030D02*
X875880D01*
X901581Y462855D02*
X903083Y464358D01*
X889190Y435991D02*
X911670Y458471D01*
X918480Y443230D02*
X924980D01*
X908834Y433584D02*
X918480Y443230D01*
X908834Y427184D02*
Y433584D01*
X891421Y452271D02*
Y470486D01*
X882380Y443230D02*
X891421Y452271D01*
X906890Y425240D02*
X908834Y427184D01*
X889190Y426830D02*
Y435991D01*
X878920Y416560D02*
X889190Y426830D01*
X911670Y458471D02*
Y460508D01*
X911741Y460579D02*
Y463981D01*
X911670Y460508D02*
X911741Y460579D01*
X911670Y464052D02*
Y500190D01*
Y464052D02*
X911741Y463981D01*
X891421Y470486D02*
X899350Y478416D01*
X837740Y460550D02*
X858918D01*
X821257Y444067D02*
X837740Y460550D01*
X811530Y421640D02*
X821257Y431367D01*
Y444067D01*
X719314Y446502D02*
X719807Y446008D01*
X705619Y460196D02*
X719314Y446502D01*
X681534Y460196D02*
X705619D01*
X669290Y472440D02*
X681534Y460196D01*
X651056Y464566D02*
X658930Y472440D01*
X669290D01*
X636696Y464566D02*
X651056D01*
X849232Y429260D02*
X861932Y416560D01*
X836930Y429260D02*
X849232D01*
X858918Y460550D02*
X863538Y455930D01*
X875880D01*
X609600Y373380D02*
X610762Y372218D01*
X547806Y373380D02*
X609600D01*
X617909Y372218D02*
X630717Y359410D01*
X610762Y372218D02*
X617909D01*
X600931Y383782D02*
X620713D01*
X598826Y388862D02*
X633523D01*
X597356Y387391D02*
X598826Y388862D01*
X633523D02*
X636305Y386080D01*
X595609Y378460D02*
X600931Y383782D01*
X620713D02*
X632686Y371810D01*
X535940Y469900D02*
Y483690D01*
X383401Y448171D02*
X384077D01*
X350520Y415290D02*
X383401Y448171D01*
X568960Y412750D02*
X574040Y407670D01*
X573127Y397551D02*
X573168Y397510D01*
X559195Y387391D02*
X597356D01*
X557966Y388620D02*
X559195Y387391D01*
X573168Y397510D02*
X675242D01*
X574040Y407670D02*
X659130D01*
X628150Y457020D02*
X628650D01*
X615152Y455930D02*
X622772Y448310D01*
X604520Y461882D02*
X610472Y455930D01*
X621024Y464146D02*
X628150Y457020D01*
X614680Y466090D02*
X616624Y464146D01*
X604520Y461882D02*
Y472135D01*
X617816Y485430D01*
X610472Y455930D02*
X615152D01*
X616624Y464146D02*
X621024D01*
X608330Y445770D02*
X611079D01*
X618699Y438150D01*
X628650Y457020D02*
X629150D01*
X636696Y464566D01*
X687269Y449580D02*
X703978D01*
X622772Y448310D02*
X685999D01*
X687269Y449580D01*
X709930Y430729D02*
Y443628D01*
X703978Y449580D02*
X709930Y443628D01*
X699770Y404732D02*
Y439420D01*
X704850Y402627D02*
Y425649D01*
X709930Y430729D01*
X675242Y397510D02*
X676076Y398344D01*
X675640Y373417D02*
X704850Y402627D01*
X675729Y347671D02*
X691060Y363002D01*
X636305Y386080D02*
X665620D01*
X675640Y361950D02*
Y373417D01*
X691060Y363002D02*
Y374469D01*
X665620Y386080D02*
X665871Y386331D01*
X601418Y347671D02*
X675729D01*
X630717Y359410D02*
X654448D01*
X699770Y404732D01*
X618699Y438150D02*
X656343D01*
X609600Y427990D02*
X667702D01*
X593090Y541855D02*
Y543560D01*
X576580Y541020D02*
X603990Y513610D01*
X630120Y558610D02*
Y562610D01*
Y558610D02*
X643130Y545600D01*
Y526328D02*
Y545600D01*
X648210Y525865D02*
Y541838D01*
X655120Y548748D01*
Y562610D01*
X537060Y787922D02*
Y812910D01*
X511770Y838200D02*
X537060Y812910D01*
X696610Y869950D02*
Y870950D01*
X674750Y892810D02*
X696610Y870950D01*
X538480Y870318D02*
X549402D01*
X536992Y868898D02*
Y872272D01*
X538480Y873760D01*
X1127460Y451150D02*
X1131660Y446950D01*
Y441430D02*
Y446950D01*
X1112520Y451150D02*
X1127460D01*
X1014070Y479700D02*
X1014980Y478790D01*
X1103770Y451150D02*
X1112520D01*
X1076130Y478790D02*
X1103770Y451150D01*
X1014980Y478790D02*
X1076130D01*
X551700Y361430D02*
X594843D01*
X598442Y357831D02*
X617927D01*
X594843Y361430D02*
X598442Y357831D01*
X593496Y355592D02*
X601418Y347671D01*
X894930Y398780D02*
X925830Y429680D01*
X831850Y398780D02*
X894930D01*
X913130Y506730D02*
X924980D01*
X911860Y500380D02*
Y505460D01*
X913130Y506730D01*
X767720Y524510D02*
X890357D01*
X911670Y500190D02*
X911860Y500380D01*
X905510Y464358D02*
Y516541D01*
X903083Y464358D02*
X905510D01*
X890357Y524510D02*
X899350Y515517D01*
X861932Y416560D02*
X878920D01*
X865110Y427750D02*
Y430302D01*
Y427750D02*
X866140Y426720D01*
X865110Y430302D02*
X875651D01*
X875880Y430530D01*
X773302Y621660D02*
X778510Y616452D01*
X748030Y609268D02*
X755342Y616580D01*
X737870Y606420D02*
X753110Y621660D01*
X755342Y616580D02*
X771198D01*
X778510Y580390D02*
Y616452D01*
Y580390D02*
X816380Y542520D01*
X773430Y567060D02*
Y614348D01*
X748030Y524728D02*
Y609268D01*
X771198Y616580D02*
X773430Y614348D01*
X753110Y621660D02*
X773302D01*
X816380Y542520D02*
X879530D01*
X764872Y519430D02*
X888252D01*
X763270Y528960D02*
X767720Y524510D01*
X888252Y519430D02*
X894270Y513412D01*
X753110Y531192D02*
X764872Y519430D01*
X886148Y514350D02*
X889190Y511308D01*
X748030Y524728D02*
X758408Y514350D01*
X886148D01*
X879530Y542520D02*
X905510Y516541D01*
X899350Y478416D02*
Y515517D01*
X737870Y600070D02*
Y606420D01*
X773430Y567060D02*
X788670Y551820D01*
Y545470D02*
Y551820D01*
X753110Y559748D02*
X763270Y569908D01*
X753110Y531192D02*
Y559748D01*
X763270Y528960D02*
Y545470D01*
X875880Y481330D02*
X882380D01*
X763270Y569908D02*
Y600070D01*
X894270Y480520D02*
Y513412D01*
X889190Y488140D02*
Y511308D01*
X882380Y481330D02*
X889190Y488140D01*
X882380Y468630D02*
X894270Y480520D01*
X875880Y468630D02*
X882380D01*
X875880Y443230D02*
X882380D01*
X786240Y481042D02*
X788493Y478790D01*
X632460Y659700D02*
X632560Y659800D01*
Y673200D01*
X632659Y673299D01*
X554310Y520700D02*
X555862D01*
X535760Y483870D02*
X535940Y483690D01*
X625675Y659415D02*
X625960Y659700D01*
X616235Y659415D02*
X625675D01*
X615950Y659130D02*
X616235Y659415D01*
X562610Y501650D02*
X566420Y505460D01*
X535760Y501650D02*
Y502150D01*
X554310Y520700D01*
X566420Y505460D02*
Y530183D01*
X566082Y530522D02*
X566420Y530183D01*
X516090Y455460D02*
Y483540D01*
Y455460D02*
X546100Y425450D01*
Y382270D02*
Y425450D01*
Y382270D02*
X549910Y378460D01*
X595609D01*
X535940Y385246D02*
Y420370D01*
Y385246D02*
X547806Y373380D01*
X503390Y409740D02*
X551700Y361430D01*
X550354Y355592D02*
X593496D01*
X498310Y407636D02*
X550354Y355592D01*
X498310Y407636D02*
Y471920D01*
X503390Y409740D02*
Y483540D01*
Y487540D01*
X490690Y479540D02*
Y483540D01*
Y479540D02*
X498310Y471920D01*
X325120Y520700D02*
X349880D01*
X322812Y474582D02*
X343530Y495300D01*
X321746Y474582D02*
X322812D01*
X340418Y440690D02*
Y464820D01*
X562610Y483870D02*
Y501650D01*
X551360D02*
X562610D01*
X551360Y483870D02*
X562610D01*
X477990Y483540D02*
Y485540D01*
X503390Y487540D02*
X517500Y501650D01*
X535760D01*
X662940Y642126D02*
X662940Y642126D01*
X661114Y640300D02*
X662940Y642126D01*
X645460Y640300D02*
X661114D01*
X668322Y644666D02*
X671830Y648174D01*
Y666532D01*
X335602Y505460D02*
X386760D01*
X301630Y469900D02*
X306710Y474980D01*
X295280Y469900D02*
X301630D01*
X386760Y505460D02*
X396420Y495800D01*
X306710Y476568D02*
X335602Y505460D01*
X396420Y495300D02*
Y495800D01*
X306710Y474980D02*
Y476568D01*
X349880Y495300D02*
X382270D01*
X343530D02*
X349880D01*
X685848Y293418D02*
Y314846D01*
X613808Y236220D02*
X660400Y282812D01*
X601278Y260443D02*
X602457D01*
X575310Y226060D02*
X618490D01*
X685848Y293418D01*
X600710Y236220D02*
X613808D01*
X588010Y231140D02*
X616386D01*
X675640Y290394D01*
Y303530D01*
X599933Y259098D02*
X601278Y260443D01*
X608330Y246380D02*
X638719Y276770D01*
X660400Y282812D02*
Y303530D01*
X638719Y276770D02*
Y278186D01*
X181610Y389890D02*
X203610D01*
X215420Y401700D01*
Y428880D01*
X203610Y440690D02*
X215420Y428880D01*
X181610Y440690D02*
X203610D01*
X122400Y454280D02*
X134210Y466090D01*
X122400Y359598D02*
Y454280D01*
Y359598D02*
X131098Y350900D01*
X167800D01*
X179610Y339090D01*
X134210Y466090D02*
X156210D01*
X179610Y339090D02*
X181610D01*
X288930Y495300D02*
X295280D01*
X283850Y490220D02*
X288930Y495300D01*
X283850Y485140D02*
Y490220D01*
X267374Y468664D02*
X283850Y485140D01*
X267374Y461684D02*
Y468664D01*
X265430Y459740D02*
X267374Y461684D01*
X563880Y255270D02*
X588010Y231140D01*
X602457Y260443D02*
X624840Y282826D01*
X581660Y255270D02*
X600710Y236220D01*
X624840Y282826D02*
Y284480D01*
X340418Y464820D02*
X345498Y469900D01*
X349880D01*
X591820Y445770D02*
X609600Y427990D01*
X924980Y430530D02*
X925830Y429680D01*
X644021Y668020D02*
X670342D01*
X671830Y666532D01*
X638960Y659700D02*
X639400Y660140D01*
Y663399D01*
X644021Y668020D01*
X632460Y640300D02*
X632900Y639860D01*
Y636601D02*
Y639860D01*
Y636601D02*
X635461Y634040D01*
X642459D01*
X645020Y636601D01*
Y639860D01*
X645460Y640300D01*
X717750Y848360D02*
X728980D01*
X715110Y851000D02*
X717750Y848360D01*
X513028Y805429D02*
X515777D01*
X518956Y802250D01*
X530000D01*
X536992Y868898D02*
X537060Y868830D01*
X549402Y870318D02*
X549770Y869950D01*
X531500Y783750D02*
X533440Y785690D01*
X534828D01*
X537060Y787922D01*
X530000Y783750D02*
X531500D01*
X732400Y780170D02*
X734060Y778510D01*
X738700D01*
X739460Y777750D01*
X715110Y851000D02*
Y869950D01*
X567944Y869624D02*
X568270Y869950D01*
X742950Y496570D02*
X745379Y494141D01*
X742770Y496750D02*
X742950Y496570D01*
X745379Y483803D02*
X755473Y473710D01*
X745379Y483803D02*
Y494141D01*
X781050Y486320D02*
Y496570D01*
Y486320D02*
X786240Y481129D01*
Y481042D02*
Y481129D01*
X718820Y496750D02*
X742770D01*
X655120Y562610D02*
X677926D01*
X606044D02*
X630120D01*
X406654Y521970D02*
X435410D01*
X435610Y522170D01*
X406654Y547370D02*
X435410D01*
X435610Y547170D01*
X490690Y537540D02*
Y541540D01*
X483880Y548350D02*
X490690Y541540D01*
X463982Y548350D02*
X483880D01*
X462802Y547170D02*
X463982Y548350D01*
X435610Y547170D02*
X462802D01*
X435610Y522170D02*
X466620D01*
X477990Y533540D01*
Y537540D01*
Y468084D02*
Y483540D01*
X477520Y467614D02*
X477990Y468084D01*
X516090Y483540D02*
X535430D01*
X535760Y483870D01*
X859790Y207010D02*
Y281940D01*
X883920Y233520D02*
Y283210D01*
D20*
X1126670Y359410D02*
D03*
X1111070D02*
D03*
X396420Y495300D02*
D03*
X380820D02*
D03*
X551360Y501650D02*
D03*
X535760D02*
D03*
X551360Y483870D02*
D03*
X535760D02*
D03*
X592000Y502920D02*
D03*
X576400D02*
D03*
X694870Y497840D02*
D03*
X679270D02*
D03*
X694870Y480060D02*
D03*
X679270D02*
D03*
D21*
X662940Y657874D02*
D03*
Y642126D02*
D03*
X751840Y787146D02*
D03*
Y802894D02*
D03*
X518160Y792734D02*
D03*
Y776986D02*
D03*
X645160Y456946D02*
D03*
Y472694D02*
D03*
X477520Y451866D02*
D03*
Y467614D02*
D03*
D22*
X628650Y472620D02*
D03*
Y457020D02*
D03*
X718820Y496750D02*
D03*
Y481150D02*
D03*
D24*
X560324Y852170D02*
D03*
X544576D02*
D03*
X406654Y521970D02*
D03*
X390906D02*
D03*
X406654Y547370D02*
D03*
X390906D02*
D03*
X677164Y541020D02*
D03*
X661416D02*
D03*
X707136Y857250D02*
D03*
X722884D02*
D03*
X957834Y455930D02*
D03*
X942086D02*
D03*
X590296Y562610D02*
D03*
X606044D02*
D03*
X693674D02*
D03*
X677926D02*
D03*
D33*
X1141250Y553720D02*
D03*
Y528320D02*
D03*
D34*
X1109420Y402150D02*
D03*
Y474150D02*
D03*
X1144120Y402150D02*
D03*
Y474150D02*
D03*
D35*
X146210Y313690D02*
D03*
Y237490D02*
D03*
Y161290D02*
D03*
Y466090D02*
D03*
Y389890D02*
D03*
X191610Y59690D02*
D03*
Y161290D02*
D03*
Y313690D02*
D03*
Y237490D02*
D03*
Y389890D02*
D03*
Y466090D02*
D03*
X146210Y85090D02*
D03*
Y110490D02*
D03*
Y135890D02*
D03*
Y212090D02*
D03*
Y186690D02*
D03*
Y288290D02*
D03*
Y262890D02*
D03*
Y339090D02*
D03*
Y364490D02*
D03*
Y440690D02*
D03*
Y415290D02*
D03*
Y542290D02*
D03*
Y516890D02*
D03*
Y491490D02*
D03*
X191610Y85090D02*
D03*
Y110490D02*
D03*
Y135890D02*
D03*
Y186690D02*
D03*
Y212090D02*
D03*
Y288290D02*
D03*
Y262890D02*
D03*
Y339090D02*
D03*
Y364490D02*
D03*
Y440690D02*
D03*
Y415290D02*
D03*
Y542290D02*
D03*
Y516890D02*
D03*
Y491490D02*
D03*
D36*
X146210Y59690D02*
D03*
D37*
X704850Y612140D02*
D03*
X635000Y892810D02*
D03*
X673909D02*
D03*
X675640Y513080D02*
D03*
X589280Y482600D02*
D03*
X802079Y503481D02*
D03*
X520700Y304800D02*
D03*
X575310Y275590D02*
D03*
X520700D02*
D03*
X546100Y255270D02*
D03*
X478790Y132080D02*
D03*
X739140Y878840D02*
D03*
X598170Y892810D02*
D03*
X830580Y266700D02*
D03*
X551180Y335280D02*
D03*
X782320Y431800D02*
D03*
X901581Y462855D02*
D03*
X906890Y425240D02*
D03*
X910590Y563880D02*
D03*
X854710Y567690D02*
D03*
X866140Y426720D02*
D03*
X742950Y360680D02*
D03*
X693420Y342900D02*
D03*
X662940Y458470D02*
D03*
X836930Y429260D02*
D03*
X629920Y506730D02*
D03*
X1089660Y415290D02*
D03*
X627380Y331470D02*
D03*
X610762Y372218D02*
D03*
X535940Y469900D02*
D03*
X350520Y415290D02*
D03*
X384077Y448171D02*
D03*
X568960Y412750D02*
D03*
X573127Y397551D02*
D03*
X557966Y388620D02*
D03*
X614680Y466090D02*
D03*
X608330Y445770D02*
D03*
X699770Y439420D02*
D03*
X719807Y446008D02*
D03*
X691060Y374469D02*
D03*
X665871Y386331D02*
D03*
X676076Y398344D02*
D03*
X675640Y361950D02*
D03*
X667702Y427990D02*
D03*
X656343Y438150D02*
D03*
X593090Y543560D02*
D03*
X576580Y541020D02*
D03*
X717482Y538277D02*
D03*
X511770Y838200D02*
D03*
X538480Y873760D02*
D03*
X981460Y541020D02*
D03*
X1007110Y542290D02*
D03*
X1050290D02*
D03*
X1092200Y368300D02*
D03*
X935990Y414020D02*
D03*
X632460Y223520D02*
D03*
X698500Y289560D02*
D03*
X718820Y393700D02*
D03*
X632686Y371810D02*
D03*
X617927Y357831D02*
D03*
X659130Y407670D02*
D03*
X811530Y421640D02*
D03*
X831850Y398780D02*
D03*
X632659Y673299D02*
D03*
X555862Y520700D02*
D03*
X615950Y659130D02*
D03*
X591820Y342900D02*
D03*
X535940Y420370D02*
D03*
X325120Y520700D02*
D03*
X321746Y474582D02*
D03*
X340418Y440690D02*
D03*
X678180Y642620D02*
D03*
X227330Y402590D02*
D03*
X718820Y326390D02*
D03*
X566769Y152329D02*
D03*
X599933Y259098D02*
D03*
X608330Y246380D02*
D03*
X265430Y459740D02*
D03*
X563880Y255270D02*
D03*
X581660D02*
D03*
X660400Y303530D02*
D03*
X624840Y284480D02*
D03*
X638719Y278186D02*
D03*
X675640Y303530D02*
D03*
X685848Y314846D02*
D03*
X591820Y445770D02*
D03*
X344170Y313690D02*
D03*
X810260Y152400D02*
D03*
X513028Y805429D02*
D03*
X859790Y207010D02*
D03*
Y281940D02*
D03*
X883920Y233520D02*
D03*
Y283210D02*
D03*
D38*
X708660Y891360D02*
D03*
X562017Y891358D02*
D03*
D39*
X704333Y612657D02*
X704850Y612140D01*
X704333Y612657D02*
Y623595D01*
X697230Y630698D02*
X704333Y623595D01*
X697230Y630698D02*
Y713740D01*
X586740Y176530D02*
X718820Y308610D01*
X641891Y606331D02*
X677686Y642126D01*
X562610Y533993D02*
X566082Y530522D01*
X562013Y534590D02*
X562610Y533993D01*
X657860Y922020D02*
X732790D01*
X537210D02*
X657860D01*
X591820Y322580D02*
Y342900D01*
X528320Y198120D02*
Y259080D01*
X591820Y322580D01*
X661416Y541020D02*
X665814Y536622D01*
Y533071D02*
Y536622D01*
Y533071D02*
X670231Y528654D01*
X707128D01*
X716751Y538277D01*
X717482D01*
X737870Y540144D02*
Y545470D01*
X736520Y538794D02*
X737870Y540144D01*
X717998Y538794D02*
X736520D01*
X717482Y538277D02*
X717998Y538794D01*
X763268Y795022D02*
X769620Y801375D01*
Y885190D01*
X732790Y922020D02*
X769620Y885190D01*
X501638Y886448D02*
X537210Y922020D01*
X501638Y858520D02*
Y886448D01*
X981460Y541020D02*
X1005590Y565150D01*
X1077040Y551020D02*
X1089540D01*
X1062910Y565150D02*
X1077040Y551020D01*
X1005590Y565150D02*
X1062910D01*
X1007110Y542290D02*
X1050290D01*
X1092200Y337740D02*
X1121120Y308820D01*
X1092200Y337740D02*
Y368300D01*
X1144120Y402150D02*
Y411650D01*
X1155620Y423150D01*
X718820Y393700D02*
Y410210D01*
Y326390D02*
Y393700D01*
X662940Y642126D02*
X677686D01*
X547265Y534590D02*
X562013D01*
X562610Y533993D02*
Y554223D01*
X528320Y515645D02*
X547265Y534590D01*
X505435Y515645D02*
X528320D01*
X562610Y554223D02*
X614718Y606331D01*
X641891D01*
X477990Y485540D02*
Y489746D01*
X490940Y502695D02*
X492486D01*
X491358Y519302D02*
X501390Y529334D01*
X492486Y502695D02*
X505435Y515645D01*
X464820Y509270D02*
X479780D01*
X489812Y519302D01*
X477990Y489746D02*
X490940Y502695D01*
X489812Y519302D02*
X491358D01*
X501390Y529334D02*
Y535540D01*
X503390Y537540D02*
X503390D01*
X501390Y535540D02*
X503390Y537540D01*
X344170Y388620D02*
X464820Y509270D01*
X677686Y642126D02*
X678180Y642620D01*
X288930Y469900D02*
X295280D01*
X279320Y460290D02*
X288930Y469900D01*
X279320Y453987D02*
Y460290D01*
X227923Y402590D02*
X279320Y453987D01*
X227330Y402590D02*
X227923D01*
X227330Y59800D02*
X433180D01*
X181720D02*
X227330D01*
Y402590D01*
X528320Y198120D02*
X549910Y176530D01*
X718820Y410210D02*
Y445770D01*
Y308610D02*
Y326390D01*
X433180Y59800D02*
X549910Y176530D01*
X181610Y59690D02*
X181720Y59800D01*
X549910Y176530D02*
X586740D01*
X566805Y152364D02*
X810224D01*
X566769Y152329D02*
X566805Y152364D01*
X344170Y313690D02*
Y388620D01*
X810224Y152364D02*
X810260Y152400D01*
X1149120Y459650D02*
Y474150D01*
X1155620Y423150D02*
Y453150D01*
X1144120Y474150D02*
X1149120D01*
Y459650D02*
X1155620Y453150D01*
X1109420Y474150D02*
X1144120D01*
X1104740Y553720D02*
X1151250D01*
X1102040Y551020D02*
X1104740Y553720D01*
X1089540Y551020D02*
X1102040D01*
D40*
X1126370Y375920D02*
Y377420D01*
X1138600Y389650D01*
Y399650D01*
X1141100Y402150D01*
X1144120D01*
X1126520Y359560D02*
X1126670Y359410D01*
X1126520Y359560D02*
Y375770D01*
X1126370Y375920D02*
X1126520Y375770D01*
X544576Y853186D02*
X553050Y861660D01*
X559520Y869700D02*
Y869950D01*
X557060Y867240D02*
X559520Y869700D01*
X557060Y864612D02*
Y867240D01*
X554108Y861660D02*
X557060Y864612D01*
X553050Y861660D02*
X554108D01*
X544576Y852170D02*
Y853186D01*
X541782Y849630D02*
X541996Y849844D01*
X510528Y849630D02*
X541782D01*
X500380Y801370D02*
Y858520D01*
X501638D02*
X510528Y849630D01*
X657860Y874871D02*
X660789Y871942D01*
X681990D01*
X657860Y874871D02*
Y922020D01*
X698500Y713740D02*
X751840Y767080D01*
X697230Y713740D02*
X698500D01*
X917980Y455430D02*
X924480D01*
X913820Y451270D02*
X917980Y455430D01*
X913392Y451270D02*
X913820D01*
X895500Y433378D02*
X913392Y451270D01*
X895500Y424217D02*
Y433378D01*
X881493Y410210D02*
X895500Y424217D01*
X719314Y446502D02*
Y480656D01*
X718820Y481150D02*
X719314Y480656D01*
X518160Y792734D02*
X518277Y792617D01*
X516855Y794039D02*
X518160Y792734D01*
X500380Y801370D02*
X507711Y794039D01*
X516855D01*
X752856Y787146D02*
X762000Y796290D01*
X751840Y767080D02*
Y787146D01*
X681990Y871942D02*
X695826Y858106D01*
X706748Y857638D02*
X707136Y857250D01*
X706280Y858106D02*
X706748Y857638D01*
X695826Y858106D02*
X706280D01*
X793750Y410210D02*
X881493D01*
X924480Y455430D02*
X924980Y455930D01*
X718820Y410210D02*
X793750D01*
Y455930D01*
X924980D02*
X942086D01*
X751840Y787146D02*
X752856D01*
X518277Y792617D02*
X529883D01*
X530000Y792500D01*
X559520Y869950D02*
X559668Y869802D01*
X706360Y869950D02*
X706748Y869562D01*
Y857638D02*
Y869562D01*
X739460Y787500D02*
X739637Y787323D01*
X751663D01*
X751840Y787146D01*
D42*
X1111370Y375920D02*
D03*
X1126370D02*
D03*
D43*
X1140340Y577220D02*
D03*
Y504820D02*
D03*
D44*
X1089540Y551020D02*
D03*
Y531020D02*
D03*
D45*
X763270Y600070D02*
D03*
X737870D02*
D03*
X788670D02*
D03*
X763270Y545470D02*
D03*
X737870D02*
D03*
X788670D02*
D03*
D46*
X739460Y796250D02*
D03*
X530000Y783750D02*
D03*
D47*
X739460Y787500D02*
D03*
X530000Y792500D02*
D03*
D48*
X739460Y804500D02*
D03*
X530000Y775500D02*
D03*
D49*
X739460Y777750D02*
D03*
X530000Y802250D02*
D03*
D50*
X723360Y869950D02*
D03*
X576520D02*
D03*
D51*
X715110D02*
D03*
X568270D02*
D03*
D52*
X706360D02*
D03*
X559520D02*
D03*
D53*
X696610D02*
D03*
X549770D02*
D03*
D54*
X516090Y537540D02*
D03*
X503390D02*
D03*
X490690D02*
D03*
X503390Y483540D02*
D03*
X490690D02*
D03*
X516090D02*
D03*
X477990Y537540D02*
D03*
Y483540D02*
D03*
D55*
X655120Y562610D02*
D03*
X630120D02*
D03*
D56*
X658210Y521735D02*
D03*
X638210D02*
D03*
X643210D02*
D03*
X633210D02*
D03*
X653210D02*
D03*
X648210D02*
D03*
X658210Y490485D02*
D03*
X653210D02*
D03*
X638210D02*
D03*
X633210D02*
D03*
X648210D02*
D03*
X643210D02*
D03*
X628210Y521735D02*
D03*
X623210D02*
D03*
X618210D02*
D03*
X613210D02*
D03*
X623210Y490485D02*
D03*
X628210D02*
D03*
X618210D02*
D03*
X613210D02*
D03*
D57*
X658835Y513610D02*
D03*
Y503610D02*
D03*
Y508610D02*
D03*
Y498610D02*
D03*
X612585Y513610D02*
D03*
Y508610D02*
D03*
Y498610D02*
D03*
Y503610D02*
D03*
D58*
X793750Y496570D02*
D03*
X781050D02*
D03*
X793750Y455930D02*
D03*
X781050D02*
D03*
X768350Y496570D02*
D03*
X755650D02*
D03*
X768350Y455930D02*
D03*
X755650D02*
D03*
X742950Y496570D02*
D03*
Y455930D02*
D03*
D59*
X924980Y481330D02*
D03*
Y494030D02*
D03*
Y455930D02*
D03*
Y468630D02*
D03*
Y506730D02*
D03*
Y430530D02*
D03*
Y443230D02*
D03*
X875880Y506730D02*
D03*
Y481330D02*
D03*
Y494030D02*
D03*
Y455930D02*
D03*
Y468630D02*
D03*
Y443230D02*
D03*
D60*
Y430530D02*
D03*
D61*
X1112520Y425150D02*
D03*
Y431650D02*
D03*
Y451150D02*
D03*
Y438150D02*
D03*
Y444650D02*
D03*
D62*
X1155620Y423150D02*
D03*
Y453150D02*
D03*
D63*
X625960Y640300D02*
D03*
X645460D02*
D03*
X638960D02*
D03*
X632460D02*
D03*
X625960Y659700D02*
D03*
X645460D02*
D03*
X638960D02*
D03*
X632460D02*
D03*
D64*
X349880Y469900D02*
D03*
X295280D02*
D03*
X349880Y495300D02*
D03*
X295280D02*
D03*
X349880Y520700D02*
D03*
X295280D02*
D03*
D65*
X1014070Y479700D02*
D03*
X995070D02*
D03*
Y460100D02*
D03*
D66*
X1012070D02*
D03*
D67*
X291120Y112820D02*
D03*
Y308820D02*
D03*
X1121120D02*
D03*
Y112820D02*
D03*
D68*
X435610Y547170D02*
D03*
Y522170D02*
D03*
D69*
X658835Y513610D02*
X675110D01*
X617816Y485736D02*
X618200Y486120D01*
X617816Y485430D02*
Y485736D01*
X618200Y490475D02*
X618210Y490485D01*
X618200Y486120D02*
Y490475D01*
X653210Y508610D02*
X658835D01*
X653210D02*
Y521735D01*
Y508610D02*
X658210Y503610D01*
X658835D01*
X592000Y502920D02*
X603065D01*
X603745Y503600D01*
X612575D01*
X612585Y503610D01*
X593090Y541855D02*
X613210Y521735D01*
X603990Y513610D02*
X612585D01*
X643200Y521745D02*
X643210Y521735D01*
X643200Y521745D02*
Y526258D01*
X643130Y526328D02*
X643200Y526258D01*
X648210Y521735D02*
Y525865D01*
X661416Y540004D02*
Y541020D01*
X653210Y531798D02*
X661416Y540004D01*
X653210Y521735D02*
Y531798D01*
X678000Y496570D02*
X679270Y497840D01*
X658835Y498610D02*
X659460D01*
X661500Y496570D01*
X678000D01*
X658210Y490485D02*
X669345D01*
X679270Y480560D01*
Y480060D02*
Y480560D01*
X633210Y476680D02*
Y490485D01*
X629150Y472620D02*
X633210Y476680D01*
X628650Y472620D02*
X629150D01*
D70*
X643210Y474644D02*
Y490485D01*
Y474644D02*
X645160Y472694D01*
D71*
X1125960Y395905D02*
Y408705D01*
X1120665Y390610D02*
X1125960Y395905D01*
Y408705D02*
X1131660Y414406D01*
Y441430D01*
X1040668Y390610D02*
X1120665D01*
X935990Y414020D02*
X1017258D01*
X1040668Y390610D01*
D72*
X995070Y479700D02*
X996115Y478655D01*
X995070Y479700D02*
X995070Y479700D01*
Y479700D01*
Y476350D02*
Y479700D01*
X1008878Y438225D02*
X1099909D01*
X1099929Y438205D02*
X1112465D01*
X996325Y450778D02*
Y453473D01*
X1112465Y438205D02*
X1112520Y438150D01*
X1099909Y438225D02*
X1099929Y438205D01*
X995070Y460100D02*
X996115Y459055D01*
Y453683D02*
X996325Y453473D01*
Y450778D02*
X1008878Y438225D01*
X996115Y453683D02*
Y459055D01*
X1112465Y444595D02*
X1112520Y444650D01*
X1099929Y444595D02*
X1112465D01*
X1002675Y453409D02*
Y467167D01*
X1099909Y444575D02*
X1099929Y444595D01*
X1011509Y444575D02*
X1099909D01*
X1002675Y453409D02*
X1011509Y444575D01*
X996115Y473727D02*
Y478655D01*
Y473727D02*
X1002675Y467167D01*
X991795Y473075D02*
X995070Y476350D01*
X952450Y490855D02*
X970230Y473075D01*
X934655Y490855D02*
X952450D01*
X991795Y466725D02*
X995070Y463450D01*
X967600Y466725D02*
X991795D01*
X970230Y473075D02*
X991795D01*
X924980Y494030D02*
X931480D01*
X995070Y460100D02*
Y463450D01*
X934655Y484505D02*
X949820D01*
X924980Y481330D02*
X931480D01*
X949820Y484505D02*
X967600Y466725D01*
X931480Y481330D02*
X934655Y484505D01*
X931480Y494030D02*
X934655Y490855D01*
D73*
X291120Y112820D02*
Y308820D01*
M02*
