G04*
G04 #@! TF.GenerationSoftware,Altium Limited,Altium Designer,20.1.11 (218)*
G04*
G04 Layer_Physical_Order=2*
G04 Layer_Color=16711680*
%FSLAX44Y44*%
%MOMM*%
G71*
G04*
G04 #@! TF.SameCoordinates,F64D855A-75B5-494C-AA47-8135A0461B61*
G04*
G04*
G04 #@! TF.FilePolarity,Positive*
G04*
G01*
G75*
%ADD14C,0.2540*%
%ADD17C,0.2032*%
%ADD23R,0.8700X0.9700*%
%ADD24R,0.9652X0.7620*%
%ADD25R,0.9700X0.8700*%
%ADD27R,0.7620X0.9652*%
%ADD34O,4.0000X1.9050*%
G04:AMPARAMS|DCode=35|XSize=2mm|YSize=1mm|CornerRadius=0.25mm|HoleSize=0mm|Usage=FLASHONLY|Rotation=180.000|XOffset=0mm|YOffset=0mm|HoleType=Round|Shape=RoundedRectangle|*
%AMROUNDEDRECTD35*
21,1,2.0000,0.5000,0,0,180.0*
21,1,1.5000,1.0000,0,0,180.0*
1,1,0.5000,-0.7500,0.2500*
1,1,0.5000,0.7500,0.2500*
1,1,0.5000,0.7500,-0.2500*
1,1,0.5000,-0.7500,-0.2500*
%
%ADD35ROUNDEDRECTD35*%
%ADD36O,4.0000X1.6000*%
G04:AMPARAMS|DCode=37|XSize=1.6mm|YSize=4mm|CornerRadius=0.2mm|HoleSize=0mm|Usage=FLASHONLY|Rotation=270.000|XOffset=0mm|YOffset=0mm|HoleType=Round|Shape=RoundedRectangle|*
%AMROUNDEDRECTD37*
21,1,1.6000,3.6000,0,0,270.0*
21,1,1.2000,4.0000,0,0,270.0*
1,1,0.4000,-1.8000,-0.6000*
1,1,0.4000,-1.8000,0.6000*
1,1,0.4000,1.8000,0.6000*
1,1,0.4000,1.8000,-0.6000*
%
%ADD37ROUNDEDRECTD37*%
%ADD38C,1.2700*%
%ADD39C,3.0000*%
%ADD40C,0.5000*%
%ADD41C,1.0000*%
%ADD43R,1.1000X1.4000*%
%ADD44R,3.4000X1.4000*%
%ADD45R,3.5000X1.0000*%
%ADD46R,1.2700X2.5400*%
%ADD47R,0.6500X0.3500*%
%ADD48R,0.6500X0.6000*%
%ADD49R,0.6500X0.5000*%
%ADD50R,0.6500X0.4500*%
%ADD51R,0.5000X0.6500*%
%ADD52R,0.3500X0.6500*%
%ADD53R,0.6000X0.6500*%
%ADD54R,0.4500X0.6500*%
%ADD55O,0.6000X1.4000*%
%ADD56R,1.1000X1.9000*%
%ADD57R,0.3000X0.5250*%
%ADD58R,0.4250X0.3000*%
%ADD59R,0.7399X2.7899*%
%ADD60R,1.9000X0.6000*%
G04:AMPARAMS|DCode=61|XSize=1.9mm|YSize=0.6mm|CornerRadius=0.15mm|HoleSize=0mm|Usage=FLASHONLY|Rotation=0.000|XOffset=0mm|YOffset=0mm|HoleType=Round|Shape=RoundedRectangle|*
%AMROUNDEDRECTD61*
21,1,1.9000,0.3000,0,0,0.0*
21,1,1.6000,0.6000,0,0,0.0*
1,1,0.3000,0.8000,-0.1500*
1,1,0.3000,-0.8000,-0.1500*
1,1,0.3000,-0.8000,0.1500*
1,1,0.3000,0.8000,0.1500*
%
%ADD61ROUNDEDRECTD61*%
%ADD62R,2.1500X0.4000*%
%ADD63R,1.1000X1.1000*%
G04:AMPARAMS|DCode=64|XSize=0.49mm|YSize=0.45mm|CornerRadius=0.0563mm|HoleSize=0mm|Usage=FLASHONLY|Rotation=90.000|XOffset=0mm|YOffset=0mm|HoleType=Round|Shape=RoundedRectangle|*
%AMROUNDEDRECTD64*
21,1,0.4900,0.3375,0,0,90.0*
21,1,0.3775,0.4500,0,0,90.0*
1,1,0.1125,0.1688,0.1888*
1,1,0.1125,0.1688,-0.1888*
1,1,0.1125,-0.1688,-0.1888*
1,1,0.1125,-0.1688,0.1888*
%
%ADD64ROUNDEDRECTD64*%
%ADD65R,2.5400X1.2700*%
G04:AMPARAMS|DCode=66|XSize=1.26mm|YSize=0.59mm|CornerRadius=0.1475mm|HoleSize=0mm|Usage=FLASHONLY|Rotation=90.000|XOffset=0mm|YOffset=0mm|HoleType=Round|Shape=RoundedRectangle|*
%AMROUNDEDRECTD66*
21,1,1.2600,0.2950,0,0,90.0*
21,1,0.9650,0.5900,0,0,90.0*
1,1,0.2950,0.1475,0.4825*
1,1,0.2950,0.1475,-0.4825*
1,1,0.2950,-0.1475,-0.4825*
1,1,0.2950,-0.1475,0.4825*
%
%ADD66ROUNDEDRECTD66*%
G04:AMPARAMS|DCode=67|XSize=1.26mm|YSize=0.99mm|CornerRadius=0.2475mm|HoleSize=0mm|Usage=FLASHONLY|Rotation=90.000|XOffset=0mm|YOffset=0mm|HoleType=Round|Shape=RoundedRectangle|*
%AMROUNDEDRECTD67*
21,1,1.2600,0.4950,0,0,90.0*
21,1,0.7650,0.9900,0,0,90.0*
1,1,0.4950,0.2475,0.3825*
1,1,0.4950,0.2475,-0.3825*
1,1,0.4950,-0.2475,-0.3825*
1,1,0.4950,-0.2475,0.3825*
%
%ADD67ROUNDEDRECTD67*%
%ADD68R,8.0000X8.0000*%
%ADD69R,1.9000X1.1000*%
%ADD70C,0.8000*%
%ADD71C,0.3810*%
%ADD72C,2.0000*%
G36*
X653241Y874871D02*
X653593Y873104D01*
X654594Y871605D01*
X657523Y868676D01*
X659021Y867675D01*
X660789Y867324D01*
X680077D01*
X692560Y854840D01*
X694059Y853839D01*
X695826Y853488D01*
X701296D01*
Y850394D01*
X711866D01*
X712001Y849712D01*
X712731Y848621D01*
X715371Y845981D01*
X715371Y845981D01*
X715784Y845705D01*
X715020Y843771D01*
X636717Y856702D01*
X636471Y856694D01*
X636226Y856724D01*
X600346Y854044D01*
X600210Y854006D01*
X600070Y854005D01*
X568253Y847248D01*
X566674Y848527D01*
Y850420D01*
X560324D01*
Y853920D01*
X566674D01*
Y859536D01*
X561076D01*
X560865Y860046D01*
X560474Y861568D01*
X561327Y862845D01*
X561679Y864612D01*
Y864670D01*
X566935D01*
X567102Y863834D01*
X567831Y862743D01*
X570063Y860511D01*
X571154Y859781D01*
X572442Y859525D01*
X580598D01*
X580598Y859525D01*
X581886Y859781D01*
X582977Y860511D01*
X600549Y878083D01*
X601278Y879174D01*
X601535Y880462D01*
X601535Y880462D01*
Y885133D01*
X602396Y885490D01*
X604147Y886833D01*
X605490Y888584D01*
X606334Y890622D01*
X606622Y892810D01*
X606334Y894998D01*
X605490Y897036D01*
X604147Y898787D01*
X602396Y900130D01*
X600358Y900974D01*
X598170Y901262D01*
X595982Y900974D01*
X593944Y900130D01*
X592193Y898787D01*
X590850Y897036D01*
X590006Y894998D01*
X589718Y892810D01*
X590006Y890622D01*
X590850Y888584D01*
X592193Y886833D01*
X593944Y885490D01*
X594805Y885133D01*
Y881855D01*
X583437Y870488D01*
X581560Y871265D01*
Y875740D01*
X578270D01*
Y869950D01*
X574770D01*
Y875740D01*
X573033D01*
X572306Y877772D01*
X574117Y879258D01*
X576245Y881851D01*
X577827Y884810D01*
X578801Y888020D01*
X579129Y891358D01*
X578801Y894697D01*
X577827Y897907D01*
X576245Y900866D01*
X574117Y903459D01*
X571524Y905587D01*
X568565Y907168D01*
X565355Y908142D01*
X562017Y908471D01*
X558679Y908142D01*
X555468Y907168D01*
X552510Y905587D01*
X549917Y903459D01*
X547789Y900866D01*
X546207Y897907D01*
X545233Y894697D01*
X544905Y891358D01*
X545233Y888020D01*
X546207Y884810D01*
X547789Y881851D01*
X549917Y879258D01*
X552349Y877262D01*
X552337Y876696D01*
X551754Y875230D01*
X546739D01*
X546644Y875948D01*
X545800Y877986D01*
X544457Y879737D01*
X542706Y881080D01*
X540668Y881924D01*
X538480Y882212D01*
X536292Y881924D01*
X534254Y881080D01*
X532503Y879737D01*
X531160Y877986D01*
X530316Y875948D01*
X530028Y873760D01*
X530316Y871572D01*
X531160Y869534D01*
X532503Y867783D01*
X534254Y866440D01*
X535420Y865957D01*
X535772Y865722D01*
X536189Y865639D01*
X536292Y865596D01*
X536624Y865552D01*
X537060Y865465D01*
X537149Y865483D01*
X538480Y865308D01*
X540668Y865596D01*
X542706Y866440D01*
X543375Y866953D01*
X545490D01*
Y864670D01*
X546873D01*
X547651Y862793D01*
X543884Y859026D01*
X538736D01*
Y854249D01*
X512441D01*
X508663Y858026D01*
X508728Y858520D01*
Y883511D01*
X540147Y914929D01*
X653241D01*
Y874871D01*
D02*
G37*
G36*
X762529Y882253D02*
Y804312D01*
X761083Y802866D01*
X759206Y803643D01*
Y809244D01*
X753590D01*
Y802894D01*
X750090D01*
Y809244D01*
X745250D01*
Y809540D01*
X741210D01*
Y804500D01*
X737710D01*
Y809540D01*
X735909D01*
X735824Y811572D01*
X740249Y815997D01*
X740978Y817088D01*
X741235Y818376D01*
X741235Y818376D01*
Y839470D01*
X741235Y839470D01*
X740978Y840758D01*
X740249Y841849D01*
X740249Y841849D01*
X731359Y850739D01*
X730268Y851469D01*
X729234Y851674D01*
Y855500D01*
X722884D01*
Y859000D01*
X729234D01*
Y864616D01*
X728400D01*
Y868200D01*
X723360D01*
Y869950D01*
X721610D01*
Y875740D01*
X719675D01*
X718948Y877772D01*
X720760Y879260D01*
X722888Y881853D01*
X724470Y884811D01*
X725444Y888021D01*
X725772Y891360D01*
X725444Y894698D01*
X724470Y897909D01*
X722888Y900867D01*
X720760Y903460D01*
X718167Y905588D01*
X715209Y907170D01*
X711998Y908144D01*
X708660Y908472D01*
X705322Y908144D01*
X702111Y907170D01*
X699153Y905588D01*
X696560Y903460D01*
X694432Y900867D01*
X692850Y897909D01*
X691876Y894698D01*
X691548Y891360D01*
X691876Y888021D01*
X692850Y884811D01*
X694432Y881853D01*
X696560Y879260D01*
X698012Y878067D01*
X697412Y875931D01*
X696513Y875805D01*
X681963Y890356D01*
X682073Y890622D01*
X682361Y892810D01*
X682073Y894998D01*
X681229Y897036D01*
X679885Y898787D01*
X678135Y900130D01*
X676096Y900974D01*
X673909Y901262D01*
X671721Y900974D01*
X669683Y900130D01*
X667932Y898787D01*
X666589Y897036D01*
X665744Y894998D01*
X665456Y892810D01*
X665744Y890622D01*
X666589Y888584D01*
X667932Y886833D01*
X669683Y885490D01*
X671721Y884646D01*
X673909Y884358D01*
X676096Y884646D01*
X677553Y885249D01*
X684935Y877867D01*
X683757Y876209D01*
X681990Y876561D01*
X662702D01*
X662479Y876785D01*
Y914929D01*
X729853D01*
X762529Y882253D01*
D02*
G37*
G36*
X549142Y746515D02*
X549160Y746460D01*
X549158Y746403D01*
X549281Y746077D01*
X549385Y745745D01*
X549422Y745701D01*
X549442Y745647D01*
X549681Y745393D01*
X549904Y745126D01*
X549955Y745099D01*
X549994Y745058D01*
X550312Y744914D01*
X550620Y744753D01*
X550678Y744748D01*
X550730Y744724D01*
X615370Y729654D01*
X615626Y729646D01*
X615877Y729601D01*
X661667Y730431D01*
X661880Y730477D01*
X662098Y730484D01*
X717868Y743434D01*
X717908Y743452D01*
X717951Y743455D01*
X718274Y743617D01*
X718604Y743766D01*
X718634Y743798D01*
X718673Y743818D01*
X718909Y744091D01*
X719157Y744355D01*
X719172Y744396D01*
X719200Y744429D01*
X719314Y744772D01*
X719442Y745111D01*
X719440Y745154D01*
X719454Y745196D01*
X727003Y806154D01*
X729035Y806029D01*
Y780170D01*
X729035Y780170D01*
X729292Y778882D01*
X730021Y777791D01*
X731681Y776131D01*
X732772Y775402D01*
X734060Y775145D01*
X734180Y773470D01*
X744740D01*
Y779375D01*
X744751Y779465D01*
X746892Y780198D01*
X747221Y779869D01*
Y768993D01*
X698846Y720618D01*
X697230Y720831D01*
X695395Y720589D01*
X693685Y719881D01*
X692216Y718754D01*
X691089Y717285D01*
X690381Y715575D01*
X690139Y713740D01*
Y630698D01*
X690381Y628863D01*
X691089Y627152D01*
X692216Y625684D01*
X697243Y620658D01*
Y615672D01*
X696686Y614328D01*
X696398Y612140D01*
X696686Y609952D01*
X697530Y607914D01*
X698873Y606163D01*
X700624Y604820D01*
X702662Y603976D01*
X704850Y603688D01*
X707038Y603976D01*
X709076Y604820D01*
X710827Y606163D01*
X712170Y607914D01*
X713014Y609952D01*
X713302Y612140D01*
X713014Y614328D01*
X712170Y616366D01*
X711424Y617338D01*
Y623595D01*
X711182Y625430D01*
X710474Y627140D01*
X709347Y628608D01*
X704321Y633635D01*
Y713029D01*
X747896Y756604D01*
X748045Y756556D01*
X748394Y756362D01*
X749645Y755382D01*
X749470Y753449D01*
X749392Y753434D01*
X748935Y753244D01*
X748609Y753025D01*
X748265Y752796D01*
X747915Y752446D01*
X747689Y752107D01*
X747467Y751776D01*
X747277Y751319D01*
X747217Y751021D01*
X747202Y750969D01*
X747149Y750953D01*
X746852Y750893D01*
X746395Y750703D01*
X746065Y750482D01*
X745725Y750255D01*
X745375Y749905D01*
X745149Y749566D01*
X744928Y749236D01*
X744737Y748779D01*
X744671Y748451D01*
X744622Y748268D01*
X744524Y748220D01*
X744382Y748111D01*
X744332Y748087D01*
X744289Y748039D01*
X744036Y747885D01*
X743849Y747712D01*
X743724Y747541D01*
X743569Y747397D01*
X743473Y747262D01*
X743403Y747110D01*
X743301Y746977D01*
X743202Y746779D01*
X743166Y746645D01*
X743096Y746524D01*
X743033Y746341D01*
X743018Y746224D01*
X742971Y746116D01*
X742930Y745928D01*
X742929Y745907D01*
X742864Y745893D01*
X742631Y745790D01*
X742386Y745723D01*
X742175Y745618D01*
X741926Y745424D01*
X741660Y745252D01*
X741407Y745007D01*
X741267Y744805D01*
X741098Y744626D01*
X740983Y744446D01*
X740946Y744348D01*
X740881Y744265D01*
X740818Y744137D01*
X740796Y744056D01*
X740750Y743986D01*
X740696Y743854D01*
X740682Y743777D01*
X740644Y743708D01*
X740594Y743553D01*
X740589Y743503D01*
X740566Y743457D01*
X740519Y743281D01*
X740516Y743229D01*
X740496Y743182D01*
X740458Y743004D01*
X740457Y742953D01*
X740439Y742905D01*
X740409Y742725D01*
X740411Y742677D01*
X740396Y742631D01*
X740372Y742427D01*
X740375Y742395D01*
X740366Y742365D01*
X740346Y742137D01*
X740350Y742104D01*
X740342Y742073D01*
X740329Y741844D01*
X740335Y741804D01*
X740326Y741764D01*
X740320Y741421D01*
X740329Y741371D01*
X740321Y741321D01*
X740325Y741196D01*
X740313Y740946D01*
X740292Y740776D01*
X740078Y740733D01*
X739621Y740543D01*
X739291Y740322D01*
X738952Y740095D01*
X738602Y739745D01*
X738375Y739406D01*
X738154Y739076D01*
X737964Y738619D01*
X737904Y738322D01*
X737888Y738269D01*
X737836Y738253D01*
X737539Y738194D01*
X737082Y738004D01*
X736755Y737785D01*
X736412Y737556D01*
X736062Y737206D01*
X735835Y736867D01*
X735614Y736536D01*
X735424Y736079D01*
X735364Y735781D01*
X735348Y735729D01*
X735295Y735713D01*
X734998Y735653D01*
X734541Y735463D01*
X734211Y735242D01*
X733872Y735015D01*
X733522Y734665D01*
X733295Y734326D01*
X733074Y733996D01*
X732884Y733539D01*
X732824Y733242D01*
X732808Y733189D01*
X732756Y733173D01*
X732458Y733113D01*
X732001Y732923D01*
X731671Y732702D01*
X731332Y732475D01*
X730982Y732125D01*
X730755Y731786D01*
X730534Y731456D01*
X730344Y730999D01*
X730284Y730702D01*
X730268Y730649D01*
X730216Y730633D01*
X729919Y730574D01*
X729462Y730384D01*
X729135Y730165D01*
X728792Y729936D01*
X728442Y729585D01*
X728215Y729247D01*
X727994Y728916D01*
X727804Y728459D01*
X727744Y728161D01*
X727728Y728109D01*
X727675Y728093D01*
X727378Y728033D01*
X726921Y727843D01*
X726591Y727622D01*
X726252Y727395D01*
X725902Y727045D01*
X725675Y726706D01*
X725454Y726376D01*
X725264Y725919D01*
X725204Y725622D01*
X725200Y725609D01*
X725150Y725608D01*
X724961Y725567D01*
X724814Y725502D01*
X724655Y725474D01*
X724347Y725355D01*
X724186Y725253D01*
X724007Y725186D01*
X723866Y725099D01*
X723730Y724972D01*
X723570Y724877D01*
X723395Y724720D01*
X723228Y724497D01*
X723034Y724295D01*
X722916Y724110D01*
X722848Y723936D01*
X722596Y723859D01*
X722299Y723800D01*
X721842Y723610D01*
X721515Y723391D01*
X721172Y723162D01*
X720822Y722812D01*
X720595Y722473D01*
X720374Y722142D01*
X720184Y721685D01*
X720141Y721473D01*
X720123Y721470D01*
X719958Y721456D01*
X719803Y721448D01*
X719528Y721444D01*
X719350Y721446D01*
X719290Y721434D01*
X719230Y721444D01*
X718819Y721424D01*
X718740Y721405D01*
X718658Y721411D01*
X718251Y721360D01*
X718173Y721334D01*
X718092Y721334D01*
X717689Y721251D01*
X717617Y721221D01*
X717539Y721215D01*
X717273Y721139D01*
X717173Y721088D01*
X717063Y721067D01*
X716931Y721014D01*
X716861Y720968D01*
X716780Y720946D01*
X716652Y720882D01*
X716553Y720805D01*
X716437Y720757D01*
X716209Y720607D01*
X716047Y720447D01*
X715860Y720317D01*
X715696Y720147D01*
X715562Y719938D01*
X715397Y719752D01*
X715279Y719548D01*
X715194Y719303D01*
X715076Y719072D01*
X715012Y718845D01*
X715007Y718789D01*
X714976Y718779D01*
X714678Y718719D01*
X714221Y718529D01*
X713891Y718308D01*
X713552Y718081D01*
X713202Y717731D01*
X712975Y717392D01*
X712754Y717062D01*
X712564Y716605D01*
X712504Y716308D01*
X712478Y716223D01*
X712383Y716203D01*
X712333Y716170D01*
X712275Y716155D01*
X712000Y715946D01*
X711712Y715752D01*
X711679Y715702D01*
X711631Y715666D01*
X711313Y715307D01*
X711208Y715127D01*
X711070Y714970D01*
X710592Y714143D01*
X710502Y713880D01*
X710381Y713630D01*
X710139Y712705D01*
X710122Y712428D01*
X710071Y712156D01*
X710083Y711199D01*
X710126Y710995D01*
X710130Y710786D01*
X710172Y710592D01*
X710145Y710125D01*
X710147Y710116D01*
X710145Y710107D01*
X710073Y708612D01*
X710075Y708600D01*
X710072Y708588D01*
X710018Y707092D01*
X710020Y707080D01*
X710018Y707068D01*
X709980Y705572D01*
X709982Y705563D01*
X709980Y705554D01*
X709968Y704805D01*
X709969Y704799D01*
X709968Y704793D01*
X709866Y694607D01*
X709867Y694600D01*
X709866Y694593D01*
X709859Y692664D01*
X709859Y692664D01*
X709859Y692663D01*
X709848Y688805D01*
X709848Y688804D01*
X709848Y688803D01*
X709842Y684945D01*
X709842Y684944D01*
X709842Y684943D01*
X709839Y681085D01*
X709840Y681084D01*
X709839Y681083D01*
X709840Y679155D01*
Y644018D01*
X709998Y643226D01*
X710447Y642553D01*
X711119Y642104D01*
X711912Y641947D01*
X716992D01*
X717014Y641951D01*
X717036Y641947D01*
X717438Y641956D01*
X718244Y641946D01*
X719048Y641908D01*
X719848Y641844D01*
X720229Y641799D01*
X720321Y641523D01*
X720519Y641178D01*
X720777Y640883D01*
X721028Y640587D01*
X721339Y640339D01*
X721686Y640161D01*
X722030Y639977D01*
X722411Y639863D01*
X722704Y639834D01*
X722823Y639809D01*
X722825Y639809D01*
X722848Y639804D01*
X722991Y639774D01*
X723007Y639774D01*
X723046Y639767D01*
X723075Y639767D01*
X723101Y639757D01*
X723546Y639685D01*
X723584Y639687D01*
X723619Y639675D01*
X724067Y639619D01*
X724104Y639622D01*
X724140Y639611D01*
X724589Y639571D01*
X724617Y639574D01*
X724644Y639567D01*
X724870Y639553D01*
X724871Y639553D01*
X724873Y639553D01*
X725239Y639531D01*
X725248Y639532D01*
X725258Y639530D01*
X725989Y639493D01*
X726002Y639495D01*
X726015Y639491D01*
X726747Y639464D01*
X726760Y639465D01*
X726773Y639463D01*
X727505Y639444D01*
X727514Y639445D01*
X727524Y639443D01*
X727890Y639437D01*
X727891Y639438D01*
X727893Y639437D01*
X728431Y639429D01*
X728435Y639430D01*
X728438Y639429D01*
X729515Y639417D01*
X729520Y639418D01*
X729525Y639417D01*
X730602Y639409D01*
X730606Y639410D01*
X730611Y639409D01*
X731688Y639406D01*
X731691Y639407D01*
X731695Y639406D01*
X732233Y639407D01*
X732244Y639409D01*
X732255Y639407D01*
X733145Y639417D01*
X734921Y639410D01*
X736697Y639375D01*
X738472Y639312D01*
X739355Y639267D01*
X739544Y639257D01*
X739919Y639224D01*
X740294Y639177D01*
X740547Y639136D01*
X740636Y638925D01*
X740846Y638615D01*
X741047Y638300D01*
X741279Y638057D01*
X741586Y637843D01*
X741886Y637619D01*
X742189Y637475D01*
X742462Y637406D01*
X742725Y637304D01*
X742803Y637291D01*
X742877Y637271D01*
X742914Y637269D01*
X742948Y637254D01*
X743268Y637182D01*
X743317Y637181D01*
X743364Y637163D01*
X743687Y637106D01*
X743736Y637107D01*
X743783Y637091D01*
X744109Y637049D01*
X744146Y637052D01*
X744182Y637041D01*
X744345Y637026D01*
X744349Y637027D01*
X744353Y637025D01*
X744611Y637003D01*
X744625Y637004D01*
X744639Y637000D01*
X745154Y636962D01*
X745173Y636964D01*
X745191Y636959D01*
X745707Y636930D01*
X745726Y636933D01*
X745744Y636928D01*
X746261Y636908D01*
X746275Y636910D01*
X746288Y636907D01*
X746547Y636901D01*
X746549Y636901D01*
X746552Y636900D01*
X746925Y636892D01*
X746931Y636893D01*
X746936Y636892D01*
X747683Y636878D01*
X747690Y636879D01*
X747698Y636878D01*
X748445Y636870D01*
X748452Y636871D01*
X748459Y636870D01*
X749206Y636866D01*
X749211Y636867D01*
X749217Y636866D01*
X749590Y636867D01*
X749606Y636870D01*
X749621Y636867D01*
X750230Y636877D01*
X751446Y636868D01*
X752663Y636832D01*
X753878Y636768D01*
X754482Y636722D01*
X754589Y636713D01*
X754818Y636684D01*
X754904Y636669D01*
X754978Y636475D01*
X755171Y636167D01*
X755352Y635851D01*
X755561Y635611D01*
X755849Y635389D01*
X756128Y635155D01*
X756407Y635003D01*
X756668Y634921D01*
X756917Y634806D01*
X757020Y634781D01*
X757109Y634754D01*
X757150Y634751D01*
X757187Y634733D01*
X757471Y634661D01*
X757525Y634658D01*
X757576Y634637D01*
X757863Y634580D01*
X757917Y634580D01*
X757969Y634561D01*
X758259Y634519D01*
X758300Y634521D01*
X758339Y634509D01*
X758485Y634493D01*
X758491Y634493D01*
X758496Y634492D01*
X758723Y634469D01*
X758739Y634470D01*
X758754Y634466D01*
X759208Y634427D01*
X759229Y634429D01*
X759250Y634423D01*
X759704Y634394D01*
X759725Y634396D01*
X759746Y634391D01*
X760201Y634370D01*
X760217Y634373D01*
X760233Y634369D01*
X760461Y634362D01*
X760464Y634363D01*
X760467Y634362D01*
X760793Y634353D01*
X760799Y634354D01*
X760806Y634353D01*
X761459Y634339D01*
X761467Y634340D01*
X761476Y634338D01*
X762128Y634330D01*
X762137Y634331D01*
X762145Y634330D01*
X762798Y634326D01*
X762804Y634328D01*
X762811Y634326D01*
X763137Y634327D01*
X763154Y634330D01*
X763172Y634327D01*
X763699Y634336D01*
X764753Y634327D01*
X765806Y634291D01*
X766859Y634226D01*
X767380Y634181D01*
X767463Y634173D01*
X767595Y634153D01*
X767678Y633935D01*
X767871Y633627D01*
X768052Y633311D01*
X768261Y633071D01*
X768549Y632849D01*
X768828Y632615D01*
X769107Y632463D01*
X769368Y632380D01*
X769617Y632266D01*
X769720Y632241D01*
X769809Y632215D01*
X769850Y632211D01*
X769887Y632193D01*
X770171Y632121D01*
X770225Y632118D01*
X770275Y632097D01*
X770563Y632040D01*
X770617Y632039D01*
X770669Y632021D01*
X770959Y631979D01*
X771000Y631981D01*
X771039Y631968D01*
X771185Y631953D01*
X771191Y631953D01*
X771196Y631952D01*
X771423Y631929D01*
X771439Y631930D01*
X771454Y631926D01*
X771908Y631887D01*
X771929Y631889D01*
X771950Y631884D01*
X772404Y631853D01*
X772426Y631856D01*
X772446Y631851D01*
X772902Y631830D01*
X772917Y631833D01*
X772933Y631829D01*
X773161Y631822D01*
X773164Y631823D01*
X773167Y631822D01*
X773493Y631813D01*
X773500Y631814D01*
X773506Y631813D01*
X774159Y631799D01*
X774167Y631800D01*
X774175Y631799D01*
X774828Y631790D01*
X774837Y631791D01*
X774845Y631790D01*
X775498Y631786D01*
X775504Y631788D01*
X775511Y631786D01*
X775837Y631787D01*
X775854Y631790D01*
X775872Y631787D01*
X776399Y631796D01*
X777453Y631787D01*
X778506Y631751D01*
X779559Y631686D01*
X780079Y631641D01*
X780163Y631633D01*
X780283Y631615D01*
X780309Y631534D01*
X780474Y631236D01*
X780621Y630927D01*
X780795Y630693D01*
X781048Y630465D01*
X781286Y630221D01*
X781527Y630056D01*
X781764Y629954D01*
X781985Y629820D01*
X782235Y629728D01*
X782283Y629720D01*
X782326Y629697D01*
X782556Y629625D01*
X782619Y629618D01*
X782676Y629591D01*
X782911Y629532D01*
X782990Y629528D01*
X783064Y629500D01*
X783420Y629439D01*
X783462Y629440D01*
X783500Y629427D01*
X783681Y629403D01*
X783701Y629404D01*
X783720Y629398D01*
X784081Y629358D01*
X784108Y629360D01*
X784134Y629353D01*
X784496Y629321D01*
X784522Y629324D01*
X784548Y629318D01*
X784911Y629295D01*
X784931Y629298D01*
X784951Y629293D01*
X785132Y629286D01*
X785137Y629286D01*
X785142Y629285D01*
X785398Y629276D01*
X785406Y629277D01*
X785415Y629275D01*
X785926Y629260D01*
X785937Y629262D01*
X785948Y629260D01*
X786460Y629250D01*
X786471Y629253D01*
X786483Y629250D01*
X786994Y629246D01*
X787003Y629248D01*
X787011Y629246D01*
X787267Y629247D01*
X787288Y629251D01*
X787310Y629247D01*
X787712Y629256D01*
X788517Y629246D01*
X789321Y629208D01*
X790121Y629144D01*
X790429Y629108D01*
X790449Y629040D01*
X790604Y628748D01*
X790738Y628445D01*
X790901Y628213D01*
X791140Y627985D01*
X791362Y627739D01*
X791590Y627571D01*
X791823Y627461D01*
X792039Y627318D01*
X792274Y627222D01*
X792334Y627210D01*
X792388Y627179D01*
X792600Y627106D01*
X792666Y627097D01*
X792726Y627067D01*
X792943Y627008D01*
X793026Y627003D01*
X793103Y626971D01*
X793434Y626909D01*
X793478Y626909D01*
X793520Y626894D01*
X793685Y626871D01*
X793707Y626872D01*
X793728Y626865D01*
X794058Y626824D01*
X794088Y626826D01*
X794115Y626817D01*
X794447Y626786D01*
X794476Y626788D01*
X794504Y626781D01*
X794837Y626758D01*
X794858Y626761D01*
X794879Y626755D01*
X795046Y626748D01*
X795051Y626748D01*
X795057Y626747D01*
X795289Y626737D01*
X795298Y626739D01*
X795308Y626736D01*
X795772Y626721D01*
X795785Y626723D01*
X795798Y626720D01*
X796262Y626711D01*
X796275Y626713D01*
X796288Y626710D01*
X796752Y626707D01*
X796762Y626708D01*
X796771Y626707D01*
X797004Y626707D01*
X797027Y626711D01*
X797050Y626707D01*
X797410Y626716D01*
X798129Y626705D01*
X798848Y626668D01*
X799562Y626603D01*
X799732Y626581D01*
X799862Y626315D01*
X799969Y626029D01*
X800109Y625803D01*
X800318Y625579D01*
X800504Y625336D01*
X800704Y625161D01*
X800923Y625034D01*
X801120Y624877D01*
X801323Y624772D01*
X801407Y624748D01*
X801480Y624700D01*
X801656Y624627D01*
X801729Y624612D01*
X801794Y624575D01*
X801975Y624515D01*
X802067Y624504D01*
X802152Y624465D01*
X802430Y624399D01*
X802483Y624397D01*
X802532Y624377D01*
X802666Y624352D01*
X802692Y624353D01*
X802718Y624344D01*
X802987Y624301D01*
X803022Y624302D01*
X803055Y624291D01*
X803326Y624258D01*
X803361Y624260D01*
X803395Y624250D01*
X803666Y624226D01*
X803693Y624229D01*
X803718Y624222D01*
X803854Y624213D01*
X803862Y624214D01*
X803870Y624212D01*
X804054Y624201D01*
X804068Y624203D01*
X804081Y624200D01*
X804450Y624183D01*
X804467Y624186D01*
X804485Y624182D01*
X804855Y624172D01*
X804872Y624175D01*
X804889Y624171D01*
X805259Y624167D01*
X805272Y624169D01*
X805285Y624166D01*
X805470Y624167D01*
X805497Y624172D01*
X805524Y624168D01*
X805796Y624175D01*
X806339Y624163D01*
X806882Y624126D01*
X807342Y624072D01*
X807347Y624051D01*
X807482Y623775D01*
X807589Y623489D01*
X807729Y623263D01*
X807938Y623039D01*
X808124Y622796D01*
X808324Y622621D01*
X808543Y622495D01*
X808740Y622337D01*
X808943Y622232D01*
X809027Y622208D01*
X809100Y622160D01*
X809276Y622087D01*
X809349Y622072D01*
X809414Y622035D01*
X809595Y621975D01*
X809687Y621964D01*
X809772Y621925D01*
X810050Y621859D01*
X810103Y621857D01*
X810152Y621837D01*
X810286Y621813D01*
X810312Y621813D01*
X810338Y621804D01*
X810607Y621761D01*
X810642Y621762D01*
X810675Y621751D01*
X810946Y621718D01*
X810981Y621720D01*
X811015Y621710D01*
X811286Y621686D01*
X811313Y621688D01*
X811338Y621682D01*
X811474Y621673D01*
X811482Y621674D01*
X811490Y621672D01*
X811674Y621661D01*
X811688Y621663D01*
X811701Y621660D01*
X812070Y621643D01*
X812087Y621646D01*
X812105Y621642D01*
X812475Y621632D01*
X812492Y621635D01*
X812509Y621631D01*
X812879Y621627D01*
X812892Y621629D01*
X812905Y621627D01*
X813090Y621627D01*
X813117Y621632D01*
X813144Y621628D01*
X813416Y621635D01*
X813959Y621623D01*
X814502Y621586D01*
X814962Y621532D01*
X814967Y621511D01*
X815102Y621235D01*
X815209Y620948D01*
X815349Y620723D01*
X815558Y620499D01*
X815744Y620256D01*
X815944Y620081D01*
X816163Y619954D01*
X816360Y619797D01*
X816563Y619692D01*
X816647Y619668D01*
X816720Y619620D01*
X816896Y619547D01*
X816969Y619532D01*
X817034Y619495D01*
X817215Y619435D01*
X817307Y619423D01*
X817392Y619385D01*
X817670Y619319D01*
X817723Y619317D01*
X817772Y619297D01*
X817906Y619272D01*
X817933Y619273D01*
X817958Y619264D01*
X818227Y619221D01*
X818262Y619222D01*
X818295Y619211D01*
X818566Y619178D01*
X818601Y619180D01*
X818635Y619170D01*
X818906Y619146D01*
X818933Y619148D01*
X818958Y619142D01*
X819094Y619133D01*
X819102Y619134D01*
X819110Y619132D01*
X819294Y619121D01*
X819308Y619123D01*
X819321Y619120D01*
X819690Y619103D01*
X819707Y619106D01*
X819725Y619102D01*
X820095Y619092D01*
X820112Y619095D01*
X820129Y619091D01*
X820499Y619087D01*
X820512Y619089D01*
X820525Y619086D01*
X820710Y619087D01*
X820737Y619092D01*
X820764Y619087D01*
X821036Y619095D01*
X821579Y619083D01*
X822122Y619046D01*
X822582Y618992D01*
X822588Y618971D01*
X822722Y618695D01*
X822829Y618409D01*
X822969Y618183D01*
X823178Y617959D01*
X823364Y617716D01*
X823564Y617541D01*
X823783Y617415D01*
X823980Y617257D01*
X824183Y617152D01*
X824267Y617128D01*
X824340Y617080D01*
X824516Y617007D01*
X824589Y616992D01*
X824654Y616955D01*
X824835Y616895D01*
X824927Y616884D01*
X825012Y616845D01*
X825290Y616779D01*
X825343Y616777D01*
X825392Y616757D01*
X825526Y616732D01*
X825553Y616733D01*
X825578Y616724D01*
X825847Y616681D01*
X825882Y616682D01*
X825915Y616671D01*
X826186Y616638D01*
X826221Y616640D01*
X826255Y616630D01*
X826526Y616606D01*
X826553Y616609D01*
X826578Y616602D01*
X826714Y616593D01*
X826722Y616594D01*
X826730Y616592D01*
X826914Y616581D01*
X826928Y616583D01*
X826941Y616580D01*
X827310Y616563D01*
X827327Y616566D01*
X827345Y616562D01*
X827715Y616552D01*
X827732Y616555D01*
X827749Y616551D01*
X828119Y616547D01*
X828132Y616549D01*
X828145Y616547D01*
X828330Y616547D01*
X828357Y616552D01*
X828384Y616548D01*
X828656Y616555D01*
X829199Y616543D01*
X829742Y616506D01*
X830202Y616452D01*
X830208Y616431D01*
X830342Y616155D01*
X830449Y615868D01*
X830589Y615643D01*
X830798Y615419D01*
X830984Y615176D01*
X831184Y615001D01*
X831403Y614874D01*
X831600Y614717D01*
X831803Y614612D01*
X831887Y614588D01*
X831960Y614540D01*
X832136Y614467D01*
X832209Y614452D01*
X832274Y614415D01*
X832455Y614355D01*
X832547Y614343D01*
X832632Y614305D01*
X832910Y614239D01*
X832963Y614237D01*
X833012Y614217D01*
X833146Y614193D01*
X833173Y614193D01*
X833198Y614184D01*
X833467Y614141D01*
X833502Y614142D01*
X833535Y614131D01*
X833806Y614098D01*
X833841Y614100D01*
X833875Y614090D01*
X834146Y614066D01*
X834173Y614068D01*
X834198Y614062D01*
X834334Y614053D01*
X834342Y614054D01*
X834350Y614052D01*
X834534Y614041D01*
X834548Y614043D01*
X834560Y614040D01*
X834930Y614023D01*
X834948Y614026D01*
X834965Y614022D01*
X835335Y614012D01*
X835352Y614015D01*
X835369Y614011D01*
X835739Y614007D01*
X835752Y614009D01*
X835765Y614007D01*
X835950Y614007D01*
X835955Y614008D01*
X835961Y614007D01*
X836202Y614008D01*
X836683Y613992D01*
X837164Y613957D01*
X837643Y613903D01*
X837950Y613856D01*
X838091Y613829D01*
X838211Y613802D01*
X838243Y613765D01*
X838398Y613529D01*
X838527Y613398D01*
X838752Y613246D01*
X838756Y613239D01*
X838772Y613230D01*
X838974Y613054D01*
X839133Y612963D01*
X839297Y612907D01*
X839445Y612817D01*
X839587Y612765D01*
X839708Y612718D01*
X839755Y612710D01*
X839797Y612686D01*
X839935Y612640D01*
X839983Y612634D01*
X840025Y612612D01*
X840165Y612573D01*
X840210Y612569D01*
X840250Y612550D01*
X840407Y612513D01*
X840439Y612512D01*
X840469Y612499D01*
X840642Y612464D01*
X840676Y612463D01*
X840707Y612451D01*
X840882Y612421D01*
X840915Y612422D01*
X840947Y612411D01*
X841122Y612386D01*
X841154Y612388D01*
X841186Y612378D01*
X841373Y612358D01*
X841401Y612360D01*
X841428Y612353D01*
X841628Y612336D01*
X841657Y612340D01*
X841685Y612332D01*
X841886Y612322D01*
X841922Y612327D01*
X841957Y612319D01*
X842258Y612313D01*
X842310Y612323D01*
X842363Y612314D01*
X842488Y612318D01*
X842738Y612306D01*
X842884Y612288D01*
X842974Y612084D01*
X843041Y611839D01*
X843146Y611628D01*
X843340Y611378D01*
X843512Y611113D01*
X843757Y610859D01*
X843960Y610720D01*
X844138Y610550D01*
X844319Y610436D01*
X844417Y610398D01*
X844499Y610334D01*
X844627Y610270D01*
X844708Y610248D01*
X844778Y610202D01*
X844910Y610149D01*
X844987Y610134D01*
X845056Y610096D01*
X845211Y610047D01*
X845262Y610041D01*
X845308Y610019D01*
X845484Y609972D01*
X845535Y609969D01*
X845582Y609948D01*
X845760Y609910D01*
X845811Y609910D01*
X845860Y609891D01*
X846039Y609862D01*
X846087Y609864D01*
X846133Y609849D01*
X846337Y609825D01*
X846369Y609828D01*
X846399Y609819D01*
X846628Y609799D01*
X846660Y609803D01*
X846691Y609794D01*
X846920Y609782D01*
X846960Y609787D01*
X847000Y609779D01*
X847343Y609773D01*
X847393Y609782D01*
X847443Y609774D01*
X847568Y609778D01*
X847818Y609766D01*
X847971Y609747D01*
X848037Y609595D01*
X848091Y609371D01*
X848186Y609168D01*
X848355Y608936D01*
X848497Y608685D01*
X848717Y608432D01*
X848895Y608293D01*
X849046Y608125D01*
X849200Y608010D01*
X849332Y607948D01*
X849444Y607854D01*
X849668Y607731D01*
X849784Y607695D01*
X849886Y607628D01*
X850016Y607575D01*
X850075Y607564D01*
X850126Y607535D01*
X850271Y607485D01*
X850330Y607478D01*
X850383Y607451D01*
X850530Y607410D01*
X850590Y607406D01*
X850644Y607382D01*
X850794Y607349D01*
X850850Y607348D01*
X850904Y607328D01*
X851069Y607302D01*
X851113Y607303D01*
X851154Y607290D01*
X851335Y607268D01*
X851378Y607272D01*
X851420Y607260D01*
X851601Y607246D01*
X851656Y607252D01*
X851709Y607240D01*
X851982Y607233D01*
X852038Y607243D01*
X852093Y607234D01*
X852160Y607235D01*
X852186Y607234D01*
X852287Y607004D01*
X852354Y606759D01*
X852460Y606548D01*
X852654Y606298D01*
X852825Y606033D01*
X853071Y605779D01*
X853273Y605640D01*
X853451Y605470D01*
X853632Y605356D01*
X853730Y605318D01*
X853813Y605254D01*
X853940Y605190D01*
X854021Y605168D01*
X854091Y605122D01*
X854224Y605069D01*
X854301Y605054D01*
X854370Y605016D01*
X854524Y604967D01*
X854575Y604961D01*
X854621Y604939D01*
X854797Y604892D01*
X854848Y604889D01*
X854895Y604868D01*
X855073Y604830D01*
X855125Y604829D01*
X855173Y604811D01*
X855353Y604782D01*
X855401Y604784D01*
X855446Y604769D01*
X855650Y604745D01*
X855682Y604748D01*
X855713Y604739D01*
X855941Y604719D01*
X855973Y604723D01*
X856005Y604714D01*
X856233Y604702D01*
X856274Y604707D01*
X856313Y604699D01*
X856657Y604693D01*
X856706Y604702D01*
X856756Y604694D01*
X856881Y604698D01*
X857132Y604686D01*
X857277Y604668D01*
X857367Y604464D01*
X857434Y604219D01*
X857540Y604008D01*
X857734Y603758D01*
X857905Y603493D01*
X858151Y603239D01*
X858353Y603100D01*
X858531Y602930D01*
X858712Y602816D01*
X858810Y602778D01*
X858893Y602714D01*
X859020Y602650D01*
X859101Y602628D01*
X859171Y602582D01*
X859304Y602529D01*
X859381Y602514D01*
X859450Y602476D01*
X859604Y602427D01*
X859655Y602421D01*
X859701Y602399D01*
X859877Y602352D01*
X859928Y602349D01*
X859975Y602328D01*
X860153Y602290D01*
X860205Y602290D01*
X860253Y602271D01*
X860433Y602242D01*
X860481Y602244D01*
X860526Y602229D01*
X860730Y602205D01*
X860762Y602208D01*
X860793Y602199D01*
X861021Y602179D01*
X861053Y602183D01*
X861085Y602174D01*
X861313Y602162D01*
X861354Y602167D01*
X861393Y602159D01*
X861737Y602153D01*
X861786Y602162D01*
X861836Y602154D01*
X861961Y602158D01*
X862212Y602146D01*
X862357Y602128D01*
X862447Y601924D01*
X862514Y601679D01*
X862620Y601468D01*
X862814Y601218D01*
X862985Y600953D01*
X863231Y600699D01*
X863433Y600560D01*
X863611Y600390D01*
X863792Y600276D01*
X863890Y600238D01*
X863973Y600174D01*
X864100Y600110D01*
X864181Y600088D01*
X864251Y600042D01*
X864384Y599989D01*
X864461Y599974D01*
X864530Y599936D01*
X864684Y599887D01*
X864735Y599881D01*
X864781Y599859D01*
X864957Y599812D01*
X865008Y599809D01*
X865055Y599788D01*
X865233Y599750D01*
X865285Y599749D01*
X865333Y599731D01*
X865513Y599702D01*
X865561Y599704D01*
X865606Y599689D01*
X865810Y599665D01*
X865842Y599668D01*
X865873Y599659D01*
X866101Y599639D01*
X866133Y599642D01*
X866165Y599634D01*
X866393Y599622D01*
X866434Y599627D01*
X866473Y599619D01*
X866817Y599613D01*
X866866Y599622D01*
X866916Y599614D01*
X867041Y599618D01*
X867291Y599606D01*
X867437Y599588D01*
X867527Y599384D01*
X867594Y599139D01*
X867700Y598928D01*
X867894Y598678D01*
X868065Y598413D01*
X868311Y598159D01*
X868513Y598020D01*
X868691Y597850D01*
X868872Y597736D01*
X868970Y597698D01*
X869053Y597634D01*
X869180Y597570D01*
X869261Y597548D01*
X869331Y597502D01*
X869464Y597449D01*
X869541Y597434D01*
X869610Y597396D01*
X869764Y597347D01*
X869815Y597341D01*
X869861Y597319D01*
X870037Y597272D01*
X870088Y597269D01*
X870135Y597248D01*
X870313Y597210D01*
X870365Y597210D01*
X870413Y597191D01*
X870593Y597162D01*
X870641Y597164D01*
X870686Y597149D01*
X870890Y597125D01*
X870922Y597128D01*
X870953Y597119D01*
X871181Y597099D01*
X871213Y597103D01*
X871245Y597094D01*
X871473Y597082D01*
X871514Y597087D01*
X871553Y597079D01*
X871897Y597073D01*
X871946Y597082D01*
X871996Y597074D01*
X872121Y597078D01*
X872372Y597066D01*
X872541Y597045D01*
X872584Y596831D01*
X872774Y596374D01*
X872994Y596046D01*
X873222Y595705D01*
X873572Y595355D01*
X873904Y595133D01*
X874241Y594907D01*
X874698Y594717D01*
X874995Y594657D01*
X875080Y594631D01*
X875098Y594542D01*
X875099Y594539D01*
X875100Y594537D01*
X875322Y594207D01*
X875547Y593869D01*
X879061Y590355D01*
X879061Y590355D01*
X879733Y589906D01*
X880526Y589748D01*
X882605Y589748D01*
X882670Y589650D01*
X883020Y589300D01*
X883357Y589075D01*
X883690Y588852D01*
X884147Y588662D01*
X884445Y588602D01*
X884647Y588541D01*
X885727Y588132D01*
X886095Y588071D01*
X886460Y587998D01*
X1120625Y587998D01*
X1121310Y585966D01*
Y568190D01*
X1159370D01*
Y585966D01*
X1159370Y586250D01*
X1160055Y587998D01*
X1164388D01*
Y558652D01*
X1162356Y558248D01*
X1161818Y559547D01*
X1159966Y561961D01*
X1157552Y563813D01*
X1154741Y564978D01*
X1151725Y565375D01*
X1130775D01*
X1127759Y564978D01*
X1124948Y563813D01*
X1122534Y561961D01*
X1121651Y560811D01*
X1104740D01*
X1102905Y560569D01*
X1101195Y559861D01*
X1099726Y558734D01*
X1099103Y558111D01*
X1079977D01*
X1067924Y570164D01*
X1066455Y571291D01*
X1064745Y571999D01*
X1062910Y572241D01*
X1005590D01*
X1003755Y571999D01*
X1002045Y571291D01*
X1000576Y570164D01*
X979646Y549234D01*
X979272Y549184D01*
X977234Y548340D01*
X975483Y546997D01*
X974140Y545246D01*
X973296Y543208D01*
X973008Y541020D01*
X973296Y538832D01*
X974140Y536794D01*
X975483Y535043D01*
X977234Y533700D01*
X979272Y532856D01*
X981460Y532568D01*
X983648Y532856D01*
X985686Y533700D01*
X987437Y535043D01*
X988780Y536794D01*
X989624Y538832D01*
X989673Y539206D01*
X998162Y547695D01*
X999790Y546516D01*
X998946Y544478D01*
X998658Y542290D01*
X998946Y540102D01*
X999790Y538064D01*
X1001133Y536313D01*
X1002884Y534970D01*
X1004922Y534126D01*
X1007110Y533838D01*
X1009298Y534126D01*
X1011336Y534970D01*
X1011635Y535199D01*
X1045765D01*
X1046064Y534970D01*
X1048102Y534126D01*
X1050290Y533838D01*
X1052478Y534126D01*
X1054516Y534970D01*
X1056267Y536313D01*
X1057610Y538064D01*
X1058454Y540102D01*
X1058742Y542290D01*
X1058454Y544478D01*
X1057610Y546516D01*
X1056267Y548267D01*
X1054516Y549610D01*
X1052478Y550454D01*
X1050290Y550742D01*
X1048102Y550454D01*
X1046064Y549610D01*
X1045765Y549381D01*
X1011635D01*
X1011336Y549610D01*
X1009298Y550454D01*
X1007110Y550742D01*
X1004922Y550454D01*
X1002884Y549610D01*
X1001705Y551238D01*
X1008527Y558059D01*
X1059973D01*
X1070010Y548022D01*
Y543990D01*
X1076579D01*
X1077040Y543929D01*
X1102040D01*
X1102501Y543990D01*
X1109070D01*
Y546629D01*
X1121651D01*
X1122534Y545479D01*
X1124948Y543627D01*
X1127759Y542462D01*
X1128977Y542302D01*
Y540252D01*
X1127625Y540075D01*
X1124690Y538859D01*
X1122170Y536925D01*
X1120236Y534405D01*
X1119020Y531470D01*
X1118836Y530070D01*
X1141250D01*
Y528320D01*
X1143000D01*
Y516151D01*
X1151725D01*
X1154875Y516566D01*
X1157810Y517781D01*
X1160330Y519715D01*
X1162264Y522235D01*
X1162356Y522459D01*
X1164388Y522055D01*
Y462199D01*
X1163150Y460680D01*
X1162356Y460680D01*
X1158118D01*
X1156211Y462587D01*
Y471509D01*
X1156239Y471650D01*
Y476650D01*
X1155887Y478418D01*
X1154886Y479916D01*
X1153388Y480917D01*
X1151620Y481269D01*
X1136620D01*
X1136479Y481241D01*
X1117061D01*
X1116920Y481269D01*
X1101920D01*
X1100153Y480917D01*
X1098654Y479916D01*
X1097653Y478418D01*
X1097301Y476650D01*
Y471650D01*
X1097653Y469883D01*
X1098654Y468384D01*
X1100153Y467383D01*
X1101920Y467031D01*
X1116920D01*
X1117061Y467059D01*
X1136479D01*
X1136620Y467031D01*
X1142029D01*
Y459650D01*
X1142271Y457815D01*
X1142979Y456105D01*
X1144106Y454636D01*
X1148090Y450652D01*
Y445620D01*
X1148529D01*
Y430680D01*
X1148090D01*
Y425648D01*
X1139840Y417398D01*
X1137808Y418240D01*
Y441430D01*
X1137340Y443783D01*
X1136007Y445778D01*
X1135025Y446434D01*
Y446950D01*
X1134769Y448238D01*
X1134039Y449329D01*
X1134039Y449329D01*
X1129839Y453529D01*
X1128748Y454258D01*
X1128010Y454405D01*
X1126986Y456060D01*
X1126959Y456148D01*
X1126920Y456547D01*
X1127239Y458150D01*
X1126887Y459917D01*
X1125886Y461416D01*
X1124388Y462417D01*
X1122620Y462769D01*
X1120853Y462417D01*
X1119354Y461416D01*
X1118353Y459917D01*
X1118001Y458150D01*
X1118188Y457212D01*
X1116898Y455180D01*
X1104498D01*
X1078509Y481169D01*
X1077418Y481898D01*
X1076130Y482155D01*
X1076130Y482155D01*
X1019119D01*
Y484525D01*
X1018847Y485893D01*
X1018072Y487052D01*
X1016913Y487827D01*
X1015545Y488099D01*
X1012595D01*
X1011227Y487827D01*
X1010068Y487052D01*
X1009293Y485893D01*
X1009021Y484525D01*
Y474875D01*
X1009293Y473507D01*
X1010068Y472348D01*
X1011227Y471573D01*
X1012595Y471301D01*
X1015545D01*
X1016913Y471573D01*
X1018072Y472348D01*
X1018847Y473507D01*
X1019119Y474875D01*
Y475425D01*
X1074736D01*
X1099543Y450619D01*
X1099263Y448587D01*
X1014384D01*
X1013999Y449130D01*
X1014260Y450099D01*
X1014988Y451250D01*
X1016502Y451551D01*
X1018161Y452659D01*
X1019269Y454318D01*
X1019658Y456275D01*
Y458350D01*
X1012070D01*
Y460100D01*
X1010320D01*
Y469038D01*
X1009595D01*
X1007638Y468649D01*
X1005665Y469775D01*
X1005512Y470004D01*
X1000127Y475389D01*
Y478655D01*
X1000127Y478655D01*
X1000119Y478698D01*
Y484525D01*
X999847Y485893D01*
X999072Y487052D01*
X997913Y487827D01*
X996545Y488099D01*
X993595D01*
X992227Y487827D01*
X991068Y487052D01*
X990293Y485893D01*
X990021Y484525D01*
Y477087D01*
X971892D01*
X955287Y493692D01*
X953985Y494562D01*
X952450Y494867D01*
X936510D01*
Y499060D01*
X917034D01*
X916503Y499448D01*
X916477Y499828D01*
X918168Y501700D01*
X936510D01*
Y511760D01*
X913450D01*
X913130Y510095D01*
X911842Y509838D01*
X910907Y509213D01*
X910287Y509356D01*
X908875Y510107D01*
Y516541D01*
X908618Y517828D01*
X907889Y518920D01*
X907889Y518920D01*
X881910Y544899D01*
X880818Y545629D01*
X879530Y545885D01*
X879530Y545885D01*
X831338D01*
X831205Y547917D01*
X832082Y548032D01*
X835317Y549372D01*
X838096Y551504D01*
X840228Y554283D01*
X841568Y557518D01*
X842025Y560990D01*
X841568Y564462D01*
X840228Y567697D01*
X838096Y570476D01*
X835317Y572607D01*
X832082Y573948D01*
X828610Y574405D01*
X825138Y573948D01*
X821903Y572607D01*
X819124Y570476D01*
X816992Y567697D01*
X815652Y564462D01*
X815195Y560990D01*
X815652Y557518D01*
X816992Y554283D01*
X819124Y551504D01*
X821903Y549372D01*
X825138Y548032D01*
X826015Y547917D01*
X825882Y545885D01*
X817774D01*
X781875Y581784D01*
Y584830D01*
X786920D01*
Y600070D01*
Y615310D01*
X783369D01*
X781875Y616452D01*
X781619Y617740D01*
X780889Y618831D01*
X780889Y618832D01*
X775682Y624039D01*
X774590Y624768D01*
X773302Y625025D01*
X773302Y625025D01*
X753110D01*
X751822Y624768D01*
X750731Y624039D01*
X741492Y614800D01*
X729490D01*
Y585340D01*
X744665D01*
Y560200D01*
X729490D01*
Y545884D01*
X721014D01*
X719669Y546441D01*
X717482Y546729D01*
X715294Y546441D01*
X713255Y545597D01*
X711505Y544254D01*
X710162Y542503D01*
X709605Y541158D01*
X704191Y535745D01*
X683514D01*
Y539270D01*
X677164D01*
Y541020D01*
X675414D01*
Y548386D01*
X670814D01*
Y544305D01*
X668937Y543527D01*
X667256Y545208D01*
Y547876D01*
X663198D01*
X661416Y548111D01*
X660423Y547980D01*
X658935Y549298D01*
X659335Y551080D01*
X662650D01*
Y559245D01*
X672086D01*
Y555754D01*
X683766D01*
Y569466D01*
X672086D01*
Y565975D01*
X662650D01*
Y574140D01*
X647590D01*
Y551080D01*
X649820D01*
X650661Y549048D01*
X648342Y546729D01*
X647570Y546787D01*
X645994Y547254D01*
X645509Y547979D01*
X645509Y547979D01*
X637650Y555838D01*
Y574140D01*
X622590D01*
Y565975D01*
X611884D01*
Y569466D01*
X600204D01*
Y555754D01*
X611884D01*
Y559245D01*
X622590D01*
Y551080D01*
X632892D01*
X639765Y544206D01*
Y526900D01*
X634170D01*
Y526390D01*
X612947D01*
X600233Y539104D01*
X600410Y539334D01*
X601254Y541372D01*
X601542Y543560D01*
X601254Y545748D01*
X600410Y547786D01*
X599067Y549537D01*
X597316Y550880D01*
X595278Y551724D01*
X593090Y552012D01*
X590902Y551724D01*
X588864Y550880D01*
X587113Y549537D01*
X585770Y547786D01*
X585329Y546721D01*
X583048Y546356D01*
X582557Y546997D01*
X580806Y548340D01*
X578768Y549184D01*
X576580Y549472D01*
X574392Y549184D01*
X572354Y548340D01*
X571733Y547863D01*
X569701Y548865D01*
Y551286D01*
X582069Y563654D01*
X583946Y562877D01*
Y555244D01*
X588546D01*
Y562610D01*
X590296D01*
Y564360D01*
X596646D01*
Y569976D01*
X591045D01*
X590268Y571853D01*
X617655Y599241D01*
X641891D01*
X643726Y599482D01*
X645437Y600191D01*
X646905Y601317D01*
X679994Y634407D01*
X680368Y634456D01*
X682406Y635300D01*
X684157Y636643D01*
X685500Y638394D01*
X686344Y640432D01*
X686632Y642620D01*
X686344Y644808D01*
X685500Y646846D01*
X684157Y648597D01*
X682406Y649940D01*
X681545Y650297D01*
Y660182D01*
X681289Y661470D01*
X680559Y662561D01*
X669490Y673631D01*
X668398Y674360D01*
X667111Y674616D01*
X667111Y674616D01*
X647253D01*
X647253Y674616D01*
X645965Y674360D01*
X644874Y673631D01*
X644874Y673631D01*
X642952Y671709D01*
X641027Y672658D01*
X641112Y673299D01*
X640824Y675487D01*
X639979Y677525D01*
X638636Y679276D01*
X636885Y680619D01*
X634847Y681463D01*
X632659Y681751D01*
X630472Y681463D01*
X628433Y680619D01*
X626683Y679276D01*
X625339Y677525D01*
X624495Y675487D01*
X624207Y673299D01*
X624495Y671112D01*
X625339Y669073D01*
X626683Y667322D01*
X628139Y666205D01*
X627973Y664956D01*
X627648Y664231D01*
X624272D01*
X623261Y664030D01*
X622515Y663531D01*
X621307Y665107D01*
X619556Y666450D01*
X617518Y667294D01*
X615330Y667582D01*
X613142Y667294D01*
X611104Y666450D01*
X609353Y665107D01*
X608010Y663356D01*
X607166Y661318D01*
X606878Y659130D01*
X607166Y656942D01*
X608010Y654904D01*
X609353Y653153D01*
X611104Y651810D01*
X613142Y650966D01*
X615330Y650678D01*
X617518Y650966D01*
X619556Y651810D01*
X621307Y653153D01*
X622650Y654904D01*
X622783Y655226D01*
X623261Y655370D01*
X624272Y655169D01*
X627648D01*
X628659Y655370D01*
X629210Y655739D01*
X629761Y655370D01*
X630773Y655169D01*
X634147D01*
X635159Y655370D01*
X635710Y655739D01*
X636261Y655370D01*
X637272Y655169D01*
X640648D01*
X641659Y655370D01*
X641751Y655432D01*
X642562Y654890D01*
X643710Y654662D01*
Y659700D01*
X645460D01*
Y661450D01*
X650311D01*
Y661588D01*
X650070Y662798D01*
X649384Y663824D01*
X648358Y664510D01*
X648331Y664515D01*
X647717Y666368D01*
X648976Y667887D01*
X665717D01*
X667502Y666101D01*
X666725Y664224D01*
X664690D01*
Y659624D01*
X670306D01*
Y660643D01*
X672183Y661420D01*
X674815Y658788D01*
Y650297D01*
X673954Y649940D01*
X673011Y649217D01*
X662940D01*
X661105Y648975D01*
X659395Y648267D01*
X659003Y647966D01*
X656084D01*
Y643907D01*
X656052Y643665D01*
X649278D01*
X649017Y644056D01*
X648159Y644630D01*
X647148Y644831D01*
X643773D01*
X642761Y644630D01*
X642669Y644568D01*
X641858Y645110D01*
X640710Y645338D01*
Y640300D01*
X637210D01*
Y645338D01*
X636062Y645110D01*
X635251Y644568D01*
X635159Y644630D01*
X634147Y644831D01*
X630773D01*
X629761Y644630D01*
X629669Y644568D01*
X628858Y645110D01*
X627710Y645338D01*
Y640300D01*
Y635262D01*
X627785Y635277D01*
X629106Y635301D01*
X630521Y634222D01*
X633082Y631661D01*
X633082Y631661D01*
X634174Y630932D01*
X635461Y630675D01*
X635462Y630675D01*
X642458D01*
X642459Y630675D01*
X643746Y630932D01*
X644838Y631661D01*
X647399Y634222D01*
X647399Y634222D01*
X648129Y635314D01*
X648275Y636048D01*
X649017Y636543D01*
X649278Y636935D01*
X656084D01*
Y636286D01*
X658945D01*
X659022Y636204D01*
X659536Y634004D01*
X638954Y613422D01*
X614718D01*
X612883Y613180D01*
X611173Y612472D01*
X609704Y611345D01*
X557596Y559237D01*
X556469Y557769D01*
X555761Y556058D01*
X555519Y554223D01*
Y541681D01*
X547265D01*
X545430Y541439D01*
X543720Y540731D01*
X542251Y539604D01*
X525383Y522736D01*
X507693D01*
X507225Y523311D01*
X506747Y524768D01*
X507531Y525789D01*
X508239Y527499D01*
X508481Y529334D01*
Y530626D01*
X508896Y530956D01*
X509178Y531016D01*
X511504Y530432D01*
X512096Y529546D01*
X513928Y528321D01*
X514340Y528240D01*
Y537540D01*
Y546840D01*
X513928Y546758D01*
X512096Y545534D01*
X510872Y543702D01*
X508720Y543300D01*
X508128Y543503D01*
X507016Y545166D01*
X505353Y546278D01*
X503390Y546669D01*
X501427Y546278D01*
X499764Y545166D01*
X498652Y543503D01*
X497557Y542874D01*
X495428Y543503D01*
X494316Y545166D01*
X492653Y546278D01*
X490690Y546669D01*
X490381Y546607D01*
X486259Y550729D01*
X485168Y551459D01*
X483880Y551715D01*
X483880Y551715D01*
X463982D01*
X462694Y551459D01*
X461603Y550729D01*
X461408Y550535D01*
X447140D01*
Y554700D01*
X424080D01*
Y550735D01*
X412494D01*
Y554226D01*
X400814D01*
Y540514D01*
X412494D01*
Y544005D01*
X424080D01*
Y539640D01*
X447140D01*
Y543805D01*
X462802D01*
X462802Y543805D01*
X464090Y544062D01*
X465181Y544791D01*
X465376Y544985D01*
X471985D01*
X473143Y542953D01*
X472862Y541540D01*
Y533540D01*
X472923Y533231D01*
X465226Y525535D01*
X447140D01*
Y529700D01*
X424080D01*
Y525335D01*
X412494D01*
Y528826D01*
X400814D01*
Y515114D01*
X412494D01*
Y518605D01*
X424080D01*
Y514640D01*
X447140D01*
Y518805D01*
X466620D01*
X466620Y518805D01*
X467908Y519062D01*
X468999Y519791D01*
X477681Y528473D01*
X477990Y528411D01*
X479953Y528802D01*
X481617Y529914D01*
X482728Y531577D01*
X483119Y533540D01*
Y539684D01*
X485151Y540756D01*
X485561Y540475D01*
Y533540D01*
X485952Y531577D01*
X487064Y529914D01*
X488265Y529111D01*
X488562Y528031D01*
X487977Y526151D01*
X486267Y525443D01*
X484798Y524316D01*
X476843Y516361D01*
X464820D01*
X462985Y516119D01*
X461275Y515411D01*
X459806Y514284D01*
X394476Y448954D01*
X392331Y449682D01*
X392242Y450359D01*
X391397Y452397D01*
X390054Y454148D01*
X388304Y455491D01*
X386265Y456335D01*
X384077Y456623D01*
X381890Y456335D01*
X379851Y455491D01*
X378101Y454148D01*
X376758Y452397D01*
X375913Y450359D01*
X375625Y448171D01*
X375913Y445983D01*
X376072Y445600D01*
X353569Y423097D01*
X352708Y423454D01*
X350520Y423742D01*
X348332Y423454D01*
X346294Y422610D01*
X344543Y421267D01*
X343200Y419516D01*
X342356Y417478D01*
X342068Y415290D01*
X342356Y413102D01*
X343200Y411064D01*
X344543Y409313D01*
X346294Y407970D01*
X348332Y407126D01*
X349607Y406958D01*
X350379Y404856D01*
X339156Y393634D01*
X338029Y392165D01*
X337321Y390455D01*
X337079Y388620D01*
Y318215D01*
X336850Y317916D01*
X336006Y315878D01*
X335718Y313690D01*
X336006Y311502D01*
X336850Y309464D01*
X338193Y307713D01*
X339944Y306370D01*
X341982Y305526D01*
X344170Y305238D01*
X346358Y305526D01*
X348396Y306370D01*
X350147Y307713D01*
X351490Y309464D01*
X352334Y311502D01*
X352622Y313690D01*
X352334Y315878D01*
X351490Y317916D01*
X351261Y318215D01*
Y385683D01*
X467757Y502179D01*
X477522D01*
X478364Y500147D01*
X472976Y494760D01*
X471849Y493291D01*
X471141Y491581D01*
X470899Y489746D01*
Y485540D01*
X471141Y483705D01*
X471849Y481995D01*
X472862Y480676D01*
Y479540D01*
X473252Y477577D01*
X474364Y475914D01*
X474625Y475739D01*
Y473454D01*
X470664D01*
Y461774D01*
X484376D01*
Y473454D01*
X481355D01*
Y475739D01*
X481617Y475914D01*
X482728Y477577D01*
X483056Y479226D01*
X483509Y479755D01*
X483530Y479767D01*
X483964Y479718D01*
X485736Y478663D01*
X485952Y477577D01*
X487064Y475914D01*
X488727Y474802D01*
X490690Y474412D01*
X490999Y474473D01*
X494945Y470526D01*
Y407636D01*
X494945Y407636D01*
X495201Y406348D01*
X495931Y405257D01*
X547974Y353213D01*
X547974Y353213D01*
X549066Y352484D01*
X550354Y352228D01*
X550354Y352228D01*
X587131D01*
X587576Y350298D01*
X587562Y350196D01*
X585843Y348877D01*
X584500Y347126D01*
X583656Y345088D01*
X583368Y342900D01*
X583656Y340712D01*
X584500Y338674D01*
X584729Y338375D01*
Y325517D01*
X530909Y271697D01*
X529187Y272848D01*
X529361Y273269D01*
X529436Y273840D01*
X522450D01*
Y266854D01*
X523021Y266929D01*
X523442Y267103D01*
X524593Y265381D01*
X523306Y264094D01*
X522179Y262625D01*
X521471Y260915D01*
X521229Y259080D01*
Y198120D01*
X521471Y196285D01*
X522179Y194575D01*
X523306Y193106D01*
X539882Y176530D01*
X430243Y66891D01*
X234421D01*
Y398065D01*
X234650Y398364D01*
X235304Y399943D01*
X284334Y448973D01*
X285461Y450441D01*
X286169Y452151D01*
X286411Y453987D01*
Y457353D01*
X290578Y461520D01*
X310010D01*
Y474655D01*
X310075Y474980D01*
X310075Y474980D01*
Y475174D01*
X311511Y476611D01*
X313436Y475662D01*
X313293Y474582D01*
X313582Y472394D01*
X314426Y470355D01*
X315769Y468605D01*
X317520Y467262D01*
X319558Y466417D01*
X321746Y466129D01*
X323933Y466417D01*
X325972Y467262D01*
X327723Y468605D01*
X329066Y470355D01*
X329910Y472394D01*
X330198Y474582D01*
X329910Y476769D01*
X329865Y476877D01*
X339908Y486920D01*
X364610D01*
Y491935D01*
X374440D01*
Y488420D01*
X387200D01*
Y496307D01*
X389232Y497311D01*
X390040Y496692D01*
Y488420D01*
X402800D01*
Y502180D01*
X394798D01*
X389139Y507839D01*
X388048Y508568D01*
X386760Y508825D01*
X386760Y508825D01*
X335602D01*
X334314Y508568D01*
X333223Y507839D01*
X333223Y507839D01*
X311857Y486474D01*
X310010Y487500D01*
Y503680D01*
X280550D01*
Y490545D01*
X280485Y490220D01*
X280485Y490220D01*
Y486534D01*
X264995Y471043D01*
X264265Y469952D01*
X264009Y468664D01*
X263242Y467904D01*
X261204Y467060D01*
X259453Y465717D01*
X258110Y463966D01*
X257266Y461928D01*
X256978Y459740D01*
X257266Y457552D01*
X258110Y455514D01*
X259453Y453763D01*
X261204Y452420D01*
X263242Y451576D01*
X263919Y451487D01*
X264647Y449341D01*
X226199Y410893D01*
X225142Y410754D01*
X223104Y409910D01*
X221353Y408567D01*
X220817Y407867D01*
X218785Y408557D01*
Y428880D01*
X218528Y430168D01*
X217799Y431259D01*
X217799Y431259D01*
X212680Y436378D01*
X213382Y438072D01*
X213727Y440690D01*
X213382Y443308D01*
X212371Y445748D01*
X210763Y447844D01*
X208668Y449451D01*
X206228Y450462D01*
X203610Y450807D01*
X179610D01*
X176992Y450462D01*
X174552Y449451D01*
X172457Y447844D01*
X170849Y445748D01*
X169968Y443622D01*
X168910Y443455D01*
X167852Y443622D01*
X166971Y445748D01*
X165363Y447844D01*
X163268Y449451D01*
X160828Y450462D01*
X158210Y450807D01*
X134210D01*
X131592Y450462D01*
X129152Y449451D01*
X127797Y448411D01*
X125765Y449360D01*
Y452886D01*
X129898Y457020D01*
X131592Y456318D01*
X134210Y455974D01*
X158210D01*
X160828Y456318D01*
X163268Y457329D01*
X165363Y458937D01*
X166971Y461032D01*
X167852Y463158D01*
X168910Y463325D01*
X169968Y463158D01*
X170849Y461032D01*
X172457Y458937D01*
X174552Y457329D01*
X176992Y456318D01*
X179610Y455974D01*
X203610D01*
X206228Y456318D01*
X208668Y457329D01*
X210763Y458937D01*
X212371Y461032D01*
X213382Y463472D01*
X213727Y466090D01*
X213382Y468708D01*
X212371Y471148D01*
X210763Y473243D01*
X208668Y474851D01*
X206228Y475862D01*
X203610Y476207D01*
X179610D01*
X176992Y475862D01*
X174552Y474851D01*
X172457Y473243D01*
X170849Y471148D01*
X169968Y469022D01*
X168910Y468855D01*
X167852Y469022D01*
X166971Y471148D01*
X165363Y473243D01*
X163268Y474851D01*
X160828Y475862D01*
X158210Y476207D01*
X134210D01*
X131592Y475862D01*
X129152Y474851D01*
X127057Y473243D01*
X125449Y471148D01*
X124438Y468708D01*
X124094Y466090D01*
X124438Y463472D01*
X125140Y461778D01*
X120021Y456659D01*
X119291Y455568D01*
X119035Y454280D01*
X119035Y454280D01*
Y359598D01*
X119035Y359598D01*
X119291Y358311D01*
X120021Y357219D01*
X127837Y349403D01*
X127846Y346981D01*
X127714Y346748D01*
X127057Y346244D01*
X125449Y344148D01*
X124438Y341708D01*
X124094Y339090D01*
X124438Y336472D01*
X125449Y334032D01*
X127057Y331936D01*
X129152Y330329D01*
X131592Y329318D01*
X134210Y328974D01*
X158210D01*
X160828Y329318D01*
X163268Y330329D01*
X165363Y331936D01*
X166971Y334032D01*
X167852Y336158D01*
X168910Y336325D01*
X169968Y336158D01*
X170849Y334032D01*
X172457Y331936D01*
X174552Y330329D01*
X176992Y329318D01*
X179610Y328974D01*
X203610D01*
X206228Y329318D01*
X208668Y330329D01*
X210763Y331936D01*
X212371Y334032D01*
X213382Y336472D01*
X213727Y339090D01*
X213382Y341708D01*
X212371Y344148D01*
X210763Y346244D01*
X208668Y347851D01*
X206228Y348862D01*
X203610Y349207D01*
X179610D01*
X176992Y348862D01*
X175298Y348160D01*
X170179Y353279D01*
X169088Y354008D01*
X167800Y354265D01*
X167800Y354265D01*
X164698D01*
X164008Y356297D01*
X165363Y357337D01*
X166971Y359432D01*
X167852Y361558D01*
X168910Y361725D01*
X169968Y361558D01*
X170849Y359432D01*
X172457Y357337D01*
X174552Y355729D01*
X176992Y354718D01*
X179610Y354374D01*
X203610D01*
X206228Y354718D01*
X208668Y355729D01*
X210763Y357337D01*
X212371Y359432D01*
X213382Y361872D01*
X213727Y364490D01*
X213382Y367108D01*
X212371Y369548D01*
X210763Y371643D01*
X208668Y373251D01*
X206228Y374262D01*
X203610Y374607D01*
X179610D01*
X176992Y374262D01*
X174552Y373251D01*
X172457Y371643D01*
X170849Y369548D01*
X169968Y367422D01*
X168910Y367255D01*
X167852Y367422D01*
X166971Y369548D01*
X165363Y371643D01*
X163268Y373251D01*
X160828Y374262D01*
X158210Y374607D01*
X134210D01*
X131592Y374262D01*
X129152Y373251D01*
X127797Y372211D01*
X125765Y373160D01*
Y381220D01*
X127797Y382169D01*
X129152Y381129D01*
X131592Y380118D01*
X134210Y379773D01*
X158210D01*
X160828Y380118D01*
X163268Y381129D01*
X165363Y382737D01*
X166971Y384832D01*
X167852Y386958D01*
X168910Y387125D01*
X169968Y386958D01*
X170849Y384832D01*
X172457Y382737D01*
X174552Y381129D01*
X176992Y380118D01*
X179610Y379773D01*
X203610D01*
X206228Y380118D01*
X208668Y381129D01*
X210763Y382737D01*
X212371Y384832D01*
X213382Y387272D01*
X213727Y389890D01*
X213382Y392508D01*
X212680Y394202D01*
X217527Y399049D01*
X218617Y399053D01*
X220239Y397755D01*
Y66891D01*
X210702D01*
X208668Y68451D01*
X206228Y69462D01*
X203610Y69806D01*
X179610D01*
X176992Y69462D01*
X174552Y68451D01*
X172457Y66844D01*
X170849Y64748D01*
X170351Y63546D01*
X168319Y63950D01*
Y65690D01*
X168006Y67262D01*
X167115Y68595D01*
X165782Y69486D01*
X164210Y69799D01*
X128210D01*
X126638Y69486D01*
X125304Y68595D01*
X124414Y67262D01*
X124101Y65690D01*
Y53690D01*
X124414Y52118D01*
X125304Y50785D01*
X126638Y49894D01*
X128210Y49581D01*
X164210D01*
X165782Y49894D01*
X167115Y50785D01*
X168006Y52118D01*
X168319Y53690D01*
Y55430D01*
X170351Y55834D01*
X170849Y54632D01*
X172457Y52537D01*
X174552Y50929D01*
X176992Y49918D01*
X179610Y49573D01*
X203610D01*
X206228Y49918D01*
X208668Y50929D01*
X210763Y52537D01*
X210896Y52709D01*
X233697D01*
X234387Y50677D01*
X234124Y50476D01*
X231992Y47697D01*
X230652Y44462D01*
X230195Y40990D01*
X230652Y37518D01*
X231992Y34283D01*
X234124Y31504D01*
X236903Y29372D01*
X240138Y28032D01*
X243610Y27575D01*
X247082Y28032D01*
X250317Y29372D01*
X253096Y31504D01*
X255228Y34283D01*
X256568Y37518D01*
X257025Y40990D01*
X256568Y44462D01*
X255228Y47697D01*
X253096Y50476D01*
X252833Y50677D01*
X253523Y52709D01*
X433180D01*
X435015Y52951D01*
X436725Y53659D01*
X438194Y54786D01*
X552847Y169439D01*
X586740D01*
X588575Y169681D01*
X590285Y170389D01*
X591754Y171516D01*
X636262Y216024D01*
X636686Y216200D01*
X638437Y217543D01*
X639780Y219294D01*
X639956Y219718D01*
X702302Y282064D01*
X702726Y282240D01*
X704477Y283583D01*
X705820Y285334D01*
X705996Y285758D01*
X723834Y303596D01*
X724961Y305065D01*
X725669Y306775D01*
X725911Y308610D01*
Y321865D01*
X726140Y322164D01*
X726984Y324202D01*
X727272Y326390D01*
X726984Y328578D01*
X726140Y330616D01*
X725911Y330915D01*
Y389175D01*
X726140Y389474D01*
X726984Y391512D01*
X727272Y393700D01*
X726984Y395888D01*
X726140Y397926D01*
X725911Y398225D01*
Y405591D01*
X823952D01*
X824955Y403559D01*
X824530Y403006D01*
X823686Y400968D01*
X823398Y398780D01*
X823686Y396592D01*
X824530Y394554D01*
X825873Y392803D01*
X827624Y391460D01*
X829662Y390616D01*
X831850Y390328D01*
X834038Y390616D01*
X836076Y391460D01*
X837827Y392803D01*
X839170Y394554D01*
X839527Y395415D01*
X894930D01*
X894930Y395415D01*
X896218Y395672D01*
X897309Y396401D01*
X926408Y425500D01*
X936510D01*
Y435560D01*
X919910D01*
X918882Y437592D01*
X919329Y438200D01*
X936510D01*
Y447151D01*
X936510Y448260D01*
X938205Y449074D01*
X947926D01*
Y462786D01*
X938926D01*
X937020Y463090D01*
X937020Y464497D01*
Y466880D01*
X924980D01*
Y468630D01*
X923230D01*
Y474170D01*
X915035D01*
Y476300D01*
X936510D01*
Y480493D01*
X948158D01*
X963323Y465328D01*
X962481Y463296D01*
X959584D01*
Y457680D01*
X964184D01*
Y461831D01*
X965993Y462973D01*
X966216Y462988D01*
X967600Y462713D01*
X990021D01*
Y455275D01*
X990293Y453907D01*
X991068Y452748D01*
X992227Y451973D01*
X992313Y451956D01*
Y450778D01*
X992618Y449243D01*
X993488Y447941D01*
X1006041Y435388D01*
X1007343Y434518D01*
X1008878Y434213D01*
X1099740D01*
Y429690D01*
X1099230D01*
Y426900D01*
X1112520D01*
Y425150D01*
X1114270D01*
Y420610D01*
X1116558D01*
X1118086Y418578D01*
X1118001Y418150D01*
X1118353Y416382D01*
X1119354Y414884D01*
X1120126Y414369D01*
X1120848Y413730D01*
X1120791Y411823D01*
X1120280Y411058D01*
X1120146Y410386D01*
X1118691Y408921D01*
X1117930Y409068D01*
X1116920Y409269D01*
X1101920D01*
X1100153Y408917D01*
X1098654Y407916D01*
X1097653Y406418D01*
X1097301Y404650D01*
Y399650D01*
X1097472Y398790D01*
X1096146Y396758D01*
X1043215D01*
X1021606Y418367D01*
X1019611Y419700D01*
X1017258Y420168D01*
X1017258Y420168D01*
X941743D01*
X940216Y421340D01*
X938178Y422184D01*
X935990Y422472D01*
X933802Y422184D01*
X931764Y421340D01*
X930013Y419997D01*
X928670Y418246D01*
X927826Y416208D01*
X927538Y414020D01*
X927826Y411832D01*
X928670Y409794D01*
X930013Y408043D01*
X931764Y406700D01*
X933802Y405856D01*
X935990Y405568D01*
X938178Y405856D01*
X940216Y406700D01*
X941743Y407872D01*
X1014712D01*
X1036321Y386263D01*
X1038315Y384930D01*
X1040668Y384462D01*
X1040668Y384462D01*
X1103330D01*
Y377670D01*
X1111370D01*
Y374170D01*
X1103330D01*
Y366380D01*
X1104180D01*
Y361160D01*
X1111070D01*
Y357660D01*
X1104180D01*
Y352882D01*
X1104180Y352020D01*
X1102633Y350850D01*
X1099291D01*
Y363775D01*
X1099520Y364074D01*
X1100364Y366112D01*
X1100652Y368300D01*
X1100364Y370488D01*
X1099520Y372526D01*
X1098177Y374277D01*
X1096426Y375620D01*
X1094388Y376464D01*
X1092200Y376752D01*
X1090012Y376464D01*
X1087974Y375620D01*
X1086223Y374277D01*
X1084880Y372526D01*
X1084036Y370488D01*
X1083748Y368300D01*
X1084036Y366112D01*
X1084880Y364074D01*
X1085109Y363775D01*
Y350850D01*
X1079090D01*
Y266790D01*
X1162356D01*
X1163150Y266790D01*
X1164388Y265271D01*
Y157090D01*
X1163660Y155360D01*
X1162356Y155360D01*
X1122870D01*
Y112820D01*
Y70280D01*
X1162356D01*
X1163660Y70280D01*
X1164388Y68550D01*
Y12142D01*
X115492D01*
Y588001D01*
X392580D01*
X392768Y588038D01*
X392960Y588036D01*
X393161Y588116D01*
X393372Y588158D01*
X393532Y588265D01*
X393710Y588336D01*
X393865Y588487D01*
X394045Y588607D01*
X394151Y588767D01*
X394289Y588901D01*
X394374Y589100D01*
X394494Y589280D01*
X394531Y589468D01*
X394607Y589644D01*
X394609Y589814D01*
X394642Y589827D01*
X394968Y590046D01*
X395311Y590275D01*
X395662Y590625D01*
X395888Y590964D01*
X396110Y591295D01*
X396300Y591752D01*
X396359Y592050D01*
X396375Y592102D01*
X396427Y592118D01*
X396725Y592178D01*
X397182Y592368D01*
X397512Y592589D01*
X397851Y592816D01*
X398201Y593166D01*
X398428Y593505D01*
X398649Y593835D01*
X398839Y594292D01*
X398899Y594589D01*
X398915Y594642D01*
X398968Y594658D01*
X399265Y594717D01*
X399722Y594908D01*
X400052Y595129D01*
X400391Y595356D01*
X400741Y595706D01*
X400968Y596045D01*
X401189Y596375D01*
X401379Y596832D01*
X401422Y597044D01*
X401440Y597047D01*
X401606Y597061D01*
X401760Y597069D01*
X402035Y597073D01*
X402213Y597071D01*
X402273Y597082D01*
X402333Y597073D01*
X402744Y597092D01*
X402823Y597112D01*
X402905Y597106D01*
X403313Y597157D01*
X403390Y597183D01*
X403472Y597183D01*
X403874Y597266D01*
X403946Y597296D01*
X404024Y597302D01*
X404291Y597378D01*
X404390Y597429D01*
X404500Y597450D01*
X404632Y597503D01*
X404702Y597549D01*
X404783Y597571D01*
X404911Y597635D01*
X405010Y597712D01*
X405127Y597760D01*
X405354Y597910D01*
X405516Y598070D01*
X405703Y598200D01*
X405867Y598370D01*
X406001Y598579D01*
X406166Y598765D01*
X406284Y598969D01*
X406369Y599214D01*
X406487Y599445D01*
X406552Y599672D01*
X406556Y599728D01*
X406587Y599738D01*
X406885Y599798D01*
X407342Y599988D01*
X407672Y600209D01*
X408011Y600436D01*
X408361Y600786D01*
X408588Y601125D01*
X408809Y601455D01*
X408999Y601912D01*
X409042Y602124D01*
X409060Y602127D01*
X409226Y602141D01*
X409380Y602149D01*
X409655Y602153D01*
X409833Y602151D01*
X409893Y602163D01*
X409953Y602153D01*
X410364Y602172D01*
X410443Y602192D01*
X410525Y602186D01*
X410933Y602237D01*
X411010Y602263D01*
X411092Y602263D01*
X411494Y602346D01*
X411566Y602376D01*
X411644Y602382D01*
X411911Y602458D01*
X412010Y602509D01*
X412120Y602530D01*
X412252Y602583D01*
X412322Y602629D01*
X412403Y602651D01*
X412531Y602715D01*
X412630Y602792D01*
X412747Y602840D01*
X412974Y602990D01*
X413136Y603150D01*
X413323Y603280D01*
X413487Y603450D01*
X413590Y603611D01*
X413595Y603614D01*
X413609Y603637D01*
X413749Y603784D01*
X413843Y603934D01*
X413910Y604109D01*
X413917Y604116D01*
X413919Y604123D01*
X413924Y604130D01*
X413926Y604140D01*
X414025Y604298D01*
X414088Y604464D01*
X414123Y604664D01*
X414123Y604664D01*
X414140Y604666D01*
X414306Y604681D01*
X414460Y604689D01*
X414735Y604693D01*
X414913Y604691D01*
X414973Y604702D01*
X415033Y604693D01*
X415444Y604712D01*
X415523Y604732D01*
X415605Y604726D01*
X416013Y604777D01*
X416090Y604803D01*
X416172Y604803D01*
X416574Y604886D01*
X416646Y604916D01*
X416725Y604922D01*
X416991Y604998D01*
X417090Y605049D01*
X417200Y605070D01*
X417332Y605123D01*
X417402Y605169D01*
X417483Y605191D01*
X417611Y605255D01*
X417710Y605332D01*
X417826Y605379D01*
X418054Y605530D01*
X418216Y605690D01*
X418403Y605820D01*
X418567Y605990D01*
X418670Y606151D01*
X418675Y606154D01*
X418689Y606177D01*
X418829Y606324D01*
X418923Y606474D01*
X418990Y606649D01*
X418997Y606656D01*
X418999Y606663D01*
X419004Y606670D01*
X419006Y606680D01*
X419105Y606838D01*
X419168Y607004D01*
X419202Y607204D01*
X419212Y607229D01*
X419548Y607233D01*
X419560Y607235D01*
X419698Y607238D01*
X420033Y607261D01*
X420090Y607277D01*
X420231Y607284D01*
X420562Y607339D01*
X420657Y607375D01*
X420758Y607382D01*
X421081Y607469D01*
X421166Y607511D01*
X421260Y607526D01*
X421478Y607606D01*
X421609Y607686D01*
X421755Y607732D01*
X421980Y607855D01*
X422107Y607962D01*
X422256Y608036D01*
X422452Y608188D01*
X422589Y608346D01*
X422753Y608475D01*
X422899Y608644D01*
X423008Y608839D01*
X423150Y609010D01*
X423256Y609207D01*
X423326Y609433D01*
X423432Y609644D01*
X423443Y609685D01*
X423447Y609686D01*
X423649Y609711D01*
X423851Y609729D01*
X423952Y609735D01*
X423957Y609736D01*
X423962Y609736D01*
X424130Y609746D01*
X424464Y609761D01*
X424802Y609771D01*
X425136Y609774D01*
X425294Y609774D01*
X425605Y609769D01*
X425642Y609776D01*
X425680Y609769D01*
X426322Y609783D01*
X426371Y609793D01*
X426421Y609787D01*
X427062Y609831D01*
X427110Y609844D01*
X427160Y609840D01*
X427798Y609915D01*
X427845Y609930D01*
X427893Y609928D01*
X428304Y609996D01*
X428391Y610028D01*
X428483Y610033D01*
X428668Y610080D01*
X428735Y610113D01*
X428809Y610122D01*
X428989Y610182D01*
X429054Y610219D01*
X429127Y610233D01*
X429303Y610307D01*
X429367Y610349D01*
X429440Y610369D01*
X429587Y610443D01*
X429748Y610568D01*
X429930Y610660D01*
X430145Y610827D01*
X430334Y611046D01*
X430547Y611242D01*
X430705Y611459D01*
X430840Y611751D01*
X430998Y612031D01*
X431078Y612275D01*
X431958Y612317D01*
X432335Y612336D01*
X432395Y612351D01*
X432456Y612346D01*
X432831Y612387D01*
X432890Y612406D01*
X432952Y612404D01*
X433324Y612467D01*
X433375Y612486D01*
X433430Y612488D01*
X433685Y612545D01*
X433739Y612569D01*
X433798Y612573D01*
X433938Y612613D01*
X433981Y612635D01*
X434028Y612641D01*
X434166Y612687D01*
X434226Y612721D01*
X434293Y612734D01*
X434544Y612836D01*
X434667Y612917D01*
X434806Y612965D01*
X434992Y613073D01*
X435171Y613231D01*
X435372Y613358D01*
X435572Y613547D01*
X435613Y613605D01*
X435670Y613646D01*
X435769Y613807D01*
X435862Y613828D01*
X436114Y613872D01*
X436203Y613887D01*
X436419Y613916D01*
X436636Y613941D01*
X436853Y613962D01*
X436962Y613969D01*
X436964Y613970D01*
X436965Y613970D01*
X437095Y613979D01*
X437358Y613993D01*
X437621Y614003D01*
X437882Y614008D01*
X437999Y614007D01*
X438305Y614003D01*
X438343Y614010D01*
X438380Y614003D01*
X439022Y614017D01*
X439071Y614027D01*
X439121Y614021D01*
X439762Y614065D01*
X439810Y614078D01*
X439860Y614074D01*
X440498Y614149D01*
X440545Y614164D01*
X440593Y614162D01*
X441004Y614230D01*
X441091Y614262D01*
X441183Y614267D01*
X441368Y614314D01*
X441435Y614347D01*
X441508Y614356D01*
X441689Y614416D01*
X441754Y614453D01*
X441827Y614468D01*
X442003Y614540D01*
X442067Y614583D01*
X442140Y614603D01*
X442287Y614677D01*
X442448Y614802D01*
X442630Y614894D01*
X442845Y615061D01*
X443034Y615280D01*
X443247Y615476D01*
X443405Y615693D01*
X443540Y615985D01*
X443698Y616265D01*
X443778Y616509D01*
X444667Y616547D01*
X445078Y616566D01*
X445157Y616586D01*
X445238Y616580D01*
X445646Y616631D01*
X445723Y616657D01*
X445805Y616657D01*
X446208Y616740D01*
X446280Y616770D01*
X446358Y616777D01*
X446624Y616852D01*
X446723Y616903D01*
X446833Y616924D01*
X446965Y616977D01*
X447036Y617023D01*
X447117Y617045D01*
X447244Y617109D01*
X447344Y617186D01*
X447460Y617234D01*
X447687Y617384D01*
X447849Y617544D01*
X448037Y617674D01*
X448200Y617844D01*
X448335Y618053D01*
X448499Y618239D01*
X448618Y618443D01*
X448702Y618688D01*
X448820Y618919D01*
X448843Y618999D01*
X448848Y619000D01*
X449049Y619025D01*
X449251Y619043D01*
X449352Y619049D01*
X449357Y619050D01*
X449362Y619050D01*
X449530Y619060D01*
X449864Y619075D01*
X450202Y619085D01*
X450536Y619088D01*
X450694Y619088D01*
X451005Y619083D01*
X451042Y619090D01*
X451079Y619083D01*
X451722Y619097D01*
X451771Y619107D01*
X451821Y619101D01*
X452462Y619145D01*
X452510Y619158D01*
X452560Y619154D01*
X453198Y619229D01*
X453245Y619244D01*
X453293Y619242D01*
X453704Y619310D01*
X453791Y619342D01*
X453883Y619347D01*
X454068Y619394D01*
X454135Y619427D01*
X454208Y619436D01*
X454389Y619496D01*
X454454Y619533D01*
X454527Y619548D01*
X454703Y619621D01*
X454767Y619663D01*
X454840Y619683D01*
X454987Y619757D01*
X455148Y619882D01*
X455330Y619974D01*
X455545Y620141D01*
X455734Y620360D01*
X455947Y620556D01*
X456105Y620773D01*
X456240Y621065D01*
X456398Y621345D01*
X456446Y621492D01*
X456546Y621506D01*
X456857Y621540D01*
X457167Y621567D01*
X457477Y621586D01*
X457634Y621592D01*
X457638Y621593D01*
X457643Y621592D01*
X457887Y621602D01*
X458374Y621616D01*
X458865Y621625D01*
X459354Y621628D01*
X459587Y621628D01*
X460016Y621622D01*
X460042Y621627D01*
X460068Y621622D01*
X460944Y621633D01*
X460979Y621640D01*
X461014Y621635D01*
X461889Y621676D01*
X461923Y621684D01*
X461959Y621680D01*
X462831Y621750D01*
X462864Y621760D01*
X462899Y621757D01*
X463454Y621820D01*
X463525Y621843D01*
X463600Y621842D01*
X463837Y621886D01*
X463896Y621910D01*
X463959Y621913D01*
X464193Y621972D01*
X464251Y621999D01*
X464314Y622006D01*
X464544Y622078D01*
X464597Y622107D01*
X464657Y622117D01*
X464843Y622188D01*
X465014Y622295D01*
X465202Y622366D01*
X465467Y622531D01*
X465651Y622703D01*
X465858Y622845D01*
X466021Y623014D01*
X466183Y623263D01*
X466245Y623340D01*
X466246Y623341D01*
X466247Y623342D01*
X466370Y623495D01*
X466465Y623674D01*
X466505Y623812D01*
X466509Y623817D01*
X466528Y623882D01*
X466619Y624058D01*
X466626Y624080D01*
X466628Y624080D01*
X466829Y624105D01*
X467031Y624123D01*
X467132Y624129D01*
X467137Y624130D01*
X467142Y624130D01*
X467310Y624140D01*
X467644Y624155D01*
X467982Y624165D01*
X468316Y624168D01*
X468474Y624168D01*
X468785Y624163D01*
X468822Y624170D01*
X468859Y624163D01*
X469502Y624177D01*
X469551Y624187D01*
X469601Y624181D01*
X470242Y624225D01*
X470290Y624238D01*
X470340Y624234D01*
X470978Y624309D01*
X471025Y624324D01*
X471073Y624322D01*
X471484Y624390D01*
X471571Y624422D01*
X471663Y624427D01*
X471848Y624474D01*
X471915Y624507D01*
X471988Y624516D01*
X472169Y624576D01*
X472234Y624613D01*
X472307Y624627D01*
X472483Y624701D01*
X472547Y624743D01*
X472620Y624763D01*
X472767Y624837D01*
X472928Y624962D01*
X473110Y625054D01*
X473325Y625221D01*
X473514Y625440D01*
X473727Y625636D01*
X473885Y625853D01*
X474020Y626145D01*
X474178Y626425D01*
X474231Y626586D01*
X474500Y626620D01*
X474776Y626646D01*
X475052Y626665D01*
X475190Y626671D01*
X475194Y626672D01*
X475199Y626671D01*
X475419Y626681D01*
X475857Y626696D01*
X476295Y626705D01*
X476734Y626708D01*
X476943Y626708D01*
X477332Y626702D01*
X477361Y626708D01*
X477391Y626702D01*
X478188Y626714D01*
X478227Y626722D01*
X478266Y626716D01*
X479063Y626758D01*
X479101Y626768D01*
X479140Y626764D01*
X479935Y626835D01*
X479972Y626846D01*
X480010Y626843D01*
X480517Y626908D01*
X480592Y626933D01*
X480673Y626933D01*
X480892Y626979D01*
X480954Y627005D01*
X481021Y627009D01*
X481237Y627068D01*
X481297Y627098D01*
X481363Y627107D01*
X481576Y627180D01*
X481632Y627213D01*
X481697Y627225D01*
X481870Y627297D01*
X482039Y627410D01*
X482227Y627488D01*
X482476Y627654D01*
X482654Y627831D01*
X482856Y627980D01*
X483007Y628146D01*
X483155Y628391D01*
X483194Y628442D01*
X483198Y628444D01*
X483199Y628448D01*
X483331Y628618D01*
X483420Y628796D01*
X483472Y628988D01*
X483535Y629111D01*
X483639Y629126D01*
X483950Y629160D01*
X484260Y629187D01*
X484571Y629206D01*
X484727Y629212D01*
X484731Y629213D01*
X484736Y629212D01*
X484980Y629222D01*
X485467Y629236D01*
X485958Y629245D01*
X486447Y629248D01*
X486680Y629248D01*
X487109Y629242D01*
X487135Y629247D01*
X487162Y629242D01*
X488037Y629253D01*
X488072Y629260D01*
X488107Y629255D01*
X488982Y629296D01*
X489017Y629304D01*
X489052Y629300D01*
X489925Y629370D01*
X489958Y629380D01*
X489992Y629377D01*
X490547Y629440D01*
X490618Y629463D01*
X490693Y629462D01*
X490931Y629506D01*
X490989Y629530D01*
X491053Y629533D01*
X491287Y629591D01*
X491344Y629619D01*
X491407Y629626D01*
X491637Y629698D01*
X491691Y629727D01*
X491751Y629737D01*
X491937Y629808D01*
X492107Y629915D01*
X492295Y629986D01*
X492560Y630150D01*
X492744Y630323D01*
X492951Y630466D01*
X493115Y630634D01*
X493276Y630883D01*
X493339Y630960D01*
X493339Y630961D01*
X493340Y630962D01*
X493464Y631115D01*
X493558Y631294D01*
X493599Y631432D01*
X493603Y631437D01*
X493621Y631502D01*
X493699Y631652D01*
X493799Y631665D01*
X494110Y631700D01*
X494420Y631727D01*
X494731Y631746D01*
X494887Y631752D01*
X494891Y631753D01*
X494896Y631752D01*
X495140Y631762D01*
X495627Y631776D01*
X496118Y631785D01*
X496607Y631788D01*
X496840Y631788D01*
X497269Y631782D01*
X497295Y631787D01*
X497322Y631782D01*
X498197Y631793D01*
X498232Y631800D01*
X498268Y631795D01*
X499142Y631836D01*
X499177Y631844D01*
X499212Y631840D01*
X500085Y631910D01*
X500118Y631920D01*
X500152Y631917D01*
X500707Y631980D01*
X500778Y632003D01*
X500853Y632002D01*
X501091Y632046D01*
X501149Y632070D01*
X501213Y632073D01*
X501447Y632132D01*
X501504Y632159D01*
X501567Y632165D01*
X501797Y632238D01*
X501851Y632267D01*
X501911Y632277D01*
X502097Y632348D01*
X502267Y632455D01*
X502455Y632526D01*
X502720Y632691D01*
X502904Y632863D01*
X503111Y633005D01*
X503275Y633174D01*
X503437Y633423D01*
X503498Y633500D01*
X503499Y633501D01*
X503500Y633502D01*
X503624Y633655D01*
X503718Y633834D01*
X503759Y633972D01*
X503763Y633977D01*
X503781Y634042D01*
X503840Y634156D01*
X503960Y634174D01*
X504053Y634182D01*
X504065Y634186D01*
X504078Y634185D01*
X504284Y634207D01*
X504697Y634242D01*
X505109Y634269D01*
X505523Y634288D01*
X505730Y634294D01*
X505734Y634295D01*
X505738Y634294D01*
X506059Y634303D01*
X506690Y634317D01*
X507328Y634325D01*
X507963Y634328D01*
X508274Y634328D01*
X508819Y634321D01*
X508840Y634325D01*
X508860Y634321D01*
X509969Y634331D01*
X509996Y634337D01*
X510023Y634332D01*
X511131Y634371D01*
X511158Y634377D01*
X511186Y634373D01*
X512292Y634441D01*
X512312Y634446D01*
X512333Y634444D01*
X512886Y634489D01*
X512912Y634496D01*
X512939Y634494D01*
X513085Y634509D01*
X513124Y634522D01*
X513164Y634520D01*
X513455Y634562D01*
X513506Y634580D01*
X513560Y634580D01*
X513848Y634638D01*
X513898Y634659D01*
X513952Y634662D01*
X514236Y634734D01*
X514280Y634755D01*
X514329Y634760D01*
X514554Y634828D01*
X514659Y634884D01*
X514775Y634910D01*
X514938Y634980D01*
X515055Y635061D01*
X515188Y635109D01*
X515340Y635201D01*
X515470Y635321D01*
X515624Y635409D01*
X515824Y635583D01*
X516021Y635837D01*
X516238Y636074D01*
X516346Y636253D01*
X516419Y636453D01*
X516450Y636491D01*
X516464Y636540D01*
X516521Y636640D01*
X516523Y636641D01*
X516813Y636684D01*
X517107Y636716D01*
X517254Y636726D01*
X517265Y636729D01*
X517277Y636727D01*
X517566Y636750D01*
X518142Y636785D01*
X518720Y636813D01*
X519297Y636831D01*
X519586Y636836D01*
X519590Y636837D01*
X519593Y636836D01*
X520031Y636845D01*
X520905Y636858D01*
X521784Y636866D01*
X522663Y636869D01*
X523093Y636868D01*
X523835Y636861D01*
X523850Y636864D01*
X523865Y636861D01*
X525363Y636869D01*
X525382Y636873D01*
X525402Y636870D01*
X526899Y636906D01*
X526919Y636911D01*
X526939Y636908D01*
X528435Y636973D01*
X528450Y636976D01*
X528465Y636974D01*
X529212Y637017D01*
X529231Y637022D01*
X529250Y637020D01*
X529440Y637034D01*
X529472Y637043D01*
X529505Y637040D01*
X529883Y637081D01*
X529924Y637094D01*
X529968Y637092D01*
X530344Y637149D01*
X530385Y637163D01*
X530429Y637163D01*
X530803Y637235D01*
X530835Y637248D01*
X530870Y637249D01*
X531159Y637315D01*
X531252Y637356D01*
X531353Y637369D01*
X531556Y637436D01*
X531670Y637501D01*
X531797Y637534D01*
X531990Y637626D01*
X532121Y637724D01*
X532271Y637789D01*
X532535Y637970D01*
X532768Y638210D01*
X533018Y638435D01*
X533150Y638611D01*
X533268Y638857D01*
X533324Y638945D01*
X533356Y638982D01*
X533364Y639005D01*
X533416Y639086D01*
X533449Y639169D01*
X533507Y639180D01*
X533820Y639224D01*
X534134Y639257D01*
X534291Y639266D01*
X534302Y639269D01*
X534314Y639268D01*
X534619Y639290D01*
X535226Y639326D01*
X535838Y639353D01*
X536447Y639371D01*
X536752Y639376D01*
X536755Y639377D01*
X536759Y639376D01*
X537221Y639385D01*
X538144Y639398D01*
X539068Y639406D01*
X539996Y639408D01*
X540452Y639408D01*
X541232Y639401D01*
X541246Y639404D01*
X541260Y639401D01*
X542835Y639409D01*
X542854Y639413D01*
X542873Y639409D01*
X544448Y639446D01*
X544466Y639450D01*
X544485Y639447D01*
X546059Y639511D01*
X546073Y639515D01*
X546087Y639513D01*
X546874Y639556D01*
X546892Y639560D01*
X546910Y639558D01*
X547108Y639572D01*
X547139Y639581D01*
X547170Y639578D01*
X547566Y639618D01*
X547607Y639631D01*
X547649Y639628D01*
X548043Y639685D01*
X548082Y639699D01*
X548124Y639698D01*
X548516Y639770D01*
X548546Y639782D01*
X548578Y639783D01*
X548881Y639848D01*
X548972Y639887D01*
X549070Y639898D01*
X549281Y639965D01*
X549393Y640027D01*
X549518Y640057D01*
X549719Y640149D01*
X549849Y640243D01*
X549998Y640304D01*
X550274Y640487D01*
X550513Y640723D01*
X550767Y640943D01*
X550903Y641118D01*
X551029Y641369D01*
X551103Y641479D01*
X551130Y641511D01*
X551136Y641530D01*
X551184Y641602D01*
X551241Y641739D01*
X551254Y641809D01*
X551373Y641825D01*
X551684Y641860D01*
X551993Y641887D01*
X552304Y641906D01*
X552460Y641912D01*
X552465Y641913D01*
X552469Y641912D01*
X552713Y641922D01*
X553200Y641936D01*
X553691Y641945D01*
X554181Y641948D01*
X554424Y641948D01*
X554428Y641948D01*
X554432Y641947D01*
X559512D01*
X560304Y642105D01*
X560977Y642554D01*
X561426Y643226D01*
X561583Y644019D01*
Y679156D01*
X561582Y679161D01*
X561583Y679166D01*
X561455Y704783D01*
X561453Y704795D01*
X561455Y704806D01*
X561443Y705555D01*
X561441Y705564D01*
X561443Y705572D01*
X561406Y707069D01*
X561403Y707081D01*
X561405Y707093D01*
X561351Y708589D01*
X561348Y708600D01*
X561350Y708612D01*
X561279Y710108D01*
X561277Y710117D01*
X561278Y710126D01*
X561237Y710863D01*
X561220Y711211D01*
X561211Y711247D01*
X561215Y711284D01*
X561157Y711995D01*
X561143Y712042D01*
X561146Y712092D01*
X561054Y712799D01*
X561038Y712846D01*
X561039Y712896D01*
X560914Y713598D01*
X560913Y713599D01*
X560913Y713601D01*
X560829Y714071D01*
X560771Y714219D01*
X560749Y714376D01*
X560671Y714605D01*
X560497Y714904D01*
X560340Y715213D01*
X560191Y715404D01*
X560169Y715422D01*
X560156Y715446D01*
X559863Y715684D01*
X559577Y715930D01*
X559550Y715938D01*
X559529Y715956D01*
X559209Y716124D01*
X559119Y716151D01*
X559040Y716204D01*
X558945Y716223D01*
X558919Y716308D01*
X558860Y716606D01*
X558670Y717063D01*
X558451Y717389D01*
X558222Y717732D01*
X557871Y718082D01*
X557533Y718309D01*
X557202Y718531D01*
X556744Y718720D01*
X556447Y718780D01*
X556395Y718796D01*
X556379Y718848D01*
X556320Y719146D01*
X556129Y719603D01*
X555911Y719929D01*
X555681Y720272D01*
X555331Y720622D01*
X554993Y720849D01*
X554662Y721070D01*
X554204Y721261D01*
X553907Y721320D01*
X553855Y721336D01*
X553839Y721388D01*
X553780Y721685D01*
X553590Y722143D01*
X553371Y722469D01*
X553142Y722812D01*
X552791Y723162D01*
X552453Y723389D01*
X552122Y723611D01*
X551665Y723801D01*
X551337Y723866D01*
X551154Y723916D01*
X551106Y724013D01*
X550997Y724155D01*
X550974Y724205D01*
X550926Y724248D01*
X550772Y724501D01*
X550599Y724689D01*
X550428Y724814D01*
X550283Y724968D01*
X550149Y725065D01*
X549996Y725135D01*
X549863Y725237D01*
X549666Y725336D01*
X549531Y725372D01*
X549410Y725443D01*
X549227Y725505D01*
X549110Y725520D01*
X549002Y725567D01*
X548813Y725609D01*
X548763Y725610D01*
X548759Y725622D01*
X548700Y725919D01*
X548509Y726377D01*
X548291Y726703D01*
X548061Y727046D01*
X547711Y727396D01*
X547373Y727623D01*
X547042Y727844D01*
X546585Y728035D01*
X546287Y728094D01*
X546235Y728110D01*
X546219Y728162D01*
X546160Y728459D01*
X545970Y728917D01*
X545751Y729243D01*
X545522Y729586D01*
X545171Y729936D01*
X544833Y730163D01*
X544502Y730385D01*
X544044Y730574D01*
X543747Y730634D01*
X543695Y730650D01*
X543679Y730703D01*
X543619Y731000D01*
X543429Y731457D01*
X543208Y731787D01*
X542981Y732126D01*
X542631Y732476D01*
X542292Y732703D01*
X541962Y732924D01*
X541505Y733114D01*
X541208Y733174D01*
X541155Y733190D01*
X541139Y733242D01*
X541080Y733540D01*
X540890Y733997D01*
X540671Y734323D01*
X540442Y734666D01*
X540091Y735016D01*
X539753Y735243D01*
X539422Y735464D01*
X538965Y735655D01*
X538667Y735714D01*
X538615Y735730D01*
X538599Y735782D01*
X538540Y736079D01*
X538349Y736537D01*
X538131Y736863D01*
X537901Y737206D01*
X537551Y737556D01*
X537213Y737783D01*
X536882Y738005D01*
X536424Y738195D01*
X536127Y738254D01*
X536075Y738270D01*
X536059Y738323D01*
X535999Y738620D01*
X535809Y739077D01*
X535588Y739407D01*
X535361Y739746D01*
X535011Y740096D01*
X534672Y740323D01*
X534342Y740544D01*
X533885Y740734D01*
X533588Y740794D01*
X533535Y740810D01*
X533519Y740862D01*
X533460Y741160D01*
X533270Y741617D01*
X533051Y741943D01*
X532822Y742286D01*
X532471Y742636D01*
X532133Y742863D01*
X531802Y743084D01*
X531344Y743275D01*
X531047Y743334D01*
X531035Y743338D01*
X531034Y743389D01*
X530993Y743577D01*
X530928Y743725D01*
X530900Y743883D01*
X530781Y744192D01*
X530678Y744352D01*
X530612Y744531D01*
X530525Y744672D01*
X530398Y744808D01*
X530303Y744968D01*
X530146Y745143D01*
X529922Y745311D01*
X529721Y745504D01*
X529536Y745622D01*
X529476Y745646D01*
X529463Y745724D01*
X529447Y745834D01*
X529433Y745962D01*
X529421Y746105D01*
X529414Y746240D01*
X529410Y746473D01*
X529412Y746648D01*
X529401Y746708D01*
X529410Y746769D01*
X529391Y747179D01*
X529371Y747258D01*
X529377Y747340D01*
X529326Y747748D01*
X529300Y747825D01*
X529300Y747907D01*
X529217Y748309D01*
X529187Y748382D01*
X529181Y748460D01*
X529105Y748726D01*
X529054Y748825D01*
X529034Y748935D01*
X528980Y749067D01*
X528934Y749137D01*
X528912Y749218D01*
X528848Y749346D01*
X528771Y749445D01*
X528724Y749561D01*
X528573Y749789D01*
X528413Y749951D01*
X528283Y750138D01*
X528113Y750302D01*
X527904Y750436D01*
X527718Y750601D01*
X527515Y750719D01*
X527269Y750804D01*
X527039Y750922D01*
X526812Y750986D01*
X526755Y750991D01*
X526746Y751022D01*
X526686Y751320D01*
X526496Y751777D01*
X526277Y752103D01*
X526048Y752446D01*
X525698Y752796D01*
X525359Y753023D01*
X525028Y753244D01*
X524571Y753435D01*
X524274Y753494D01*
X524222Y753510D01*
X524206Y753562D01*
X524146Y753859D01*
X523956Y754317D01*
X523737Y754643D01*
X523508Y754986D01*
X523158Y755336D01*
X522819Y755563D01*
X522488Y755785D01*
X522031Y755975D01*
X521734Y756034D01*
X521682Y756050D01*
X521666Y756102D01*
X521606Y756400D01*
X521416Y756857D01*
X521197Y757183D01*
X520968Y757526D01*
X520618Y757876D01*
X520279Y758103D01*
X519948Y758325D01*
X519491Y758514D01*
X519279Y758557D01*
X519277Y758575D01*
X519263Y758741D01*
X519254Y758895D01*
X519250Y759170D01*
X519252Y759348D01*
X519241Y759408D01*
X519250Y759469D01*
X519231Y759879D01*
X519211Y759958D01*
X519217Y760040D01*
X519166Y760448D01*
X519141Y760525D01*
X519140Y760607D01*
X519058Y761010D01*
X519027Y761082D01*
X519021Y761160D01*
X518945Y761426D01*
X518894Y761525D01*
X518873Y761635D01*
X518820Y761767D01*
X518774Y761837D01*
X518752Y761918D01*
X518688Y762046D01*
X518611Y762145D01*
X518564Y762262D01*
X518413Y762489D01*
X518253Y762651D01*
X518123Y762838D01*
X517953Y763002D01*
X517744Y763136D01*
X517558Y763301D01*
X517355Y763419D01*
X517109Y763504D01*
X516879Y763622D01*
X516652Y763686D01*
X516595Y763691D01*
X516586Y763722D01*
X516526Y764019D01*
X516336Y764477D01*
X516117Y764803D01*
X515888Y765146D01*
X515538Y765496D01*
X515199Y765723D01*
X514868Y765945D01*
X514411Y766134D01*
X514199Y766177D01*
X514197Y766195D01*
X514183Y766361D01*
X514174Y766515D01*
X514170Y766790D01*
X514172Y766968D01*
X514161Y767028D01*
X514170Y767089D01*
X514151Y767499D01*
X514131Y767578D01*
X514137Y767660D01*
X514086Y768068D01*
X514061Y768145D01*
X514060Y768227D01*
X513978Y768630D01*
X513947Y768702D01*
X513971Y768832D01*
X514750Y770196D01*
X515052Y770438D01*
X515313Y770609D01*
X515370Y770636D01*
X516410D01*
Y776986D01*
X519910D01*
Y770636D01*
X524210D01*
Y770460D01*
X528250D01*
Y775500D01*
X530000D01*
Y777250D01*
X535790D01*
Y780540D01*
X535790D01*
X535880Y782535D01*
X536116Y782581D01*
X537207Y783311D01*
X539439Y785543D01*
X540168Y786634D01*
X540425Y787922D01*
Y807534D01*
X542457Y807645D01*
X549142Y746515D01*
D02*
G37*
G36*
X601611Y511231D02*
X602702Y510502D01*
X603990Y510245D01*
X605278Y510502D01*
X605282Y510504D01*
X607920D01*
Y510360D01*
X608429D01*
Y510079D01*
X612585D01*
X616740D01*
Y510360D01*
X617250D01*
Y512650D01*
X616740D01*
Y517080D01*
X626367D01*
X626771Y515048D01*
X625437Y514495D01*
X623580Y513070D01*
X622155Y511213D01*
X621259Y509051D01*
X621184Y508480D01*
X638656D01*
X638581Y509051D01*
X637685Y511213D01*
X636260Y513070D01*
X634403Y514495D01*
X634300Y514538D01*
X634705Y516570D01*
X636460D01*
Y517080D01*
X636740D01*
Y521735D01*
X639679D01*
Y517080D01*
X639960D01*
Y516570D01*
X642250D01*
Y517080D01*
X650104D01*
Y508610D01*
X650341Y507421D01*
X651014Y506414D01*
X652021Y505741D01*
X653210Y505504D01*
X654680D01*
Y495140D01*
X617250D01*
Y496860D01*
X612585D01*
X607920D01*
Y494570D01*
X609170D01*
Y492235D01*
X613210D01*
Y488735D01*
X609170D01*
Y485320D01*
X610292D01*
X611070Y483443D01*
X602141Y474514D01*
X601412Y473422D01*
X601155Y472135D01*
X601155Y472134D01*
Y461882D01*
X601155Y461882D01*
X601412Y460594D01*
X602141Y459502D01*
X605622Y456022D01*
X605070Y453700D01*
X604104Y453300D01*
X602353Y451957D01*
X601224Y450485D01*
X600075Y450331D01*
X598926Y450485D01*
X597797Y451957D01*
X596046Y453300D01*
X594008Y454144D01*
X591820Y454432D01*
X589632Y454144D01*
X587594Y453300D01*
X585843Y451957D01*
X584500Y450206D01*
X583656Y448168D01*
X583368Y445980D01*
X583656Y443792D01*
X584500Y441754D01*
X585843Y440003D01*
X587594Y438660D01*
X589632Y437816D01*
X591820Y437528D01*
X594008Y437816D01*
X594869Y438173D01*
X607431Y425611D01*
X607431Y425611D01*
X608522Y424882D01*
X609810Y424625D01*
X660025D01*
X660382Y423764D01*
X661725Y422013D01*
X663476Y420670D01*
X665515Y419826D01*
X667702Y419538D01*
X669890Y419826D01*
X671928Y420670D01*
X673679Y422013D01*
X675022Y423764D01*
X675866Y425802D01*
X676154Y427990D01*
X675866Y430178D01*
X675022Y432216D01*
X673679Y433967D01*
X671928Y435310D01*
X669890Y436154D01*
X667702Y436442D01*
X666601Y436297D01*
X664875Y437788D01*
X664780Y438032D01*
X664795Y438150D01*
X664507Y440338D01*
X663663Y442376D01*
X663251Y442913D01*
X664253Y444945D01*
X685999D01*
X685999Y444945D01*
X687287Y445201D01*
X688378Y445931D01*
X688663Y446215D01*
X691860D01*
X692862Y444183D01*
X692450Y443646D01*
X691606Y441608D01*
X691318Y439420D01*
X691606Y437232D01*
X692450Y435194D01*
X693793Y433443D01*
X695544Y432100D01*
X696405Y431743D01*
Y406125D01*
X686267Y395987D01*
X684343Y396936D01*
X684528Y398344D01*
X684240Y400532D01*
X683396Y402570D01*
X682053Y404321D01*
X680302Y405664D01*
X678263Y406508D01*
X676076Y406796D01*
X673888Y406508D01*
X671850Y405664D01*
X670099Y404321D01*
X668756Y402570D01*
X668625Y402254D01*
X668070Y402236D01*
X667758Y402469D01*
X666774Y404227D01*
X667294Y405482D01*
X667582Y407670D01*
X667294Y409858D01*
X666450Y411896D01*
X665107Y413647D01*
X663356Y414990D01*
X661318Y415834D01*
X659130Y416122D01*
X656942Y415834D01*
X654904Y414990D01*
X653153Y413647D01*
X651810Y411896D01*
X651453Y411035D01*
X578727D01*
X577388Y412562D01*
X577412Y412750D01*
X577124Y414938D01*
X576280Y416976D01*
X574937Y418727D01*
X573186Y420070D01*
X571148Y420914D01*
X568960Y421202D01*
X566772Y420914D01*
X564734Y420070D01*
X562983Y418727D01*
X561640Y416976D01*
X560796Y414938D01*
X560508Y412750D01*
X560796Y410562D01*
X561640Y408524D01*
X562983Y406773D01*
X564734Y405430D01*
X565821Y404980D01*
X565888Y404906D01*
X566483Y402842D01*
X566444Y402607D01*
X565807Y401777D01*
X564963Y399739D01*
X564675Y397551D01*
X564815Y396489D01*
X562910Y395389D01*
X562192Y395940D01*
X560153Y396784D01*
X557966Y397072D01*
X555778Y396784D01*
X553740Y395940D01*
X551989Y394597D01*
X551497Y393955D01*
X549465Y394645D01*
Y425450D01*
X549208Y426738D01*
X548479Y427829D01*
X548479Y427829D01*
X519455Y456854D01*
Y475739D01*
X519716Y475914D01*
X520828Y477577D01*
X521219Y479540D01*
Y480175D01*
X529380D01*
Y476990D01*
X529380Y476990D01*
X529380D01*
X529288Y474996D01*
X528620Y474126D01*
X527776Y472088D01*
X527488Y469900D01*
X527776Y467712D01*
X528620Y465674D01*
X529963Y463923D01*
X531714Y462580D01*
X533752Y461736D01*
X535940Y461448D01*
X538128Y461736D01*
X540166Y462580D01*
X541917Y463923D01*
X543260Y465674D01*
X544104Y467712D01*
X544392Y469900D01*
X544104Y472088D01*
X543260Y474126D01*
X542505Y475109D01*
X542140Y476990D01*
X542140Y476990D01*
X542140Y476990D01*
Y490750D01*
X529380D01*
Y486905D01*
X521219D01*
Y487540D01*
X520828Y489503D01*
X519716Y491166D01*
X518053Y492278D01*
X516141Y492659D01*
X515983Y492887D01*
X515165Y494556D01*
X518894Y498285D01*
X529380D01*
Y494770D01*
X542140D01*
Y503042D01*
X542948Y503661D01*
X544980Y502658D01*
Y494770D01*
X557740D01*
X558821Y493857D01*
Y492334D01*
X557168Y490750D01*
X544980D01*
Y476990D01*
X557740D01*
Y480505D01*
X562610D01*
X563898Y480761D01*
X564989Y481491D01*
X565718Y482582D01*
X565975Y483870D01*
Y500256D01*
X567478Y501760D01*
X569510Y500918D01*
Y495530D01*
X574650D01*
Y502920D01*
Y510310D01*
X569785D01*
Y524502D01*
X571096Y525508D01*
X572222Y526976D01*
X572931Y528686D01*
X573172Y530522D01*
X573083Y531199D01*
X573639Y531902D01*
X574845Y532796D01*
X576580Y532568D01*
X578768Y532856D01*
X579629Y533213D01*
X601611Y511231D01*
D02*
G37*
G36*
X729490Y530740D02*
X744665D01*
Y524728D01*
X744665Y524728D01*
X744921Y523440D01*
X745651Y522349D01*
X753573Y514427D01*
X752795Y512550D01*
X749921D01*
X749921Y512550D01*
X748680D01*
Y512550D01*
X747888Y512550D01*
X737221D01*
Y500115D01*
X725700D01*
Y503130D01*
X711940D01*
Y490370D01*
X725700D01*
Y493385D01*
X737221D01*
Y480590D01*
X743834D01*
X750680Y473744D01*
X749921Y471910D01*
X748680D01*
X747888Y471910D01*
X737221D01*
Y439950D01*
X747888D01*
X749921Y439950D01*
X750712Y439950D01*
X760290D01*
X762111Y439440D01*
Y439440D01*
X762111Y439440D01*
X766600D01*
Y455930D01*
X770100D01*
Y439440D01*
X774476D01*
X774986Y438853D01*
X775418Y437408D01*
X774555Y436283D01*
X773659Y434121D01*
X773584Y433550D01*
X782320D01*
Y431800D01*
X784070D01*
Y423064D01*
X784641Y423139D01*
X786803Y424035D01*
X787099Y424262D01*
X789131Y423260D01*
Y414829D01*
X725911D01*
Y440196D01*
X727127Y441782D01*
X727972Y443820D01*
X728260Y446008D01*
X727972Y448195D01*
X727127Y450234D01*
X725784Y451985D01*
X724034Y453328D01*
X723932Y453370D01*
Y474770D01*
X725700D01*
Y487530D01*
X711940D01*
Y474770D01*
X714695D01*
Y458534D01*
X712818Y457756D01*
X707999Y462575D01*
X706907Y463304D01*
X705619Y463561D01*
X705619Y463561D01*
X682928D01*
X675186Y471303D01*
X675963Y473180D01*
X685650D01*
Y486940D01*
X677282D01*
X675139Y489083D01*
X675917Y490960D01*
X685650D01*
Y504720D01*
X682686D01*
X681980Y506740D01*
X683405Y508597D01*
X684301Y510759D01*
X684376Y511330D01*
X675640D01*
Y514830D01*
X684376D01*
X684301Y515401D01*
X683405Y517563D01*
X681980Y519420D01*
X681836Y519531D01*
X682526Y521563D01*
X707128D01*
X708963Y521805D01*
X710673Y522513D01*
X712142Y523640D01*
X718455Y529953D01*
X719669Y530113D01*
X721708Y530957D01*
X722680Y531703D01*
X729490D01*
Y530740D01*
D02*
G37*
G36*
X679155Y457817D02*
X679155Y457817D01*
X680246Y457087D01*
X681534Y456831D01*
X704226D01*
X707251Y453806D01*
X705955Y452228D01*
X705266Y452688D01*
X703978Y452945D01*
X703978Y452945D01*
X687269D01*
X687269Y452945D01*
X685982Y452688D01*
X684890Y451959D01*
X684890Y451959D01*
X684605Y451675D01*
X671493D01*
X670490Y453707D01*
X670705Y453987D01*
X671601Y456149D01*
X671676Y456720D01*
X662940D01*
Y460220D01*
X671676D01*
X671601Y460791D01*
X670705Y462953D01*
X669280Y464810D01*
X667423Y466235D01*
X665261Y467131D01*
X665648Y469075D01*
X667896D01*
X679155Y457817D01*
D02*
G37*
G36*
X711729Y425115D02*
Y410210D01*
Y398225D01*
X711500Y397926D01*
X710656Y395888D01*
X710368Y393700D01*
X710656Y391512D01*
X711500Y389474D01*
X711729Y389175D01*
Y330915D01*
X711500Y330616D01*
X710656Y328578D01*
X710368Y326390D01*
X710656Y324202D01*
X711500Y322164D01*
X711729Y321865D01*
Y311547D01*
X698148Y297966D01*
X696312Y297724D01*
X694274Y296880D01*
X692523Y295537D01*
X691245Y293870D01*
X691040Y293853D01*
X689213Y294523D01*
Y307169D01*
X690074Y307526D01*
X691825Y308869D01*
X693168Y310620D01*
X694012Y312659D01*
X694300Y314846D01*
X694012Y317034D01*
X693168Y319072D01*
X691825Y320823D01*
X690074Y322166D01*
X688036Y323010D01*
X685848Y323298D01*
X683660Y323010D01*
X681622Y322166D01*
X679871Y320823D01*
X678528Y319072D01*
X677684Y317034D01*
X677396Y314846D01*
X677536Y313782D01*
X676008Y312035D01*
X675806Y311960D01*
X675640Y311982D01*
X673452Y311694D01*
X671414Y310850D01*
X669663Y309507D01*
X669301Y309034D01*
X666739D01*
X666377Y309507D01*
X664626Y310850D01*
X662588Y311694D01*
X660400Y311982D01*
X658212Y311694D01*
X656174Y310850D01*
X654423Y309507D01*
X653080Y307756D01*
X652236Y305718D01*
X651948Y303530D01*
X652236Y301342D01*
X653080Y299304D01*
X654423Y297553D01*
X656174Y296210D01*
X657035Y295853D01*
Y284205D01*
X648949Y276119D01*
X647025Y277068D01*
X647172Y278186D01*
X646884Y280373D01*
X646039Y282412D01*
X644696Y284163D01*
X642946Y285506D01*
X640907Y286350D01*
X638719Y286638D01*
X636532Y286350D01*
X635170Y285786D01*
X633278Y286556D01*
X632924Y286863D01*
X632160Y288706D01*
X630817Y290457D01*
X629066Y291800D01*
X627028Y292644D01*
X624840Y292932D01*
X622652Y292644D01*
X620614Y291800D01*
X618863Y290457D01*
X617520Y288706D01*
X616676Y286668D01*
X616388Y284480D01*
X616676Y282292D01*
X617517Y280261D01*
X603816Y266560D01*
X602120Y267262D01*
X599933Y267550D01*
X597745Y267262D01*
X595707Y266418D01*
X593956Y265075D01*
X592613Y263324D01*
X591768Y261285D01*
X591480Y259098D01*
X591544Y258616D01*
X589564Y258086D01*
X588980Y259496D01*
X587637Y261247D01*
X585886Y262590D01*
X583848Y263434D01*
X581660Y263722D01*
X579472Y263434D01*
X577434Y262590D01*
X575683Y261247D01*
X574340Y259496D01*
X573870Y258361D01*
X571670D01*
X571200Y259496D01*
X569857Y261247D01*
X568106Y262590D01*
X566068Y263434D01*
X563880Y263722D01*
X561692Y263434D01*
X559654Y262590D01*
X557903Y261247D01*
X556560Y259496D01*
X556090Y258361D01*
X553890D01*
X553420Y259496D01*
X552077Y261247D01*
X550326Y262590D01*
X548288Y263434D01*
X546100Y263722D01*
X545828Y263687D01*
X544879Y265611D01*
X596834Y317566D01*
X597961Y319035D01*
X598669Y320745D01*
X598911Y322580D01*
Y338375D01*
X599140Y338674D01*
X599984Y340712D01*
X600216Y342473D01*
X600714Y343233D01*
X602137Y344306D01*
X675729D01*
X675729Y344306D01*
X677017Y344562D01*
X678108Y345292D01*
X693440Y360623D01*
X694169Y361715D01*
X694425Y363002D01*
X694425Y363002D01*
Y367098D01*
X694576Y367160D01*
X696327Y368504D01*
X697670Y370254D01*
X698514Y372293D01*
X698802Y374480D01*
X698514Y376668D01*
X697670Y378706D01*
X696327Y380457D01*
X694576Y381800D01*
X692538Y382645D01*
X692504Y382649D01*
X691775Y384795D01*
X707229Y400248D01*
X707229Y400248D01*
X707959Y401340D01*
X708215Y402627D01*
X708215Y402627D01*
Y424255D01*
X709852Y425893D01*
X711729Y425115D01*
D02*
G37*
%LPC*%
G36*
X636750Y901546D02*
Y894560D01*
X643736D01*
X643661Y895131D01*
X642765Y897293D01*
X641340Y899150D01*
X639483Y900575D01*
X637321Y901471D01*
X636750Y901546D01*
D02*
G37*
G36*
X633250D02*
X632679Y901471D01*
X630517Y900575D01*
X628660Y899150D01*
X627235Y897293D01*
X626339Y895131D01*
X626264Y894560D01*
X633250D01*
Y901546D01*
D02*
G37*
G36*
X643736Y891060D02*
X636750D01*
Y884074D01*
X637321Y884149D01*
X639483Y885045D01*
X641340Y886470D01*
X642765Y888327D01*
X643661Y890489D01*
X643736Y891060D01*
D02*
G37*
G36*
X633250D02*
X626264D01*
X626339Y890489D01*
X627235Y888327D01*
X628660Y886470D01*
X630517Y885045D01*
X632679Y884149D01*
X633250Y884074D01*
Y891060D01*
D02*
G37*
G36*
X740890Y887576D02*
Y880590D01*
X747876D01*
X747801Y881161D01*
X746905Y883323D01*
X745480Y885180D01*
X743623Y886605D01*
X741461Y887501D01*
X740890Y887576D01*
D02*
G37*
G36*
X737390D02*
X736819Y887501D01*
X734657Y886605D01*
X732800Y885180D01*
X731375Y883323D01*
X730479Y881161D01*
X730404Y880590D01*
X737390D01*
Y887576D01*
D02*
G37*
G36*
X728400Y875740D02*
X725110D01*
Y871700D01*
X728400D01*
Y875740D01*
D02*
G37*
G36*
X747876Y877090D02*
X740890D01*
Y870104D01*
X741461Y870179D01*
X743623Y871075D01*
X745480Y872500D01*
X746905Y874357D01*
X747801Y876519D01*
X747876Y877090D01*
D02*
G37*
G36*
X737390D02*
X730404D01*
X730479Y876519D01*
X731375Y874357D01*
X732800Y872500D01*
X734657Y871075D01*
X736819Y870179D01*
X737390Y870104D01*
Y877090D01*
D02*
G37*
G36*
X535790Y773750D02*
X531750D01*
Y770460D01*
X535790D01*
Y773750D01*
D02*
G37*
G36*
X661190Y664224D02*
X655574D01*
Y659624D01*
X661190D01*
Y664224D01*
D02*
G37*
G36*
X662940Y657874D02*
D01*
D01*
D01*
D02*
G37*
G36*
X650311Y657950D02*
X647210D01*
Y654662D01*
X648358Y654890D01*
X649384Y655576D01*
X650070Y656602D01*
X650311Y657812D01*
Y657950D01*
D02*
G37*
G36*
X670306Y656124D02*
X664690D01*
Y651524D01*
X670306D01*
Y656124D01*
D02*
G37*
G36*
X661190D02*
X655574D01*
Y651524D01*
X661190D01*
Y656124D01*
D02*
G37*
G36*
X624210Y645338D02*
X623062Y645110D01*
X622036Y644424D01*
X621350Y643398D01*
X621109Y642188D01*
Y642050D01*
X624210D01*
Y645338D01*
D02*
G37*
G36*
Y638550D02*
X621109D01*
Y638413D01*
X621350Y637202D01*
X622036Y636176D01*
X623062Y635490D01*
X624210Y635262D01*
Y638550D01*
D02*
G37*
G36*
X797560Y615310D02*
X790420D01*
Y601820D01*
X797560D01*
Y615310D01*
D02*
G37*
G36*
X812010Y608176D02*
Y601190D01*
X818996D01*
X818921Y601761D01*
X818025Y603923D01*
X816600Y605780D01*
X814743Y607205D01*
X812581Y608101D01*
X812010Y608176D01*
D02*
G37*
G36*
X808510D02*
X807939Y608101D01*
X805777Y607205D01*
X803920Y605780D01*
X802495Y603923D01*
X801599Y601761D01*
X801524Y601190D01*
X808510D01*
Y608176D01*
D02*
G37*
G36*
X818996Y597690D02*
X812010D01*
Y590704D01*
X812581Y590779D01*
X814743Y591675D01*
X816600Y593100D01*
X818025Y594957D01*
X818921Y597119D01*
X818996Y597690D01*
D02*
G37*
G36*
X808510D02*
X801524D01*
X801599Y597119D01*
X802495Y594957D01*
X803920Y593100D01*
X805777Y591675D01*
X807939Y590779D01*
X808510Y590704D01*
Y597690D01*
D02*
G37*
G36*
X797560Y598320D02*
X790420D01*
Y584830D01*
X797560D01*
Y598320D01*
D02*
G37*
G36*
X856460Y576426D02*
Y569440D01*
X863446D01*
X863371Y570011D01*
X862475Y572173D01*
X861050Y574030D01*
X859193Y575455D01*
X857031Y576351D01*
X856460Y576426D01*
D02*
G37*
G36*
X852960D02*
X852389Y576351D01*
X850227Y575455D01*
X848370Y574030D01*
X846945Y572173D01*
X846049Y570011D01*
X845974Y569440D01*
X852960D01*
Y576426D01*
D02*
G37*
G36*
X912340Y572616D02*
Y565630D01*
X919326D01*
X919251Y566201D01*
X918355Y568363D01*
X916930Y570220D01*
X915073Y571645D01*
X912911Y572541D01*
X912340Y572616D01*
D02*
G37*
G36*
X908840D02*
X908269Y572541D01*
X906107Y571645D01*
X904250Y570220D01*
X902825Y568363D01*
X901929Y566201D01*
X901854Y565630D01*
X908840D01*
Y572616D01*
D02*
G37*
G36*
X700024Y569976D02*
X695424D01*
Y564360D01*
X700024D01*
Y569976D01*
D02*
G37*
G36*
X691924D02*
X687324D01*
Y564360D01*
X691924D01*
Y569976D01*
D02*
G37*
G36*
X863446Y565940D02*
X856460D01*
Y558954D01*
X857031Y559029D01*
X859193Y559925D01*
X861050Y561350D01*
X862475Y563207D01*
X863371Y565369D01*
X863446Y565940D01*
D02*
G37*
G36*
X852960D02*
X845974D01*
X846049Y565369D01*
X846945Y563207D01*
X848370Y561350D01*
X850227Y559925D01*
X852389Y559029D01*
X852960Y558954D01*
Y565940D01*
D02*
G37*
G36*
X700024Y560860D02*
X695424D01*
Y555244D01*
X700024D01*
Y560860D01*
D02*
G37*
G36*
X691924D02*
X687324D01*
Y555244D01*
X691924D01*
Y560860D01*
D02*
G37*
G36*
X596646D02*
X592046D01*
Y555244D01*
X596646D01*
Y560860D01*
D02*
G37*
G36*
X919326Y562130D02*
X912340D01*
Y555144D01*
X912911Y555219D01*
X915073Y556115D01*
X916930Y557540D01*
X918355Y559397D01*
X919251Y561559D01*
X919326Y562130D01*
D02*
G37*
G36*
X908840D02*
X901854D01*
X901929Y561559D01*
X902825Y559397D01*
X904250Y557540D01*
X906107Y556115D01*
X908269Y555219D01*
X908840Y555144D01*
Y562130D01*
D02*
G37*
G36*
X397256Y554736D02*
X392656D01*
Y549120D01*
X397256D01*
Y554736D01*
D02*
G37*
G36*
X389156D02*
X384556D01*
Y549120D01*
X389156D01*
Y554736D01*
D02*
G37*
G36*
X243610Y574405D02*
X240138Y573948D01*
X236903Y572607D01*
X234124Y570476D01*
X231992Y567697D01*
X230652Y564462D01*
X230195Y560990D01*
X230652Y557518D01*
X231992Y554283D01*
X234124Y551504D01*
X236903Y549372D01*
X240138Y548032D01*
X243610Y547575D01*
X247082Y548032D01*
X250317Y549372D01*
X253096Y551504D01*
X255228Y554283D01*
X256568Y557518D01*
X257025Y560990D01*
X256568Y564462D01*
X255228Y567697D01*
X253096Y570476D01*
X250317Y572607D01*
X247082Y573948D01*
X243610Y574405D01*
D02*
G37*
G36*
X189860Y552921D02*
X179610D01*
X176859Y552559D01*
X174294Y551497D01*
X172093Y549807D01*
X170403Y547606D01*
X169734Y545989D01*
X167534D01*
X166971Y547348D01*
X165363Y549444D01*
X163268Y551051D01*
X160828Y552062D01*
X158210Y552407D01*
X134210D01*
X131592Y552062D01*
X129152Y551051D01*
X127057Y549444D01*
X125449Y547348D01*
X124438Y544908D01*
X124094Y542290D01*
X124438Y539672D01*
X125449Y537232D01*
X127057Y535136D01*
X129152Y533529D01*
X131592Y532518D01*
X134210Y532174D01*
X158210D01*
X160828Y532518D01*
X163268Y533529D01*
X165363Y535136D01*
X166971Y537232D01*
X167534Y538591D01*
X169734D01*
X170403Y536974D01*
X172093Y534773D01*
X174294Y533083D01*
X176859Y532021D01*
X179610Y531659D01*
X189860D01*
Y542290D01*
Y552921D01*
D02*
G37*
G36*
X203610D02*
X193360D01*
Y544040D01*
X214011D01*
X213879Y545042D01*
X212817Y547606D01*
X211127Y549807D01*
X208925Y551497D01*
X206362Y552559D01*
X203610Y552921D01*
D02*
G37*
G36*
X683514Y548386D02*
X678914D01*
Y542770D01*
X683514D01*
Y548386D01*
D02*
G37*
G36*
X397256Y545620D02*
X392656D01*
Y540004D01*
X397256D01*
Y545620D01*
D02*
G37*
G36*
X389156D02*
X384556D01*
Y540004D01*
X389156D01*
Y545620D01*
D02*
G37*
G36*
X517840Y546840D02*
Y539290D01*
X521739D01*
Y541540D01*
X521309Y543702D01*
X520084Y545534D01*
X518252Y546758D01*
X517840Y546840D01*
D02*
G37*
G36*
X1109580Y538560D02*
X1091290D01*
Y532770D01*
X1109580D01*
Y538560D01*
D02*
G37*
G36*
X1087790D02*
X1069500D01*
Y532770D01*
X1087790D01*
Y538560D01*
D02*
G37*
G36*
X214011Y540540D02*
X193360D01*
Y531659D01*
X203610D01*
X206362Y532021D01*
X208925Y533083D01*
X211127Y534773D01*
X212817Y536974D01*
X213879Y539538D01*
X214011Y540540D01*
D02*
G37*
G36*
X521739Y535790D02*
X517840D01*
Y528240D01*
X518252Y528321D01*
X520084Y529546D01*
X521309Y531378D01*
X521739Y533540D01*
Y535790D01*
D02*
G37*
G36*
X397256Y529336D02*
X392656D01*
Y523720D01*
X397256D01*
Y529336D01*
D02*
G37*
G36*
X389156D02*
X384556D01*
Y523720D01*
X389156D01*
Y529336D01*
D02*
G37*
G36*
X1109580Y529270D02*
X1091290D01*
Y523480D01*
X1109580D01*
Y529270D01*
D02*
G37*
G36*
X1087790D02*
X1069500D01*
Y523480D01*
X1087790D01*
Y529270D01*
D02*
G37*
G36*
X310520Y529590D02*
X297030D01*
Y522450D01*
X310520D01*
Y529590D01*
D02*
G37*
G36*
X293530D02*
X280040D01*
Y522450D01*
X293530D01*
Y529590D01*
D02*
G37*
G36*
X203610Y527006D02*
X179610D01*
X176992Y526662D01*
X174552Y525651D01*
X172457Y524044D01*
X170849Y521948D01*
X169968Y519822D01*
X168910Y519655D01*
X167852Y519822D01*
X166971Y521948D01*
X165363Y524044D01*
X163268Y525651D01*
X160828Y526662D01*
X158210Y527006D01*
X134210D01*
X131592Y526662D01*
X129152Y525651D01*
X127057Y524044D01*
X125449Y521948D01*
X124438Y519508D01*
X124094Y516890D01*
X124438Y514272D01*
X125449Y511832D01*
X127057Y509737D01*
X129152Y508129D01*
X131592Y507118D01*
X134210Y506773D01*
X158210D01*
X160828Y507118D01*
X163268Y508129D01*
X165363Y509737D01*
X166971Y511832D01*
X167852Y513958D01*
X168910Y514125D01*
X169968Y513958D01*
X170849Y511832D01*
X172457Y509737D01*
X174552Y508129D01*
X176992Y507118D01*
X179610Y506773D01*
X203610D01*
X206228Y507118D01*
X208668Y508129D01*
X210763Y509737D01*
X212371Y511832D01*
X213382Y514272D01*
X213727Y516890D01*
X213382Y519508D01*
X212371Y521948D01*
X210763Y524044D01*
X208668Y525651D01*
X206228Y526662D01*
X203610Y527006D01*
D02*
G37*
G36*
X1139500Y526570D02*
X1118836D01*
X1119020Y525170D01*
X1120236Y522235D01*
X1122170Y519715D01*
X1124690Y517781D01*
X1127625Y516566D01*
X1130775Y516151D01*
X1139500D01*
Y526570D01*
D02*
G37*
G36*
X397256Y520220D02*
X392656D01*
Y514604D01*
X397256D01*
Y520220D01*
D02*
G37*
G36*
X389156D02*
X384556D01*
Y514604D01*
X389156D01*
Y520220D01*
D02*
G37*
G36*
X325120Y529152D02*
X322932Y528864D01*
X320894Y528020D01*
X319143Y526677D01*
X317800Y524926D01*
X316956Y522888D01*
X316668Y520700D01*
X316956Y518512D01*
X317800Y516474D01*
X319143Y514723D01*
X320894Y513380D01*
X322932Y512536D01*
X325120Y512248D01*
X327308Y512536D01*
X329346Y513380D01*
X331097Y514723D01*
X332440Y516474D01*
X332797Y517335D01*
X335150D01*
Y512320D01*
X364610D01*
Y529080D01*
X335150D01*
Y524065D01*
X332797D01*
X332440Y524926D01*
X331097Y526677D01*
X329346Y528020D01*
X327308Y528864D01*
X325120Y529152D01*
D02*
G37*
G36*
X310520Y518950D02*
X297030D01*
Y511810D01*
X310520D01*
Y518950D01*
D02*
G37*
G36*
X293530D02*
X280040D01*
Y511810D01*
X293530D01*
Y518950D01*
D02*
G37*
G36*
X1159370Y513850D02*
X1121310D01*
Y495790D01*
X1159370D01*
Y513850D01*
D02*
G37*
G36*
X203610Y501606D02*
X179610D01*
X176992Y501262D01*
X174552Y500251D01*
X172457Y498643D01*
X170849Y496548D01*
X169968Y494422D01*
X168910Y494255D01*
X167852Y494422D01*
X166971Y496548D01*
X165363Y498643D01*
X163268Y500251D01*
X160828Y501262D01*
X158210Y501606D01*
X134210D01*
X131592Y501262D01*
X129152Y500251D01*
X127057Y498643D01*
X125449Y496548D01*
X124438Y494108D01*
X124094Y491490D01*
X124438Y488872D01*
X125449Y486432D01*
X127057Y484337D01*
X129152Y482729D01*
X131592Y481718D01*
X134210Y481373D01*
X158210D01*
X160828Y481718D01*
X163268Y482729D01*
X165363Y484337D01*
X166971Y486432D01*
X167852Y488558D01*
X168910Y488725D01*
X169968Y488558D01*
X170849Y486432D01*
X172457Y484337D01*
X174552Y482729D01*
X176992Y481718D01*
X179610Y481373D01*
X203610D01*
X206228Y481718D01*
X208668Y482729D01*
X210763Y484337D01*
X212371Y486432D01*
X213382Y488872D01*
X213727Y491490D01*
X213382Y494108D01*
X212371Y496548D01*
X210763Y498643D01*
X208668Y500251D01*
X206228Y501262D01*
X203610Y501606D01*
D02*
G37*
G36*
X937020Y474170D02*
X926730D01*
Y470380D01*
X937020D01*
Y474170D01*
D02*
G37*
G36*
X1014545Y469038D02*
X1013820D01*
Y461850D01*
X1019658D01*
Y463925D01*
X1019269Y465882D01*
X1018161Y467541D01*
X1016502Y468649D01*
X1014545Y469038D01*
D02*
G37*
G36*
X956084Y463296D02*
X951484D01*
Y457680D01*
X956084D01*
Y463296D01*
D02*
G37*
G36*
X484886Y458216D02*
X479270D01*
Y453616D01*
X484886D01*
Y458216D01*
D02*
G37*
G36*
X475770D02*
X470154D01*
Y453616D01*
X475770D01*
Y458216D01*
D02*
G37*
G36*
X964184Y454180D02*
X959584D01*
Y448564D01*
X964184D01*
Y454180D01*
D02*
G37*
G36*
X956084D02*
X951484D01*
Y448564D01*
X956084D01*
Y454180D01*
D02*
G37*
G36*
X484886Y450116D02*
X479270D01*
Y445516D01*
X484886D01*
Y450116D01*
D02*
G37*
G36*
X475770D02*
X470154D01*
Y445516D01*
X475770D01*
Y450116D01*
D02*
G37*
G36*
X364610Y478280D02*
X335150D01*
Y461520D01*
X337053D01*
Y448367D01*
X336192Y448010D01*
X334441Y446667D01*
X333098Y444916D01*
X332254Y442878D01*
X331966Y440690D01*
X332254Y438502D01*
X333098Y436464D01*
X334441Y434713D01*
X336192Y433370D01*
X338231Y432526D01*
X340418Y432238D01*
X342606Y432526D01*
X344644Y433370D01*
X346395Y434713D01*
X347738Y436464D01*
X348582Y438502D01*
X348871Y440690D01*
X348582Y442878D01*
X347738Y444916D01*
X346395Y446667D01*
X344644Y448010D01*
X343783Y448367D01*
Y461520D01*
X364610D01*
Y478280D01*
D02*
G37*
G36*
X1110770Y423400D02*
X1099230D01*
Y420610D01*
X1110770D01*
Y423400D01*
D02*
G37*
G36*
X1091410Y424026D02*
Y417040D01*
X1098396D01*
X1098321Y417611D01*
X1097425Y419773D01*
X1096000Y421630D01*
X1094143Y423055D01*
X1091981Y423951D01*
X1091410Y424026D01*
D02*
G37*
G36*
X1087910D02*
X1087339Y423951D01*
X1085177Y423055D01*
X1083320Y421630D01*
X1081895Y419773D01*
X1080999Y417611D01*
X1080924Y417040D01*
X1087910D01*
Y424026D01*
D02*
G37*
G36*
X1098396Y413540D02*
X1091410D01*
Y406554D01*
X1091981Y406629D01*
X1094143Y407525D01*
X1096000Y408950D01*
X1097425Y410807D01*
X1098321Y412969D01*
X1098396Y413540D01*
D02*
G37*
G36*
X1087910D02*
X1080924D01*
X1080999Y412969D01*
X1081895Y410807D01*
X1083320Y408950D01*
X1085177Y407525D01*
X1087339Y406629D01*
X1087910Y406554D01*
Y413540D01*
D02*
G37*
G36*
X744700Y369416D02*
Y362430D01*
X751686D01*
X751611Y363001D01*
X750715Y365163D01*
X749290Y367020D01*
X747433Y368445D01*
X745271Y369341D01*
X744700Y369416D01*
D02*
G37*
G36*
X741200D02*
X740629Y369341D01*
X738467Y368445D01*
X736610Y367020D01*
X735185Y365163D01*
X734289Y363001D01*
X734214Y362430D01*
X741200D01*
Y369416D01*
D02*
G37*
G36*
X751686Y358930D02*
X744700D01*
Y351944D01*
X745271Y352019D01*
X747433Y352915D01*
X749290Y354340D01*
X750715Y356197D01*
X751611Y358359D01*
X751686Y358930D01*
D02*
G37*
G36*
X741200D02*
X734214D01*
X734289Y358359D01*
X735185Y356197D01*
X736610Y354340D01*
X738467Y352915D01*
X740629Y352019D01*
X741200Y351944D01*
Y358930D01*
D02*
G37*
G36*
X552930Y344016D02*
Y337030D01*
X559916D01*
X559841Y337601D01*
X558945Y339763D01*
X557520Y341620D01*
X555663Y343045D01*
X553501Y343941D01*
X552930Y344016D01*
D02*
G37*
G36*
X549430D02*
X548859Y343941D01*
X546697Y343045D01*
X544840Y341620D01*
X543415Y339763D01*
X542519Y337601D01*
X542444Y337030D01*
X549430D01*
Y344016D01*
D02*
G37*
G36*
X559916Y333530D02*
X552930D01*
Y326544D01*
X553501Y326619D01*
X555663Y327515D01*
X557520Y328940D01*
X558945Y330797D01*
X559841Y332959D01*
X559916Y333530D01*
D02*
G37*
G36*
X549430D02*
X542444D01*
X542519Y332959D01*
X543415Y330797D01*
X544840Y328940D01*
X546697Y327515D01*
X548859Y326619D01*
X549430Y326544D01*
Y333530D01*
D02*
G37*
G36*
X203610Y323806D02*
X179610D01*
X176992Y323462D01*
X174552Y322451D01*
X172457Y320844D01*
X170849Y318748D01*
X169968Y316622D01*
X168910Y316455D01*
X167852Y316622D01*
X166971Y318748D01*
X165363Y320844D01*
X163268Y322451D01*
X160828Y323462D01*
X158210Y323806D01*
X134210D01*
X131592Y323462D01*
X129152Y322451D01*
X127057Y320844D01*
X125449Y318748D01*
X124438Y316308D01*
X124094Y313690D01*
X124438Y311072D01*
X125449Y308632D01*
X127057Y306537D01*
X129152Y304929D01*
X131592Y303918D01*
X134210Y303573D01*
X158210D01*
X160828Y303918D01*
X163268Y304929D01*
X165363Y306537D01*
X166971Y308632D01*
X167852Y310758D01*
X168910Y310925D01*
X169968Y310758D01*
X170849Y308632D01*
X172457Y306537D01*
X174552Y304929D01*
X176992Y303918D01*
X179610Y303573D01*
X203610D01*
X206228Y303918D01*
X208668Y304929D01*
X210763Y306537D01*
X212371Y308632D01*
X213382Y311072D01*
X213727Y313690D01*
X213382Y316308D01*
X212371Y318748D01*
X210763Y320844D01*
X208668Y322451D01*
X206228Y323462D01*
X203610Y323806D01*
D02*
G37*
G36*
X522450Y313536D02*
Y306550D01*
X529436D01*
X529361Y307121D01*
X528465Y309283D01*
X527040Y311140D01*
X525183Y312565D01*
X523021Y313461D01*
X522450Y313536D01*
D02*
G37*
G36*
X518950D02*
X518379Y313461D01*
X516217Y312565D01*
X514360Y311140D01*
X512935Y309283D01*
X512039Y307121D01*
X511964Y306550D01*
X518950D01*
Y313536D01*
D02*
G37*
G36*
X529436Y303050D02*
X522450D01*
Y296064D01*
X523021Y296139D01*
X525183Y297035D01*
X527040Y298460D01*
X528465Y300317D01*
X529361Y302479D01*
X529436Y303050D01*
D02*
G37*
G36*
X518950D02*
X511964D01*
X512039Y302479D01*
X512935Y300317D01*
X514360Y298460D01*
X516217Y297035D01*
X518379Y296139D01*
X518950Y296064D01*
Y303050D01*
D02*
G37*
G36*
X203610Y298407D02*
X179610D01*
X176992Y298062D01*
X174552Y297051D01*
X172457Y295443D01*
X170849Y293348D01*
X169968Y291222D01*
X168910Y291055D01*
X167852Y291222D01*
X166971Y293348D01*
X165363Y295443D01*
X163268Y297051D01*
X160828Y298062D01*
X158210Y298407D01*
X134210D01*
X131592Y298062D01*
X129152Y297051D01*
X127057Y295443D01*
X125449Y293348D01*
X124438Y290908D01*
X124094Y288290D01*
X124438Y285672D01*
X125449Y283232D01*
X127057Y281136D01*
X129152Y279529D01*
X131592Y278518D01*
X134210Y278174D01*
X158210D01*
X160828Y278518D01*
X163268Y279529D01*
X165363Y281136D01*
X166971Y283232D01*
X167852Y285358D01*
X168910Y285525D01*
X169968Y285358D01*
X170849Y283232D01*
X172457Y281136D01*
X174552Y279529D01*
X176992Y278518D01*
X179610Y278174D01*
X203610D01*
X206228Y278518D01*
X208668Y279529D01*
X210763Y281136D01*
X212371Y283232D01*
X213382Y285672D01*
X213727Y288290D01*
X213382Y290908D01*
X212371Y293348D01*
X210763Y295443D01*
X208668Y297051D01*
X206228Y298062D01*
X203610Y298407D01*
D02*
G37*
G36*
X522450Y284326D02*
Y277340D01*
X529436D01*
X529361Y277911D01*
X528465Y280073D01*
X527040Y281930D01*
X525183Y283355D01*
X523021Y284251D01*
X522450Y284326D01*
D02*
G37*
G36*
X518950D02*
X518379Y284251D01*
X516217Y283355D01*
X514360Y281930D01*
X512935Y280073D01*
X512039Y277911D01*
X511964Y277340D01*
X518950D01*
Y284326D01*
D02*
G37*
G36*
X832330Y275436D02*
Y268450D01*
X839316D01*
X839241Y269021D01*
X838345Y271183D01*
X836920Y273040D01*
X835063Y274465D01*
X832901Y275361D01*
X832330Y275436D01*
D02*
G37*
G36*
X828830D02*
X828259Y275361D01*
X826097Y274465D01*
X824240Y273040D01*
X822815Y271183D01*
X821919Y269021D01*
X821844Y268450D01*
X828830D01*
Y275436D01*
D02*
G37*
G36*
X518950Y273840D02*
X511964D01*
X512039Y273269D01*
X512935Y271107D01*
X514360Y269250D01*
X516217Y267825D01*
X518379Y266929D01*
X518950Y266854D01*
Y273840D01*
D02*
G37*
G36*
X203610Y273006D02*
X179610D01*
X176992Y272662D01*
X174552Y271651D01*
X172457Y270044D01*
X170849Y267948D01*
X169968Y265822D01*
X168910Y265655D01*
X167852Y265822D01*
X166971Y267948D01*
X165363Y270044D01*
X163268Y271651D01*
X160828Y272662D01*
X158210Y273006D01*
X134210D01*
X131592Y272662D01*
X129152Y271651D01*
X127057Y270044D01*
X125449Y267948D01*
X124438Y265508D01*
X124094Y262890D01*
X124438Y260272D01*
X125449Y257832D01*
X127057Y255737D01*
X129152Y254129D01*
X131592Y253118D01*
X134210Y252773D01*
X158210D01*
X160828Y253118D01*
X163268Y254129D01*
X165363Y255737D01*
X166971Y257832D01*
X167852Y259958D01*
X168910Y260125D01*
X169968Y259958D01*
X170849Y257832D01*
X172457Y255737D01*
X174552Y254129D01*
X176992Y253118D01*
X179610Y252773D01*
X203610D01*
X206228Y253118D01*
X208668Y254129D01*
X210763Y255737D01*
X212371Y257832D01*
X213382Y260272D01*
X213727Y262890D01*
X213382Y265508D01*
X212371Y267948D01*
X210763Y270044D01*
X208668Y271651D01*
X206228Y272662D01*
X203610Y273006D01*
D02*
G37*
G36*
X839316Y264950D02*
X832330D01*
Y257964D01*
X832901Y258039D01*
X835063Y258935D01*
X836920Y260360D01*
X838345Y262217D01*
X839241Y264379D01*
X839316Y264950D01*
D02*
G37*
G36*
X828830D02*
X821844D01*
X821919Y264379D01*
X822815Y262217D01*
X824240Y260360D01*
X826097Y258935D01*
X828259Y258039D01*
X828830Y257964D01*
Y264950D01*
D02*
G37*
G36*
X203610Y247607D02*
X179610D01*
X176992Y247262D01*
X174552Y246251D01*
X172457Y244643D01*
X170849Y242548D01*
X169968Y240422D01*
X168910Y240255D01*
X167852Y240422D01*
X166971Y242548D01*
X165363Y244643D01*
X163268Y246251D01*
X160828Y247262D01*
X158210Y247607D01*
X134210D01*
X131592Y247262D01*
X129152Y246251D01*
X127057Y244643D01*
X125449Y242548D01*
X124438Y240108D01*
X124094Y237490D01*
X124438Y234872D01*
X125449Y232432D01*
X127057Y230336D01*
X129152Y228729D01*
X131592Y227718D01*
X134210Y227374D01*
X158210D01*
X160828Y227718D01*
X163268Y228729D01*
X165363Y230336D01*
X166971Y232432D01*
X167852Y234558D01*
X168910Y234725D01*
X169968Y234558D01*
X170849Y232432D01*
X172457Y230336D01*
X174552Y228729D01*
X176992Y227718D01*
X179610Y227374D01*
X203610D01*
X206228Y227718D01*
X208668Y228729D01*
X210763Y230336D01*
X212371Y232432D01*
X213382Y234872D01*
X213727Y237490D01*
X213382Y240108D01*
X212371Y242548D01*
X210763Y244643D01*
X208668Y246251D01*
X206228Y247262D01*
X203610Y247607D01*
D02*
G37*
G36*
X883920Y291662D02*
X881732Y291374D01*
X879694Y290530D01*
X877943Y289187D01*
X876600Y287436D01*
X875756Y285398D01*
X875468Y283210D01*
X875756Y281022D01*
X876600Y278984D01*
X877943Y277233D01*
X879694Y275890D01*
X880555Y275533D01*
Y241197D01*
X879694Y240840D01*
X877943Y239497D01*
X876600Y237746D01*
X875756Y235708D01*
X875468Y233520D01*
X875756Y231332D01*
X876600Y229294D01*
X877943Y227543D01*
X879694Y226200D01*
X881732Y225356D01*
X883920Y225068D01*
X886108Y225356D01*
X888146Y226200D01*
X889897Y227543D01*
X891240Y229294D01*
X892084Y231332D01*
X892372Y233520D01*
X892084Y235708D01*
X891240Y237746D01*
X889897Y239497D01*
X888146Y240840D01*
X887285Y241197D01*
Y275533D01*
X888146Y275890D01*
X889897Y277233D01*
X891240Y278984D01*
X892084Y281022D01*
X892372Y283210D01*
X892084Y285398D01*
X891240Y287436D01*
X889897Y289187D01*
X888146Y290530D01*
X886108Y291374D01*
X883920Y291662D01*
D02*
G37*
G36*
X203610Y222206D02*
X179610D01*
X176992Y221862D01*
X174552Y220851D01*
X172457Y219244D01*
X170849Y217148D01*
X169968Y215022D01*
X168910Y214855D01*
X167852Y215022D01*
X166971Y217148D01*
X165363Y219244D01*
X163268Y220851D01*
X160828Y221862D01*
X158210Y222206D01*
X134210D01*
X131592Y221862D01*
X129152Y220851D01*
X127057Y219244D01*
X125449Y217148D01*
X124438Y214708D01*
X124094Y212090D01*
X124438Y209472D01*
X125449Y207032D01*
X127057Y204937D01*
X129152Y203329D01*
X131592Y202318D01*
X134210Y201973D01*
X158210D01*
X160828Y202318D01*
X163268Y203329D01*
X165363Y204937D01*
X166971Y207032D01*
X167852Y209158D01*
X168910Y209325D01*
X169968Y209158D01*
X170849Y207032D01*
X172457Y204937D01*
X174552Y203329D01*
X176992Y202318D01*
X179610Y201973D01*
X203610D01*
X206228Y202318D01*
X208668Y203329D01*
X210763Y204937D01*
X212371Y207032D01*
X213382Y209472D01*
X213727Y212090D01*
X213382Y214708D01*
X212371Y217148D01*
X210763Y219244D01*
X208668Y220851D01*
X206228Y221862D01*
X203610Y222206D01*
D02*
G37*
G36*
X859790Y290392D02*
X857602Y290104D01*
X855564Y289260D01*
X853813Y287917D01*
X852470Y286166D01*
X851626Y284128D01*
X851338Y281940D01*
X851626Y279752D01*
X852470Y277714D01*
X853813Y275963D01*
X855564Y274620D01*
X856425Y274263D01*
Y214687D01*
X855564Y214330D01*
X853813Y212987D01*
X852470Y211236D01*
X851626Y209198D01*
X851338Y207010D01*
X851626Y204822D01*
X852470Y202784D01*
X853813Y201033D01*
X855564Y199690D01*
X857602Y198846D01*
X859790Y198558D01*
X861978Y198846D01*
X864016Y199690D01*
X865767Y201033D01*
X867110Y202784D01*
X867954Y204822D01*
X868242Y207010D01*
X867954Y209198D01*
X867110Y211236D01*
X865767Y212987D01*
X864016Y214330D01*
X863155Y214687D01*
Y274263D01*
X864016Y274620D01*
X865767Y275963D01*
X867110Y277714D01*
X867954Y279752D01*
X868242Y281940D01*
X867954Y284128D01*
X867110Y286166D01*
X865767Y287917D01*
X864016Y289260D01*
X861978Y290104D01*
X859790Y290392D01*
D02*
G37*
G36*
X203610Y196807D02*
X179610D01*
X176992Y196462D01*
X174552Y195451D01*
X172457Y193843D01*
X170849Y191748D01*
X169968Y189622D01*
X168910Y189455D01*
X167852Y189622D01*
X166971Y191748D01*
X165363Y193843D01*
X163268Y195451D01*
X160828Y196462D01*
X158210Y196807D01*
X134210D01*
X131592Y196462D01*
X129152Y195451D01*
X127057Y193843D01*
X125449Y191748D01*
X124438Y189308D01*
X124094Y186690D01*
X124438Y184072D01*
X125449Y181632D01*
X127057Y179536D01*
X129152Y177929D01*
X131592Y176918D01*
X134210Y176574D01*
X158210D01*
X160828Y176918D01*
X163268Y177929D01*
X165363Y179536D01*
X166971Y181632D01*
X167852Y183758D01*
X168910Y183925D01*
X169968Y183758D01*
X170849Y181632D01*
X172457Y179536D01*
X174552Y177929D01*
X176992Y176918D01*
X179610Y176574D01*
X203610D01*
X206228Y176918D01*
X208668Y177929D01*
X210763Y179536D01*
X212371Y181632D01*
X213382Y184072D01*
X213727Y186690D01*
X213382Y189308D01*
X212371Y191748D01*
X210763Y193843D01*
X208668Y195451D01*
X206228Y196462D01*
X203610Y196807D01*
D02*
G37*
G36*
Y171406D02*
X179610D01*
X176992Y171062D01*
X174552Y170051D01*
X172457Y168444D01*
X170849Y166348D01*
X169968Y164222D01*
X168910Y164055D01*
X167852Y164222D01*
X166971Y166348D01*
X165363Y168444D01*
X163268Y170051D01*
X160828Y171062D01*
X158210Y171406D01*
X134210D01*
X131592Y171062D01*
X129152Y170051D01*
X127057Y168444D01*
X125449Y166348D01*
X124438Y163908D01*
X124094Y161290D01*
X124438Y158672D01*
X125449Y156232D01*
X127057Y154136D01*
X129152Y152529D01*
X131592Y151518D01*
X134210Y151173D01*
X158210D01*
X160828Y151518D01*
X163268Y152529D01*
X165363Y154136D01*
X166971Y156232D01*
X167852Y158358D01*
X168910Y158525D01*
X169968Y158358D01*
X170849Y156232D01*
X172457Y154136D01*
X174552Y152529D01*
X176992Y151518D01*
X179610Y151173D01*
X203610D01*
X206228Y151518D01*
X208668Y152529D01*
X210763Y154136D01*
X212371Y156232D01*
X213382Y158672D01*
X213727Y161290D01*
X213382Y163908D01*
X212371Y166348D01*
X210763Y168444D01*
X208668Y170051D01*
X206228Y171062D01*
X203610Y171406D01*
D02*
G37*
G36*
X810260Y160852D02*
X808072Y160564D01*
X806034Y159720D01*
X805689Y159455D01*
X571248D01*
X570995Y159649D01*
X568957Y160493D01*
X566769Y160781D01*
X564581Y160493D01*
X562543Y159649D01*
X560792Y158306D01*
X559449Y156555D01*
X558605Y154516D01*
X558317Y152329D01*
X558605Y150141D01*
X559449Y148103D01*
X560792Y146352D01*
X562543Y145009D01*
X564581Y144164D01*
X566769Y143876D01*
X568957Y144164D01*
X570995Y145009D01*
X571340Y145274D01*
X805781D01*
X806034Y145080D01*
X808072Y144236D01*
X810260Y143948D01*
X812448Y144236D01*
X814486Y145080D01*
X816237Y146423D01*
X817580Y148174D01*
X818424Y150212D01*
X818712Y152400D01*
X818424Y154588D01*
X817580Y156626D01*
X816237Y158377D01*
X814486Y159720D01*
X812448Y160564D01*
X810260Y160852D01*
D02*
G37*
G36*
X203610Y146006D02*
X179610D01*
X176992Y145662D01*
X174552Y144651D01*
X172457Y143043D01*
X170849Y140948D01*
X169968Y138822D01*
X168910Y138655D01*
X167852Y138822D01*
X166971Y140948D01*
X165363Y143043D01*
X163268Y144651D01*
X160828Y145662D01*
X158210Y146006D01*
X134210D01*
X131592Y145662D01*
X129152Y144651D01*
X127057Y143043D01*
X125449Y140948D01*
X124438Y138508D01*
X124094Y135890D01*
X124438Y133272D01*
X125449Y130832D01*
X127057Y128736D01*
X129152Y127129D01*
X131592Y126118D01*
X134210Y125773D01*
X158210D01*
X160828Y126118D01*
X163268Y127129D01*
X165363Y128736D01*
X166971Y130832D01*
X167852Y132958D01*
X168910Y133125D01*
X169968Y132958D01*
X170849Y130832D01*
X172457Y128736D01*
X174552Y127129D01*
X176992Y126118D01*
X179610Y125773D01*
X203610D01*
X206228Y126118D01*
X208668Y127129D01*
X210763Y128736D01*
X212371Y130832D01*
X213382Y133272D01*
X213727Y135890D01*
X213382Y138508D01*
X212371Y140948D01*
X210763Y143043D01*
X208668Y144651D01*
X206228Y145662D01*
X203610Y146006D01*
D02*
G37*
G36*
X480540Y140816D02*
Y133830D01*
X487526D01*
X487451Y134401D01*
X486555Y136563D01*
X485130Y138420D01*
X483273Y139845D01*
X481111Y140741D01*
X480540Y140816D01*
D02*
G37*
G36*
X477040D02*
X476469Y140741D01*
X474307Y139845D01*
X472450Y138420D01*
X471025Y136563D01*
X470129Y134401D01*
X470054Y133830D01*
X477040D01*
Y140816D01*
D02*
G37*
G36*
X487526Y130330D02*
X480540D01*
Y123344D01*
X481111Y123419D01*
X483273Y124315D01*
X485130Y125740D01*
X486555Y127597D01*
X487451Y129759D01*
X487526Y130330D01*
D02*
G37*
G36*
X477040D02*
X470054D01*
X470129Y129759D01*
X471025Y127597D01*
X472450Y125740D01*
X474307Y124315D01*
X476469Y123419D01*
X477040Y123344D01*
Y130330D01*
D02*
G37*
G36*
X1119370Y155360D02*
X1078580D01*
Y114570D01*
X1119370D01*
Y155360D01*
D02*
G37*
G36*
X203610Y120606D02*
X179610D01*
X176992Y120262D01*
X174552Y119251D01*
X172457Y117643D01*
X170849Y115548D01*
X169968Y113422D01*
X168910Y113255D01*
X167852Y113422D01*
X166971Y115548D01*
X165363Y117643D01*
X163268Y119251D01*
X160828Y120262D01*
X158210Y120606D01*
X134210D01*
X131592Y120262D01*
X129152Y119251D01*
X127057Y117643D01*
X125449Y115548D01*
X124438Y113108D01*
X124094Y110490D01*
X124438Y107872D01*
X125449Y105432D01*
X127057Y103336D01*
X129152Y101729D01*
X131592Y100718D01*
X134210Y100373D01*
X158210D01*
X160828Y100718D01*
X163268Y101729D01*
X165363Y103336D01*
X166971Y105432D01*
X167852Y107558D01*
X168910Y107725D01*
X169968Y107558D01*
X170849Y105432D01*
X172457Y103336D01*
X174552Y101729D01*
X176992Y100718D01*
X179610Y100373D01*
X203610D01*
X206228Y100718D01*
X208668Y101729D01*
X210763Y103336D01*
X212371Y105432D01*
X213382Y107872D01*
X213727Y110490D01*
X213382Y113108D01*
X212371Y115548D01*
X210763Y117643D01*
X208668Y119251D01*
X206228Y120262D01*
X203610Y120606D01*
D02*
G37*
G36*
Y95206D02*
X179610D01*
X176992Y94862D01*
X174552Y93851D01*
X172457Y92243D01*
X170849Y90148D01*
X169968Y88022D01*
X168910Y87855D01*
X167852Y88022D01*
X166971Y90148D01*
X165363Y92243D01*
X163268Y93851D01*
X160828Y94862D01*
X158210Y95206D01*
X134210D01*
X131592Y94862D01*
X129152Y93851D01*
X127057Y92243D01*
X125449Y90148D01*
X124438Y87708D01*
X124094Y85090D01*
X124438Y82472D01*
X125449Y80032D01*
X127057Y77937D01*
X129152Y76329D01*
X131592Y75318D01*
X134210Y74974D01*
X158210D01*
X160828Y75318D01*
X163268Y76329D01*
X165363Y77937D01*
X166971Y80032D01*
X167852Y82158D01*
X168910Y82325D01*
X169968Y82158D01*
X170849Y80032D01*
X172457Y77937D01*
X174552Y76329D01*
X176992Y75318D01*
X179610Y74974D01*
X203610D01*
X206228Y75318D01*
X208668Y76329D01*
X210763Y77937D01*
X212371Y80032D01*
X213382Y82472D01*
X213727Y85090D01*
X213382Y87708D01*
X212371Y90148D01*
X210763Y92243D01*
X208668Y93851D01*
X206228Y94862D01*
X203610Y95206D01*
D02*
G37*
G36*
X333150Y350850D02*
X249090D01*
Y266790D01*
X278986D01*
Y154850D01*
X249090D01*
Y70790D01*
X333150D01*
Y154850D01*
X303254D01*
Y266790D01*
X333150D01*
Y350850D01*
D02*
G37*
G36*
X1119370Y111070D02*
X1078580D01*
Y70280D01*
X1119370D01*
Y111070D01*
D02*
G37*
G36*
X828610Y54405D02*
X825138Y53948D01*
X821903Y52607D01*
X819124Y50476D01*
X816992Y47697D01*
X815652Y44462D01*
X815195Y40990D01*
X815652Y37518D01*
X816992Y34283D01*
X819124Y31504D01*
X821903Y29372D01*
X825138Y28032D01*
X828610Y27575D01*
X832082Y28032D01*
X835317Y29372D01*
X838096Y31504D01*
X840228Y34283D01*
X841568Y37518D01*
X842025Y40990D01*
X841568Y44462D01*
X840228Y47697D01*
X838096Y50476D01*
X835317Y52607D01*
X832082Y53948D01*
X828610Y54405D01*
D02*
G37*
G36*
X583290Y510310D02*
X578150D01*
Y504670D01*
X583290D01*
Y510310D01*
D02*
G37*
G36*
X598380Y509800D02*
X585620D01*
Y496040D01*
X598380D01*
Y499814D01*
X603065D01*
X604254Y500051D01*
X604917Y500494D01*
X607920D01*
Y500360D01*
X608429D01*
Y500079D01*
X612585D01*
X616740D01*
Y500360D01*
X617250D01*
Y502650D01*
X617250D01*
Y504570D01*
X617250D01*
Y506860D01*
X616740D01*
Y507141D01*
X612585D01*
X608429D01*
Y506860D01*
X607920D01*
Y506706D01*
X603745D01*
X602556Y506469D01*
X601893Y506026D01*
X598380D01*
Y509800D01*
D02*
G37*
G36*
X638656Y504980D02*
X631670D01*
Y497994D01*
X632241Y498069D01*
X634403Y498965D01*
X636260Y500390D01*
X637685Y502247D01*
X638581Y504409D01*
X638656Y504980D01*
D02*
G37*
G36*
X628170D02*
X621184D01*
X621259Y504409D01*
X622155Y502247D01*
X623580Y500390D01*
X625437Y498965D01*
X627599Y498069D01*
X628170Y497994D01*
Y504980D01*
D02*
G37*
G36*
X583290Y501170D02*
X578150D01*
Y495530D01*
X583290D01*
Y501170D01*
D02*
G37*
G36*
X591030Y491336D02*
Y484350D01*
X598016D01*
X597941Y484921D01*
X597045Y487083D01*
X595620Y488940D01*
X593763Y490365D01*
X591601Y491261D01*
X591030Y491336D01*
D02*
G37*
G36*
X587530D02*
X586959Y491261D01*
X584797Y490365D01*
X582940Y488940D01*
X581515Y487083D01*
X580619Y484921D01*
X580544Y484350D01*
X587530D01*
Y491336D01*
D02*
G37*
G36*
X598016Y480850D02*
X591030D01*
Y473864D01*
X591601Y473939D01*
X593763Y474835D01*
X595620Y476260D01*
X597045Y478117D01*
X597941Y480279D01*
X598016Y480850D01*
D02*
G37*
G36*
X587530D02*
X580544D01*
X580619Y480279D01*
X581515Y478117D01*
X582940Y476260D01*
X584797Y474835D01*
X586959Y473939D01*
X587530Y473864D01*
Y480850D01*
D02*
G37*
G36*
X701760Y505230D02*
X696620D01*
Y499590D01*
X701760D01*
Y505230D01*
D02*
G37*
G36*
X693120D02*
X687980D01*
Y499590D01*
X693120D01*
Y505230D01*
D02*
G37*
G36*
X701760Y496090D02*
X696620D01*
Y490450D01*
X701760D01*
Y496090D01*
D02*
G37*
G36*
X693120D02*
X687980D01*
Y490450D01*
X693120D01*
Y496090D01*
D02*
G37*
G36*
X701760Y487450D02*
X696620D01*
Y481810D01*
X701760D01*
Y487450D01*
D02*
G37*
G36*
X693120D02*
X687980D01*
Y481810D01*
X693120D01*
Y487450D01*
D02*
G37*
G36*
X701760Y478310D02*
X696620D01*
Y472670D01*
X701760D01*
Y478310D01*
D02*
G37*
G36*
X693120D02*
X687980D01*
Y472670D01*
X693120D01*
Y478310D01*
D02*
G37*
G36*
X780570Y430050D02*
X773584D01*
X773659Y429479D01*
X774555Y427317D01*
X775980Y425460D01*
X777837Y424035D01*
X779999Y423139D01*
X780570Y423064D01*
Y430050D01*
D02*
G37*
G36*
X695170Y351636D02*
Y344650D01*
X702156D01*
X702081Y345221D01*
X701185Y347383D01*
X699760Y349240D01*
X697903Y350665D01*
X695741Y351561D01*
X695170Y351636D01*
D02*
G37*
G36*
X691670D02*
X691099Y351561D01*
X688937Y350665D01*
X687080Y349240D01*
X685655Y347383D01*
X684759Y345221D01*
X684684Y344650D01*
X691670D01*
Y351636D01*
D02*
G37*
G36*
X702156Y341150D02*
X695170D01*
Y334164D01*
X695741Y334239D01*
X697903Y335135D01*
X699760Y336560D01*
X701185Y338417D01*
X702081Y340579D01*
X702156Y341150D01*
D02*
G37*
G36*
X691670D02*
X684684D01*
X684759Y340579D01*
X685655Y338417D01*
X687080Y336560D01*
X688937Y335135D01*
X691099Y334239D01*
X691670Y334164D01*
Y341150D01*
D02*
G37*
G36*
X629130Y340206D02*
Y333220D01*
X636116D01*
X636041Y333791D01*
X635145Y335953D01*
X633720Y337810D01*
X631863Y339235D01*
X629701Y340131D01*
X629130Y340206D01*
D02*
G37*
G36*
X625630D02*
X625059Y340131D01*
X622897Y339235D01*
X621040Y337810D01*
X619615Y335953D01*
X618719Y333791D01*
X618644Y333220D01*
X625630D01*
Y340206D01*
D02*
G37*
G36*
X636116Y329720D02*
X629130D01*
Y322734D01*
X629701Y322809D01*
X631863Y323705D01*
X633720Y325130D01*
X635145Y326987D01*
X636041Y329149D01*
X636116Y329720D01*
D02*
G37*
G36*
X625630D02*
X618644D01*
X618719Y329149D01*
X619615Y326987D01*
X621040Y325130D01*
X622897Y323705D01*
X625059Y322809D01*
X625630Y322734D01*
Y329720D01*
D02*
G37*
G36*
X577060Y284326D02*
Y277340D01*
X584046D01*
X583971Y277911D01*
X583075Y280073D01*
X581650Y281930D01*
X579793Y283355D01*
X577631Y284251D01*
X577060Y284326D01*
D02*
G37*
G36*
X573560D02*
X572989Y284251D01*
X570827Y283355D01*
X568970Y281930D01*
X567545Y280073D01*
X566649Y277911D01*
X566574Y277340D01*
X573560D01*
Y284326D01*
D02*
G37*
G36*
X584046Y273840D02*
X577060D01*
Y266854D01*
X577631Y266929D01*
X579793Y267825D01*
X581650Y269250D01*
X583075Y271107D01*
X583971Y273269D01*
X584046Y273840D01*
D02*
G37*
G36*
X573560D02*
X566574D01*
X566649Y273269D01*
X567545Y271107D01*
X568970Y269250D01*
X570827Y267825D01*
X572989Y266929D01*
X573560Y266854D01*
Y273840D01*
D02*
G37*
%LPD*%
D14*
X591820Y445980D02*
X609810Y427990D01*
X667702D01*
X608330Y445980D02*
X610205D01*
X618035Y438150D01*
X656343D01*
X615152Y455930D02*
X622772Y448310D01*
X610472Y455930D02*
X615152D01*
X604520Y461882D02*
X610472Y455930D01*
X612037Y370840D02*
X612109Y370912D01*
X550346Y370840D02*
X612037D01*
X535940Y385246D02*
X550346Y370840D01*
X546100Y382270D02*
X549910Y378460D01*
X546100Y382270D02*
Y425450D01*
X549910Y378460D02*
X595609D01*
X573168Y397510D02*
X675242D01*
X676076Y398344D01*
X557966Y388620D02*
X559195Y387391D01*
X597356D02*
X598826Y388862D01*
X573127Y397551D02*
X573168Y397510D01*
X559195Y387391D02*
X597356D01*
X612109Y370912D02*
X614053Y368968D01*
X621158D01*
X675729Y347671D02*
X691060Y363002D01*
X601418Y347671D02*
X675729D01*
X621158Y368968D02*
X630717Y359410D01*
X593496Y355592D02*
X601418Y347671D01*
X600931Y383782D02*
X620713D01*
X632686Y371810D01*
X595609Y378460D02*
X600931Y383782D01*
X598442Y357831D02*
X617477D01*
X617927Y357380D01*
X630717Y359410D02*
X654448D01*
X598826Y388862D02*
X633523D01*
X636305Y386080D01*
X690350Y374480D02*
X691060Y373770D01*
Y363002D02*
Y373770D01*
X625675Y659415D02*
X625960Y659700D01*
X615615Y659415D02*
X625675D01*
X615330Y659130D02*
X615615Y659415D01*
X793750Y496570D02*
X808990D01*
X758408Y514350D02*
X886148D01*
X764872Y519430D02*
X888252D01*
X767720Y524510D02*
X890357D01*
X833755Y432582D02*
X834878D01*
X850900Y416560D01*
X811530Y421640D02*
X821257Y431367D01*
X858081Y427770D02*
X858300D01*
X861060Y430530D01*
X875880D01*
X875651Y430302D02*
X875880Y430530D01*
X850900Y416560D02*
X878920D01*
X889190Y426830D01*
X831850Y398780D02*
X894930D01*
X667111Y671252D02*
X678180Y660182D01*
X647253Y671252D02*
X667111D01*
X678180Y642620D02*
Y660182D01*
X639400Y663399D02*
X647253Y671252D01*
X570210Y865122D02*
Y866510D01*
X568270Y868450D02*
X570210Y866510D01*
X580598Y862890D02*
X598170Y880462D01*
X568270Y868450D02*
Y869950D01*
X570210Y865122D02*
X572442Y862890D01*
X580598D01*
X598170Y880462D02*
Y892810D01*
X673909D02*
X674750D01*
X732400Y812906D02*
X737870Y818376D01*
X728980Y848360D02*
X737870Y839470D01*
Y818376D02*
Y839470D01*
X732400Y780170D02*
Y812906D01*
X645160Y456946D02*
X646684Y458470D01*
X662940D01*
X675110Y513610D02*
X675640Y513080D01*
X793750Y501051D02*
X796180Y503481D01*
X793750Y496570D02*
Y501051D01*
X546100Y255270D02*
X575310Y226060D01*
X781050Y455930D02*
X781685Y455295D01*
Y432435D02*
Y455295D01*
Y432435D02*
X782320Y431800D01*
X739460Y804500D02*
X750234D01*
X751840Y802894D01*
X723360Y857726D02*
Y869950D01*
X722884Y857250D02*
X723360Y857726D01*
X862067Y506730D02*
X875880D01*
X834127Y478790D02*
X862067Y506730D01*
X788493Y478790D02*
X834127D01*
X839470Y473710D02*
X859790Y494030D01*
X755473Y473710D02*
X839470D01*
X859790Y494030D02*
X875880D01*
X901581Y462855D02*
X903083Y464358D01*
X889190Y435991D02*
X911670Y458471D01*
X918480Y443230D02*
X924980D01*
X908834Y433584D02*
X918480Y443230D01*
X908834Y427184D02*
Y433584D01*
X891421Y452271D02*
Y470486D01*
X882380Y443230D02*
X891421Y452271D01*
X906890Y425240D02*
X908834Y427184D01*
X889190Y426830D02*
Y435991D01*
X911670Y458471D02*
Y460508D01*
X911741Y460579D02*
Y463981D01*
X911670Y460508D02*
X911741Y460579D01*
X911670Y464052D02*
Y500190D01*
Y464052D02*
X911741Y463981D01*
X891421Y470486D02*
X899350Y478416D01*
X837740Y460550D02*
X858918D01*
X821257Y444067D02*
X837740Y460550D01*
X821257Y431367D02*
Y444067D01*
X719314Y446502D02*
X719807Y446008D01*
X705619Y460196D02*
X719314Y446502D01*
X681534Y460196D02*
X705619D01*
X669290Y472440D02*
X681534Y460196D01*
X651056Y464566D02*
X658930Y472440D01*
X669290D01*
X636696Y464566D02*
X651056D01*
X858918Y460550D02*
X863538Y455930D01*
X875880D01*
X535940Y469900D02*
Y483690D01*
X383401Y448171D02*
X384077D01*
X350520Y415290D02*
X383401Y448171D01*
X568960Y412750D02*
X574040Y407670D01*
X659130D01*
X628150Y457020D02*
X628650D01*
X621024Y464146D02*
X628150Y457020D01*
X614680Y466090D02*
X616624Y464146D01*
X604520Y461882D02*
Y472135D01*
X617816Y485430D01*
X616624Y464146D02*
X621024D01*
X628650Y457020D02*
X629150D01*
X636696Y464566D01*
X687269Y449580D02*
X703978D01*
X622772Y448310D02*
X685999D01*
X687269Y449580D01*
X709930Y430729D02*
Y443628D01*
X703978Y449580D02*
X709930Y443628D01*
X699770Y404732D02*
Y439420D01*
X704850Y402627D02*
Y425649D01*
X709930Y430729D01*
X675640Y373417D02*
X704850Y402627D01*
X636305Y386080D02*
X665620D01*
X675640Y361950D02*
Y373417D01*
X665620Y386080D02*
X665871Y386331D01*
X654448Y359410D02*
X699770Y404732D01*
X593090Y541855D02*
Y543560D01*
X576580Y541020D02*
X603990Y513610D01*
X630120Y558610D02*
Y562610D01*
Y558610D02*
X643130Y545600D01*
Y526328D02*
Y545600D01*
X648210Y525865D02*
Y541838D01*
X655120Y548748D01*
Y562610D01*
X537060Y787922D02*
Y812910D01*
X511770Y838200D02*
X537060Y812910D01*
X696610Y869950D02*
Y870950D01*
X674750Y892810D02*
X696610Y870950D01*
X538480Y870318D02*
X549402D01*
X536992Y868898D02*
Y872272D01*
X538480Y873760D01*
X1127460Y451150D02*
X1131660Y446950D01*
Y441430D02*
Y446950D01*
X1112520Y451150D02*
X1127460D01*
X1014070Y479700D02*
X1014980Y478790D01*
X1103770Y451150D02*
X1112520D01*
X1076130Y478790D02*
X1103770Y451150D01*
X1014980Y478790D02*
X1076130D01*
X551700Y361430D02*
X594843D01*
X598442Y357831D01*
X894930Y398780D02*
X925830Y429680D01*
X913130Y506730D02*
X924980D01*
X911860Y500380D02*
Y505460D01*
X913130Y506730D01*
X911670Y500190D02*
X911860Y500380D01*
X905510Y464358D02*
Y516541D01*
X903083Y464358D02*
X905510D01*
X890357Y524510D02*
X899350Y515517D01*
X773302Y621660D02*
X778510Y616452D01*
X748030Y609268D02*
X755342Y616580D01*
X737870Y606420D02*
X753110Y621660D01*
X755342Y616580D02*
X771198D01*
X778510Y580390D02*
Y616452D01*
Y580390D02*
X816380Y542520D01*
X773430Y567060D02*
Y614348D01*
X748030Y524728D02*
Y609268D01*
X771198Y616580D02*
X773430Y614348D01*
X753110Y621660D02*
X773302D01*
X816380Y542520D02*
X879530D01*
X763270Y528960D02*
X767720Y524510D01*
X888252Y519430D02*
X894270Y513412D01*
X753110Y531192D02*
X764872Y519430D01*
X886148Y514350D02*
X889190Y511308D01*
X748030Y524728D02*
X758408Y514350D01*
X879530Y542520D02*
X905510Y516541D01*
X899350Y478416D02*
Y515517D01*
X737870Y600070D02*
Y606420D01*
X773430Y567060D02*
X788670Y551820D01*
Y545470D02*
Y551820D01*
X753110Y559748D02*
X763270Y569908D01*
X753110Y531192D02*
Y559748D01*
X763270Y528960D02*
Y545470D01*
X875880Y481330D02*
X882380D01*
X763270Y569908D02*
Y600070D01*
X894270Y480520D02*
Y513412D01*
X889190Y488140D02*
Y511308D01*
X882380Y481330D02*
X889190Y488140D01*
X882380Y468630D02*
X894270Y480520D01*
X875880Y468630D02*
X882380D01*
X875880Y443230D02*
X882380D01*
X786240Y481042D02*
X788493Y478790D01*
X632460Y659700D02*
X632560Y659800D01*
Y673200D01*
X632659Y673299D01*
X554310Y520700D02*
X555862D01*
X535760Y483870D02*
X535940Y483690D01*
X562610Y501650D02*
X566420Y505460D01*
X535760Y501650D02*
Y502150D01*
X554310Y520700D01*
X566420Y505460D02*
Y530183D01*
X566082Y530522D02*
X566420Y530183D01*
X516090Y455460D02*
Y483540D01*
Y455460D02*
X546100Y425450D01*
X535940Y385246D02*
Y420370D01*
X503390Y409740D02*
X551700Y361430D01*
X550354Y355592D02*
X593496D01*
X498310Y407636D02*
X550354Y355592D01*
X498310Y407636D02*
Y471920D01*
X503390Y409740D02*
Y483540D01*
Y487540D01*
X490690Y479540D02*
Y483540D01*
Y479540D02*
X498310Y471920D01*
X325120Y520700D02*
X349880D01*
X322812Y474582D02*
X343530Y495300D01*
X321746Y474582D02*
X322812D01*
X340418Y440690D02*
Y464820D01*
X562610Y483870D02*
Y501650D01*
X551360D02*
X562610D01*
X551360Y483870D02*
X562610D01*
X477990Y483540D02*
Y485540D01*
X503390Y487540D02*
X517500Y501650D01*
X535760D01*
X662940Y642126D02*
X662940Y642126D01*
X661114Y640300D02*
X662940Y642126D01*
X645460Y640300D02*
X661114D01*
X335602Y505460D02*
X386760D01*
X301630Y469900D02*
X306710Y474980D01*
X295280Y469900D02*
X301630D01*
X386760Y505460D02*
X396420Y495800D01*
X306710Y476568D02*
X335602Y505460D01*
X396420Y495300D02*
Y495800D01*
X306710Y474980D02*
Y476568D01*
X349880Y495300D02*
X382270D01*
X343530D02*
X349880D01*
X685848Y293418D02*
Y314846D01*
X613808Y236220D02*
X660400Y282812D01*
X601278Y260443D02*
X602457D01*
X575310Y226060D02*
X618490D01*
X685848Y293418D01*
X600710Y236220D02*
X613808D01*
X588010Y231140D02*
X616386D01*
X675640Y290394D01*
Y303530D01*
X599933Y259098D02*
X601278Y260443D01*
X608330Y246380D02*
X638719Y276770D01*
X660400Y282812D02*
Y303530D01*
X638719Y276770D02*
Y278186D01*
X181610Y389890D02*
X203610D01*
X215420Y401700D01*
Y428880D01*
X203610Y440690D02*
X215420Y428880D01*
X181610Y440690D02*
X203610D01*
X122400Y454280D02*
X134210Y466090D01*
X122400Y359598D02*
Y454280D01*
Y359598D02*
X131098Y350900D01*
X167800D01*
X179610Y339090D01*
X134210Y466090D02*
X156210D01*
X179610Y339090D02*
X181610D01*
X288930Y495300D02*
X295280D01*
X283850Y490220D02*
X288930Y495300D01*
X283850Y485140D02*
Y490220D01*
X267374Y468664D02*
X283850Y485140D01*
X267374Y461684D02*
Y468664D01*
X265430Y459740D02*
X267374Y461684D01*
X563880Y255270D02*
X588010Y231140D01*
X602457Y260443D02*
X624840Y282826D01*
X581660Y255270D02*
X600710Y236220D01*
X624840Y282826D02*
Y284480D01*
X340418Y464820D02*
X345498Y469900D01*
X349880D01*
X924980Y430530D02*
X925830Y429680D01*
X638960Y659700D02*
X639400Y660140D01*
Y663399D01*
X632460Y640300D02*
X632900Y639860D01*
Y636601D02*
Y639860D01*
Y636601D02*
X635461Y634040D01*
X642459D01*
X645020Y636601D01*
Y639860D01*
X645460Y640300D01*
X717750Y848360D02*
X728980D01*
X715110Y851000D02*
X717750Y848360D01*
X513028Y805429D02*
X515777D01*
X518956Y802250D01*
X530000D01*
X536992Y868898D02*
X537060Y868830D01*
X549402Y870318D02*
X549770Y869950D01*
X531500Y783750D02*
X533440Y785690D01*
X534828D01*
X537060Y787922D01*
X530000Y783750D02*
X531500D01*
X732400Y780170D02*
X734060Y778510D01*
X738700D01*
X739460Y777750D01*
X715110Y851000D02*
Y869950D01*
X567944Y869624D02*
X568270Y869950D01*
X742950Y496570D02*
X745379Y494141D01*
X742770Y496750D02*
X742950Y496570D01*
X745379Y483803D02*
X755473Y473710D01*
X745379Y483803D02*
Y494141D01*
X781050Y486320D02*
Y496570D01*
Y486320D02*
X786240Y481129D01*
Y481042D02*
Y481129D01*
X718820Y496750D02*
X742770D01*
X655120Y562610D02*
X677926D01*
X606044D02*
X630120D01*
X406654Y521970D02*
X435410D01*
X435610Y522170D01*
X406654Y547370D02*
X435410D01*
X435610Y547170D01*
X490690Y537540D02*
Y541540D01*
X483880Y548350D02*
X490690Y541540D01*
X463982Y548350D02*
X483880D01*
X462802Y547170D02*
X463982Y548350D01*
X435610Y547170D02*
X462802D01*
X435610Y522170D02*
X466620D01*
X477990Y533540D01*
Y537540D01*
Y468084D02*
Y483540D01*
X477520Y467614D02*
X477990Y468084D01*
X516090Y483540D02*
X535430D01*
X535760Y483870D01*
X859790Y207010D02*
Y281940D01*
X883920Y233520D02*
Y283210D01*
D17*
X658835Y503610D02*
Y508610D01*
X643210Y474644D02*
Y490485D01*
X658835Y513610D02*
X675110D01*
X617816Y485736D02*
X618200Y486120D01*
X617816Y485430D02*
Y485736D01*
X618200Y490475D02*
X618210Y490485D01*
X618200Y486120D02*
Y490475D01*
X653210Y508610D02*
X658835D01*
X653210D02*
Y521735D01*
X658210Y503610D02*
X658835D01*
X592000Y502920D02*
X603065D01*
X603745Y503600D01*
X612575D01*
X612585Y503610D01*
X593090Y541855D02*
X613210Y521735D01*
X603990Y513610D02*
X612585D01*
X643200Y521745D02*
X643210Y521735D01*
X643200Y521745D02*
Y526258D01*
X643130Y526328D02*
X643200Y526258D01*
X648210Y521735D02*
Y525865D01*
X661416Y540004D02*
Y541020D01*
X653210Y531798D02*
X661416Y540004D01*
X653210Y521735D02*
Y531798D01*
X678000Y496570D02*
X679270Y497840D01*
X658835Y498610D02*
X659460D01*
X661500Y496570D01*
X678000D01*
X658210Y490485D02*
X669345D01*
X679270Y480560D01*
Y480060D02*
Y480560D01*
X643210Y474644D02*
X645160Y472694D01*
X633210Y476680D02*
Y490485D01*
X629150Y472620D02*
X633210Y476680D01*
X628650Y472620D02*
X629150D01*
D23*
X1126670Y359410D02*
D03*
X1111070D02*
D03*
X396420Y495300D02*
D03*
X380820D02*
D03*
X551360Y501650D02*
D03*
X535760D02*
D03*
X551360Y483870D02*
D03*
X535760D02*
D03*
X592000Y502920D02*
D03*
X576400D02*
D03*
X694870Y497840D02*
D03*
X679270D02*
D03*
X694870Y480060D02*
D03*
X679270D02*
D03*
D24*
X662940Y657874D02*
D03*
Y642126D02*
D03*
X751840Y787146D02*
D03*
Y802894D02*
D03*
X518160Y792734D02*
D03*
Y776986D02*
D03*
X645160Y456946D02*
D03*
Y472694D02*
D03*
X477520Y451866D02*
D03*
Y467614D02*
D03*
D25*
X628650Y472620D02*
D03*
Y457020D02*
D03*
X718820Y496750D02*
D03*
Y481150D02*
D03*
D27*
X560324Y852170D02*
D03*
X544576D02*
D03*
X406654Y521970D02*
D03*
X390906D02*
D03*
X406654Y547370D02*
D03*
X390906D02*
D03*
X677164Y541020D02*
D03*
X661416D02*
D03*
X707136Y857250D02*
D03*
X722884D02*
D03*
X957834Y455930D02*
D03*
X942086D02*
D03*
X590296Y562610D02*
D03*
X606044D02*
D03*
X693674D02*
D03*
X677926D02*
D03*
D34*
X1141250Y553720D02*
D03*
Y528320D02*
D03*
D35*
X1109420Y402150D02*
D03*
Y474150D02*
D03*
X1144120Y402150D02*
D03*
Y474150D02*
D03*
D36*
X146210Y313690D02*
D03*
Y237490D02*
D03*
Y161290D02*
D03*
Y466090D02*
D03*
Y389890D02*
D03*
X191610Y59690D02*
D03*
Y161290D02*
D03*
Y313690D02*
D03*
Y237490D02*
D03*
Y389890D02*
D03*
Y466090D02*
D03*
X146210Y85090D02*
D03*
Y110490D02*
D03*
Y135890D02*
D03*
Y212090D02*
D03*
Y186690D02*
D03*
Y288290D02*
D03*
Y262890D02*
D03*
Y339090D02*
D03*
Y364490D02*
D03*
Y440690D02*
D03*
Y415290D02*
D03*
Y542290D02*
D03*
Y516890D02*
D03*
Y491490D02*
D03*
X191610Y85090D02*
D03*
Y110490D02*
D03*
Y135890D02*
D03*
Y186690D02*
D03*
Y212090D02*
D03*
Y288290D02*
D03*
Y262890D02*
D03*
Y339090D02*
D03*
Y364490D02*
D03*
Y440690D02*
D03*
Y415290D02*
D03*
Y542290D02*
D03*
Y516890D02*
D03*
Y491490D02*
D03*
D37*
X146210Y59690D02*
D03*
D38*
X810260Y599440D02*
D03*
X591820Y445980D02*
D03*
X608330D02*
D03*
X573127Y397551D02*
D03*
X557966Y388620D02*
D03*
X612109Y370912D02*
D03*
X617927Y357380D02*
D03*
X690350Y374480D02*
D03*
X615330Y659130D02*
D03*
X808990Y496570D02*
D03*
X833755Y432582D02*
D03*
X811530Y421640D02*
D03*
X858081Y427770D02*
D03*
X831850Y398780D02*
D03*
X704850Y612140D02*
D03*
X635000Y892810D02*
D03*
X673909D02*
D03*
X675640Y513080D02*
D03*
X589280Y482600D02*
D03*
X520700Y304800D02*
D03*
X575310Y275590D02*
D03*
X520700D02*
D03*
X546100Y255270D02*
D03*
X478790Y132080D02*
D03*
X739140Y878840D02*
D03*
X598170Y892810D02*
D03*
X830580Y266700D02*
D03*
X551180Y335280D02*
D03*
X782320Y431800D02*
D03*
X901581Y462855D02*
D03*
X906890Y425240D02*
D03*
X910590Y563880D02*
D03*
X854710Y567690D02*
D03*
X742950Y360680D02*
D03*
X693420Y342900D02*
D03*
X662940Y458470D02*
D03*
X629920Y506730D02*
D03*
X1089660Y415290D02*
D03*
X627380Y331470D02*
D03*
X535940Y469900D02*
D03*
X350520Y415290D02*
D03*
X384077Y448171D02*
D03*
X568960Y412750D02*
D03*
X614680Y466090D02*
D03*
X699770Y439420D02*
D03*
X719807Y446008D02*
D03*
X665871Y386331D02*
D03*
X676076Y398344D02*
D03*
X675640Y361950D02*
D03*
X667702Y427990D02*
D03*
X656343Y438150D02*
D03*
X593090Y543560D02*
D03*
X576580Y541020D02*
D03*
X717482Y538277D02*
D03*
X511770Y838200D02*
D03*
X538480Y873760D02*
D03*
X981460Y541020D02*
D03*
X1007110Y542290D02*
D03*
X1050290D02*
D03*
X1092200Y368300D02*
D03*
X935990Y414020D02*
D03*
X632460Y223520D02*
D03*
X698500Y289560D02*
D03*
X718820Y393700D02*
D03*
X632686Y371810D02*
D03*
X659130Y407670D02*
D03*
X632659Y673299D02*
D03*
X555862Y520700D02*
D03*
X591820Y342900D02*
D03*
X535940Y420370D02*
D03*
X325120Y520700D02*
D03*
X321746Y474582D02*
D03*
X340418Y440690D02*
D03*
X678180Y642620D02*
D03*
X227330Y402590D02*
D03*
X718820Y326390D02*
D03*
X566769Y152329D02*
D03*
X599933Y259098D02*
D03*
X608330Y246380D02*
D03*
X265430Y459740D02*
D03*
X563880Y255270D02*
D03*
X581660D02*
D03*
X660400Y303530D02*
D03*
X624840Y284480D02*
D03*
X638719Y278186D02*
D03*
X675640Y303530D02*
D03*
X685848Y314846D02*
D03*
X344170Y313690D02*
D03*
X810260Y152400D02*
D03*
X513028Y805429D02*
D03*
X859790Y207010D02*
D03*
Y281940D02*
D03*
X883920Y233520D02*
D03*
Y283210D02*
D03*
D39*
X708660Y891360D02*
D03*
X562017Y891358D02*
D03*
D40*
X793750Y410210D02*
X881493D01*
X895500Y424217D01*
X1126370Y375920D02*
Y377420D01*
X1138600Y389650D01*
Y399650D01*
X1141100Y402150D01*
X1144120D01*
X1126520Y359560D02*
X1126670Y359410D01*
X1126520Y359560D02*
Y375770D01*
X1126370Y375920D02*
X1126520Y375770D01*
X544576Y853186D02*
X553050Y861660D01*
X559520Y869700D02*
Y869950D01*
X557060Y867240D02*
X559520Y869700D01*
X557060Y864612D02*
Y867240D01*
X554108Y861660D02*
X557060Y864612D01*
X553050Y861660D02*
X554108D01*
X544576Y852170D02*
Y853186D01*
X541782Y849630D02*
X541996Y849844D01*
X510528Y849630D02*
X541782D01*
X500380Y801370D02*
Y858520D01*
X501638D02*
X510528Y849630D01*
X657860Y874871D02*
X660789Y871942D01*
X681990D01*
X657860Y874871D02*
Y922020D01*
X698500Y713740D02*
X751840Y767080D01*
X697230Y713740D02*
X698500D01*
X917980Y455430D02*
X924480D01*
X913820Y451270D02*
X917980Y455430D01*
X913392Y451270D02*
X913820D01*
X895500Y433378D02*
X913392Y451270D01*
X895500Y424217D02*
Y433378D01*
X719314Y446502D02*
Y480656D01*
X718820Y481150D02*
X719314Y480656D01*
X518160Y792734D02*
X518277Y792617D01*
X516855Y794039D02*
X518160Y792734D01*
X500380Y801370D02*
X507711Y794039D01*
X516855D01*
X752856Y787146D02*
X762000Y796290D01*
X751840Y767080D02*
Y787146D01*
X681990Y871942D02*
X695826Y858106D01*
X706748Y857638D02*
X707136Y857250D01*
X706280Y858106D02*
X706748Y857638D01*
X695826Y858106D02*
X706280D01*
X924480Y455430D02*
X924980Y455930D01*
X718820Y410210D02*
X793750D01*
Y455930D01*
X924980D02*
X942086D01*
X751840Y787146D02*
X752856D01*
X518277Y792617D02*
X529883D01*
X530000Y792500D01*
X559520Y869950D02*
X559668Y869802D01*
X706360Y869950D02*
X706748Y869562D01*
Y857638D02*
Y869562D01*
X739460Y787500D02*
X739637Y787323D01*
X751663D01*
X751840Y787146D01*
D41*
X699135Y288925D02*
X718820Y308610D01*
X633095Y222885D02*
X699135Y288925D01*
X586740Y176530D02*
X633095Y222885D01*
X641891Y606331D02*
X677686Y642126D01*
X704333Y612657D02*
X704850Y612140D01*
X704333Y612657D02*
Y623595D01*
X697230Y630698D02*
X704333Y623595D01*
X697230Y630698D02*
Y713740D01*
X562610Y533993D02*
X566082Y530522D01*
X562013Y534590D02*
X562610Y533993D01*
X657860Y922020D02*
X732790D01*
X537210D02*
X657860D01*
X591820Y322580D02*
Y342900D01*
X528320Y198120D02*
Y259080D01*
X591820Y322580D01*
X661416Y541020D02*
X665814Y536622D01*
Y533071D02*
Y536622D01*
Y533071D02*
X670231Y528654D01*
X707128D01*
X716751Y538277D01*
X717482D01*
X737870Y540144D02*
Y545470D01*
X736520Y538794D02*
X737870Y540144D01*
X717998Y538794D02*
X736520D01*
X717482Y538277D02*
X717998Y538794D01*
X763268Y795022D02*
X769620Y801375D01*
Y885190D01*
X732790Y922020D02*
X769620Y885190D01*
X501638Y886448D02*
X537210Y922020D01*
X501638Y858520D02*
Y886448D01*
X981460Y541020D02*
X1005590Y565150D01*
X1077040Y551020D02*
X1089540D01*
X1062910Y565150D02*
X1077040Y551020D01*
X1005590Y565150D02*
X1062910D01*
X1007110Y542290D02*
X1050290D01*
X1092200Y337740D02*
X1121120Y308820D01*
X1092200Y337740D02*
Y368300D01*
X1144120Y402150D02*
Y411650D01*
X1155620Y423150D01*
X718820Y393700D02*
Y410210D01*
Y326390D02*
Y393700D01*
X662940Y642126D02*
X677686D01*
X547265Y534590D02*
X562013D01*
X562610Y533993D02*
Y554223D01*
X528320Y515645D02*
X547265Y534590D01*
X505435Y515645D02*
X528320D01*
X562610Y554223D02*
X614718Y606331D01*
X641891D01*
X477990Y485540D02*
Y489746D01*
X490940Y502695D02*
X492486D01*
X491358Y519302D02*
X501390Y529334D01*
X492486Y502695D02*
X505435Y515645D01*
X464820Y509270D02*
X479780D01*
X489812Y519302D01*
X477990Y489746D02*
X490940Y502695D01*
X489812Y519302D02*
X491358D01*
X501390Y529334D02*
Y535540D01*
X503390Y537540D02*
X503390D01*
X501390Y535540D02*
X503390Y537540D01*
X344170Y388620D02*
X464820Y509270D01*
X677686Y642126D02*
X678180Y642620D01*
X288930Y469900D02*
X295280D01*
X279320Y460290D02*
X288930Y469900D01*
X279320Y453987D02*
Y460290D01*
X227923Y402590D02*
X279320Y453987D01*
X227330Y402590D02*
X227923D01*
X227330Y59800D02*
X433180D01*
X181720D02*
X227330D01*
Y402590D01*
X528320Y198120D02*
X549910Y176530D01*
X718820Y410210D02*
Y445770D01*
Y308610D02*
Y326390D01*
X433180Y59800D02*
X549910Y176530D01*
X181610Y59690D02*
X181720Y59800D01*
X549910Y176530D02*
X586740D01*
X566805Y152364D02*
X810224D01*
X566769Y152329D02*
X566805Y152364D01*
X344170Y313690D02*
Y388620D01*
X810224Y152364D02*
X810260Y152400D01*
X1149120Y459650D02*
Y474150D01*
X1155620Y423150D02*
Y453150D01*
X1144120Y474150D02*
X1149120D01*
Y459650D02*
X1155620Y453150D01*
X1109420Y474150D02*
X1144120D01*
X1104740Y553720D02*
X1151250D01*
X1102040Y551020D02*
X1104740Y553720D01*
X1089540Y551020D02*
X1102040D01*
D43*
X1111370Y375920D02*
D03*
X1126370D02*
D03*
D44*
X1140340Y577220D02*
D03*
Y504820D02*
D03*
D45*
X1089540Y551020D02*
D03*
Y531020D02*
D03*
D46*
X763270Y600070D02*
D03*
X737870D02*
D03*
X788670D02*
D03*
X763270Y545470D02*
D03*
X737870D02*
D03*
X788670D02*
D03*
D47*
X739460Y796250D02*
D03*
X530000Y783750D02*
D03*
D48*
X739460Y787500D02*
D03*
X530000Y792500D02*
D03*
D49*
X739460Y804500D02*
D03*
X530000Y775500D02*
D03*
D50*
X739460Y777750D02*
D03*
X530000Y802250D02*
D03*
D51*
X723360Y869950D02*
D03*
X576520D02*
D03*
D52*
X715110D02*
D03*
X568270D02*
D03*
D53*
X706360D02*
D03*
X559520D02*
D03*
D54*
X696610D02*
D03*
X549770D02*
D03*
D55*
X516090Y537540D02*
D03*
X503390D02*
D03*
X490690D02*
D03*
X503390Y483540D02*
D03*
X490690D02*
D03*
X516090D02*
D03*
X477990Y537540D02*
D03*
Y483540D02*
D03*
D56*
X655120Y562610D02*
D03*
X630120D02*
D03*
D57*
X658210Y521735D02*
D03*
X638210D02*
D03*
X643210D02*
D03*
X633210D02*
D03*
X653210D02*
D03*
X648210D02*
D03*
X658210Y490485D02*
D03*
X653210D02*
D03*
X638210D02*
D03*
X633210D02*
D03*
X648210D02*
D03*
X643210D02*
D03*
X628210Y521735D02*
D03*
X623210D02*
D03*
X618210D02*
D03*
X613210D02*
D03*
X623210Y490485D02*
D03*
X628210D02*
D03*
X618210D02*
D03*
X613210D02*
D03*
D58*
X658835Y513610D02*
D03*
Y503610D02*
D03*
Y508610D02*
D03*
Y498610D02*
D03*
X612585Y513610D02*
D03*
Y508610D02*
D03*
Y498610D02*
D03*
Y503610D02*
D03*
D59*
X793750Y496570D02*
D03*
X781050D02*
D03*
X793750Y455930D02*
D03*
X781050D02*
D03*
X768350Y496570D02*
D03*
X755650D02*
D03*
X768350Y455930D02*
D03*
X755650D02*
D03*
X742950Y496570D02*
D03*
Y455930D02*
D03*
D60*
X924980Y481330D02*
D03*
Y494030D02*
D03*
Y455930D02*
D03*
Y468630D02*
D03*
Y506730D02*
D03*
Y430530D02*
D03*
Y443230D02*
D03*
X875880Y506730D02*
D03*
Y481330D02*
D03*
Y494030D02*
D03*
Y455930D02*
D03*
Y468630D02*
D03*
Y443230D02*
D03*
D61*
Y430530D02*
D03*
D62*
X1112520Y425150D02*
D03*
Y431650D02*
D03*
Y451150D02*
D03*
Y438150D02*
D03*
Y444650D02*
D03*
D63*
X1155620Y423150D02*
D03*
Y453150D02*
D03*
D64*
X625960Y640300D02*
D03*
X645460D02*
D03*
X638960D02*
D03*
X632460D02*
D03*
X625960Y659700D02*
D03*
X645460D02*
D03*
X638960D02*
D03*
X632460D02*
D03*
D65*
X349880Y469900D02*
D03*
X295280D02*
D03*
X349880Y495300D02*
D03*
X295280D02*
D03*
X349880Y520700D02*
D03*
X295280D02*
D03*
D66*
X1014070Y479700D02*
D03*
X995070D02*
D03*
Y460100D02*
D03*
D67*
X1012070D02*
D03*
D68*
X291120Y112820D02*
D03*
Y308820D02*
D03*
X1121120D02*
D03*
Y112820D02*
D03*
D69*
X435610Y547170D02*
D03*
Y522170D02*
D03*
D70*
X1125960Y395905D02*
Y408705D01*
X1120665Y390610D02*
X1125960Y395905D01*
Y408705D02*
X1131660Y414406D01*
Y441430D01*
X1040668Y390610D02*
X1120665D01*
X935990Y414020D02*
X1017258D01*
X1040668Y390610D01*
D71*
X995070Y479700D02*
X996115Y478655D01*
X995070Y479700D02*
X995070Y479700D01*
Y479700D01*
Y476350D02*
Y479700D01*
X1008878Y438225D02*
X1099909D01*
X1099929Y438205D02*
X1112465D01*
X996325Y450778D02*
Y453473D01*
X1112465Y438205D02*
X1112520Y438150D01*
X1099909Y438225D02*
X1099929Y438205D01*
X995070Y460100D02*
X996115Y459055D01*
Y453683D02*
X996325Y453473D01*
Y450778D02*
X1008878Y438225D01*
X996115Y453683D02*
Y459055D01*
X1112465Y444595D02*
X1112520Y444650D01*
X1099929Y444595D02*
X1112465D01*
X1002675Y453409D02*
Y467167D01*
X1099909Y444575D02*
X1099929Y444595D01*
X1011509Y444575D02*
X1099909D01*
X1002675Y453409D02*
X1011509Y444575D01*
X996115Y473727D02*
Y478655D01*
Y473727D02*
X1002675Y467167D01*
X991795Y473075D02*
X995070Y476350D01*
X952450Y490855D02*
X970230Y473075D01*
X934655Y490855D02*
X952450D01*
X991795Y466725D02*
X995070Y463450D01*
X967600Y466725D02*
X991795D01*
X970230Y473075D02*
X991795D01*
X924980Y494030D02*
X931480D01*
X995070Y460100D02*
Y463450D01*
X934655Y484505D02*
X949820D01*
X924980Y481330D02*
X931480D01*
X949820Y484505D02*
X967600Y466725D01*
X931480Y481330D02*
X934655Y484505D01*
X931480Y494030D02*
X934655Y490855D01*
D72*
X291120Y112820D02*
Y308820D01*
M02*
