G04*
G04 #@! TF.GenerationSoftware,Altium Limited,Altium Designer,20.1.10 (176)*
G04*
G04 Layer_Color=8388736*
%FSLAX25Y25*%
%MOIN*%
G70*
G04*
G04 #@! TF.SameCoordinates,5521C82E-C4DF-45B8-AF43-17A550F81722*
G04*
G04*
G04 #@! TF.FilePolarity,Negative*
G04*
G01*
G75*
%ADD17R,0.04619X0.04225*%
%ADD18R,0.07493X0.05131*%
%ADD19R,0.10249X0.13792*%
%ADD20R,0.24698X0.24698*%
%ADD21R,0.08674X0.22453*%
%ADD22R,0.05524X0.10642*%
%ADD23R,0.05131X0.03359*%
G04:AMPARAMS|DCode=24|XSize=70.99mil|YSize=29.65mil|CornerRadius=9.74mil|HoleSize=0mil|Usage=FLASHONLY|Rotation=270.000|XOffset=0mil|YOffset=0mil|HoleType=Round|Shape=RoundedRectangle|*
%AMROUNDEDRECTD24*
21,1,0.07099,0.01018,0,0,270.0*
21,1,0.05152,0.02965,0,0,270.0*
1,1,0.01948,-0.00509,-0.02576*
1,1,0.01948,-0.00509,0.02576*
1,1,0.01948,0.00509,0.02576*
1,1,0.01948,0.00509,-0.02576*
%
%ADD24ROUNDEDRECTD24*%
G04:AMPARAMS|DCode=25|XSize=70.99mil|YSize=29.65mil|CornerRadius=9.74mil|HoleSize=0mil|Usage=FLASHONLY|Rotation=180.000|XOffset=0mil|YOffset=0mil|HoleType=Round|Shape=RoundedRectangle|*
%AMROUNDEDRECTD25*
21,1,0.07099,0.01018,0,0,180.0*
21,1,0.05152,0.02965,0,0,180.0*
1,1,0.01948,-0.02576,0.00509*
1,1,0.01948,0.02576,0.00509*
1,1,0.01948,0.02576,-0.00509*
1,1,0.01948,-0.02576,-0.00509*
%
%ADD25ROUNDEDRECTD25*%
%ADD26R,0.04225X0.04619*%
%ADD27R,0.05328X0.03162*%
%ADD28R,0.04600X0.03800*%
%ADD29R,0.03800X0.04600*%
%ADD30R,0.05918X0.06902*%
%ADD31R,0.06902X0.05918*%
%ADD32O,0.16548X0.08123*%
G04:AMPARAMS|DCode=33|XSize=81.23mil|YSize=165.48mil|CornerRadius=13.15mil|HoleSize=0mil|Usage=FLASHONLY|Rotation=270.000|XOffset=0mil|YOffset=0mil|HoleType=Round|Shape=RoundedRectangle|*
%AMROUNDEDRECTD33*
21,1,0.08123,0.13917,0,0,270.0*
21,1,0.05492,0.16548,0,0,270.0*
1,1,0.02631,-0.06959,-0.02746*
1,1,0.02631,-0.06959,0.02746*
1,1,0.02631,0.06959,0.02746*
1,1,0.02631,0.06959,-0.02746*
%
%ADD33ROUNDEDRECTD33*%
%ADD34C,0.06351*%
%ADD35C,0.00800*%
G04:AMPARAMS|DCode=36|XSize=86.74mil|YSize=47.37mil|CornerRadius=13.84mil|HoleSize=0mil|Usage=FLASHONLY|Rotation=180.000|XOffset=0mil|YOffset=0mil|HoleType=Round|Shape=RoundedRectangle|*
%AMROUNDEDRECTD36*
21,1,0.08674,0.01968,0,0,180.0*
21,1,0.05906,0.04737,0,0,180.0*
1,1,0.02769,-0.02953,0.00984*
1,1,0.02769,0.02953,0.00984*
1,1,0.02769,0.02953,-0.00984*
1,1,0.02769,-0.02953,-0.00984*
%
%ADD36ROUNDEDRECTD36*%
%ADD37O,0.16548X0.08300*%
%ADD38C,0.11811*%
G36*
X287020Y330458D02*
X282440Y293484D01*
X260486Y288385D01*
X242455Y288059D01*
X217007Y293991D01*
X213020Y330458D01*
X236419Y335426D01*
X250542Y336481D01*
X287020Y330458D01*
D02*
G37*
D17*
X253000Y170571D02*
D03*
Y164429D02*
D03*
X308000Y188929D02*
D03*
Y195071D02*
D03*
X315000Y119571D02*
D03*
Y113429D02*
D03*
X306500D02*
D03*
Y119571D02*
D03*
X313000Y96429D02*
D03*
Y102571D02*
D03*
X315000Y129929D02*
D03*
Y136071D02*
D03*
X306500Y102571D02*
D03*
Y96429D02*
D03*
Y136071D02*
D03*
Y129929D02*
D03*
X313500Y85071D02*
D03*
Y78929D02*
D03*
X315000Y152571D02*
D03*
Y146429D02*
D03*
X306500Y78429D02*
D03*
Y84571D02*
D03*
X308000Y146429D02*
D03*
Y152571D02*
D03*
X239500Y164429D02*
D03*
Y170571D02*
D03*
X233000D02*
D03*
Y164429D02*
D03*
X308000Y181571D02*
D03*
Y175429D02*
D03*
X276500Y118929D02*
D03*
Y125071D02*
D03*
X246000Y170571D02*
D03*
Y164429D02*
D03*
D18*
X172500Y107815D02*
D03*
Y97185D02*
D03*
X350500Y199315D02*
D03*
Y188685D02*
D03*
X336500Y207185D02*
D03*
Y217815D02*
D03*
D19*
X145319Y121500D02*
D03*
X172681D02*
D03*
D20*
X270500Y44500D02*
D03*
X221957D02*
D03*
X319043D02*
D03*
D21*
X196000Y148201D02*
D03*
Y110799D02*
D03*
D22*
X406087Y223827D02*
D03*
X396244D02*
D03*
X386402D02*
D03*
X406087Y202173D02*
D03*
X396244D02*
D03*
X386402D02*
D03*
D23*
X354724Y208760D02*
D03*
Y212500D02*
D03*
Y216240D02*
D03*
X345276D02*
D03*
Y208760D02*
D03*
X331276Y198240D02*
D03*
Y194500D02*
D03*
Y190760D02*
D03*
X340724D02*
D03*
Y198240D02*
D03*
D24*
X231476Y152957D02*
D03*
X234626D02*
D03*
X237776D02*
D03*
X240925D02*
D03*
X244075D02*
D03*
X247224D02*
D03*
X250374D02*
D03*
X253524D02*
D03*
Y120043D02*
D03*
X250374D02*
D03*
X247224D02*
D03*
X244075D02*
D03*
X240925D02*
D03*
X237776D02*
D03*
X234626D02*
D03*
X231476D02*
D03*
D25*
X258957Y147524D02*
D03*
Y144374D02*
D03*
Y141224D02*
D03*
Y138075D02*
D03*
Y134925D02*
D03*
Y131776D02*
D03*
Y128626D02*
D03*
Y125476D02*
D03*
X226043D02*
D03*
Y128626D02*
D03*
Y131776D02*
D03*
Y134925D02*
D03*
Y138075D02*
D03*
Y141224D02*
D03*
Y144374D02*
D03*
Y147524D02*
D03*
D26*
X324571Y188000D02*
D03*
X318429D02*
D03*
X399315Y27000D02*
D03*
X393173D02*
D03*
X88929Y138500D02*
D03*
X95071D02*
D03*
X88929Y149000D02*
D03*
X95071D02*
D03*
X88929Y173500D02*
D03*
X95071D02*
D03*
X88929Y188500D02*
D03*
X95071D02*
D03*
X89000Y181000D02*
D03*
X95142D02*
D03*
D27*
X315571Y181740D02*
D03*
Y174260D02*
D03*
X324429Y178000D02*
D03*
D28*
X322500Y113400D02*
D03*
Y119600D02*
D03*
X319000Y102600D02*
D03*
Y96400D02*
D03*
X322500Y136100D02*
D03*
Y129900D02*
D03*
X320000Y78900D02*
D03*
Y85100D02*
D03*
X322000Y146400D02*
D03*
Y152600D02*
D03*
X324500Y193400D02*
D03*
Y199600D02*
D03*
X362000Y210900D02*
D03*
Y217100D02*
D03*
X211000Y130100D02*
D03*
Y123900D02*
D03*
Y105100D02*
D03*
Y98900D02*
D03*
D29*
X332900Y183000D02*
D03*
X339100D02*
D03*
X353100Y224000D02*
D03*
X346900D02*
D03*
X211900Y135000D02*
D03*
X218100D02*
D03*
X399344Y34000D02*
D03*
X393144D02*
D03*
D30*
X426756Y102488D02*
D03*
Y133787D02*
D03*
X444472Y102488D02*
D03*
Y133787D02*
D03*
X365732D02*
D03*
Y102488D02*
D03*
X348016Y133787D02*
D03*
Y102488D02*
D03*
D31*
X380594Y126996D02*
D03*
X411894D02*
D03*
X380594Y109280D02*
D03*
X411894D02*
D03*
Y69910D02*
D03*
X380594D02*
D03*
X411894Y87626D02*
D03*
X380594D02*
D03*
X411894Y148650D02*
D03*
X380594D02*
D03*
X411894Y166366D02*
D03*
X380594D02*
D03*
D32*
X75437Y163500D02*
D03*
Y173500D02*
D03*
Y183500D02*
D03*
Y193500D02*
D03*
Y203500D02*
D03*
Y213500D02*
D03*
Y153500D02*
D03*
Y143500D02*
D03*
Y133500D02*
D03*
Y83500D02*
D03*
Y93500D02*
D03*
Y103500D02*
D03*
Y113500D02*
D03*
Y123500D02*
D03*
Y73500D02*
D03*
Y63500D02*
D03*
Y53500D02*
D03*
Y43500D02*
D03*
Y33500D02*
D03*
Y23500D02*
D03*
X57563Y73500D02*
D03*
Y63500D02*
D03*
Y53500D02*
D03*
Y43500D02*
D03*
Y33500D02*
D03*
Y83500D02*
D03*
Y93500D02*
D03*
Y103500D02*
D03*
Y153500D02*
D03*
Y143500D02*
D03*
Y133500D02*
D03*
Y123500D02*
D03*
Y113500D02*
D03*
Y163500D02*
D03*
Y173500D02*
D03*
Y183500D02*
D03*
Y193500D02*
D03*
Y203500D02*
D03*
Y213500D02*
D03*
D33*
Y23500D02*
D03*
D34*
X326224Y16138D02*
D03*
X95910D02*
D03*
Y220862D02*
D03*
X326224D02*
D03*
D35*
X441976Y180374D02*
D03*
Y164626D02*
D03*
D36*
X450441Y158327D02*
D03*
Y186673D02*
D03*
X436779D02*
D03*
Y158327D02*
D03*
D37*
X449311Y218000D02*
D03*
Y208000D02*
D03*
D38*
X279000Y350929D02*
D03*
X221267Y350929D02*
D03*
M02*
