G04*
G04 #@! TF.GenerationSoftware,Altium Limited,Altium Designer,20.1.10 (176)*
G04*
G04 Layer_Color=32768*
%FSLAX25Y25*%
%MOIN*%
G70*
G04*
G04 #@! TF.SameCoordinates,5521C82E-C4DF-45B8-AF43-17A550F81722*
G04*
G04*
G04 #@! TF.FilePolarity,Positive*
G04*
G01*
G75*
%ADD117C,0.03937*%
D117*
X348000Y233000D02*
X348500Y232500D01*
X345280Y234384D02*
X344780Y234884D01*
X344280Y235384D02*
X344780Y234884D01*
X344280Y235384D02*
X344240Y235564D01*
X344240D02*
X344120Y235704D01*
X343920Y235804D01*
X343280Y235884D01*
X342920Y235904D02*
X343280Y235884D01*
X342640Y235964D02*
X342920Y235904D01*
X342440Y236064D02*
X342640Y235964D01*
X342280Y236384D02*
X342440Y236064D01*
X342280Y236384D02*
X342240Y236564D01*
X342240D02*
X342120Y236704D01*
X341920Y236804D01*
X341280Y236884D01*
X340920Y236904D02*
X341280Y236884D01*
X340640Y236964D02*
X340920Y236904D01*
X340440Y237064D02*
X340640Y236964D01*
X340280Y237384D02*
X340440Y237064D01*
X340280Y237384D02*
X340240Y237564D01*
X340240D02*
X340120Y237704D01*
X339920Y237804D01*
X339280Y237884D01*
X338920Y237904D02*
X339280Y237884D01*
X338640Y237964D02*
X338920Y237904D01*
X338440Y238064D02*
X338640Y237964D01*
X338280Y238384D02*
X338440Y238064D01*
X338280Y238384D02*
X338240Y238564D01*
X338240D02*
X338120Y238704D01*
X337920Y238804D01*
X337280Y238884D01*
X336920Y238904D02*
X337280Y238884D01*
X336640Y238964D02*
X336920Y238904D01*
X336440Y239064D02*
X336640Y238964D01*
X336280Y239384D02*
X336440Y239064D01*
X336280Y239384D02*
X336243Y239555D01*
X336136Y239694D01*
X336136Y239694D02*
X335964Y239797D01*
X335964D02*
X335447Y239884D01*
X335161Y239906D02*
X335447Y239884D01*
X334930Y239970D02*
X335161Y239906D01*
X334757Y240073D02*
X334930Y239970D01*
X334613Y240384D02*
X334757Y240073D01*
X334613Y240384D02*
X334574Y240564D01*
X334574D02*
X334454Y240704D01*
X334454D02*
X334254Y240804D01*
X333613Y240884D01*
X333254Y240904D02*
X333613Y240884D01*
X332974Y240964D02*
X333254Y240904D01*
X332773Y241064D02*
X332974Y240964D01*
X332613Y241384D02*
X332773Y241064D01*
X332613Y241384D02*
X332574Y241564D01*
X332574D02*
X332453Y241704D01*
X332453D02*
X332254Y241804D01*
X331613Y241884D01*
X331298Y241901D02*
X331613Y241884D01*
X331024Y241948D02*
X331298Y241901D01*
X330807Y242020D02*
X331024Y241948D01*
X330613Y242217D02*
X330807Y242020D01*
X330613Y242217D02*
X330537Y242322D01*
X330537Y242322D02*
X330323Y242414D01*
X330323D02*
X329998Y242486D01*
X329114Y242551D01*
X328531Y242567D02*
X329114Y242551D01*
X328105Y242620D02*
X328531Y242567D01*
X327821Y242715D02*
X328105Y242620D01*
X327613Y243051D02*
X327821Y242715D01*
X327613Y243051D02*
X327564Y243245D01*
X327564D02*
X327406Y243387D01*
X327121Y243481D01*
X326114Y243551D01*
X325531Y243567D02*
X326114Y243551D01*
X325106Y243620D02*
X325531Y243567D01*
X324821Y243714D02*
X325106Y243620D01*
X324613Y244051D02*
X324821Y243714D01*
X324613Y244051D02*
X324564Y244245D01*
X324564D02*
X324406Y244387D01*
X324121Y244481D01*
X323113Y244551D01*
X322531Y244567D02*
X323113Y244551D01*
X322106Y244620D02*
X322531Y244567D01*
X321821Y244714D02*
X322106Y244620D01*
X321614Y245051D02*
X321821Y244714D01*
X321614Y245051D02*
X321564Y245245D01*
X321564D02*
X321406Y245387D01*
X321122Y245481D01*
X320113Y245551D01*
X319531Y245567D02*
X320113Y245551D01*
X319106Y245620D02*
X319531Y245567D01*
X318822Y245714D02*
X319106Y245620D01*
X318614Y246051D02*
X318822Y245714D01*
X318614Y246051D02*
X318564Y246245D01*
X318564D02*
X318406Y246387D01*
X318122Y246481D01*
X317113Y246551D01*
X316531Y246567D02*
X317113Y246551D01*
X316106Y246620D02*
X316531Y246567D01*
X315822Y246714D02*
X316106Y246620D01*
X315614Y247051D02*
X315822Y246714D01*
X315614Y247051D02*
X315558Y247250D01*
X315373Y247392D01*
X315034Y247485D01*
Y247485D02*
X313780Y247551D01*
X313049Y247566D02*
X313780Y247551D01*
X312527Y247616D02*
X313049Y247566D01*
X312187Y247709D02*
X312527Y247616D01*
X311947Y248051D02*
X312187Y247709D01*
X311947Y248051D02*
X311888Y248252D01*
X311888Y248252D02*
X311691Y248395D01*
X311691D02*
X311323Y248487D01*
Y248487D02*
X309947Y248551D01*
X309141Y248565D02*
X309947Y248551D01*
X308571Y248615D02*
X309141Y248565D01*
X308203Y248707D02*
X308571Y248615D01*
X307947Y249051D02*
X308203Y248707D01*
X307947Y249051D02*
X307879Y249256D01*
X307879Y249256D02*
X307643Y249399D01*
Y249399D02*
X307191Y249490D01*
X306320Y249543D01*
X305447Y249551D01*
X304419Y249564D02*
X305447Y249551D01*
X303703Y249611D02*
X304419Y249564D01*
X303251Y249702D02*
X303703Y249611D01*
X302947Y250051D02*
X303251Y249702D01*
X302947Y250051D02*
X302879Y250256D01*
X302879Y250256D02*
X302643Y250399D01*
Y250399D02*
X302191Y250490D01*
X301320Y250543D01*
X300447Y250551D01*
X299419Y250564D02*
X300447Y250551D01*
X298703Y250611D02*
X299419Y250564D01*
X298251Y250702D02*
X298703Y250611D01*
X297947Y251051D02*
X298251Y250702D01*
X297947Y251051D02*
X297873Y251258D01*
Y251258D02*
X297611Y251402D01*
X297103Y251491D01*
X297103Y251491D02*
X296109Y251544D01*
X295113Y251551D01*
X293937Y251564D02*
X295113Y251551D01*
X293124Y251610D02*
X293937Y251564D01*
X292616Y251699D02*
X293124Y251610D01*
X292280Y252051D02*
X292616Y251699D01*
X292280Y252051D02*
X292184Y252262D01*
X291832Y252407D01*
Y252407D02*
X291128Y252495D01*
X291128D02*
X290179Y252533D01*
X289230Y252552D01*
X288280Y252551D01*
X286584Y252563D02*
X287432Y252553D01*
X288280Y252551D01*
X285432Y252607D02*
X286584Y252563D01*
X284728Y252695D02*
X285432Y252607D01*
X284280Y253051D02*
X284728Y252695D01*
X284280Y253051D02*
X284222Y253252D01*
X284024Y253395D01*
X283656Y253487D01*
X282280Y253551D01*
X280290Y273459D02*
X280287Y272446D01*
X280284Y271434D01*
X280282Y270421D01*
X280281Y269408D01*
X280280Y268396D01*
X280280Y267384D01*
X280416Y279825D02*
X280360Y278648D01*
X280330Y277469D01*
X280780Y281217D02*
X280407Y280571D01*
X280416Y279825D01*
X280780Y281217D02*
X281280Y281717D01*
X281780Y282217D02*
X281280Y281717D01*
X281780Y282217D02*
X282280Y282717D01*
X282320Y282897D02*
X282280Y282717D01*
X282440Y283037D02*
X282320Y282897D01*
X282640Y283137D02*
X282440Y283037D01*
X283280Y283217D02*
X282640Y283137D01*
X283280Y283217D02*
X283640Y283237D01*
Y283237D02*
X283920Y283297D01*
Y283297D02*
X284120Y283397D01*
X284280Y283717D01*
X284780Y284217D02*
X284280Y283717D01*
X284780Y284217D02*
X285075Y284282D01*
X285075Y284282D02*
X285183Y284354D01*
X285183D02*
X285280Y284551D01*
X285306Y284656D02*
X285280Y284551D01*
X285377Y284747D02*
X285306Y284656D01*
X285485Y284820D02*
X285377Y284747D01*
X285780Y284884D02*
X285485Y284820D01*
X285780Y284884D02*
X286280Y285384D01*
X286780Y285884D02*
X286280Y285384D01*
X286780Y285884D02*
X287280Y286384D01*
X287780Y286884D02*
X287280Y286384D01*
X287780Y286884D02*
X288280Y287384D01*
X288780Y287884D02*
X288280Y287384D01*
X288780Y287884D02*
X289280Y288384D01*
X289780Y288884D02*
X289280Y288384D01*
X289780Y288884D02*
X290280Y289384D01*
X290780Y289884D02*
X290280Y289384D01*
X290780Y289884D02*
X291280Y290384D01*
X291780Y290884D02*
X291280Y290384D01*
X291780Y290884D02*
X291960Y290924D01*
X292100Y291044D01*
X292100D02*
X292200Y291244D01*
X292200D02*
X292280Y291884D01*
X292300Y292244D02*
X292280Y291884D01*
X292360Y292524D02*
X292300Y292244D01*
X292460Y292724D02*
X292360Y292524D01*
X292780Y292884D02*
X292460Y292724D01*
X292780Y292884D02*
X293280Y293384D01*
X293345Y293679D02*
X293280Y293384D01*
X293417Y293787D02*
X293345Y293679D01*
X293614Y293884D02*
X293417Y293787D01*
X293614Y293884D02*
X293719Y293910D01*
X293719Y293910D02*
X293810Y293981D01*
Y293981D02*
X293882Y294089D01*
X293882D02*
X293947Y294384D01*
X294447Y294884D02*
X293947Y294384D01*
X294447Y294884D02*
X294947Y295384D01*
X295447Y295884D02*
X294947Y295384D01*
X295447Y295884D02*
X295627Y295924D01*
X295767Y296044D01*
X295867Y296244D01*
X295867D02*
X295947Y296884D01*
X295967Y297244D02*
X295947Y296884D01*
X296027Y297524D02*
X295967Y297244D01*
X296127Y297724D02*
X296027Y297524D01*
X296447Y297884D02*
X296127Y297724D01*
X296447Y297884D02*
X296947Y298384D01*
X297447Y298884D02*
X296947Y298384D01*
X297447Y298884D02*
X297947Y299384D01*
X298447Y299884D02*
X297947Y299384D01*
X298447Y299884D02*
X298627Y299924D01*
X298767Y300044D01*
X298867Y300244D01*
X298867D02*
X298947Y300884D01*
X298967Y301244D02*
X298947Y300884D01*
X299027Y301524D02*
X298967Y301244D01*
X299127Y301724D02*
X299027Y301524D01*
X299447Y301884D02*
X299127Y301724D01*
X299447Y301884D02*
X299947Y302384D01*
X300447Y302884D02*
X299947Y302384D01*
X300447Y302884D02*
X300627Y302924D01*
X300767Y303044D01*
X300867Y303244D01*
X300867D02*
X300947Y303884D01*
X300967Y304244D02*
X300947Y303884D01*
X301027Y304524D02*
X300967Y304244D01*
X301127Y304724D02*
X301027Y304524D01*
X301447Y304884D02*
X301127Y304724D01*
X301447Y304884D02*
X301742Y304949D01*
X301742Y304949D02*
X301850Y305021D01*
X301850D02*
X301947Y305218D01*
X301973Y305323D02*
X301947Y305218D01*
X302044Y305414D02*
X301973Y305323D01*
X302152Y305487D02*
X302044Y305414D01*
X302447Y305551D02*
X302152Y305487D01*
X302447Y305551D02*
X302627Y305591D01*
Y305591D02*
X302767Y305711D01*
X302867Y305911D01*
X302867D02*
X302947Y306551D01*
X302967Y306911D02*
X302947Y306551D01*
X303027Y307191D02*
X302967Y306911D01*
X303127Y307391D02*
X303027Y307191D01*
X303447Y307551D02*
X303127Y307391D01*
X303447Y307551D02*
X303627Y307591D01*
Y307591D02*
X303767Y307711D01*
X303867Y307911D01*
X303867D02*
X303947Y308551D01*
X303967Y308911D02*
X303947Y308551D01*
X304027Y309191D02*
X303967Y308911D01*
X304127Y309391D02*
X304027Y309191D01*
X304447Y309551D02*
X304127Y309391D01*
X304447Y309551D02*
X304627Y309591D01*
Y309591D02*
X304767Y309711D01*
X304867Y309911D01*
X304867D02*
X304947Y310551D01*
X304967Y310911D02*
X304947Y310551D01*
X305027Y311191D02*
X304967Y310911D01*
X305127Y311391D02*
X305027Y311191D01*
X305447Y311551D02*
X305127Y311391D01*
X305447Y311551D02*
X305627Y311591D01*
Y311591D02*
X305767Y311711D01*
X305867Y311911D01*
X305867D02*
X305947Y312551D01*
X305967Y312911D02*
X305947Y312551D01*
X306027Y313191D02*
X305967Y312911D01*
X306127Y313391D02*
X306027Y313191D01*
X306447Y313551D02*
X306127Y313391D01*
X306447Y313551D02*
X306627Y313591D01*
Y313591D02*
X306767Y313711D01*
X306867Y313911D01*
X306867D02*
X306947Y314551D01*
X306967Y314911D02*
X306947Y314551D01*
X307027Y315191D02*
X306967Y314911D01*
X307127Y315391D02*
X307027Y315191D01*
X307447Y315551D02*
X307127Y315391D01*
X307447Y315551D02*
X307627Y315591D01*
Y315591D02*
X307767Y315711D01*
X307867Y315911D01*
X307867D02*
X307947Y316551D01*
X307967Y316911D02*
X307947Y316551D01*
X308027Y317191D02*
X307967Y316911D01*
X308127Y317391D02*
X308027Y317191D01*
X308447Y317551D02*
X308127Y317391D01*
X308447Y317551D02*
X308627Y317591D01*
Y317591D02*
X308767Y317711D01*
X308867Y317911D01*
X308867D02*
X308947Y318551D01*
X308967Y318911D02*
X308947Y318551D01*
X309027Y319191D02*
X308967Y318911D01*
X309127Y319391D02*
X309027Y319191D01*
X309447Y319551D02*
X309127Y319391D01*
X309447Y319551D02*
X309641Y319600D01*
X309783Y319759D01*
X309877Y320043D01*
X309877Y320043D02*
X309947Y321051D01*
X309963Y321634D02*
X309947Y321051D01*
X310016Y322059D02*
X309963Y321634D01*
X310111Y322343D02*
X310016Y322059D01*
X310447Y322551D02*
X310111Y322343D01*
X310447Y322551D02*
X310947Y323051D01*
X310996Y323245D02*
X310947Y323051D01*
X311155Y323387D02*
X310996Y323245D01*
X311439Y323482D02*
X311155Y323387D01*
X312447Y323551D02*
X311439Y323482D01*
X312447Y323551D02*
X313030Y323568D01*
Y323568D02*
X313455Y323620D01*
X313739Y323715D01*
X313947Y324051D01*
X313984Y324222D02*
X313947Y324051D01*
X314091Y324361D02*
X313984Y324222D01*
X314263Y324465D02*
X314091Y324361D01*
X314780Y324551D02*
X314263Y324465D01*
X314780Y324551D02*
X315066Y324573D01*
X315066D02*
X315297Y324638D01*
X315470Y324741D01*
X315614Y325051D01*
X316113Y325551D02*
X315614Y325051D01*
X316113Y325551D02*
X316408Y325616D01*
X316517Y325688D01*
Y325688D02*
X316614Y325885D01*
X316639Y325990D02*
X316614Y325885D01*
X316710Y326081D02*
X316639Y325990D01*
X316819Y326153D02*
X316710Y326081D01*
X317113Y326218D02*
X316819Y326153D01*
X317113Y326218D02*
X317614Y326718D01*
X318113Y327218D02*
X317614Y326718D01*
X318113Y327218D02*
X318614Y327718D01*
X319113Y328218D02*
X318614Y327718D01*
X319113Y328218D02*
X319614Y328718D01*
X320113Y329218D02*
X319614Y328718D01*
X320113Y329218D02*
X320294Y329258D01*
X320294Y329258D02*
X320434Y329378D01*
Y329378D02*
X320533Y329578D01*
Y329578D02*
X320614Y330218D01*
X320634Y330578D02*
X320614Y330218D01*
X320693Y330858D02*
X320634Y330578D01*
X320793Y331058D02*
X320693Y330858D01*
X321113Y331218D02*
X320793Y331058D01*
X321113Y331218D02*
X321294Y331258D01*
X321294Y331258D02*
X321434Y331378D01*
Y331378D02*
X321533Y331578D01*
X321614Y332218D01*
X321634Y332578D02*
X321614Y332218D01*
X321693Y332858D02*
X321634Y332578D01*
X321793Y333058D02*
X321693Y332858D01*
X322113Y333218D02*
X321793Y333058D01*
X322113Y333218D02*
X322294Y333258D01*
X322294Y333258D02*
X322434Y333378D01*
X322434D02*
X322534Y333578D01*
X322533Y333578D02*
X322614Y334218D01*
X322634Y334578D02*
X322614Y334218D01*
X322693Y334858D02*
X322634Y334578D01*
X322793Y335058D02*
X322693Y334858D01*
X323113Y335218D02*
X322793Y335058D01*
X323113Y335218D02*
X323308Y335267D01*
X323308Y335267D02*
X323449Y335426D01*
X323449Y335426D02*
X323544Y335710D01*
X323614Y336718D01*
X323630Y337300D02*
X323614Y336718D01*
X323683Y337726D02*
X323630Y337300D01*
X323778Y338010D02*
X323683Y337726D01*
X324113Y338218D02*
X323778Y338010D01*
X324113Y338218D02*
X324328Y338339D01*
X324472Y338794D01*
X324472D02*
X324559Y339722D01*
X324559Y339722D02*
X324589Y340679D01*
X324608Y341636D01*
X324616Y342594D01*
X324613Y343551D01*
X324625Y345841D02*
X324616Y344696D01*
X324613Y343551D01*
X324668Y347380D02*
X324639Y346611D01*
X324625Y345841D01*
X324755Y348308D02*
X324668Y347380D01*
X325114Y348885D02*
X324755Y348308D01*
X325114Y348885D02*
X325613Y349384D01*
X326114Y349885D02*
X325613Y349384D01*
X326114Y349885D02*
X326613Y350384D01*
X327114Y350885D02*
X326613Y350384D01*
X327114Y350885D02*
X327613Y351384D01*
X328114Y351885D02*
X327613Y351384D01*
X328114Y351885D02*
X328613Y352384D01*
X329114Y352885D02*
X328613Y352384D01*
X329114Y352885D02*
X329613Y353384D01*
X330114Y353885D02*
X329613Y353384D01*
X330114Y353885D02*
X330613Y354384D01*
X331114Y354885D02*
X330613Y354384D01*
X331114Y354885D02*
X331613Y355384D01*
X332114Y355885D02*
X331613Y355384D01*
X332114Y355885D02*
X332613Y356384D01*
X333114Y356885D02*
X332613Y356384D01*
X333114Y356885D02*
X333294Y356925D01*
X333294Y356925D02*
X333434Y357045D01*
Y357045D02*
X333534Y357244D01*
Y357244D02*
X333613Y357885D01*
X333633Y358244D02*
X333613Y357885D01*
X333694Y358524D02*
X333633Y358244D01*
X333793Y358724D02*
X333694Y358524D01*
X334114Y358885D02*
X333793Y358724D01*
X334114Y358885D02*
X334613Y359384D01*
X335114Y359885D02*
X334613Y359384D01*
X335114Y359885D02*
X335294Y359925D01*
X335294Y359925D02*
X335434Y360045D01*
Y360045D02*
X335533Y360244D01*
Y360244D02*
X335613Y360884D01*
X335631Y361200D02*
X335613Y360884D01*
X335678Y361474D02*
X335631Y361200D01*
X335750Y361691D02*
X335678Y361474D01*
X335947Y361884D02*
X335750Y361691D01*
X335947Y361884D02*
X336052Y361910D01*
X336144Y361981D01*
X336144D02*
X336216Y362090D01*
X336216D02*
X336280Y362385D01*
X336216Y362679D01*
X336216Y362679D02*
X336144Y362788D01*
Y362788D02*
X335947Y362884D01*
X335842Y362910D02*
X335947Y362884D01*
X335750Y362981D02*
X335842Y362910D01*
X335678Y363090D02*
X335750Y362981D01*
X335613Y363385D02*
X335678Y363090D01*
X335613Y363385D02*
X335114Y363884D01*
X334613Y364385D02*
X335114Y363884D01*
X334613Y364385D02*
X334574Y364564D01*
X334574D02*
X334454Y364704D01*
X334454Y364704D02*
X334254Y364805D01*
X333613Y364884D01*
X333254Y364904D02*
X333613Y364884D01*
X332974Y364965D02*
X333254Y364904D01*
X332773Y365065D02*
X332974Y364965D01*
X332613Y365385D02*
X332773Y365065D01*
X332613Y365385D02*
X332114Y365884D01*
X331613Y366385D02*
X332114Y365884D01*
X331613Y366385D02*
X331574Y366564D01*
X331574Y366564D02*
X331453Y366705D01*
X331453Y366705D02*
X331254Y366805D01*
X330613Y366884D01*
X330298Y366902D02*
X330613Y366884D01*
X330024Y366949D02*
X330298Y366902D01*
X329807Y367021D02*
X330024Y366949D01*
X329613Y367218D02*
X329807Y367021D01*
X329613Y367218D02*
X329588Y367323D01*
X329517Y367414D01*
X329408Y367487D01*
X329114Y367551D01*
X328613Y368051D02*
X329114Y367551D01*
X328613Y368051D02*
X328114Y368551D01*
X327933Y368591D02*
X328114Y368551D01*
X327793Y368711D02*
X327934Y368591D01*
X327694Y368911D02*
X327793Y368711D01*
X327613Y369551D02*
X327694Y368911D01*
X327613Y369551D02*
X327593Y369911D01*
X327593D02*
X327534Y370191D01*
X327434Y370391D01*
X327114Y370551D01*
X326613Y371051D02*
X327114Y370551D01*
X326613Y371051D02*
X326114Y371551D01*
X325613Y372051D02*
X326114Y371551D01*
X325613Y372051D02*
X325114Y372551D01*
X324933Y372591D02*
X325114Y372551D01*
X324793Y372711D02*
X324934Y372591D01*
X324693Y372911D02*
X324793Y372711D01*
X324613Y373551D02*
X324693Y372911D01*
X324613Y373551D02*
X324593Y373911D01*
X324593D02*
X324534Y374191D01*
X324434Y374391D01*
X324113Y374551D01*
X323614Y375051D02*
X324113Y374551D01*
X323614Y375051D02*
X323113Y375551D01*
X322933Y375591D02*
X323113Y375551D01*
X322793Y375711D02*
X322934Y375591D01*
X322693Y375911D02*
X322793Y375711D01*
X322614Y376551D02*
X322693Y375911D01*
X322614Y376551D02*
X322593Y376911D01*
X322593D02*
X322533Y377191D01*
X322434Y377391D01*
X322113Y377551D01*
X321933Y377591D02*
X322113Y377551D01*
X321793Y377711D02*
X321934Y377591D01*
X321693Y377911D02*
X321793Y377711D01*
X321614Y378551D02*
X321693Y377911D01*
X321614Y378551D02*
X321593Y378911D01*
X321593D02*
X321533Y379191D01*
X321434Y379391D01*
X321113Y379551D01*
X320933Y379591D02*
X321113Y379551D01*
X320793Y379711D02*
X320934Y379591D01*
X320693Y379911D02*
X320793Y379711D01*
X320614Y380551D02*
X320693Y379911D01*
X320634Y380911D02*
X320614Y380551D01*
X320693Y381191D02*
X320634Y380911D01*
X320793Y381391D02*
X320693Y381191D01*
X321113Y381551D02*
X320793Y381391D01*
X321614Y381051D02*
X321113Y381551D01*
X321614Y381051D02*
X321654Y380871D01*
X321774Y380731D01*
Y380731D02*
X321973Y380631D01*
Y380631D02*
X322614Y380551D01*
X323059Y380533D02*
X322614Y380551D01*
X323517Y380287D02*
X323059Y380533D01*
X323614Y379551D02*
X323517Y380287D01*
X323614Y379551D02*
X323634Y379191D01*
X323634D02*
X323693Y378911D01*
X323693D02*
X323793Y378711D01*
X324113Y378551D01*
X324613Y378051D02*
X324113Y378551D01*
X324613Y378051D02*
X325114Y377551D01*
X325613Y377051D02*
X325114Y377551D01*
X325613Y377051D02*
X326114Y376551D01*
X326613Y376051D02*
X326114Y376551D01*
X326613Y376051D02*
X327114Y375551D01*
X327613Y375051D02*
X327114Y375551D01*
X327613Y375051D02*
X328114Y374551D01*
X328294Y374511D02*
X328114Y374551D01*
X328434Y374391D02*
X328294Y374511D01*
X328534Y374191D02*
X328434Y374391D01*
X328613Y373551D02*
X328534Y374191D01*
X328613Y373551D02*
X328633Y373191D01*
X328633D02*
X328694Y372911D01*
X328694D02*
X328793Y372711D01*
X329114Y372551D01*
X329613Y372051D02*
X329114Y372551D01*
X329613Y372051D02*
X329654Y371871D01*
X329773Y371731D01*
Y371731D02*
X329974Y371631D01*
Y371631D02*
X330613Y371551D01*
X330974Y371531D02*
X330613Y371551D01*
X331254Y371471D02*
X330974Y371531D01*
X331453Y371371D02*
X331254Y371471D01*
X331613Y371051D02*
X331453Y371371D01*
X331613Y371051D02*
X332114Y370551D01*
X332613Y370051D02*
X332114Y370551D01*
X332613Y370051D02*
X333114Y369551D01*
Y369551D02*
X333613Y370051D01*
X333653Y370231D02*
X333613Y370051D01*
X333773Y370371D02*
X333653Y370231D01*
X333974Y370471D02*
X333773Y370371D01*
X334613Y370551D02*
X333974Y370471D01*
X335630Y373186D02*
X335613Y372551D01*
X335678Y373735D02*
X335630Y373186D01*
X335750Y374167D02*
X335678Y373735D01*
X335947Y374551D02*
X335750Y374167D01*
X335947Y374551D02*
X336063Y374866D01*
X336063Y374866D02*
X336156Y375788D01*
X336156Y375788D02*
X336196Y376537D01*
X336224Y377287D01*
X336224Y377287D02*
X336246Y378206D01*
X336263Y379126D01*
X336274Y380046D01*
X336280Y380965D01*
X336280Y381885D01*
X336266Y384439D02*
X336250Y385461D01*
X336224Y386482D01*
X336224D02*
X336196Y387231D01*
X336156Y387981D01*
X336156D02*
X335947Y389218D01*
X335841Y389319D02*
X335947Y389218D01*
X335750Y389602D02*
X335841Y389319D01*
X335678Y390034D02*
X335750Y389602D01*
X335613Y391218D02*
X335678Y390034D01*
X335613Y391218D02*
X335599Y392023D01*
Y392023D02*
X335549Y392594D01*
X335549D02*
X335457Y392962D01*
Y392962D02*
X335114Y393218D01*
X334919Y393267D02*
X335114Y393218D01*
X334777Y393426D02*
X334919Y393267D01*
X334683Y393710D02*
X334777Y393426D01*
X334613Y394718D02*
X334683Y393710D01*
X334613Y394718D02*
X334597Y395301D01*
X334544Y395726D01*
X334450Y396010D01*
X334114Y396218D01*
X333919Y396267D02*
X334114Y396218D01*
X333777Y396426D02*
X333919Y396267D01*
X333683Y396710D02*
X333777Y396426D01*
X333613Y397718D02*
X333683Y396710D01*
X333613Y397718D02*
X333597Y398301D01*
X333544Y398726D01*
X333450Y399010D01*
X333114Y399218D01*
X332933Y399258D02*
X333114Y399218D01*
X332793Y399378D02*
X332933Y399258D01*
X332694Y399578D02*
X332793Y399378D01*
X332613Y400218D02*
X332694Y399578D01*
X332613Y400218D02*
X332593Y400578D01*
X332593D02*
X332534Y400858D01*
X332434Y401058D01*
X332114Y401218D01*
X331933Y401258D02*
X332114Y401218D01*
X331793Y401378D02*
X331933Y401258D01*
X331694Y401578D02*
X331793Y401378D01*
X331613Y402218D02*
X331694Y401578D01*
X331613Y402218D02*
X331593Y402578D01*
X331593D02*
X331534Y402858D01*
X331434Y403058D01*
X331114Y403218D01*
X330933Y403258D02*
X331114Y403218D01*
X330793Y403378D02*
X330933Y403258D01*
X330694Y403578D02*
X330793Y403378D01*
X330613Y404218D02*
X330694Y403578D01*
X330613Y404218D02*
X330593Y404578D01*
X330593D02*
X330534Y404858D01*
X330434Y405058D01*
X330114Y405218D01*
X329933Y405258D02*
X330114Y405218D01*
X329793Y405378D02*
X329934Y405258D01*
X329694Y405578D02*
X329793Y405378D01*
X329613Y406218D02*
X329694Y405578D01*
X329613Y406218D02*
X329593Y406578D01*
X329593D02*
X329534Y406858D01*
X329434Y407058D01*
X329114Y407218D01*
X328613Y407718D02*
X329114Y407218D01*
X328613Y407718D02*
X328114Y408218D01*
X327942Y408255D02*
X328114Y408218D01*
X327803Y408362D02*
X327942Y408255D01*
X327700Y408534D02*
X327803Y408362D01*
X327613Y409051D02*
X327700Y408534D01*
X327613Y409051D02*
X327591Y409337D01*
X327527Y409569D01*
Y409569D02*
X327424Y409740D01*
X327114Y409885D01*
X326613Y410385D02*
X327114Y409885D01*
X326613Y410385D02*
X326114Y410885D01*
X325933Y410924D02*
X326114Y410885D01*
X325793Y411045D02*
X325934Y410924D01*
X325693Y411244D02*
X325793Y411045D01*
X325613Y411884D02*
X325693Y411244D01*
X325613Y411884D02*
X325593Y412245D01*
X325593Y412245D02*
X325534Y412525D01*
Y412525D02*
X325434Y412724D01*
Y412724D02*
X325114Y412885D01*
X324613Y413384D02*
X325114Y412885D01*
X324613Y413384D02*
X324113Y413884D01*
X323614Y414385D02*
X324113Y413884D01*
X323614Y414385D02*
X323113Y414885D01*
X322614Y415384D02*
X323113Y414885D01*
X322614Y415384D02*
X322113Y415884D01*
X321614Y416385D02*
X322113Y415884D01*
X321614Y416385D02*
X321113Y416885D01*
X320614Y417384D02*
X321113Y416885D01*
X320614Y417384D02*
X320113Y417884D01*
X319614Y418385D02*
X320113Y417884D01*
X319614Y418385D02*
X319113Y418885D01*
X318614Y419384D02*
X319113Y418885D01*
X318614Y419384D02*
X318113Y419884D01*
X317614Y420385D02*
X318113Y419884D01*
X317614Y420385D02*
X317113Y420885D01*
X316614Y421384D02*
X317113Y420885D01*
X316614Y421384D02*
X316113Y421884D01*
X315614Y422385D02*
X316113Y421884D01*
X315614Y422385D02*
X315113Y422885D01*
X314614Y423385D02*
X315113Y422885D01*
X314614Y423385D02*
X314577Y423556D01*
X314577Y423556D02*
X314470Y423695D01*
Y423695D02*
X314298Y423798D01*
Y423798D02*
X313780Y423884D01*
X313494Y423907D02*
X313780Y423884D01*
X313263Y423971D02*
X313494Y423907D01*
X313091Y424074D02*
X313263Y423971D01*
X312947Y424384D02*
X313091Y424074D01*
X312947Y424384D02*
X312447Y424885D01*
X311947Y425385D02*
X312447Y424885D01*
X311947Y425385D02*
X311907Y425564D01*
Y425564D02*
X311787Y425704D01*
X311587Y425805D01*
X310947Y425884D01*
X310587Y425905D02*
X310947Y425884D01*
X310307Y425964D02*
X310587Y425905D01*
X310107Y426064D02*
X310307Y425964D01*
X309947Y426384D02*
X310107Y426064D01*
X309947Y426384D02*
X309907Y426565D01*
Y426565D02*
X309787Y426705D01*
X309587Y426804D01*
X308947Y426885D01*
X308587Y426904D02*
X308947Y426885D01*
X308307Y426965D02*
X308587Y426904D01*
X308107Y427065D02*
X308307Y426965D01*
X307947Y427385D02*
X308107Y427065D01*
X307947Y427385D02*
X307907Y427564D01*
Y427564D02*
X307787Y427704D01*
X307587Y427805D01*
X306947Y427884D01*
X306587Y427905D02*
X306947Y427884D01*
X306307Y427964D02*
X306587Y427905D01*
X306107Y428064D02*
X306307Y427964D01*
X305947Y428384D02*
X306107Y428064D01*
X305947Y428384D02*
X305907Y428565D01*
Y428565D02*
X305787Y428705D01*
X305587Y428804D01*
X304947Y428885D01*
X304632Y428902D02*
X304947Y428885D01*
X304357Y428949D02*
X304632Y428902D01*
X304140Y429021D02*
X304357Y428949D01*
X303947Y429218D02*
X304140Y429021D01*
X303947Y429218D02*
X303870Y429323D01*
X303657Y429414D01*
X303656D02*
X303331Y429487D01*
X303331D02*
X302447Y429551D01*
X301864Y429568D02*
X302447Y429551D01*
X301439Y429621D02*
X301864Y429568D01*
X301155Y429715D02*
X301439Y429621D01*
X300947Y430051D02*
X301155Y429715D01*
X300947Y430051D02*
X300898Y430245D01*
X300898D02*
X300739Y430387D01*
X300739D02*
X300455Y430482D01*
X299447Y430551D01*
X298864Y430568D02*
X299447Y430551D01*
X298439Y430621D02*
X298864Y430568D01*
X298155Y430715D02*
X298439Y430621D01*
X297947Y431051D02*
X298155Y430715D01*
X298080Y431267D02*
X297947Y431051D01*
X298587Y431411D02*
X298080Y431267D01*
X299627Y431498D02*
X298587Y431411D01*
X303947Y431551D02*
X302867Y431554D01*
X301787Y431546D01*
X300707Y431528D01*
X299627Y431498D01*
X309947Y433051D02*
X309930Y433634D01*
X309930D02*
X309877Y434059D01*
X309877D02*
X309783Y434343D01*
X309783D02*
X309447Y434551D01*
X308947Y435051D02*
X309447Y434551D01*
X308947Y435051D02*
X308447Y435551D01*
X307947Y436051D02*
X308447Y435551D01*
X307947Y436051D02*
X307907Y436231D01*
Y436231D02*
X307787Y436371D01*
Y436371D02*
X307587Y436471D01*
X306947Y436551D01*
X306587Y436571D02*
X306947Y436551D01*
X306307Y436631D02*
X306587Y436571D01*
X306107Y436731D02*
X306307Y436631D01*
X305947Y437051D02*
X306107Y436731D01*
X305947Y437051D02*
X305907Y437231D01*
Y437231D02*
X305787Y437371D01*
Y437371D02*
X305587Y437471D01*
X304947Y437551D01*
X304587Y437571D02*
X304947Y437551D01*
X304307Y437631D02*
X304587Y437571D01*
X304107Y437731D02*
X304307Y437631D01*
X303947Y438051D02*
X304107Y437731D01*
X303947Y438051D02*
X303907Y438231D01*
Y438231D02*
X303787Y438371D01*
Y438371D02*
X303587Y438471D01*
X302947Y438551D01*
X302587Y438571D02*
X302947Y438551D01*
X302307Y438631D02*
X302587Y438571D01*
X302107Y438731D02*
X302307Y438631D01*
X301947Y439051D02*
X302107Y438731D01*
X301947Y439051D02*
X301907Y439231D01*
Y439231D02*
X301787Y439371D01*
Y439371D02*
X301587Y439471D01*
X300947Y439551D01*
X300587Y439571D02*
X300947Y439551D01*
X300307Y439631D02*
X300587Y439571D01*
X300107Y439731D02*
X300307Y439631D01*
X299947Y440051D02*
X300107Y439731D01*
X299947Y440051D02*
X299907Y440231D01*
Y440231D02*
X299787Y440371D01*
Y440371D02*
X299587Y440471D01*
X298947Y440551D01*
X298587Y440571D02*
X298947Y440551D01*
X298307Y440631D02*
X298587Y440571D01*
X298107Y440731D02*
X298307Y440631D01*
X297947Y441051D02*
X298107Y440731D01*
X297947Y441051D02*
X297907Y441231D01*
Y441231D02*
X297787Y441371D01*
Y441371D02*
X297587Y441471D01*
X296947Y441551D01*
X296587Y441571D02*
X296947Y441551D01*
X296307Y441631D02*
X296587Y441571D01*
X296107Y441731D02*
X296307Y441631D01*
X295947Y442051D02*
X296107Y441731D01*
X295947Y442051D02*
X295901Y442242D01*
X295901Y442242D02*
X295755Y442383D01*
X295755Y442383D02*
X295499Y442479D01*
X295499D02*
X294614Y442551D01*
X294105Y442568D02*
X294614Y442551D01*
X293728Y442623D02*
X294105Y442568D01*
X293472Y442719D02*
X293728Y442623D01*
X293280Y443051D02*
X293472Y442719D01*
X293280Y443051D02*
X293221Y443253D01*
X293024Y443395D01*
X292656Y443487D01*
X291280Y443551D01*
X290475Y443566D02*
X291280Y443551D01*
X289904Y443615D02*
X290475Y443566D01*
X289536Y443707D02*
X289904Y443615D01*
X289280Y444051D02*
X289536Y443707D01*
X289280Y444051D02*
X289184Y444263D01*
X289184D02*
X288832Y444407D01*
X288128Y444495D01*
Y444495D02*
X287179Y444534D01*
X286230Y444552D01*
X285280Y444551D01*
X283584Y444563D02*
X284432Y444553D01*
X285280Y444551D01*
X282432Y444607D02*
X283584Y444563D01*
X281728Y444695D02*
X282432Y444607D01*
X281280Y445051D02*
X281728Y444695D01*
X281280Y445051D02*
X281212Y445257D01*
X281212D02*
X280976Y445400D01*
Y445400D02*
X280524Y445490D01*
Y445490D02*
X279653Y445544D01*
X278780Y445551D01*
X277752Y445538D01*
X277036Y445490D01*
Y445490D02*
X276584Y445400D01*
X276584Y445400D02*
X276280Y445051D01*
X276187Y444840D02*
X276280Y445051D01*
X275848Y444696D02*
X276187Y444840D01*
X275172Y444608D02*
X275848Y444696D01*
X272447Y444551D02*
X273356Y444550D01*
X274264Y444569D01*
X275172Y444607D01*
X272447Y444551D02*
X271636Y444549D01*
X270825Y444539D01*
Y444539D02*
X269722Y444495D01*
Y444495D02*
X269045Y444407D01*
Y444407D02*
X268614Y444051D01*
X268555Y443850D02*
X268614Y444051D01*
X268357Y443707D02*
X268555Y443850D01*
X267989Y443615D02*
X268357Y443707D01*
X266614Y443551D02*
X267989Y443615D01*
X266614Y443551D02*
X265808Y443537D01*
X265237Y443487D01*
X264869Y443395D01*
X264614Y443051D01*
X264564Y442857D02*
X264614Y443051D01*
X264405Y442715D02*
X264564Y442857D01*
X264122Y442621D02*
X264405Y442715D01*
X263113Y442551D02*
X264122Y442621D01*
X263113Y442551D02*
X262531Y442535D01*
X262105Y442482D01*
Y442482D02*
X261822Y442387D01*
X261613Y442051D01*
X261564Y441857D02*
X261613Y442051D01*
X261405Y441715D02*
X261564Y441857D01*
X261122Y441621D02*
X261405Y441715D01*
X260114Y441551D02*
X261122Y441621D01*
X260114Y441551D02*
X259531Y441535D01*
X259105Y441482D01*
Y441482D02*
X258822Y441387D01*
X258613Y441051D01*
X258574Y440871D02*
X258613Y441051D01*
X258453Y440731D02*
X258574Y440871D01*
X258254Y440631D02*
X258453Y440731D01*
X257613Y440551D02*
X258254Y440631D01*
X257613Y440551D02*
X257254Y440531D01*
X256974Y440471D01*
Y440471D02*
X256773Y440371D01*
Y440371D02*
X256613Y440051D01*
X256564Y439857D02*
X256613Y440051D01*
X256405Y439715D02*
X256564Y439857D01*
X256121Y439621D02*
X256405Y439715D01*
X255114Y439551D02*
X256121Y439621D01*
X255114Y439551D02*
X254531Y439535D01*
X254105Y439482D01*
Y439482D02*
X253821Y439387D01*
X253613Y439051D01*
X253573Y438871D02*
X253613Y439051D01*
X253453Y438731D02*
X253573Y438871D01*
X253254Y438631D02*
X253453Y438731D01*
X252613Y438551D02*
X253254Y438631D01*
X252613Y438551D02*
X252254Y438531D01*
X251974Y438471D01*
Y438471D02*
X251774Y438371D01*
Y438371D02*
X251613Y438051D01*
X251567Y437861D02*
X251613Y438051D01*
X251421Y437719D02*
X251567Y437861D01*
X251166Y437623D02*
X251421Y437719D01*
X250280Y437551D02*
X251166Y437623D01*
X249772Y437569D02*
X250280Y437551D01*
X249395Y437623D02*
X249772Y437569D01*
X249139Y437719D02*
X249395Y437623D01*
X248947Y438051D02*
X249139Y437719D01*
X248947Y438051D02*
X248447Y438551D01*
X247947Y439051D02*
X248447Y438551D01*
X247947Y439051D02*
X247898Y439245D01*
X247898D02*
X247739Y439387D01*
X247455Y439482D01*
X247455D02*
X246447Y439551D01*
X245864Y439568D02*
X246447Y439551D01*
X245439Y439621D02*
X245864Y439568D01*
X245155Y439715D02*
X245439Y439621D01*
X244947Y440051D02*
X245155Y439715D01*
X244947Y440051D02*
X244907Y440231D01*
X244787Y440371D01*
X244787Y440371D02*
X244587Y440471D01*
X244587D02*
X243947Y440551D01*
X243587Y440571D02*
X243947Y440551D01*
X243307Y440631D02*
X243587Y440571D01*
X243107Y440731D02*
X243307Y440631D01*
X242947Y441051D02*
X243107Y440731D01*
X242947Y441051D02*
X242898Y441245D01*
X242898D02*
X242739Y441387D01*
X242455Y441482D01*
X242455D02*
X241447Y441551D01*
X240864Y441568D02*
X241447Y441551D01*
X240439Y441621D02*
X240864Y441568D01*
X240155Y441715D02*
X240439Y441621D01*
X239947Y442051D02*
X240155Y441715D01*
X239947Y442051D02*
X239879Y442257D01*
X239879D02*
X239643Y442400D01*
Y442400D02*
X239191Y442490D01*
Y442490D02*
X238320Y442544D01*
X237447Y442551D01*
X236419Y442565D02*
X237447Y442551D01*
X235703Y442612D02*
X236419Y442565D01*
X235251Y442702D02*
X235703Y442612D01*
X234947Y443051D02*
X235251Y442702D01*
X234947Y443051D02*
X234826Y443266D01*
X234826D02*
X234371Y443410D01*
X233443Y443497D01*
X232486Y443527D01*
X231528Y443546D01*
X230571Y443554D01*
X229613Y443551D01*
X227324Y443540D02*
X226554Y443526D01*
X225784Y443497D01*
X225784D02*
X224856Y443410D01*
X224856Y443410D02*
X224280Y443051D01*
X224212Y442846D02*
X224280Y443051D01*
X223976Y442702D02*
X224212Y442846D01*
X223524Y442612D02*
X223976Y442702D01*
X221780Y442551D02*
X222653Y442559D01*
X223524Y442612D01*
X221780Y442551D02*
X220752Y442538D01*
X220036Y442490D01*
Y442490D02*
X219584Y442400D01*
X219584Y442400D02*
X219280Y442051D01*
X219231Y441857D02*
X219280Y442051D01*
X219072Y441715D02*
X219231Y441857D01*
X218788Y441621D02*
X219072Y441715D01*
X217780Y441551D02*
X218788Y441621D01*
X217780Y441551D02*
X217197Y441535D01*
X216772Y441482D01*
Y441482D02*
X216488Y441387D01*
X216488D02*
X216280Y441051D01*
X216231Y440857D02*
X216280Y441051D01*
X216072Y440715D02*
X216231Y440857D01*
X215788Y440621D02*
X216072Y440715D01*
X214780Y440551D02*
X215788Y440621D01*
X214780Y440551D02*
X214197Y440535D01*
X213772Y440482D01*
Y440482D02*
X213488Y440387D01*
X213488D02*
X213280Y440051D01*
X213240Y439871D02*
X213280Y440051D01*
X213120Y439731D02*
X213240Y439871D01*
X212920Y439631D02*
X213120Y439731D01*
X212280Y439551D02*
X212920Y439631D01*
X212280Y439551D02*
X211920Y439531D01*
X211640Y439471D01*
Y439471D02*
X211440Y439371D01*
Y439371D02*
X211280Y439051D01*
X211240Y438871D02*
X211280Y439051D01*
X211120Y438731D02*
X211240Y438871D01*
X210920Y438631D02*
X211120Y438731D01*
X210280Y438551D02*
X210920Y438631D01*
X210280Y438551D02*
X209920Y438531D01*
X209640Y438471D01*
Y438471D02*
X209440Y438371D01*
Y438371D02*
X209280Y438051D01*
X209243Y437880D02*
X209280Y438051D01*
X209136Y437741D02*
X209243Y437880D01*
X208964Y437638D02*
X209136Y437741D01*
X208447Y437551D02*
X208964Y437638D01*
X208447Y437551D02*
X208161Y437529D01*
X207929Y437465D01*
Y437465D02*
X207757Y437362D01*
X207757Y437362D02*
X207613Y437051D01*
X207574Y436871D02*
X207613Y437051D01*
X207453Y436731D02*
X207574Y436871D01*
X207254Y436631D02*
X207453Y436731D01*
X206613Y436551D02*
X207254Y436631D01*
X206613Y436551D02*
X206254Y436531D01*
X205974Y436471D01*
Y436471D02*
X205773Y436371D01*
Y436371D02*
X205613Y436051D01*
X205114Y435551D02*
X205613Y436051D01*
X205114Y435551D02*
X204613Y435051D01*
X204573Y434871D02*
X204613Y435051D01*
X204453Y434731D02*
X204573Y434871D01*
X204254Y434631D02*
X204453Y434731D01*
X203613Y434551D02*
X204254Y434631D01*
X203613Y434551D02*
X203254Y434531D01*
X202974Y434471D01*
Y434471D02*
X202773Y434371D01*
Y434371D02*
X202613Y434051D01*
X202114Y433551D02*
X202613Y434051D01*
X202114Y433551D02*
X201613Y433051D01*
X201114Y432551D02*
X201613Y433051D01*
X201114Y432551D02*
X200613Y432051D01*
X200114Y431551D02*
X200613Y432051D01*
X200114Y431551D02*
X199613Y431051D01*
X199114Y430551D02*
X199613Y431051D01*
X199114Y430551D02*
X198614Y430051D01*
X198114Y429551D02*
X198614Y430051D01*
X198114Y429551D02*
X197819Y429487D01*
Y429487D02*
X197710Y429414D01*
Y429414D02*
X197614Y429218D01*
X197588Y429113D02*
X197614Y429218D01*
X197517Y429021D02*
X197588Y429113D01*
X197408Y428949D02*
X197517Y429021D01*
X197114Y428885D02*
X197408Y428949D01*
X197114Y428885D02*
X196614Y428384D01*
X196114Y427884D02*
X196614Y428384D01*
X196114Y427884D02*
X195614Y427385D01*
X195114Y426885D02*
X195614Y427385D01*
X195114Y426885D02*
X194614Y426384D01*
X194114Y425884D02*
X194614Y426384D01*
X194114Y425884D02*
X193614Y425385D01*
X193114Y424885D02*
X193614Y425385D01*
X193114Y424885D02*
X192613Y424384D01*
X192113Y423884D02*
X192613Y424384D01*
X192113Y423884D02*
X191613Y423385D01*
X191113Y422885D02*
X191613Y423385D01*
X191113Y422885D02*
X190934Y422845D01*
X190934D02*
X190794Y422724D01*
X190794Y422724D02*
X190693Y422524D01*
X190693D02*
X190613Y421884D01*
X190594Y421524D02*
X190613Y421884D01*
X190533Y421244D02*
X190594Y421524D01*
X190434Y421044D02*
X190533Y421244D01*
X190113Y420885D02*
X190434Y421044D01*
X190113Y420885D02*
X189613Y420385D01*
X189113Y419884D02*
X189613Y420385D01*
X189113Y419884D02*
X188934Y419844D01*
X188934D02*
X188794Y419725D01*
X188794Y419725D02*
X188693Y419524D01*
X188693D02*
X188613Y418885D01*
X188593Y418525D02*
X188613Y418885D01*
X188533Y418245D02*
X188593Y418525D01*
X188434Y418045D02*
X188533Y418245D01*
X188113Y417884D02*
X188434Y418045D01*
X188113Y417884D02*
X187613Y417384D01*
X187549Y417090D02*
X187613Y417384D01*
X187477Y416981D02*
X187549Y417090D01*
X187280Y416885D02*
X187477Y416981D01*
X187280Y416885D02*
X187175Y416833D01*
X187175D02*
X187084Y416691D01*
X187011Y416474D01*
X186947Y415884D01*
X186927Y415524D02*
X186947Y415884D01*
X186867Y415244D02*
X186927Y415524D01*
X186767Y415044D02*
X186867Y415244D01*
X186447Y414885D02*
X186767Y415044D01*
X186447Y414885D02*
X186267Y414845D01*
X186267Y414845D02*
X186127Y414724D01*
X186027Y414525D01*
X185947Y413884D01*
X185927Y413524D02*
X185947Y413884D01*
X185867Y413244D02*
X185927Y413524D01*
X185767Y413045D02*
X185867Y413244D01*
X185447Y412885D02*
X185767Y413045D01*
X184927Y411524D02*
X184947Y411884D01*
X184867Y411244D02*
X184927Y411524D01*
X184767Y411045D02*
X184867Y411244D01*
X184447Y410885D02*
X184767Y411045D01*
X184447Y410885D02*
X184267Y410845D01*
X184267Y410845D02*
X184127Y410724D01*
X184027Y410525D01*
X183947Y409885D01*
X183927Y409524D02*
X183947Y409885D01*
X183867Y409244D02*
X183927Y409524D01*
X183767Y409045D02*
X183867Y409244D01*
X183447Y408884D02*
X183767Y409045D01*
X183447Y408884D02*
X183275Y408848D01*
X183136Y408741D01*
Y408741D02*
X183033Y408568D01*
Y408568D02*
X182947Y408051D01*
X182925Y407765D02*
X182947Y408051D01*
X182860Y407534D02*
X182925Y407765D01*
X182757Y407362D02*
X182860Y407534D01*
X182447Y407218D02*
X182757Y407362D01*
X182447Y407218D02*
X182253Y407168D01*
Y407168D02*
X182111Y407010D01*
X182111D02*
X182016Y406726D01*
X182016Y406726D02*
X181947Y405718D01*
X181930Y405135D02*
X181947Y405718D01*
X181878Y404710D02*
X181930Y405135D01*
X181783Y404426D02*
X181878Y404710D01*
X181447Y404218D02*
X181783Y404426D01*
X181447Y404218D02*
X181253Y404169D01*
Y404169D02*
X181111Y404010D01*
X181111D02*
X181016Y403726D01*
X181016Y403726D02*
X180947Y402718D01*
X180930Y402135D02*
X180947Y402718D01*
X180877Y401710D02*
X180930Y402135D01*
X180783Y401426D02*
X180877Y401710D01*
X180447Y401218D02*
X180783Y401426D01*
X180447Y401218D02*
X180245Y401159D01*
X180245Y401159D02*
X180103Y400962D01*
X180011Y400594D01*
X179947Y399218D01*
X179932Y398412D02*
X179947Y399218D01*
X179883Y397842D02*
X179932Y398412D01*
X179791Y397474D02*
X179883Y397842D01*
X179447Y397218D02*
X179791Y397474D01*
X179447Y397218D02*
X179235Y397122D01*
X179235D02*
X179091Y396770D01*
X179091D02*
X179003Y396066D01*
X179003D02*
X178964Y395117D01*
X178946Y394167D01*
X178947Y393218D01*
X178935Y391522D02*
X178945Y392370D01*
X178947Y393218D01*
X178891Y390370D02*
X178935Y391522D01*
X178803Y389666D02*
X178891Y390370D01*
X178447Y389218D02*
X178803Y389666D01*
X178447Y389218D02*
X178235Y389125D01*
X178235Y389125D02*
X178091Y388786D01*
X178091Y388786D02*
X178003Y388110D01*
X177965Y387202D01*
X177946Y386293D01*
X177947Y385384D01*
Y385384D02*
X177949Y384574D01*
X177959Y383763D01*
Y383763D02*
X178003Y382659D01*
X178003D02*
X178091Y381983D01*
X178447Y381551D01*
X178657Y381465D02*
X178447Y381551D01*
X178801Y381151D02*
X178657Y381465D01*
X178890Y380531D02*
X178801Y381151D01*
X178947Y378051D02*
X178941Y379292D01*
X178890Y380531D01*
X178947Y378051D02*
X178959Y376578D01*
X178959D02*
X179004Y375571D01*
X179093Y374951D01*
Y374951D02*
X179447Y374551D01*
X179648Y374493D02*
X179447Y374551D01*
X179791Y374295D02*
X179648Y374493D01*
X179883Y373927D02*
X179791Y374295D01*
X179947Y372551D02*
X179883Y373927D01*
X179947Y372551D02*
X179962Y371746D01*
Y371746D02*
X180011Y371175D01*
Y371175D02*
X180103Y370807D01*
X180103D02*
X180447Y370551D01*
X180641Y370502D02*
X180447Y370551D01*
X180783Y370343D02*
X180641Y370502D01*
X180877Y370059D02*
X180783Y370343D01*
X180947Y369051D02*
X180877Y370059D01*
X180947Y369051D02*
X180963Y368468D01*
X181016Y368043D01*
X181016D02*
X181111Y367759D01*
X181447Y367551D01*
X181618Y367514D02*
X181447Y367551D01*
X181757Y367407D02*
X181618Y367514D01*
X181860Y367235D02*
X181757Y367407D01*
X181947Y366718D02*
X181860Y367235D01*
X181947Y366718D02*
X181969Y366432D01*
Y366432D02*
X182033Y366200D01*
X182136Y366028D01*
Y366028D02*
X182447Y365884D01*
X182627Y365844D02*
X182447Y365884D01*
X182767Y365724D02*
X182627Y365844D01*
X182867Y365525D02*
X182767Y365724D01*
X182947Y364884D02*
X182867Y365525D01*
X182947Y364884D02*
X182967Y364525D01*
X182967D02*
X183027Y364245D01*
X183127Y364044D01*
X183127D02*
X183447Y363884D01*
X183627Y363844D02*
X183447Y363884D01*
X183767Y363724D02*
X183627Y363844D01*
X183867Y363525D02*
X183767Y363724D01*
X183947Y362884D02*
X183867Y363525D01*
X183928Y362439D02*
X183947Y362884D01*
X183683Y361981D02*
X183928Y362439D01*
X182947Y361884D02*
X183683Y361981D01*
X182947Y361884D02*
X182587Y361864D01*
X182307Y361805D01*
Y361805D02*
X182107Y361704D01*
Y361704D02*
X181947Y361385D01*
X181447Y360884D02*
X181947Y361385D01*
X181447Y360884D02*
X180947Y360384D01*
X180447Y359885D02*
X180947Y360384D01*
X180447Y359885D02*
X179947Y359384D01*
X179447Y358885D02*
X179947Y359384D01*
X179447Y358885D02*
X179267Y358844D01*
X179267D02*
X179127Y358724D01*
Y358724D02*
X179027Y358524D01*
Y358524D02*
X178947Y357885D01*
X178927Y357524D02*
X178947Y357885D01*
X178867Y357244D02*
X178927Y357524D01*
X178767Y357045D02*
X178867Y357244D01*
X178447Y356885D02*
X178767Y357045D01*
X178447Y356885D02*
X178253Y356835D01*
Y356835D02*
X178111Y356677D01*
X178111Y356677D02*
X178016Y356393D01*
X178016D02*
X177947Y355384D01*
X177930Y354802D02*
X177947Y355384D01*
X177877Y354377D02*
X177930Y354802D01*
X177783Y354093D02*
X177877Y354377D01*
X177447Y353885D02*
X177783Y354093D01*
X177447Y353885D02*
X177245Y353826D01*
X177103Y353628D01*
X177103Y353628D02*
X177011Y353260D01*
X176947Y351885D01*
X176932Y351079D02*
X176947Y351885D01*
X176883Y350508D02*
X176932Y351079D01*
X176791Y350141D02*
X176883Y350508D01*
X176447Y349885D02*
X176791Y350141D01*
X176447Y349885D02*
X176235Y349792D01*
X176091Y349452D01*
Y349452D02*
X176003Y348777D01*
X176003Y348777D02*
X175965Y347869D01*
X175946Y346960D01*
X175947Y346051D01*
X175947D02*
X175949Y345240D01*
X175959Y344429D01*
X176003Y343326D01*
X176091Y342650D01*
X176091D02*
X176447Y342218D01*
X176652Y342150D02*
X176447Y342218D01*
X176796Y341914D02*
X176652Y342150D01*
X176886Y341462D02*
X176796Y341914D01*
X176947Y339718D02*
X176939Y340591D01*
X176886Y341462D01*
X176947Y339718D02*
X176960Y338690D01*
X177008Y337974D01*
X177098Y337522D01*
X177098Y337522D02*
X177447Y337218D01*
X177641Y337169D02*
X177447Y337218D01*
X177783Y337010D02*
X177641Y337169D01*
X177877Y336726D02*
X177783Y337010D01*
X177947Y335718D02*
X177877Y336726D01*
X177947Y335718D02*
X177963Y335135D01*
X178016Y334710D01*
X178016D02*
X178111Y334426D01*
Y334426D02*
X178447Y334218D01*
X178627Y334178D02*
X178447Y334218D01*
X178767Y334058D02*
X178627Y334178D01*
X178867Y333858D02*
X178767Y334058D01*
X178947Y333218D02*
X178867Y333858D01*
X178947Y333218D02*
X178967Y332858D01*
X178967D02*
X179027Y332578D01*
X179127Y332378D01*
X179127Y332378D02*
X179447Y332218D01*
X179627Y332178D02*
X179447Y332218D01*
X179767Y332058D02*
X179627Y332178D01*
X179867Y331858D02*
X179767Y332058D01*
X179947Y331218D02*
X179867Y331858D01*
X179947Y331218D02*
X179967Y330858D01*
X179967D02*
X180027Y330578D01*
X180127Y330378D01*
X180127D02*
X180447Y330218D01*
X180947Y329718D02*
X180447Y330218D01*
X180947Y329718D02*
X181447Y329218D01*
X181627Y329178D02*
X181447Y329218D01*
X181767Y329058D02*
X181627Y329178D01*
X181867Y328858D02*
X181767Y329058D01*
X181947Y328218D02*
X181867Y328858D01*
X181947Y328218D02*
X181967Y327858D01*
X181967D02*
X182027Y327578D01*
X182127Y327378D01*
X182127D02*
X182447Y327218D01*
X182947Y326718D02*
X182447Y327218D01*
X182947Y326718D02*
X183447Y326218D01*
X183742Y326153D02*
X183447Y326218D01*
X183850Y326081D02*
X183742Y326153D01*
X183947Y325885D02*
X183850Y326081D01*
X183947Y325885D02*
X183998Y325779D01*
X183998Y325779D02*
X184140Y325688D01*
X184140D02*
X184357Y325616D01*
X184947Y325551D01*
X185307Y325531D02*
X184947Y325551D01*
X185587Y325471D02*
X185307Y325531D01*
X185787Y325371D02*
X185587Y325471D01*
X185947Y325051D02*
X185787Y325371D01*
X185947Y325051D02*
X185984Y324880D01*
X185984D02*
X186091Y324741D01*
Y324741D02*
X186263Y324638D01*
X186263D02*
X186780Y324551D01*
X187066Y324529D02*
X186780Y324551D01*
X187297Y324465D02*
X187066Y324529D01*
X187469Y324361D02*
X187297Y324465D01*
X187613Y324051D02*
X187469Y324361D01*
X187613Y324051D02*
X187663Y323857D01*
X187663D02*
X187821Y323715D01*
X187821Y323715D02*
X188105Y323620D01*
X189113Y323551D01*
X189824Y323540D02*
X189113Y323551D01*
X190266Y323477D02*
X189824Y323540D01*
X190501Y323319D02*
X190266Y323477D01*
X190613Y322551D02*
X190501Y323319D01*
X190613Y322551D02*
X190633Y322191D01*
X190633D02*
X190693Y321911D01*
X190693Y321911D02*
X190794Y321711D01*
X191113Y321551D01*
X191308Y321502D02*
X191113Y321551D01*
X191449Y321343D02*
X191308Y321502D01*
X191544Y321059D02*
X191449Y321343D01*
X191613Y320051D02*
X191544Y321059D01*
X191613Y320051D02*
X191630Y319468D01*
X191630Y319468D02*
X191683Y319043D01*
X191778Y318759D01*
X192113Y318551D01*
X192294Y318511D02*
X192113Y318551D01*
X192434Y318391D02*
X192294Y318511D01*
X192534Y318191D02*
X192434Y318391D01*
X192613Y317551D02*
X192534Y318191D01*
X192613Y317551D02*
X192633Y317191D01*
X192633D02*
X192693Y316911D01*
X192693Y316911D02*
X192794Y316711D01*
X193114Y316551D01*
X193293Y316511D02*
X193114Y316551D01*
X193433Y316391D02*
X193293Y316511D01*
X193534Y316191D02*
X193433Y316391D01*
X193614Y315551D02*
X193534Y316191D01*
X193614Y315551D02*
X193633Y315191D01*
X193633D02*
X193693Y314911D01*
X193693Y314911D02*
X193793Y314711D01*
X194114Y314551D01*
X194293Y314511D02*
X194114Y314551D01*
X194433Y314391D02*
X194293Y314511D01*
X194534Y314191D02*
X194433Y314391D01*
X194614Y313551D02*
X194534Y314191D01*
X194614Y313551D02*
X194633Y313191D01*
X194633D02*
X194694Y312911D01*
X194694Y312911D02*
X194793Y312711D01*
X195114Y312551D01*
X195293Y312511D02*
X195114Y312551D01*
X195433Y312391D02*
X195293Y312511D01*
X195534Y312191D02*
X195433Y312391D01*
X195614Y311551D02*
X195534Y312191D01*
X195614Y311551D02*
X195633Y311191D01*
X195633D02*
X195694Y310911D01*
X195694Y310911D02*
X195793Y310711D01*
X196114Y310551D01*
X196293Y310511D02*
X196114Y310551D01*
X196433Y310391D02*
X196293Y310511D01*
X196534Y310191D02*
X196433Y310391D01*
X196614Y309551D02*
X196534Y310191D01*
X196614Y309551D02*
X196634Y309191D01*
X196634D02*
X196694Y308911D01*
X196694Y308911D02*
X196793Y308711D01*
X197114Y308551D01*
X197614Y308051D02*
X197114Y308551D01*
X197614Y308051D02*
X198114Y307551D01*
X198293Y307511D02*
X198114Y307551D01*
X198433Y307391D02*
X198293Y307511D01*
X198533Y307191D02*
X198433Y307391D01*
X198614Y306551D02*
X198533Y307191D01*
X198614Y306551D02*
X198634Y306191D01*
X198634D02*
X198694Y305911D01*
X198694Y305911D02*
X198793Y305711D01*
X199114Y305551D01*
X199285Y305514D02*
X199114Y305551D01*
X199424Y305407D02*
X199285Y305514D01*
X199527Y305235D02*
X199424Y305407D01*
X199613Y304718D02*
X199527Y305235D01*
X199613Y304718D02*
X199636Y304432D01*
Y304432D02*
X199700Y304201D01*
X199803Y304029D01*
X200114Y303885D01*
X200613Y303384D02*
X200114Y303885D01*
X200613Y303384D02*
X201114Y302885D01*
X201293Y302845D02*
X201114Y302885D01*
X201433Y302725D02*
X201293Y302845D01*
X201534Y302524D02*
X201433Y302725D01*
X201613Y301885D02*
X201534Y302524D01*
X201613Y301885D02*
X201634Y301524D01*
X201634Y301524D02*
X201694Y301244D01*
X201694D02*
X201794Y301045D01*
X202114Y300885D01*
X202613Y300384D02*
X202114Y300885D01*
X202613Y300384D02*
X203114Y299885D01*
X203293Y299845D02*
X203114Y299885D01*
X203433Y299725D02*
X203293Y299845D01*
X203534Y299524D02*
X203433Y299725D01*
X203613Y298885D02*
X203534Y299524D01*
X203613Y298885D02*
X203633Y298524D01*
X203633Y298524D02*
X203694Y298245D01*
X203694D02*
X203794Y298044D01*
X204114Y297884D01*
X204613Y297385D02*
X204114Y297884D01*
X204613Y297385D02*
X205114Y296884D01*
X205613Y296385D02*
X205114Y296884D01*
X205613Y296385D02*
X206114Y295884D01*
X206613Y295385D02*
X206114Y295884D01*
X206613Y295385D02*
X207114Y294884D01*
X207294Y294845D02*
X207114Y294884D01*
X207434Y294724D02*
X207294Y294845D01*
X207534Y294525D02*
X207434Y294724D01*
X207613Y293884D02*
X207534Y294525D01*
X207613Y293884D02*
X207631Y293569D01*
Y293569D02*
X207678Y293295D01*
Y293295D02*
X207750Y293078D01*
X207750D02*
X207947Y292884D01*
X208052Y292859D02*
X207947Y292884D01*
X208143Y292788D02*
X208052Y292859D01*
X208216Y292679D02*
X208143Y292788D01*
X208280Y292385D02*
X208216Y292679D01*
X208280Y292385D02*
X208780Y291884D01*
X209280Y291385D02*
X208780Y291884D01*
X209280Y291385D02*
X209780Y290884D01*
X210280Y290385D02*
X209780Y290884D01*
X210280Y290385D02*
X210780Y289884D01*
X211280Y289385D02*
X210780Y289884D01*
X211280Y289385D02*
X211780Y288884D01*
X212280Y288385D02*
X211780Y288884D01*
X212280Y288385D02*
X212780Y287884D01*
X213280Y287385D02*
X212780Y287884D01*
X213280Y287385D02*
X213780Y286884D01*
X214280Y286385D02*
X213780Y286884D01*
X214280Y286385D02*
X214780Y285884D01*
X215280Y285384D02*
X214780Y285884D01*
X215280Y285384D02*
X215780Y284885D01*
X216075Y284820D02*
X215780Y284885D01*
X216183Y284748D02*
X216075Y284820D01*
X216280Y284551D02*
X216183Y284748D01*
X216280Y284551D02*
X216306Y284446D01*
X216306D02*
X216377Y284354D01*
Y284354D02*
X216485Y284282D01*
X216485D02*
X216780Y284218D01*
X217280Y283718D02*
X216780Y284218D01*
X217280Y283718D02*
X217780Y283218D01*
X218280Y282718D02*
X217780Y283218D01*
X218280Y282718D02*
X218780Y282218D01*
X219280Y281718D02*
X218780Y282218D01*
X219280Y281718D02*
X219780Y281218D01*
X220000Y280938D02*
X219780Y281218D01*
X220145Y279826D02*
X220000Y280938D01*
X220230Y277469D02*
X220201Y278648D01*
X220145Y279825D01*
X218280Y253551D02*
X217475Y253536D01*
X217475D02*
X216904Y253487D01*
X216904Y253487D02*
X216536Y253395D01*
Y253395D02*
X216280Y253051D01*
X216194Y252840D02*
X216280Y253051D01*
X215880Y252697D02*
X216194Y252840D01*
X215260Y252608D02*
X215880Y252697D01*
X212780Y252551D02*
X214021Y252557D01*
X215260Y252608D01*
X212780Y252551D02*
X211307Y252538D01*
Y252538D02*
X210300Y252494D01*
Y252494D02*
X209680Y252405D01*
X209680Y252405D02*
X209280Y252051D01*
X209197Y251841D02*
X209280Y252051D01*
X208896Y251697D02*
X209197Y251841D01*
X208304Y251608D02*
X208896Y251697D01*
X205947Y251551D02*
X207126Y251557D01*
X208304Y251608D01*
X205947Y251551D02*
X204548Y251538D01*
X204548D02*
X203590Y251493D01*
Y251493D02*
X202997Y251405D01*
X202613Y251051D01*
X202545Y250845D02*
X202613Y251051D01*
X202309Y250702D02*
X202545Y250845D01*
X201857Y250612D02*
X202309Y250702D01*
X200114Y250551D02*
X200986Y250558D01*
X201857Y250612D01*
X200114Y250551D02*
X199085Y250537D01*
X198370Y250490D01*
X198370Y250490D02*
X197917Y250400D01*
Y250400D02*
X197614Y250051D01*
X197555Y249850D02*
X197614Y250051D01*
X197357Y249707D02*
X197555Y249850D01*
X196990Y249615D02*
X197357Y249707D01*
X195614Y249551D02*
X196990Y249615D01*
X195614Y249551D02*
X194808Y249536D01*
X194808D02*
X194237Y249487D01*
Y249487D02*
X193869Y249395D01*
X193869D02*
X193614Y249051D01*
X193555Y248850D02*
X193614Y249051D01*
X193358Y248707D02*
X193555Y248850D01*
X192990Y248615D02*
X193358Y248707D01*
X191613Y248551D02*
X192990Y248615D01*
X191613Y248551D02*
X190808Y248536D01*
X190808D02*
X190237Y248487D01*
Y248487D02*
X189869Y248395D01*
X189869D02*
X189613Y248051D01*
X189558Y247851D02*
X189613Y248051D01*
X189374Y247709D02*
X189558Y247851D01*
X189033Y247616D02*
X189374Y247709D01*
X187780Y247551D02*
X189033Y247616D01*
X187780Y247551D02*
X187049Y247536D01*
Y247536D02*
X186527Y247485D01*
Y247485D02*
X186187Y247393D01*
X185947Y247051D01*
X185898Y246857D02*
X185947Y247051D01*
X185739Y246715D02*
X185898Y246857D01*
X185455Y246620D02*
X185739Y246715D01*
X184447Y246551D02*
X185455Y246620D01*
X184447Y246551D02*
X183864Y246534D01*
X183439Y246482D01*
X183439Y246482D02*
X183155Y246387D01*
X182947Y246051D01*
X182888Y245849D02*
X182947Y246051D01*
X182691Y245707D02*
X182888Y245849D01*
X182323Y245615D02*
X182691Y245707D01*
X180947Y245551D02*
X182323Y245615D01*
X180947Y245551D02*
X180141Y245536D01*
X180141D02*
X179571Y245487D01*
Y245487D02*
X179203Y245395D01*
X178947Y245051D01*
X178898Y244857D02*
X178947Y245051D01*
X178739Y244715D02*
X178898Y244857D01*
X178455Y244620D02*
X178739Y244715D01*
X177447Y244551D02*
X178455Y244620D01*
X177447Y244551D02*
X176864Y244534D01*
X176439Y244482D01*
X176439Y244482D02*
X176155Y244387D01*
X175947Y244051D01*
X175907Y243871D02*
X175947Y244051D01*
X175787Y243731D02*
X175907Y243871D01*
X175587Y243631D02*
X175787Y243731D01*
X174947Y243551D02*
X175587Y243631D01*
X174947Y243551D02*
X174587Y243531D01*
X174587Y243531D02*
X174307Y243471D01*
X174307Y243471D02*
X174107Y243371D01*
X174107D02*
X173947Y243051D01*
X173898Y242857D02*
X173947Y243051D01*
X173739Y242715D02*
X173898Y242857D01*
X173455Y242620D02*
X173739Y242715D01*
X172447Y242551D02*
X173455Y242620D01*
X172447Y242551D02*
X171974Y242534D01*
Y242534D02*
X171562Y242486D01*
Y242486D02*
X171237Y242414D01*
Y242414D02*
X170947Y242217D01*
X170896Y242112D02*
X170947Y242217D01*
X170753Y242021D02*
X170896Y242112D01*
X170536Y241949D02*
X170753Y242021D01*
X169947Y241884D02*
X170536Y241949D01*
X169947Y241884D02*
X169587Y241864D01*
X169587Y241864D02*
X169307Y241804D01*
X169307Y241804D02*
X169107Y241704D01*
X169107D02*
X168947Y241384D01*
X168897Y241190D02*
X168947Y241384D01*
X168739Y241048D02*
X168897Y241190D01*
X168455Y240953D02*
X168739Y241048D01*
X167447Y240884D02*
X168455Y240953D01*
X167447Y240884D02*
X166864Y240867D01*
X166439Y240815D01*
X166439Y240815D02*
X166155Y240720D01*
X165947Y240384D01*
X165910Y240212D02*
X165947Y240384D01*
X165803Y240074D02*
X165910Y240212D01*
X165631Y239970D02*
X165803Y240074D01*
X165113Y239884D02*
X165631Y239970D01*
X165113Y239884D02*
X164828Y239862D01*
X164596Y239797D01*
X164424Y239694D01*
X164424Y239694D02*
X164280Y239384D01*
X164240Y239204D02*
X164280Y239384D01*
X164120Y239064D02*
X164240Y239204D01*
X163920Y238964D02*
X164120Y239064D01*
X163280Y238884D02*
X163920Y238964D01*
X163280Y238884D02*
X162920Y238864D01*
Y238864D02*
X162640Y238804D01*
X162640Y238804D02*
X162440Y238704D01*
X162440D02*
X162280Y238384D01*
X162240Y238204D02*
X162280Y238384D01*
X162120Y238064D02*
X162240Y238204D01*
X161920Y237964D02*
X162120Y238064D01*
X161280Y237884D02*
X161920Y237964D01*
X161280Y237884D02*
X160920Y237864D01*
Y237864D02*
X160640Y237804D01*
X160640Y237804D02*
X160440Y237704D01*
X160440D02*
X160280Y237384D01*
X159780Y236884D02*
X160280Y237384D01*
X159780Y236884D02*
X159280Y236384D01*
X159240Y236204D02*
X159280Y236384D01*
X159120Y236064D02*
X159240Y236204D01*
X158920Y235964D02*
X159120Y236064D01*
X158280Y235884D02*
X158920Y235964D01*
X158280Y235884D02*
X157920Y235864D01*
Y235864D02*
X157640Y235804D01*
X157640Y235804D02*
X157440Y235704D01*
X157440D02*
X157280Y235384D01*
X156780Y234884D02*
X157280Y235384D01*
X156780Y234884D02*
X156280Y234384D01*
X155780Y233884D02*
X156280Y234384D01*
X155780Y233884D02*
X155280Y233384D01*
X154780Y232884D02*
X155280Y233384D01*
X154780Y232884D02*
X154559Y232312D01*
X459236Y3965D02*
Y232311D01*
X44653Y3965D02*
X459236D01*
X349000Y232311D02*
X459236Y232311D01*
X44653Y3965D02*
Y232312D01*
X154890D01*
X346664Y233000D02*
X348000D01*
X280280Y253551D02*
X282280D01*
X280280D02*
Y267384D01*
X334613Y370551D02*
X335613D01*
Y372551D01*
X280290Y273459D02*
X280330Y277469D01*
X303947Y431551D02*
X309947D01*
Y433051D01*
X336266Y384439D02*
X336280Y381885D01*
X220280Y253551D02*
X220280Y267384D01*
X218280Y253551D02*
X220280D01*
X227324Y443540D02*
X229613Y443551D01*
X220230Y277469D02*
X220280Y267384D01*
M02*
